M48
INCH,TZ
T1C0.0118
T2C0.0157
T3C0.0236
T4C0.0276
T5C0.0394
T6C0.0433
%
G90
G05
T1
X65945Y-38455
X66060Y-36760
X66800Y-36480
X66850Y-40240
X67170Y-35550
X67660Y-36040
X67760Y-34660
X68230Y-38530
X68240Y-36840
X69000Y-38170
X69300Y-34660
X70040Y-35500
X70450Y-36350
X71350Y-38150
X71400Y-35500
X72000Y-42650
X72153Y-41300
X72400Y-33300
X72400Y-37550
X72450Y-41100
X72647Y-40800
X72700Y-37900
X72880Y-33280
X73000Y-38250
X73000Y-39250
X73300Y-33900
X73300Y-38600
X73600Y-33520
X73660Y-34400
X76700Y-38506
X78100Y-40600
X78898Y-38031
X79134Y-40551
X79528Y-41890
T2
X79095Y-30329
X79095Y-30663
X79095Y-30998
X79095Y-31333
X79095Y-31667
X79095Y-32002
X79095Y-32337
X79095Y-32671
X79627Y-30329
X79627Y-30663
X79627Y-30998
X79627Y-31333
X79627Y-31667
X79627Y-32002
X79627Y-32337
X79627Y-32671
T4
X64600Y-28700
X66013Y-42387
X66329Y-38455
X66480Y-29500
X66480Y-30350
X67100Y-33600
X67550Y-33600
X68000Y-30000
X68000Y-30450
X68000Y-30900
X68000Y-33600
X68520Y-35060
X68550Y-38950
X68900Y-40100
X69050Y-41600
X69250Y-30650
X70440Y-35440
X71341Y-30200
X71341Y-30659
X71344Y-28700
X72957Y-30343
X73700Y-30000
X74350Y-33450
X74400Y-34600
X74400Y-35050
X74400Y-35500
X74500Y-31100
X75400Y-36400
X75400Y-37100
X75480Y-40200
X75480Y-40960
X76400Y-30350
X76400Y-33050
X77100Y-34300
X77200Y-40200
X77900Y-34300
X78140Y-40120
T5
X62000Y-27000
X62000Y-46000
X62242Y-36488
X62242Y-37488
X62242Y-38488
X62242Y-39488
X62242Y-40488
X63000Y-27000
X63000Y-46000
X63242Y-36488
X63242Y-37488
X63242Y-38488
X63242Y-39488
X63242Y-40488
X64000Y-27000
X64000Y-46000
X65000Y-27000
X65000Y-46000
X66000Y-27000
X66000Y-46000
X67000Y-27000
X67000Y-46000
X68000Y-27000
X68000Y-46000
X69000Y-27000
X69000Y-46000
X70000Y-27000
X70000Y-46000
X70700Y-43700
X71000Y-27000
X71000Y-46000
X71700Y-43700
X72000Y-27000
X72000Y-46000
X72700Y-43700
X73000Y-27000
X73000Y-46000
X73700Y-43700
X74000Y-27000
X74000Y-46000
X75000Y-27000
X75000Y-46000
X76000Y-27000
X76000Y-46000
X77000Y-27000
X77000Y-46000
X78000Y-27000
X78000Y-46000
X79000Y-27000
X79000Y-46000
X80000Y-27000
X80000Y-46000
X81000Y-27000
X81000Y-46000
T6
X80050Y-34500
X80050Y-35500
X80050Y-39657
X80050Y-40657
T3
G00X79186Y-29797
M15
G01X79776Y-29797
M16
G05
G00X79186Y-33203
M15
G01X79776Y-33203
M16
G05
G00X80654Y-29797
M15
G01X80969Y-29797
M16
G05
G00X80654Y-33203
M15
G01X80969Y-33203
M16
G05
T5
G00X63150Y-32356
M15
G01X63150Y-33144
M16
G05
G00X63937Y-34600
M15
G01X64725Y-34600
M16
G05
G00X65512Y-32356
M15
G01X65512Y-33144
M16
G05
T0
M30
