G04 #@! TF.GenerationSoftware,KiCad,Pcbnew,(6.0.0)*
G04 #@! TF.CreationDate,2022-05-20T23:18:51+02:00*
G04 #@! TF.ProjectId,STM32F103_uC_v1,53544d33-3246-4313-9033-5f75435f7631,rev?*
G04 #@! TF.SameCoordinates,Original*
G04 #@! TF.FileFunction,Copper,L3,Inr*
G04 #@! TF.FilePolarity,Positive*
%FSLAX46Y46*%
G04 Gerber Fmt 4.6, Leading zero omitted, Abs format (unit mm)*
G04 Created by KiCad (PCBNEW (6.0.0)) date 2022-05-20 23:18:51*
%MOMM*%
%LPD*%
G01*
G04 APERTURE LIST*
G04 Aperture macros list*
%AMRoundRect*
0 Rectangle with rounded corners*
0 $1 Rounding radius*
0 $2 $3 $4 $5 $6 $7 $8 $9 X,Y pos of 4 corners*
0 Add a 4 corners polygon primitive as box body*
4,1,4,$2,$3,$4,$5,$6,$7,$8,$9,$2,$3,0*
0 Add four circle primitives for the rounded corners*
1,1,$1+$1,$2,$3*
1,1,$1+$1,$4,$5*
1,1,$1+$1,$6,$7*
1,1,$1+$1,$8,$9*
0 Add four rect primitives between the rounded corners*
20,1,$1+$1,$2,$3,$4,$5,0*
20,1,$1+$1,$4,$5,$6,$7,0*
20,1,$1+$1,$6,$7,$8,$9,0*
20,1,$1+$1,$8,$9,$2,$3,0*%
G04 Aperture macros list end*
G04 #@! TA.AperFunction,ComponentPad*
%ADD10R,3.500000X3.500000*%
G04 #@! TD*
G04 #@! TA.AperFunction,ComponentPad*
%ADD11RoundRect,0.750000X-0.750000X-1.000000X0.750000X-1.000000X0.750000X1.000000X-0.750000X1.000000X0*%
G04 #@! TD*
G04 #@! TA.AperFunction,ComponentPad*
%ADD12RoundRect,0.875000X-0.875000X-0.875000X0.875000X-0.875000X0.875000X0.875000X-0.875000X0.875000X0*%
G04 #@! TD*
G04 #@! TA.AperFunction,ComponentPad*
%ADD13R,2.200000X2.200000*%
G04 #@! TD*
G04 #@! TA.AperFunction,ComponentPad*
%ADD14C,2.200000*%
G04 #@! TD*
G04 #@! TA.AperFunction,ComponentPad*
%ADD15R,1.700000X1.700000*%
G04 #@! TD*
G04 #@! TA.AperFunction,ComponentPad*
%ADD16O,1.700000X1.700000*%
G04 #@! TD*
G04 #@! TA.AperFunction,ComponentPad*
%ADD17C,0.700000*%
G04 #@! TD*
G04 #@! TA.AperFunction,ComponentPad*
%ADD18O,1.700000X0.900000*%
G04 #@! TD*
G04 #@! TA.AperFunction,ComponentPad*
%ADD19O,2.400000X0.900000*%
G04 #@! TD*
G04 #@! TA.AperFunction,ViaPad*
%ADD20C,0.648000*%
G04 #@! TD*
G04 #@! TA.AperFunction,ViaPad*
%ADD21C,1.048000*%
G04 #@! TD*
G04 #@! TA.AperFunction,Conductor*
%ADD22C,0.600000*%
G04 #@! TD*
G04 #@! TA.AperFunction,Conductor*
%ADD23C,1.000000*%
G04 #@! TD*
G04 APERTURE END LIST*
D10*
X166401000Y-83185000D03*
D11*
X160401000Y-83185000D03*
D12*
X163401000Y-87885000D03*
D13*
X203327000Y-90170000D03*
D14*
X203327000Y-87630000D03*
D15*
X158095000Y-102840000D03*
D16*
X160635000Y-102840000D03*
X158095000Y-100300000D03*
X160635000Y-100300000D03*
X158095000Y-97760000D03*
X160635000Y-97760000D03*
X158095000Y-95220000D03*
X160635000Y-95220000D03*
X158095000Y-92680000D03*
X160635000Y-92680000D03*
D13*
X203327000Y-103270000D03*
D14*
X203327000Y-100730000D03*
D17*
X200902200Y-82985000D03*
X200902200Y-82135000D03*
X200902200Y-81285000D03*
X200902200Y-80435000D03*
X200902200Y-79585000D03*
X200902200Y-78735000D03*
X200902200Y-77885000D03*
X200902200Y-77035000D03*
X202252200Y-77035000D03*
X202252200Y-77885000D03*
X202252200Y-78735000D03*
X202252200Y-79585000D03*
X202252200Y-80435000D03*
X202252200Y-81285000D03*
X202252200Y-82135000D03*
X202252200Y-82985000D03*
D18*
X205262200Y-84335000D03*
D19*
X201882200Y-84335000D03*
D18*
X205262200Y-75685000D03*
D19*
X201882200Y-75685000D03*
D15*
X187198000Y-110998000D03*
D16*
X184658000Y-110998000D03*
X182118000Y-110998000D03*
X179578000Y-110998000D03*
D15*
X205740000Y-68580000D03*
D16*
X203200000Y-68580000D03*
X200660000Y-68580000D03*
X198120000Y-68580000D03*
X195580000Y-68580000D03*
X193040000Y-68580000D03*
X190500000Y-68580000D03*
X187960000Y-68580000D03*
X185420000Y-68580000D03*
X182880000Y-68580000D03*
X180340000Y-68580000D03*
X177800000Y-68580000D03*
X175260000Y-68580000D03*
X172720000Y-68580000D03*
X170180000Y-68580000D03*
X167640000Y-68580000D03*
X165100000Y-68580000D03*
X162560000Y-68580000D03*
X160020000Y-68580000D03*
X157480000Y-68580000D03*
D15*
X157480000Y-116840000D03*
D16*
X160020000Y-116840000D03*
X162560000Y-116840000D03*
X165100000Y-116840000D03*
X167640000Y-116840000D03*
X170180000Y-116840000D03*
X172720000Y-116840000D03*
X175260000Y-116840000D03*
X177800000Y-116840000D03*
X180340000Y-116840000D03*
X182880000Y-116840000D03*
X185420000Y-116840000D03*
X187960000Y-116840000D03*
X190500000Y-116840000D03*
X193040000Y-116840000D03*
X195580000Y-116840000D03*
X198120000Y-116840000D03*
X200660000Y-116840000D03*
X203200000Y-116840000D03*
X205740000Y-116840000D03*
D20*
X200400000Y-96600000D03*
X175260000Y-96951800D03*
D21*
X175895000Y-77851000D03*
D20*
X170611800Y-90297000D03*
D21*
X178917600Y-90017600D03*
X191516000Y-94234000D03*
X168475000Y-97675000D03*
D20*
X169799000Y-102209600D03*
X202000000Y-106400000D03*
D21*
X174040800Y-89052400D03*
D20*
X167792400Y-93370400D03*
D21*
X167672000Y-107664000D03*
D20*
X171856400Y-91541600D03*
X173304200Y-97866200D03*
D21*
X188849000Y-84963000D03*
X187198000Y-76200000D03*
D20*
X172110400Y-88036400D03*
X176022000Y-88036400D03*
X177901600Y-90170000D03*
D21*
X191719200Y-104038400D03*
X197866000Y-87122000D03*
X168859200Y-77089000D03*
X174117000Y-98933000D03*
D20*
X167501000Y-97675000D03*
D21*
X185310342Y-77071658D03*
D20*
X173329600Y-93573600D03*
X169672000Y-92659200D03*
X201000000Y-103000000D03*
X185420000Y-99695000D03*
X181229000Y-96901000D03*
D21*
X181205921Y-76708000D03*
X181205921Y-77874079D03*
X191516000Y-92456000D03*
X195834000Y-87122000D03*
X172720000Y-85344000D03*
X172720000Y-77343000D03*
X196088000Y-102108000D03*
D20*
X181356000Y-90170000D03*
D21*
X175387000Y-105664000D03*
X188976000Y-90170000D03*
X194056000Y-77089000D03*
X170434000Y-85344000D03*
X188976000Y-89027000D03*
X191719200Y-102108000D03*
X171577000Y-85344000D03*
D20*
X178943000Y-92329000D03*
D21*
X172720000Y-78486000D03*
X172720000Y-76200000D03*
X188976000Y-87884000D03*
X181213500Y-72898000D03*
X194056000Y-83947000D03*
X168859200Y-74930000D03*
X198475600Y-101904800D03*
D20*
X194818000Y-97806000D03*
X198374000Y-103124000D03*
X182880000Y-108331000D03*
D21*
X189230000Y-78994000D03*
X175006000Y-101854000D03*
X164084000Y-72898000D03*
D20*
X183269500Y-104902000D03*
X184023000Y-104394000D03*
X184522500Y-103632000D03*
X186182000Y-98044000D03*
X185420000Y-97155000D03*
X184658000Y-96266000D03*
X183896000Y-95377000D03*
X187096400Y-87376000D03*
X186944000Y-85140800D03*
X186182000Y-86106000D03*
X185115200Y-84531200D03*
X183896000Y-84582000D03*
D22*
X200902200Y-77885000D02*
X200245000Y-77885000D01*
X199771000Y-78359000D02*
X199771000Y-81661000D01*
X200245000Y-77885000D02*
X199771000Y-78359000D01*
X199771000Y-81661000D02*
X200245000Y-82135000D01*
X200245000Y-82135000D02*
X200902200Y-82135000D01*
X200902200Y-82135000D02*
X202252200Y-82135000D01*
X200902200Y-77885000D02*
X202252200Y-77885000D01*
D23*
X162814000Y-71374000D02*
X160020000Y-68580000D01*
X185674000Y-71374000D02*
X162814000Y-71374000D01*
X189230000Y-78994000D02*
X189230000Y-74930000D01*
X189230000Y-74930000D02*
X185674000Y-71374000D01*
X167259000Y-103505000D02*
X164592000Y-100838000D01*
X175006000Y-101854000D02*
X173355000Y-103505000D01*
X164592000Y-100838000D02*
X164592000Y-100076000D01*
X157734000Y-81534000D02*
X164084000Y-75184000D01*
X164084000Y-75184000D02*
X164084000Y-72898000D01*
X173355000Y-103505000D02*
X167259000Y-103505000D01*
X164567000Y-100051000D02*
X164567000Y-93701000D01*
X164592000Y-93726000D02*
X157734000Y-86868000D01*
X157734000Y-86868000D02*
X157734000Y-81534000D01*
G04 #@! TA.AperFunction,Conductor*
G36*
X199911586Y-82941954D02*
G01*
X199992368Y-82995930D01*
X200046344Y-83076712D01*
X200063934Y-83145973D01*
X200065703Y-83162803D01*
X200120950Y-83332835D01*
X200210341Y-83487665D01*
X200261384Y-83544353D01*
X200278233Y-83563066D01*
X200327908Y-83646562D01*
X200341850Y-83742711D01*
X200316609Y-83839615D01*
X200249698Y-83975598D01*
X200236719Y-84001974D01*
X200233541Y-84014173D01*
X200233541Y-84014174D01*
X200212241Y-84095945D01*
X200188045Y-84188837D01*
X200187385Y-84201431D01*
X200179619Y-84349621D01*
X200177939Y-84381671D01*
X200179826Y-84394148D01*
X200179826Y-84394149D01*
X200185323Y-84430497D01*
X200206814Y-84572599D01*
X200211170Y-84584439D01*
X200211171Y-84584442D01*
X200223637Y-84618324D01*
X200273490Y-84753821D01*
X200300257Y-84796992D01*
X200344534Y-84868402D01*
X200375245Y-84917934D01*
X200383907Y-84927094D01*
X200383908Y-84927095D01*
X200443749Y-84990375D01*
X200507921Y-85058235D01*
X200666098Y-85168991D01*
X200843315Y-85245680D01*
X201032333Y-85285168D01*
X201038668Y-85285500D01*
X202680459Y-85285500D01*
X202686725Y-85284863D01*
X202686735Y-85284863D01*
X202777784Y-85275614D01*
X202824310Y-85270888D01*
X203008573Y-85213144D01*
X203177461Y-85119528D01*
X203324075Y-84993864D01*
X203442427Y-84841286D01*
X203525367Y-84672729D01*
X203584443Y-84595600D01*
X203668539Y-84546949D01*
X203764852Y-84534184D01*
X203858719Y-84559247D01*
X203935849Y-84618324D01*
X203982469Y-84696687D01*
X204003490Y-84753821D01*
X204030257Y-84796992D01*
X204074534Y-84868402D01*
X204105245Y-84917934D01*
X204113907Y-84927094D01*
X204113908Y-84927095D01*
X204173749Y-84990375D01*
X204237921Y-85058235D01*
X204396098Y-85168991D01*
X204573315Y-85245680D01*
X204762333Y-85285168D01*
X204768668Y-85285500D01*
X205710459Y-85285500D01*
X205716725Y-85284863D01*
X205716735Y-85284863D01*
X205807784Y-85275614D01*
X205854310Y-85270888D01*
X206038573Y-85213144D01*
X206140286Y-85156764D01*
X206232812Y-85127146D01*
X206329633Y-85135191D01*
X206416006Y-85179675D01*
X206478780Y-85253827D01*
X206508399Y-85346357D01*
X206510000Y-85374545D01*
X206510000Y-86391620D01*
X206491046Y-86486908D01*
X206437070Y-86567690D01*
X206356288Y-86621666D01*
X206261000Y-86640620D01*
X206185711Y-86628965D01*
X206098073Y-86601165D01*
X206098070Y-86601164D01*
X206086468Y-86597484D01*
X206049158Y-86593299D01*
X205933056Y-86580276D01*
X205933052Y-86580276D01*
X205926136Y-86579500D01*
X205815159Y-86579500D01*
X205809116Y-86580093D01*
X205809106Y-86580093D01*
X205720167Y-86588814D01*
X205661970Y-86594520D01*
X205464749Y-86654065D01*
X205282849Y-86750782D01*
X205123200Y-86880989D01*
X205115440Y-86890369D01*
X205112108Y-86893678D01*
X205031138Y-86947372D01*
X204935785Y-86965993D01*
X204840563Y-86946707D01*
X204759971Y-86892449D01*
X204724354Y-86847107D01*
X204625836Y-86686341D01*
X204608205Y-86665697D01*
X204468580Y-86502218D01*
X204462224Y-86494776D01*
X204335427Y-86386481D01*
X204278092Y-86337512D01*
X204278089Y-86337510D01*
X204270659Y-86331164D01*
X204091494Y-86221371D01*
X204064210Y-86204651D01*
X204064205Y-86204648D01*
X204055859Y-86199534D01*
X203823111Y-86103127D01*
X203813604Y-86100844D01*
X203813599Y-86100843D01*
X203711145Y-86076246D01*
X203578148Y-86044317D01*
X203327000Y-86024551D01*
X203075852Y-86044317D01*
X202942855Y-86076246D01*
X202840401Y-86100843D01*
X202840396Y-86100844D01*
X202830889Y-86103127D01*
X202598141Y-86199534D01*
X202589795Y-86204648D01*
X202589790Y-86204651D01*
X202562506Y-86221371D01*
X202383341Y-86331164D01*
X202375911Y-86337510D01*
X202375908Y-86337512D01*
X202318573Y-86386481D01*
X202191776Y-86494776D01*
X202185420Y-86502218D01*
X202045796Y-86665697D01*
X202028164Y-86686341D01*
X201983624Y-86759024D01*
X201901651Y-86892790D01*
X201901648Y-86892795D01*
X201896534Y-86901141D01*
X201800127Y-87133889D01*
X201797844Y-87143396D01*
X201797843Y-87143401D01*
X201783383Y-87203632D01*
X201741317Y-87378852D01*
X201721551Y-87630000D01*
X201741317Y-87881148D01*
X201769794Y-87999765D01*
X201786445Y-88069119D01*
X201800127Y-88126111D01*
X201896534Y-88358859D01*
X201919384Y-88396147D01*
X201953011Y-88487293D01*
X201949198Y-88584374D01*
X201908524Y-88672605D01*
X201883447Y-88701967D01*
X201869454Y-88712454D01*
X201783474Y-88827176D01*
X201770832Y-88860900D01*
X201753713Y-88906566D01*
X201733149Y-88961420D01*
X201726500Y-89022623D01*
X201726501Y-91317376D01*
X201733149Y-91378580D01*
X201783474Y-91512824D01*
X201869454Y-91627546D01*
X201984176Y-91713526D01*
X202000787Y-91719753D01*
X202103804Y-91758372D01*
X202103805Y-91758372D01*
X202118420Y-91763851D01*
X202179623Y-91770500D01*
X203326233Y-91770500D01*
X204474376Y-91770499D01*
X204535580Y-91763851D01*
X204669824Y-91713526D01*
X204784546Y-91627546D01*
X204870526Y-91512824D01*
X204910536Y-91406097D01*
X204915372Y-91393196D01*
X204915372Y-91393195D01*
X204920851Y-91378580D01*
X204927500Y-91317377D01*
X204927500Y-91273375D01*
X204946454Y-91178087D01*
X205000430Y-91097305D01*
X205081212Y-91043329D01*
X205176500Y-91024375D01*
X205271788Y-91043329D01*
X205296456Y-91055174D01*
X205436696Y-91132271D01*
X205451162Y-91140224D01*
X205462756Y-91143902D01*
X205462761Y-91143904D01*
X205617839Y-91193097D01*
X205647532Y-91202516D01*
X205659630Y-91203873D01*
X205800944Y-91219724D01*
X205800948Y-91219724D01*
X205807864Y-91220500D01*
X205918841Y-91220500D01*
X205924884Y-91219907D01*
X205924894Y-91219907D01*
X206013833Y-91211186D01*
X206072030Y-91205480D01*
X206189032Y-91170155D01*
X206285730Y-91160758D01*
X206378665Y-91189082D01*
X206453686Y-91250815D01*
X206499372Y-91336557D01*
X206510000Y-91408527D01*
X206510000Y-99491620D01*
X206491046Y-99586908D01*
X206437070Y-99667690D01*
X206356288Y-99721666D01*
X206261000Y-99740620D01*
X206185711Y-99728965D01*
X206098073Y-99701165D01*
X206098070Y-99701164D01*
X206086468Y-99697484D01*
X206074370Y-99696127D01*
X205933056Y-99680276D01*
X205933052Y-99680276D01*
X205926136Y-99679500D01*
X205815159Y-99679500D01*
X205809116Y-99680093D01*
X205809106Y-99680093D01*
X205720167Y-99688814D01*
X205661970Y-99694520D01*
X205464749Y-99754065D01*
X205282849Y-99850782D01*
X205273410Y-99858481D01*
X205273409Y-99858481D01*
X205238080Y-99887295D01*
X205123200Y-99980989D01*
X205115440Y-99990369D01*
X205112108Y-99993678D01*
X205031138Y-100047372D01*
X204935785Y-100065993D01*
X204840563Y-100046707D01*
X204759971Y-99992449D01*
X204724354Y-99947107D01*
X204625836Y-99786341D01*
X204603148Y-99759776D01*
X204485622Y-99622171D01*
X204462224Y-99594776D01*
X204341444Y-99491620D01*
X204278092Y-99437512D01*
X204278089Y-99437510D01*
X204270659Y-99431164D01*
X204150937Y-99357798D01*
X204064210Y-99304651D01*
X204064205Y-99304648D01*
X204055859Y-99299534D01*
X203823111Y-99203127D01*
X203813604Y-99200844D01*
X203813599Y-99200843D01*
X203696081Y-99172630D01*
X203578148Y-99144317D01*
X203327000Y-99124551D01*
X203075852Y-99144317D01*
X202957919Y-99172630D01*
X202840401Y-99200843D01*
X202840396Y-99200844D01*
X202830889Y-99203127D01*
X202598141Y-99299534D01*
X202589795Y-99304648D01*
X202589790Y-99304651D01*
X202503063Y-99357798D01*
X202383341Y-99431164D01*
X202375911Y-99437510D01*
X202375908Y-99437512D01*
X202312556Y-99491620D01*
X202191776Y-99594776D01*
X202168378Y-99622171D01*
X202050853Y-99759776D01*
X202028164Y-99786341D01*
X201974579Y-99873784D01*
X201901651Y-99992790D01*
X201901648Y-99992795D01*
X201896534Y-100001141D01*
X201800127Y-100233889D01*
X201797844Y-100243396D01*
X201797843Y-100243401D01*
X201788117Y-100283914D01*
X201741317Y-100478852D01*
X201721551Y-100730000D01*
X201741317Y-100981148D01*
X201767767Y-101091321D01*
X201788838Y-101179087D01*
X201800127Y-101226111D01*
X201896534Y-101458859D01*
X201919384Y-101496147D01*
X201953011Y-101587293D01*
X201949198Y-101684374D01*
X201908524Y-101772605D01*
X201883447Y-101801967D01*
X201869454Y-101812454D01*
X201783474Y-101927176D01*
X201770827Y-101960913D01*
X201742217Y-102037232D01*
X201733149Y-102061420D01*
X201731463Y-102076938D01*
X201727852Y-102092126D01*
X201725004Y-102091449D01*
X201703324Y-102160401D01*
X201640934Y-102234876D01*
X201554792Y-102279806D01*
X201458014Y-102288352D01*
X201383645Y-102268282D01*
X201314472Y-102237484D01*
X201256188Y-102211534D01*
X201151042Y-102189185D01*
X201099422Y-102178213D01*
X201086658Y-102175500D01*
X200913342Y-102175500D01*
X200900578Y-102178213D01*
X200848958Y-102189185D01*
X200743812Y-102211534D01*
X200585479Y-102282029D01*
X200574928Y-102289694D01*
X200574924Y-102289697D01*
X200484591Y-102355328D01*
X200445263Y-102383902D01*
X200329291Y-102512701D01*
X200322766Y-102524003D01*
X200322765Y-102524004D01*
X200249156Y-102651497D01*
X200249154Y-102651502D01*
X200242632Y-102662798D01*
X200238601Y-102675205D01*
X200238599Y-102675209D01*
X200193107Y-102815222D01*
X200189075Y-102827632D01*
X200187711Y-102840605D01*
X200187711Y-102840607D01*
X200186636Y-102850835D01*
X200170958Y-103000000D01*
X200172322Y-103012977D01*
X200180962Y-103095176D01*
X200189075Y-103172368D01*
X200193107Y-103184776D01*
X200193107Y-103184778D01*
X200237839Y-103322449D01*
X200242632Y-103337202D01*
X200249154Y-103348498D01*
X200249156Y-103348503D01*
X200322765Y-103475996D01*
X200329291Y-103487299D01*
X200445263Y-103616098D01*
X200475294Y-103637917D01*
X200574924Y-103710303D01*
X200574928Y-103710306D01*
X200585479Y-103717971D01*
X200743812Y-103788466D01*
X200913342Y-103824500D01*
X201086658Y-103824500D01*
X201256188Y-103788466D01*
X201376224Y-103735022D01*
X201470983Y-103713580D01*
X201566735Y-103730033D01*
X201648901Y-103781877D01*
X201704974Y-103861218D01*
X201726501Y-103962495D01*
X201726501Y-104417376D01*
X201733149Y-104478580D01*
X201783474Y-104612824D01*
X201869454Y-104727546D01*
X201984176Y-104813526D01*
X202000787Y-104819753D01*
X202103804Y-104858372D01*
X202103805Y-104858372D01*
X202118420Y-104863851D01*
X202179623Y-104870500D01*
X203326233Y-104870500D01*
X204474376Y-104870499D01*
X204535580Y-104863851D01*
X204669824Y-104813526D01*
X204784546Y-104727546D01*
X204870526Y-104612824D01*
X204892805Y-104553393D01*
X204915372Y-104493196D01*
X204915372Y-104493195D01*
X204920851Y-104478580D01*
X204927500Y-104417377D01*
X204927500Y-104373375D01*
X204946454Y-104278087D01*
X205000430Y-104197305D01*
X205081212Y-104143329D01*
X205176500Y-104124375D01*
X205271788Y-104143329D01*
X205296456Y-104155174D01*
X205422082Y-104224237D01*
X205451162Y-104240224D01*
X205462756Y-104243902D01*
X205462761Y-104243904D01*
X205633125Y-104297946D01*
X205647532Y-104302516D01*
X205659630Y-104303873D01*
X205800944Y-104319724D01*
X205800948Y-104319724D01*
X205807864Y-104320500D01*
X205918841Y-104320500D01*
X205924884Y-104319907D01*
X205924894Y-104319907D01*
X206013833Y-104311186D01*
X206072030Y-104305480D01*
X206189032Y-104270155D01*
X206285730Y-104260758D01*
X206378665Y-104289082D01*
X206453686Y-104350815D01*
X206499372Y-104436557D01*
X206510000Y-104508527D01*
X206510000Y-115323676D01*
X206491046Y-115418964D01*
X206437070Y-115499746D01*
X206356288Y-115553722D01*
X206261000Y-115572676D01*
X206196555Y-115564192D01*
X206071225Y-115530611D01*
X205975408Y-115504937D01*
X205964575Y-115503989D01*
X205964574Y-115503989D01*
X205750835Y-115485289D01*
X205740000Y-115484341D01*
X205729165Y-115485289D01*
X205515426Y-115503989D01*
X205515425Y-115503989D01*
X205504592Y-115504937D01*
X205276337Y-115566097D01*
X205266484Y-115570691D01*
X205266480Y-115570693D01*
X205072027Y-115661369D01*
X205062171Y-115665965D01*
X204868599Y-115801505D01*
X204701505Y-115968599D01*
X204673968Y-116007926D01*
X204603789Y-116075109D01*
X204513240Y-116110322D01*
X204416108Y-116108203D01*
X204327181Y-116069075D01*
X204266032Y-116007926D01*
X204238495Y-115968599D01*
X204071401Y-115801505D01*
X204062503Y-115795275D01*
X204062500Y-115795272D01*
X203886729Y-115672196D01*
X203886728Y-115672195D01*
X203877830Y-115665965D01*
X203867985Y-115661374D01*
X203867983Y-115661373D01*
X203783146Y-115621813D01*
X203663663Y-115566097D01*
X203653165Y-115563284D01*
X203653162Y-115563283D01*
X203549536Y-115535517D01*
X203435408Y-115504937D01*
X203424575Y-115503989D01*
X203424574Y-115503989D01*
X203210835Y-115485289D01*
X203200000Y-115484341D01*
X203189165Y-115485289D01*
X202975426Y-115503989D01*
X202975425Y-115503989D01*
X202964592Y-115504937D01*
X202736337Y-115566097D01*
X202726484Y-115570691D01*
X202726480Y-115570693D01*
X202532027Y-115661369D01*
X202522171Y-115665965D01*
X202328599Y-115801505D01*
X202161505Y-115968599D01*
X202133968Y-116007926D01*
X202063789Y-116075109D01*
X201973240Y-116110322D01*
X201876108Y-116108203D01*
X201787181Y-116069075D01*
X201726032Y-116007926D01*
X201698495Y-115968599D01*
X201531401Y-115801505D01*
X201522503Y-115795275D01*
X201522500Y-115795272D01*
X201346729Y-115672196D01*
X201346728Y-115672195D01*
X201337830Y-115665965D01*
X201327985Y-115661374D01*
X201327983Y-115661373D01*
X201243146Y-115621813D01*
X201123663Y-115566097D01*
X201113165Y-115563284D01*
X201113162Y-115563283D01*
X201009536Y-115535517D01*
X200895408Y-115504937D01*
X200884575Y-115503989D01*
X200884574Y-115503989D01*
X200670835Y-115485289D01*
X200660000Y-115484341D01*
X200649165Y-115485289D01*
X200435426Y-115503989D01*
X200435425Y-115503989D01*
X200424592Y-115504937D01*
X200196337Y-115566097D01*
X200186484Y-115570691D01*
X200186480Y-115570693D01*
X199992027Y-115661369D01*
X199982171Y-115665965D01*
X199788599Y-115801505D01*
X199621505Y-115968599D01*
X199593968Y-116007926D01*
X199523789Y-116075109D01*
X199433240Y-116110322D01*
X199336108Y-116108203D01*
X199247181Y-116069075D01*
X199186032Y-116007926D01*
X199158495Y-115968599D01*
X198991401Y-115801505D01*
X198982503Y-115795275D01*
X198982500Y-115795272D01*
X198806729Y-115672196D01*
X198806728Y-115672195D01*
X198797830Y-115665965D01*
X198787985Y-115661374D01*
X198787983Y-115661373D01*
X198703146Y-115621813D01*
X198583663Y-115566097D01*
X198573165Y-115563284D01*
X198573162Y-115563283D01*
X198469536Y-115535517D01*
X198355408Y-115504937D01*
X198344575Y-115503989D01*
X198344574Y-115503989D01*
X198130835Y-115485289D01*
X198120000Y-115484341D01*
X198109165Y-115485289D01*
X197895426Y-115503989D01*
X197895425Y-115503989D01*
X197884592Y-115504937D01*
X197656337Y-115566097D01*
X197646484Y-115570691D01*
X197646480Y-115570693D01*
X197452027Y-115661369D01*
X197442171Y-115665965D01*
X197248599Y-115801505D01*
X197081505Y-115968599D01*
X197053968Y-116007926D01*
X196983789Y-116075109D01*
X196893240Y-116110322D01*
X196796108Y-116108203D01*
X196707181Y-116069075D01*
X196646032Y-116007926D01*
X196618495Y-115968599D01*
X196451401Y-115801505D01*
X196442503Y-115795275D01*
X196442500Y-115795272D01*
X196266729Y-115672196D01*
X196266728Y-115672195D01*
X196257830Y-115665965D01*
X196247985Y-115661374D01*
X196247983Y-115661373D01*
X196163146Y-115621813D01*
X196043663Y-115566097D01*
X196033165Y-115563284D01*
X196033162Y-115563283D01*
X195929536Y-115535517D01*
X195815408Y-115504937D01*
X195804575Y-115503989D01*
X195804574Y-115503989D01*
X195590835Y-115485289D01*
X195580000Y-115484341D01*
X195569165Y-115485289D01*
X195355426Y-115503989D01*
X195355425Y-115503989D01*
X195344592Y-115504937D01*
X195116337Y-115566097D01*
X195106484Y-115570691D01*
X195106480Y-115570693D01*
X194912027Y-115661369D01*
X194902171Y-115665965D01*
X194708599Y-115801505D01*
X194541505Y-115968599D01*
X194513968Y-116007926D01*
X194443789Y-116075109D01*
X194353240Y-116110322D01*
X194256108Y-116108203D01*
X194167181Y-116069075D01*
X194106032Y-116007926D01*
X194078495Y-115968599D01*
X193911401Y-115801505D01*
X193902503Y-115795275D01*
X193902500Y-115795272D01*
X193726729Y-115672196D01*
X193726728Y-115672195D01*
X193717830Y-115665965D01*
X193707985Y-115661374D01*
X193707983Y-115661373D01*
X193623146Y-115621813D01*
X193503663Y-115566097D01*
X193493165Y-115563284D01*
X193493162Y-115563283D01*
X193389536Y-115535517D01*
X193275408Y-115504937D01*
X193264575Y-115503989D01*
X193264574Y-115503989D01*
X193050835Y-115485289D01*
X193040000Y-115484341D01*
X193029165Y-115485289D01*
X192815426Y-115503989D01*
X192815425Y-115503989D01*
X192804592Y-115504937D01*
X192576337Y-115566097D01*
X192566484Y-115570691D01*
X192566480Y-115570693D01*
X192372027Y-115661369D01*
X192362171Y-115665965D01*
X192168599Y-115801505D01*
X192001505Y-115968599D01*
X191973968Y-116007926D01*
X191903789Y-116075109D01*
X191813240Y-116110322D01*
X191716108Y-116108203D01*
X191627181Y-116069075D01*
X191566032Y-116007926D01*
X191538495Y-115968599D01*
X191371401Y-115801505D01*
X191362503Y-115795275D01*
X191362500Y-115795272D01*
X191186729Y-115672196D01*
X191186728Y-115672195D01*
X191177830Y-115665965D01*
X191167985Y-115661374D01*
X191167983Y-115661373D01*
X191083146Y-115621813D01*
X190963663Y-115566097D01*
X190953165Y-115563284D01*
X190953162Y-115563283D01*
X190849536Y-115535517D01*
X190735408Y-115504937D01*
X190724575Y-115503989D01*
X190724574Y-115503989D01*
X190510835Y-115485289D01*
X190500000Y-115484341D01*
X190489165Y-115485289D01*
X190275426Y-115503989D01*
X190275425Y-115503989D01*
X190264592Y-115504937D01*
X190036337Y-115566097D01*
X190026484Y-115570691D01*
X190026480Y-115570693D01*
X189832027Y-115661369D01*
X189822171Y-115665965D01*
X189628599Y-115801505D01*
X189461505Y-115968599D01*
X189433968Y-116007926D01*
X189363789Y-116075109D01*
X189273240Y-116110322D01*
X189176108Y-116108203D01*
X189087181Y-116069075D01*
X189026032Y-116007926D01*
X188998495Y-115968599D01*
X188831401Y-115801505D01*
X188822503Y-115795275D01*
X188822500Y-115795272D01*
X188646729Y-115672196D01*
X188646728Y-115672195D01*
X188637830Y-115665965D01*
X188627985Y-115661374D01*
X188627983Y-115661373D01*
X188543146Y-115621813D01*
X188423663Y-115566097D01*
X188413165Y-115563284D01*
X188413162Y-115563283D01*
X188309536Y-115535517D01*
X188195408Y-115504937D01*
X188184575Y-115503989D01*
X188184574Y-115503989D01*
X187970835Y-115485289D01*
X187960000Y-115484341D01*
X187949165Y-115485289D01*
X187735426Y-115503989D01*
X187735425Y-115503989D01*
X187724592Y-115504937D01*
X187496337Y-115566097D01*
X187486484Y-115570691D01*
X187486480Y-115570693D01*
X187292027Y-115661369D01*
X187282171Y-115665965D01*
X187088599Y-115801505D01*
X186921505Y-115968599D01*
X186893968Y-116007926D01*
X186823789Y-116075109D01*
X186733240Y-116110322D01*
X186636108Y-116108203D01*
X186547181Y-116069075D01*
X186486032Y-116007926D01*
X186458495Y-115968599D01*
X186291401Y-115801505D01*
X186282503Y-115795275D01*
X186282500Y-115795272D01*
X186106729Y-115672196D01*
X186106728Y-115672195D01*
X186097830Y-115665965D01*
X186087985Y-115661374D01*
X186087983Y-115661373D01*
X186003146Y-115621813D01*
X185883663Y-115566097D01*
X185873165Y-115563284D01*
X185873162Y-115563283D01*
X185769536Y-115535517D01*
X185655408Y-115504937D01*
X185644575Y-115503989D01*
X185644574Y-115503989D01*
X185430835Y-115485289D01*
X185420000Y-115484341D01*
X185409165Y-115485289D01*
X185195426Y-115503989D01*
X185195425Y-115503989D01*
X185184592Y-115504937D01*
X184956337Y-115566097D01*
X184946484Y-115570691D01*
X184946480Y-115570693D01*
X184752027Y-115661369D01*
X184742171Y-115665965D01*
X184548599Y-115801505D01*
X184381505Y-115968599D01*
X184245965Y-116162171D01*
X184146097Y-116376337D01*
X184084937Y-116604592D01*
X184064341Y-116840000D01*
X184084937Y-117075408D01*
X184087751Y-117085909D01*
X184144192Y-117296555D01*
X184150546Y-117393502D01*
X184119316Y-117485501D01*
X184055257Y-117558546D01*
X183968121Y-117601516D01*
X183903676Y-117610000D01*
X181856324Y-117610000D01*
X181761036Y-117591046D01*
X181680254Y-117537070D01*
X181626278Y-117456288D01*
X181607324Y-117361000D01*
X181615808Y-117296555D01*
X181672249Y-117085909D01*
X181675063Y-117075408D01*
X181695659Y-116840000D01*
X181675063Y-116604592D01*
X181613903Y-116376337D01*
X181514035Y-116162171D01*
X181378495Y-115968599D01*
X181211401Y-115801505D01*
X181202503Y-115795275D01*
X181202500Y-115795272D01*
X181026729Y-115672196D01*
X181026728Y-115672195D01*
X181017830Y-115665965D01*
X181007985Y-115661374D01*
X181007983Y-115661373D01*
X180923146Y-115621813D01*
X180803663Y-115566097D01*
X180793165Y-115563284D01*
X180793162Y-115563283D01*
X180689536Y-115535517D01*
X180575408Y-115504937D01*
X180564575Y-115503989D01*
X180564574Y-115503989D01*
X180350835Y-115485289D01*
X180340000Y-115484341D01*
X180329165Y-115485289D01*
X180115426Y-115503989D01*
X180115425Y-115503989D01*
X180104592Y-115504937D01*
X179876337Y-115566097D01*
X179866484Y-115570691D01*
X179866480Y-115570693D01*
X179672027Y-115661369D01*
X179662171Y-115665965D01*
X179468599Y-115801505D01*
X179301505Y-115968599D01*
X179273968Y-116007926D01*
X179203789Y-116075109D01*
X179113240Y-116110322D01*
X179016108Y-116108203D01*
X178927181Y-116069075D01*
X178866032Y-116007926D01*
X178838495Y-115968599D01*
X178671401Y-115801505D01*
X178662503Y-115795275D01*
X178662500Y-115795272D01*
X178486729Y-115672196D01*
X178486728Y-115672195D01*
X178477830Y-115665965D01*
X178467985Y-115661374D01*
X178467983Y-115661373D01*
X178383146Y-115621813D01*
X178263663Y-115566097D01*
X178253165Y-115563284D01*
X178253162Y-115563283D01*
X178149536Y-115535517D01*
X178035408Y-115504937D01*
X178024575Y-115503989D01*
X178024574Y-115503989D01*
X177810835Y-115485289D01*
X177800000Y-115484341D01*
X177789165Y-115485289D01*
X177575426Y-115503989D01*
X177575425Y-115503989D01*
X177564592Y-115504937D01*
X177336337Y-115566097D01*
X177326484Y-115570691D01*
X177326480Y-115570693D01*
X177132027Y-115661369D01*
X177122171Y-115665965D01*
X176928599Y-115801505D01*
X176761505Y-115968599D01*
X176733968Y-116007926D01*
X176663789Y-116075109D01*
X176573240Y-116110322D01*
X176476108Y-116108203D01*
X176387181Y-116069075D01*
X176326032Y-116007926D01*
X176298495Y-115968599D01*
X176131401Y-115801505D01*
X176122503Y-115795275D01*
X176122500Y-115795272D01*
X175946729Y-115672196D01*
X175946728Y-115672195D01*
X175937830Y-115665965D01*
X175927985Y-115661374D01*
X175927983Y-115661373D01*
X175843146Y-115621813D01*
X175723663Y-115566097D01*
X175713165Y-115563284D01*
X175713162Y-115563283D01*
X175609536Y-115535517D01*
X175495408Y-115504937D01*
X175484575Y-115503989D01*
X175484574Y-115503989D01*
X175270835Y-115485289D01*
X175260000Y-115484341D01*
X175249165Y-115485289D01*
X175035426Y-115503989D01*
X175035425Y-115503989D01*
X175024592Y-115504937D01*
X174796337Y-115566097D01*
X174786484Y-115570691D01*
X174786480Y-115570693D01*
X174592027Y-115661369D01*
X174582171Y-115665965D01*
X174388599Y-115801505D01*
X174221505Y-115968599D01*
X174193968Y-116007926D01*
X174123789Y-116075109D01*
X174033240Y-116110322D01*
X173936108Y-116108203D01*
X173847181Y-116069075D01*
X173786032Y-116007926D01*
X173758495Y-115968599D01*
X173591401Y-115801505D01*
X173582503Y-115795275D01*
X173582500Y-115795272D01*
X173406729Y-115672196D01*
X173406728Y-115672195D01*
X173397830Y-115665965D01*
X173387985Y-115661374D01*
X173387983Y-115661373D01*
X173303146Y-115621813D01*
X173183663Y-115566097D01*
X173173165Y-115563284D01*
X173173162Y-115563283D01*
X173069536Y-115535517D01*
X172955408Y-115504937D01*
X172944575Y-115503989D01*
X172944574Y-115503989D01*
X172730835Y-115485289D01*
X172720000Y-115484341D01*
X172709165Y-115485289D01*
X172495426Y-115503989D01*
X172495425Y-115503989D01*
X172484592Y-115504937D01*
X172256337Y-115566097D01*
X172246484Y-115570691D01*
X172246480Y-115570693D01*
X172052027Y-115661369D01*
X172042171Y-115665965D01*
X171848599Y-115801505D01*
X171681505Y-115968599D01*
X171653968Y-116007926D01*
X171583789Y-116075109D01*
X171493240Y-116110322D01*
X171396108Y-116108203D01*
X171307181Y-116069075D01*
X171246032Y-116007926D01*
X171218495Y-115968599D01*
X171051401Y-115801505D01*
X171042503Y-115795275D01*
X171042500Y-115795272D01*
X170866729Y-115672196D01*
X170866728Y-115672195D01*
X170857830Y-115665965D01*
X170847985Y-115661374D01*
X170847983Y-115661373D01*
X170763146Y-115621813D01*
X170643663Y-115566097D01*
X170633165Y-115563284D01*
X170633162Y-115563283D01*
X170529536Y-115535517D01*
X170415408Y-115504937D01*
X170404575Y-115503989D01*
X170404574Y-115503989D01*
X170190835Y-115485289D01*
X170180000Y-115484341D01*
X170169165Y-115485289D01*
X169955426Y-115503989D01*
X169955425Y-115503989D01*
X169944592Y-115504937D01*
X169716337Y-115566097D01*
X169706484Y-115570691D01*
X169706480Y-115570693D01*
X169512027Y-115661369D01*
X169502171Y-115665965D01*
X169308599Y-115801505D01*
X169141505Y-115968599D01*
X169113968Y-116007926D01*
X169043789Y-116075109D01*
X168953240Y-116110322D01*
X168856108Y-116108203D01*
X168767181Y-116069075D01*
X168706032Y-116007926D01*
X168678495Y-115968599D01*
X168511401Y-115801505D01*
X168502503Y-115795275D01*
X168502500Y-115795272D01*
X168326729Y-115672196D01*
X168326728Y-115672195D01*
X168317830Y-115665965D01*
X168307985Y-115661374D01*
X168307983Y-115661373D01*
X168223146Y-115621813D01*
X168103663Y-115566097D01*
X168093165Y-115563284D01*
X168093162Y-115563283D01*
X167989536Y-115535517D01*
X167875408Y-115504937D01*
X167864575Y-115503989D01*
X167864574Y-115503989D01*
X167650835Y-115485289D01*
X167640000Y-115484341D01*
X167629165Y-115485289D01*
X167415426Y-115503989D01*
X167415425Y-115503989D01*
X167404592Y-115504937D01*
X167176337Y-115566097D01*
X167166484Y-115570691D01*
X167166480Y-115570693D01*
X166972027Y-115661369D01*
X166962171Y-115665965D01*
X166768599Y-115801505D01*
X166601505Y-115968599D01*
X166573968Y-116007926D01*
X166503789Y-116075109D01*
X166413240Y-116110322D01*
X166316108Y-116108203D01*
X166227181Y-116069075D01*
X166166032Y-116007926D01*
X166138495Y-115968599D01*
X165971401Y-115801505D01*
X165962503Y-115795275D01*
X165962500Y-115795272D01*
X165786729Y-115672196D01*
X165786728Y-115672195D01*
X165777830Y-115665965D01*
X165767985Y-115661374D01*
X165767983Y-115661373D01*
X165683146Y-115621813D01*
X165563663Y-115566097D01*
X165553165Y-115563284D01*
X165553162Y-115563283D01*
X165449536Y-115535517D01*
X165335408Y-115504937D01*
X165324575Y-115503989D01*
X165324574Y-115503989D01*
X165110835Y-115485289D01*
X165100000Y-115484341D01*
X165089165Y-115485289D01*
X164875426Y-115503989D01*
X164875425Y-115503989D01*
X164864592Y-115504937D01*
X164636337Y-115566097D01*
X164626484Y-115570691D01*
X164626480Y-115570693D01*
X164432027Y-115661369D01*
X164422171Y-115665965D01*
X164228599Y-115801505D01*
X164061505Y-115968599D01*
X164033968Y-116007926D01*
X163963789Y-116075109D01*
X163873240Y-116110322D01*
X163776108Y-116108203D01*
X163687181Y-116069075D01*
X163626032Y-116007926D01*
X163598495Y-115968599D01*
X163431401Y-115801505D01*
X163422503Y-115795275D01*
X163422500Y-115795272D01*
X163246729Y-115672196D01*
X163246728Y-115672195D01*
X163237830Y-115665965D01*
X163227985Y-115661374D01*
X163227983Y-115661373D01*
X163143146Y-115621813D01*
X163023663Y-115566097D01*
X163013165Y-115563284D01*
X163013162Y-115563283D01*
X162909536Y-115535517D01*
X162795408Y-115504937D01*
X162784575Y-115503989D01*
X162784574Y-115503989D01*
X162570835Y-115485289D01*
X162560000Y-115484341D01*
X162549165Y-115485289D01*
X162335426Y-115503989D01*
X162335425Y-115503989D01*
X162324592Y-115504937D01*
X162096337Y-115566097D01*
X162086484Y-115570691D01*
X162086480Y-115570693D01*
X161892027Y-115661369D01*
X161882171Y-115665965D01*
X161688599Y-115801505D01*
X161521505Y-115968599D01*
X161493968Y-116007926D01*
X161423789Y-116075109D01*
X161333240Y-116110322D01*
X161236108Y-116108203D01*
X161147181Y-116069075D01*
X161086032Y-116007926D01*
X161058495Y-115968599D01*
X160891401Y-115801505D01*
X160882503Y-115795275D01*
X160882500Y-115795272D01*
X160706729Y-115672196D01*
X160706728Y-115672195D01*
X160697830Y-115665965D01*
X160687985Y-115661374D01*
X160687983Y-115661373D01*
X160603146Y-115621813D01*
X160483663Y-115566097D01*
X160473165Y-115563284D01*
X160473162Y-115563283D01*
X160369536Y-115535517D01*
X160255408Y-115504937D01*
X160244575Y-115503989D01*
X160244574Y-115503989D01*
X160030835Y-115485289D01*
X160020000Y-115484341D01*
X160009165Y-115485289D01*
X159795426Y-115503989D01*
X159795425Y-115503989D01*
X159784592Y-115504937D01*
X159556337Y-115566097D01*
X159546484Y-115570691D01*
X159546480Y-115570693D01*
X159352027Y-115661369D01*
X159342171Y-115665965D01*
X159148599Y-115801505D01*
X159142320Y-115807784D01*
X159057920Y-115854084D01*
X158961342Y-115864659D01*
X158868069Y-115837470D01*
X158792301Y-115776657D01*
X158775195Y-115751627D01*
X158773526Y-115747176D01*
X158687546Y-115632454D01*
X158572824Y-115546474D01*
X158469529Y-115507751D01*
X158453196Y-115501628D01*
X158453195Y-115501628D01*
X158438580Y-115496149D01*
X158377377Y-115489500D01*
X158333235Y-115489500D01*
X156949496Y-115489501D01*
X156854209Y-115470547D01*
X156773428Y-115416571D01*
X156719451Y-115335789D01*
X156700497Y-115240451D01*
X156701418Y-110632200D01*
X157898747Y-110632200D01*
X157936129Y-110916149D01*
X158011702Y-111192398D01*
X158124068Y-111455835D01*
X158128422Y-111463110D01*
X158128423Y-111463112D01*
X158140116Y-111482650D01*
X158271146Y-111701585D01*
X158450215Y-111925100D01*
X158657962Y-112122245D01*
X158890543Y-112289371D01*
X159143653Y-112423386D01*
X159412610Y-112521810D01*
X159420883Y-112523614D01*
X159420887Y-112523615D01*
X159684147Y-112581015D01*
X159684151Y-112581016D01*
X159692436Y-112582822D01*
X159700887Y-112583487D01*
X159700893Y-112583488D01*
X159800698Y-112591343D01*
X159917053Y-112600500D01*
X160071992Y-112600500D01*
X160196517Y-112592011D01*
X160277278Y-112586505D01*
X160277283Y-112586504D01*
X160285737Y-112585928D01*
X160294031Y-112584210D01*
X160294034Y-112584210D01*
X160557890Y-112529568D01*
X160566186Y-112527850D01*
X160836158Y-112432248D01*
X160843679Y-112428366D01*
X160843684Y-112428364D01*
X160955411Y-112370697D01*
X161090658Y-112300891D01*
X161324976Y-112136209D01*
X161534776Y-111941251D01*
X161593585Y-111869401D01*
X161710806Y-111726186D01*
X161710811Y-111726179D01*
X161716177Y-111719623D01*
X161865820Y-111475427D01*
X161980938Y-111213182D01*
X161986859Y-111192398D01*
X162042234Y-110998000D01*
X178222341Y-110998000D01*
X178242937Y-111233408D01*
X178304097Y-111461663D01*
X178403965Y-111675829D01*
X178539505Y-111869401D01*
X178706599Y-112036495D01*
X178715497Y-112042725D01*
X178715500Y-112042728D01*
X178836126Y-112127191D01*
X178900170Y-112172035D01*
X178910015Y-112176626D01*
X178910017Y-112176627D01*
X178986945Y-112212499D01*
X179114337Y-112271903D01*
X179124835Y-112274716D01*
X179124838Y-112274717D01*
X179204333Y-112296017D01*
X179342592Y-112333063D01*
X179353425Y-112334011D01*
X179353426Y-112334011D01*
X179567165Y-112352711D01*
X179578000Y-112353659D01*
X179588835Y-112352711D01*
X179802574Y-112334011D01*
X179802575Y-112334011D01*
X179813408Y-112333063D01*
X179951667Y-112296017D01*
X180031162Y-112274717D01*
X180031165Y-112274716D01*
X180041663Y-112271903D01*
X180169055Y-112212499D01*
X180245983Y-112176627D01*
X180245985Y-112176626D01*
X180255830Y-112172035D01*
X180319874Y-112127191D01*
X180440500Y-112042728D01*
X180440503Y-112042725D01*
X180449401Y-112036495D01*
X180616495Y-111869401D01*
X180644032Y-111830074D01*
X180714211Y-111762891D01*
X180804760Y-111727678D01*
X180901892Y-111729797D01*
X180990819Y-111768925D01*
X181051968Y-111830074D01*
X181079505Y-111869401D01*
X181246599Y-112036495D01*
X181255497Y-112042725D01*
X181255500Y-112042728D01*
X181376126Y-112127191D01*
X181440170Y-112172035D01*
X181450015Y-112176626D01*
X181450017Y-112176627D01*
X181526945Y-112212499D01*
X181654337Y-112271903D01*
X181664835Y-112274716D01*
X181664838Y-112274717D01*
X181744333Y-112296017D01*
X181882592Y-112333063D01*
X181893425Y-112334011D01*
X181893426Y-112334011D01*
X182107165Y-112352711D01*
X182118000Y-112353659D01*
X182128835Y-112352711D01*
X182342574Y-112334011D01*
X182342575Y-112334011D01*
X182353408Y-112333063D01*
X182491667Y-112296017D01*
X182571162Y-112274717D01*
X182571165Y-112274716D01*
X182581663Y-112271903D01*
X182709055Y-112212499D01*
X182785983Y-112176627D01*
X182785985Y-112176626D01*
X182795830Y-112172035D01*
X182859874Y-112127191D01*
X182980500Y-112042728D01*
X182980503Y-112042725D01*
X182989401Y-112036495D01*
X183156495Y-111869401D01*
X183184032Y-111830074D01*
X183254211Y-111762891D01*
X183344760Y-111727678D01*
X183441892Y-111729797D01*
X183530819Y-111768925D01*
X183591968Y-111830074D01*
X183619505Y-111869401D01*
X183786599Y-112036495D01*
X183795497Y-112042725D01*
X183795500Y-112042728D01*
X183916126Y-112127191D01*
X183980170Y-112172035D01*
X183990015Y-112176626D01*
X183990017Y-112176627D01*
X184066945Y-112212499D01*
X184194337Y-112271903D01*
X184204835Y-112274716D01*
X184204838Y-112274717D01*
X184284333Y-112296017D01*
X184422592Y-112333063D01*
X184433425Y-112334011D01*
X184433426Y-112334011D01*
X184647165Y-112352711D01*
X184658000Y-112353659D01*
X184668835Y-112352711D01*
X184882574Y-112334011D01*
X184882575Y-112334011D01*
X184893408Y-112333063D01*
X185031667Y-112296017D01*
X185111162Y-112274717D01*
X185111165Y-112274716D01*
X185121663Y-112271903D01*
X185249055Y-112212499D01*
X185325983Y-112176627D01*
X185325985Y-112176626D01*
X185335830Y-112172035D01*
X185399874Y-112127191D01*
X185520500Y-112042728D01*
X185520503Y-112042725D01*
X185529401Y-112036495D01*
X185696495Y-111869401D01*
X185832035Y-111675829D01*
X185931903Y-111461663D01*
X185993063Y-111233408D01*
X186013659Y-110998000D01*
X185993063Y-110762592D01*
X185958125Y-110632200D01*
X200898747Y-110632200D01*
X200936129Y-110916149D01*
X201011702Y-111192398D01*
X201124068Y-111455835D01*
X201128422Y-111463110D01*
X201128423Y-111463112D01*
X201140116Y-111482650D01*
X201271146Y-111701585D01*
X201450215Y-111925100D01*
X201657962Y-112122245D01*
X201890543Y-112289371D01*
X202143653Y-112423386D01*
X202412610Y-112521810D01*
X202420883Y-112523614D01*
X202420887Y-112523615D01*
X202684147Y-112581015D01*
X202684151Y-112581016D01*
X202692436Y-112582822D01*
X202700887Y-112583487D01*
X202700893Y-112583488D01*
X202800698Y-112591343D01*
X202917053Y-112600500D01*
X203071992Y-112600500D01*
X203196517Y-112592011D01*
X203277278Y-112586505D01*
X203277283Y-112586504D01*
X203285737Y-112585928D01*
X203294031Y-112584210D01*
X203294034Y-112584210D01*
X203557890Y-112529568D01*
X203566186Y-112527850D01*
X203836158Y-112432248D01*
X203843679Y-112428366D01*
X203843684Y-112428364D01*
X203955411Y-112370697D01*
X204090658Y-112300891D01*
X204324976Y-112136209D01*
X204534776Y-111941251D01*
X204593585Y-111869401D01*
X204710806Y-111726186D01*
X204710811Y-111726179D01*
X204716177Y-111719623D01*
X204865820Y-111475427D01*
X204980938Y-111213182D01*
X204986859Y-111192398D01*
X205042234Y-110998000D01*
X205059400Y-110937739D01*
X205099754Y-110654196D01*
X205101253Y-110367800D01*
X205063871Y-110083851D01*
X204988298Y-109807602D01*
X204875932Y-109544165D01*
X204864207Y-109524573D01*
X204733211Y-109305695D01*
X204728854Y-109298415D01*
X204549785Y-109074900D01*
X204342038Y-108877755D01*
X204109457Y-108710629D01*
X203856347Y-108576614D01*
X203587390Y-108478190D01*
X203579117Y-108476386D01*
X203579113Y-108476385D01*
X203315853Y-108418985D01*
X203315849Y-108418984D01*
X203307564Y-108417178D01*
X203299113Y-108416513D01*
X203299107Y-108416512D01*
X203199302Y-108408657D01*
X203082947Y-108399500D01*
X202928008Y-108399500D01*
X202803483Y-108407989D01*
X202722722Y-108413495D01*
X202722717Y-108413496D01*
X202714263Y-108414072D01*
X202705969Y-108415790D01*
X202705966Y-108415790D01*
X202457041Y-108467340D01*
X202433814Y-108472150D01*
X202163842Y-108567752D01*
X202156321Y-108571634D01*
X202156316Y-108571636D01*
X202055276Y-108623787D01*
X201909342Y-108699109D01*
X201675024Y-108863791D01*
X201465224Y-109058749D01*
X201459850Y-109065315D01*
X201289194Y-109273814D01*
X201289189Y-109273821D01*
X201283823Y-109280377D01*
X201134180Y-109524573D01*
X201019062Y-109786818D01*
X201016742Y-109794961D01*
X201016741Y-109794965D01*
X201009788Y-109819373D01*
X200940600Y-110062261D01*
X200900246Y-110345804D01*
X200898747Y-110632200D01*
X185958125Y-110632200D01*
X185931903Y-110534337D01*
X185832035Y-110320171D01*
X185696495Y-110126599D01*
X185529401Y-109959505D01*
X185520503Y-109953275D01*
X185520500Y-109953272D01*
X185344729Y-109830196D01*
X185344728Y-109830195D01*
X185335830Y-109823965D01*
X185325985Y-109819374D01*
X185325983Y-109819373D01*
X185239529Y-109779059D01*
X185121663Y-109724097D01*
X185111165Y-109721284D01*
X185111162Y-109721283D01*
X185007535Y-109693517D01*
X184893408Y-109662937D01*
X184882575Y-109661989D01*
X184882574Y-109661989D01*
X184668835Y-109643289D01*
X184658000Y-109642341D01*
X184647165Y-109643289D01*
X184433426Y-109661989D01*
X184433425Y-109661989D01*
X184422592Y-109662937D01*
X184194337Y-109724097D01*
X184184484Y-109728691D01*
X184184480Y-109728693D01*
X184059832Y-109786818D01*
X183980171Y-109823965D01*
X183786599Y-109959505D01*
X183619505Y-110126599D01*
X183591968Y-110165926D01*
X183521789Y-110233109D01*
X183431240Y-110268322D01*
X183334108Y-110266203D01*
X183245181Y-110227075D01*
X183184032Y-110165926D01*
X183156495Y-110126599D01*
X182989401Y-109959505D01*
X182980503Y-109953275D01*
X182980500Y-109953272D01*
X182804729Y-109830196D01*
X182804728Y-109830195D01*
X182795830Y-109823965D01*
X182785985Y-109819374D01*
X182785983Y-109819373D01*
X182699529Y-109779059D01*
X182581663Y-109724097D01*
X182571165Y-109721284D01*
X182571162Y-109721283D01*
X182467535Y-109693517D01*
X182353408Y-109662937D01*
X182342575Y-109661989D01*
X182342574Y-109661989D01*
X182128835Y-109643289D01*
X182118000Y-109642341D01*
X182107165Y-109643289D01*
X181893426Y-109661989D01*
X181893425Y-109661989D01*
X181882592Y-109662937D01*
X181654337Y-109724097D01*
X181644484Y-109728691D01*
X181644480Y-109728693D01*
X181519832Y-109786818D01*
X181440171Y-109823965D01*
X181246599Y-109959505D01*
X181079505Y-110126599D01*
X181051968Y-110165926D01*
X180981789Y-110233109D01*
X180891240Y-110268322D01*
X180794108Y-110266203D01*
X180705181Y-110227075D01*
X180644032Y-110165926D01*
X180616495Y-110126599D01*
X180449401Y-109959505D01*
X180440503Y-109953275D01*
X180440500Y-109953272D01*
X180264729Y-109830196D01*
X180264728Y-109830195D01*
X180255830Y-109823965D01*
X180245985Y-109819374D01*
X180245983Y-109819373D01*
X180159529Y-109779059D01*
X180041663Y-109724097D01*
X180031165Y-109721284D01*
X180031162Y-109721283D01*
X179927535Y-109693517D01*
X179813408Y-109662937D01*
X179802575Y-109661989D01*
X179802574Y-109661989D01*
X179588835Y-109643289D01*
X179578000Y-109642341D01*
X179567165Y-109643289D01*
X179353426Y-109661989D01*
X179353425Y-109661989D01*
X179342592Y-109662937D01*
X179114337Y-109724097D01*
X179104484Y-109728691D01*
X179104480Y-109728693D01*
X178979832Y-109786818D01*
X178900171Y-109823965D01*
X178706599Y-109959505D01*
X178539505Y-110126599D01*
X178403965Y-110320171D01*
X178304097Y-110534337D01*
X178242937Y-110762592D01*
X178222341Y-110998000D01*
X162042234Y-110998000D01*
X162059400Y-110937739D01*
X162099754Y-110654196D01*
X162101253Y-110367800D01*
X162063871Y-110083851D01*
X161988298Y-109807602D01*
X161875932Y-109544165D01*
X161864207Y-109524573D01*
X161733211Y-109305695D01*
X161728854Y-109298415D01*
X161549785Y-109074900D01*
X161342038Y-108877755D01*
X161109457Y-108710629D01*
X160856347Y-108576614D01*
X160587390Y-108478190D01*
X160579117Y-108476386D01*
X160579113Y-108476385D01*
X160315853Y-108418985D01*
X160315849Y-108418984D01*
X160307564Y-108417178D01*
X160299113Y-108416513D01*
X160299107Y-108416512D01*
X160199302Y-108408657D01*
X160082947Y-108399500D01*
X159928008Y-108399500D01*
X159803483Y-108407989D01*
X159722722Y-108413495D01*
X159722717Y-108413496D01*
X159714263Y-108414072D01*
X159705969Y-108415790D01*
X159705966Y-108415790D01*
X159457041Y-108467340D01*
X159433814Y-108472150D01*
X159163842Y-108567752D01*
X159156321Y-108571634D01*
X159156316Y-108571636D01*
X159055276Y-108623787D01*
X158909342Y-108699109D01*
X158675024Y-108863791D01*
X158465224Y-109058749D01*
X158459850Y-109065315D01*
X158289194Y-109273814D01*
X158289189Y-109273821D01*
X158283823Y-109280377D01*
X158134180Y-109524573D01*
X158019062Y-109786818D01*
X158016742Y-109794961D01*
X158016741Y-109794965D01*
X158009788Y-109819373D01*
X157940600Y-110062261D01*
X157900246Y-110345804D01*
X157898747Y-110632200D01*
X156701418Y-110632200D01*
X156702014Y-107649627D01*
X166642643Y-107649627D01*
X166643662Y-107661762D01*
X166643662Y-107661764D01*
X166646264Y-107692744D01*
X166659455Y-107849837D01*
X166714835Y-108042968D01*
X166806673Y-108221665D01*
X166931471Y-108379121D01*
X166940744Y-108387013D01*
X166940746Y-108387015D01*
X167062215Y-108490393D01*
X167084475Y-108509338D01*
X167136998Y-108538692D01*
X167204852Y-108576614D01*
X167259858Y-108607356D01*
X167271438Y-108611119D01*
X167271439Y-108611119D01*
X167439353Y-108665678D01*
X167439358Y-108665679D01*
X167450939Y-108669442D01*
X167463033Y-108670884D01*
X167463037Y-108670885D01*
X167597042Y-108686864D01*
X167650441Y-108693231D01*
X167662580Y-108692297D01*
X167662582Y-108692297D01*
X167712626Y-108688446D01*
X167850763Y-108677817D01*
X167947520Y-108650802D01*
X168032548Y-108627062D01*
X168032550Y-108627061D01*
X168044277Y-108623787D01*
X168223611Y-108533199D01*
X168298130Y-108474979D01*
X168372337Y-108417002D01*
X168381934Y-108409504D01*
X168416398Y-108369577D01*
X168449697Y-108331000D01*
X182050958Y-108331000D01*
X182052322Y-108343977D01*
X182066429Y-108478190D01*
X182069075Y-108503368D01*
X182073107Y-108515776D01*
X182073107Y-108515778D01*
X182108201Y-108623787D01*
X182122632Y-108668202D01*
X182129154Y-108679498D01*
X182129156Y-108679503D01*
X182202765Y-108806996D01*
X182209291Y-108818299D01*
X182325263Y-108947098D01*
X182335816Y-108954765D01*
X182454924Y-109041303D01*
X182454928Y-109041306D01*
X182465479Y-109048971D01*
X182623812Y-109119466D01*
X182793342Y-109155500D01*
X182966658Y-109155500D01*
X183136188Y-109119466D01*
X183294521Y-109048971D01*
X183305072Y-109041306D01*
X183305076Y-109041303D01*
X183424184Y-108954765D01*
X183434737Y-108947098D01*
X183550709Y-108818299D01*
X183557235Y-108806996D01*
X183630844Y-108679503D01*
X183630846Y-108679498D01*
X183637368Y-108668202D01*
X183651800Y-108623787D01*
X183686893Y-108515778D01*
X183686893Y-108515776D01*
X183690925Y-108503368D01*
X183693572Y-108478190D01*
X183707678Y-108343977D01*
X183709042Y-108331000D01*
X183702277Y-108266632D01*
X183692289Y-108171607D01*
X183692289Y-108171605D01*
X183690925Y-108158632D01*
X183669702Y-108093312D01*
X183641401Y-108006209D01*
X183641399Y-108006205D01*
X183637368Y-107993798D01*
X183630846Y-107982502D01*
X183630844Y-107982497D01*
X183557235Y-107855004D01*
X183557234Y-107855003D01*
X183550709Y-107843701D01*
X183434737Y-107714902D01*
X183374251Y-107670956D01*
X183305076Y-107620697D01*
X183305072Y-107620694D01*
X183294521Y-107613029D01*
X183136188Y-107542534D01*
X182966658Y-107506500D01*
X182793342Y-107506500D01*
X182623812Y-107542534D01*
X182465479Y-107613029D01*
X182454928Y-107620694D01*
X182454924Y-107620697D01*
X182385749Y-107670956D01*
X182325263Y-107714902D01*
X182209291Y-107843701D01*
X182202766Y-107855003D01*
X182202765Y-107855004D01*
X182129156Y-107982497D01*
X182129154Y-107982502D01*
X182122632Y-107993798D01*
X182118601Y-108006205D01*
X182118599Y-108006209D01*
X182090298Y-108093312D01*
X182069075Y-108158632D01*
X182067711Y-108171605D01*
X182067711Y-108171607D01*
X182057723Y-108266632D01*
X182050958Y-108331000D01*
X168449697Y-108331000D01*
X168505258Y-108266632D01*
X168505260Y-108266629D01*
X168513216Y-108257412D01*
X168612456Y-108082718D01*
X168675874Y-107892075D01*
X168701056Y-107692744D01*
X168701457Y-107664000D01*
X168681851Y-107464044D01*
X168623780Y-107271704D01*
X168529457Y-107094307D01*
X168402473Y-106938609D01*
X168247665Y-106810541D01*
X168236961Y-106804754D01*
X168236959Y-106804752D01*
X168112026Y-106737202D01*
X168070931Y-106714982D01*
X168059297Y-106711380D01*
X168059293Y-106711379D01*
X167890634Y-106659170D01*
X167890633Y-106659170D01*
X167879001Y-106655569D01*
X167866891Y-106654296D01*
X167866890Y-106654296D01*
X167691299Y-106635841D01*
X167679187Y-106634568D01*
X167665200Y-106635841D01*
X167491226Y-106651674D01*
X167491223Y-106651675D01*
X167479099Y-106652778D01*
X167467420Y-106656215D01*
X167467416Y-106656216D01*
X167370554Y-106684724D01*
X167286359Y-106709504D01*
X167108307Y-106802587D01*
X166951727Y-106928481D01*
X166943899Y-106937810D01*
X166943898Y-106937811D01*
X166878208Y-107016098D01*
X166822581Y-107082391D01*
X166725790Y-107258454D01*
X166722106Y-107270068D01*
X166668723Y-107438349D01*
X166668722Y-107438354D01*
X166665039Y-107449964D01*
X166642643Y-107649627D01*
X156702014Y-107649627D01*
X156702264Y-106400000D01*
X201170958Y-106400000D01*
X201189075Y-106572368D01*
X201193107Y-106584776D01*
X201193107Y-106584778D01*
X201237295Y-106720776D01*
X201242632Y-106737202D01*
X201249154Y-106748498D01*
X201249156Y-106748503D01*
X201289454Y-106818300D01*
X201329291Y-106887299D01*
X201445263Y-107016098D01*
X201455816Y-107023765D01*
X201574924Y-107110303D01*
X201574928Y-107110306D01*
X201585479Y-107117971D01*
X201743812Y-107188466D01*
X201913342Y-107224500D01*
X202086658Y-107224500D01*
X202256188Y-107188466D01*
X202414521Y-107117971D01*
X202425072Y-107110306D01*
X202425076Y-107110303D01*
X202544184Y-107023765D01*
X202554737Y-107016098D01*
X202670709Y-106887299D01*
X202710546Y-106818300D01*
X202750844Y-106748503D01*
X202750846Y-106748498D01*
X202757368Y-106737202D01*
X202762706Y-106720776D01*
X202806893Y-106584778D01*
X202806893Y-106584776D01*
X202810925Y-106572368D01*
X202829042Y-106400000D01*
X202810925Y-106227632D01*
X202757368Y-106062798D01*
X202750846Y-106051502D01*
X202750844Y-106051497D01*
X202677235Y-105924004D01*
X202677234Y-105924003D01*
X202670709Y-105912701D01*
X202554737Y-105783902D01*
X202471996Y-105723787D01*
X202425076Y-105689697D01*
X202425072Y-105689694D01*
X202414521Y-105682029D01*
X202256188Y-105611534D01*
X202086658Y-105575500D01*
X201913342Y-105575500D01*
X201743812Y-105611534D01*
X201585479Y-105682029D01*
X201574928Y-105689694D01*
X201574924Y-105689697D01*
X201528004Y-105723787D01*
X201445263Y-105783902D01*
X201329291Y-105912701D01*
X201322766Y-105924003D01*
X201322765Y-105924004D01*
X201249156Y-106051497D01*
X201249154Y-106051502D01*
X201242632Y-106062798D01*
X201189075Y-106227632D01*
X201170958Y-106400000D01*
X156702264Y-106400000D01*
X156702563Y-104902000D01*
X182440458Y-104902000D01*
X182441822Y-104914977D01*
X182455903Y-105048942D01*
X182458575Y-105074368D01*
X182462607Y-105086776D01*
X182462607Y-105086778D01*
X182505406Y-105218500D01*
X182512132Y-105239202D01*
X182518654Y-105250498D01*
X182518656Y-105250503D01*
X182565519Y-105331671D01*
X182598791Y-105389299D01*
X182714763Y-105518098D01*
X182725316Y-105525765D01*
X182844424Y-105612303D01*
X182844428Y-105612306D01*
X182854979Y-105619971D01*
X183013312Y-105690466D01*
X183182842Y-105726500D01*
X183356158Y-105726500D01*
X183525688Y-105690466D01*
X183684021Y-105619971D01*
X183694572Y-105612306D01*
X183694576Y-105612303D01*
X183813684Y-105525765D01*
X183824237Y-105518098D01*
X183940209Y-105389299D01*
X183973481Y-105331671D01*
X184037540Y-105258627D01*
X184124676Y-105215657D01*
X184137351Y-105212614D01*
X184266424Y-105185179D01*
X184279188Y-105182466D01*
X184437521Y-105111971D01*
X184448072Y-105104306D01*
X184448076Y-105104303D01*
X184567184Y-105017765D01*
X184577737Y-105010098D01*
X184693709Y-104881299D01*
X184732838Y-104813526D01*
X184773844Y-104742503D01*
X184773846Y-104742498D01*
X184780368Y-104731202D01*
X184784911Y-104717222D01*
X184829893Y-104578778D01*
X184829893Y-104578776D01*
X184833925Y-104566368D01*
X184838438Y-104523431D01*
X184867249Y-104430646D01*
X184929374Y-104355949D01*
X184939715Y-104348014D01*
X185051943Y-104266475D01*
X185077237Y-104248098D01*
X185193209Y-104119299D01*
X185203646Y-104101222D01*
X185248215Y-104024027D01*
X190689843Y-104024027D01*
X190690862Y-104036162D01*
X190690862Y-104036164D01*
X190704812Y-104202284D01*
X190706655Y-104224237D01*
X190762035Y-104417368D01*
X190767596Y-104428189D01*
X190767597Y-104428191D01*
X190802797Y-104496682D01*
X190853873Y-104596065D01*
X190978671Y-104753521D01*
X190987944Y-104761413D01*
X190987946Y-104761415D01*
X191101870Y-104858372D01*
X191131675Y-104883738D01*
X191307058Y-104981756D01*
X191318638Y-104985519D01*
X191318639Y-104985519D01*
X191486553Y-105040078D01*
X191486558Y-105040079D01*
X191498139Y-105043842D01*
X191510233Y-105045284D01*
X191510237Y-105045285D01*
X191644242Y-105061264D01*
X191697641Y-105067631D01*
X191709780Y-105066697D01*
X191709782Y-105066697D01*
X191759826Y-105062846D01*
X191897963Y-105052217D01*
X191994720Y-105025202D01*
X192079748Y-105001462D01*
X192079750Y-105001461D01*
X192091477Y-104998187D01*
X192270811Y-104907599D01*
X192429134Y-104783904D01*
X192464781Y-104742607D01*
X192552458Y-104641032D01*
X192552460Y-104641029D01*
X192560416Y-104631812D01*
X192632200Y-104505449D01*
X192653638Y-104467712D01*
X192653639Y-104467710D01*
X192659656Y-104457118D01*
X192723074Y-104266475D01*
X192742349Y-104113903D01*
X192747384Y-104074048D01*
X192747384Y-104074044D01*
X192748256Y-104067144D01*
X192748657Y-104038400D01*
X192729051Y-103838444D01*
X192670980Y-103646104D01*
X192576657Y-103468707D01*
X192449673Y-103313009D01*
X192429558Y-103296368D01*
X192304244Y-103192700D01*
X192294865Y-103184941D01*
X192284161Y-103179154D01*
X192284159Y-103179152D01*
X192182156Y-103124000D01*
X197544958Y-103124000D01*
X197563075Y-103296368D01*
X197567107Y-103308776D01*
X197567107Y-103308778D01*
X197612090Y-103447222D01*
X197616632Y-103461202D01*
X197623154Y-103472498D01*
X197623156Y-103472503D01*
X197654469Y-103526738D01*
X197703291Y-103611299D01*
X197819263Y-103740098D01*
X197829816Y-103747765D01*
X197948924Y-103834303D01*
X197948928Y-103834306D01*
X197959479Y-103841971D01*
X198117812Y-103912466D01*
X198287342Y-103948500D01*
X198460658Y-103948500D01*
X198630188Y-103912466D01*
X198788521Y-103841971D01*
X198799072Y-103834306D01*
X198799076Y-103834303D01*
X198918184Y-103747765D01*
X198928737Y-103740098D01*
X199044709Y-103611299D01*
X199093531Y-103526738D01*
X199124844Y-103472503D01*
X199124846Y-103472498D01*
X199131368Y-103461202D01*
X199135911Y-103447222D01*
X199180893Y-103308778D01*
X199180893Y-103308776D01*
X199184925Y-103296368D01*
X199203042Y-103124000D01*
X199193025Y-103028696D01*
X199186289Y-102964607D01*
X199186289Y-102964605D01*
X199184925Y-102951632D01*
X199152175Y-102850835D01*
X199135401Y-102799209D01*
X199135399Y-102799205D01*
X199131368Y-102786798D01*
X199124846Y-102775502D01*
X199124844Y-102775497D01*
X199051235Y-102648004D01*
X199051234Y-102648003D01*
X199044709Y-102636701D01*
X198928737Y-102507902D01*
X198845480Y-102447412D01*
X198799076Y-102413697D01*
X198799072Y-102413694D01*
X198788521Y-102406029D01*
X198630188Y-102335534D01*
X198460658Y-102299500D01*
X198287342Y-102299500D01*
X198117812Y-102335534D01*
X197959479Y-102406029D01*
X197948928Y-102413694D01*
X197948924Y-102413697D01*
X197902520Y-102447412D01*
X197819263Y-102507902D01*
X197703291Y-102636701D01*
X197696766Y-102648003D01*
X197696765Y-102648004D01*
X197623156Y-102775497D01*
X197623154Y-102775502D01*
X197616632Y-102786798D01*
X197612601Y-102799205D01*
X197612599Y-102799209D01*
X197595825Y-102850835D01*
X197563075Y-102951632D01*
X197561711Y-102964605D01*
X197561711Y-102964607D01*
X197554975Y-103028696D01*
X197544958Y-103124000D01*
X192182156Y-103124000D01*
X192158155Y-103111023D01*
X192118131Y-103089382D01*
X192106497Y-103085780D01*
X192106493Y-103085779D01*
X191937834Y-103033570D01*
X191937833Y-103033570D01*
X191926201Y-103029969D01*
X191914091Y-103028696D01*
X191914090Y-103028696D01*
X191738499Y-103010241D01*
X191726387Y-103008968D01*
X191712400Y-103010241D01*
X191538426Y-103026074D01*
X191538423Y-103026075D01*
X191526299Y-103027178D01*
X191514620Y-103030615D01*
X191514616Y-103030616D01*
X191417754Y-103059124D01*
X191333559Y-103083904D01*
X191155507Y-103176987D01*
X190998927Y-103302881D01*
X190991099Y-103312210D01*
X190991098Y-103312211D01*
X190925267Y-103390666D01*
X190869781Y-103456791D01*
X190863917Y-103467457D01*
X190863916Y-103467459D01*
X190844614Y-103502569D01*
X190772990Y-103632854D01*
X190768787Y-103646104D01*
X190715923Y-103812749D01*
X190715922Y-103812754D01*
X190712239Y-103824364D01*
X190689843Y-104024027D01*
X185248215Y-104024027D01*
X185273344Y-103980503D01*
X185273346Y-103980498D01*
X185279868Y-103969202D01*
X185286595Y-103948500D01*
X185329393Y-103816778D01*
X185329393Y-103816776D01*
X185333425Y-103804368D01*
X185335097Y-103788466D01*
X185350178Y-103644977D01*
X185351542Y-103632000D01*
X185333425Y-103459632D01*
X185293646Y-103337202D01*
X185283901Y-103307209D01*
X185283899Y-103307205D01*
X185279868Y-103294798D01*
X185273346Y-103283502D01*
X185273344Y-103283497D01*
X185199735Y-103156004D01*
X185199734Y-103156003D01*
X185193209Y-103144701D01*
X185077237Y-103015902D01*
X185006636Y-102964607D01*
X184947576Y-102921697D01*
X184947572Y-102921694D01*
X184937021Y-102914029D01*
X184778688Y-102843534D01*
X184609158Y-102807500D01*
X184435842Y-102807500D01*
X184266312Y-102843534D01*
X184107979Y-102914029D01*
X184097428Y-102921694D01*
X184097424Y-102921697D01*
X184038364Y-102964607D01*
X183967763Y-103015902D01*
X183851791Y-103144701D01*
X183845266Y-103156003D01*
X183845265Y-103156004D01*
X183771656Y-103283497D01*
X183771654Y-103283502D01*
X183765132Y-103294798D01*
X183761101Y-103307205D01*
X183761099Y-103307209D01*
X183751354Y-103337202D01*
X183711575Y-103459632D01*
X183710211Y-103472605D01*
X183710211Y-103472607D01*
X183707062Y-103502569D01*
X183678251Y-103595354D01*
X183616126Y-103670051D01*
X183605785Y-103677986D01*
X183550751Y-103717971D01*
X183468263Y-103777902D01*
X183352291Y-103906701D01*
X183345766Y-103918003D01*
X183345765Y-103918004D01*
X183319019Y-103964329D01*
X183254960Y-104037373D01*
X183167824Y-104080343D01*
X183155149Y-104083386D01*
X183039367Y-104107996D01*
X183013312Y-104113534D01*
X182854979Y-104184029D01*
X182844428Y-104191694D01*
X182844424Y-104191697D01*
X182780141Y-104238402D01*
X182714763Y-104285902D01*
X182598791Y-104414701D01*
X182592266Y-104426003D01*
X182592265Y-104426004D01*
X182518656Y-104553497D01*
X182518654Y-104553502D01*
X182512132Y-104564798D01*
X182508101Y-104577205D01*
X182508099Y-104577209D01*
X182493799Y-104621221D01*
X182458575Y-104729632D01*
X182457211Y-104742605D01*
X182457211Y-104742607D01*
X182450875Y-104802887D01*
X182440458Y-104902000D01*
X156702563Y-104902000D01*
X156702667Y-104380461D01*
X156721640Y-104285179D01*
X156775633Y-104204408D01*
X156856425Y-104150448D01*
X156951717Y-104131513D01*
X157039070Y-104147357D01*
X157090718Y-104166718D01*
X157136420Y-104183851D01*
X157197623Y-104190500D01*
X158094400Y-104190500D01*
X158992376Y-104190499D01*
X159053580Y-104183851D01*
X159187824Y-104133526D01*
X159302546Y-104047546D01*
X159385792Y-103936472D01*
X159385797Y-103936466D01*
X159388526Y-103932824D01*
X159388723Y-103932972D01*
X159442030Y-103869334D01*
X159528169Y-103824400D01*
X159624947Y-103815850D01*
X159717631Y-103844986D01*
X159756992Y-103871888D01*
X159763599Y-103878495D01*
X159772498Y-103884726D01*
X159772499Y-103884727D01*
X159886183Y-103964329D01*
X159957170Y-104014035D01*
X159967015Y-104018626D01*
X159967017Y-104018627D01*
X160007218Y-104037373D01*
X160171337Y-104113903D01*
X160181835Y-104116716D01*
X160181838Y-104116717D01*
X160272376Y-104140976D01*
X160399592Y-104175063D01*
X160410425Y-104176011D01*
X160410426Y-104176011D01*
X160624165Y-104194711D01*
X160635000Y-104195659D01*
X160645835Y-104194711D01*
X160859574Y-104176011D01*
X160859575Y-104176011D01*
X160870408Y-104175063D01*
X160997624Y-104140976D01*
X161088162Y-104116717D01*
X161088165Y-104116716D01*
X161098663Y-104113903D01*
X161262782Y-104037373D01*
X161302983Y-104018627D01*
X161302985Y-104018626D01*
X161312830Y-104014035D01*
X161376858Y-103969202D01*
X161497500Y-103884728D01*
X161497503Y-103884725D01*
X161506401Y-103878495D01*
X161673495Y-103711401D01*
X161809035Y-103517829D01*
X161818748Y-103496999D01*
X161904307Y-103313520D01*
X161904309Y-103313516D01*
X161908903Y-103303663D01*
X161970063Y-103075408D01*
X161973724Y-103033570D01*
X161989711Y-102850835D01*
X161990659Y-102840000D01*
X161980440Y-102723199D01*
X161971011Y-102615426D01*
X161971011Y-102615425D01*
X161970063Y-102604592D01*
X161908903Y-102376337D01*
X161890374Y-102336600D01*
X161813631Y-102172027D01*
X161809035Y-102162171D01*
X161794605Y-102141562D01*
X161749359Y-102076944D01*
X161673495Y-101968599D01*
X161506401Y-101801505D01*
X161497497Y-101795270D01*
X161467075Y-101773968D01*
X161399892Y-101703786D01*
X161364680Y-101613237D01*
X161366800Y-101516105D01*
X161405929Y-101427178D01*
X161467075Y-101366032D01*
X161497497Y-101344730D01*
X161497499Y-101344728D01*
X161506401Y-101338495D01*
X161673495Y-101171401D01*
X161793360Y-101000216D01*
X161802797Y-100986738D01*
X161802798Y-100986737D01*
X161809035Y-100977829D01*
X161814259Y-100966627D01*
X161904307Y-100773520D01*
X161904309Y-100773516D01*
X161908903Y-100763663D01*
X161970063Y-100535408D01*
X161974608Y-100483466D01*
X161985782Y-100355739D01*
X161990659Y-100300000D01*
X161979372Y-100170996D01*
X161971011Y-100075426D01*
X161971011Y-100075425D01*
X161970063Y-100064592D01*
X161908903Y-99836337D01*
X161889487Y-99794698D01*
X161813631Y-99632027D01*
X161809035Y-99622171D01*
X161673495Y-99428599D01*
X161506401Y-99261505D01*
X161497497Y-99255270D01*
X161467075Y-99233968D01*
X161399892Y-99163786D01*
X161364680Y-99073237D01*
X161366800Y-98976105D01*
X161405929Y-98887178D01*
X161467075Y-98826032D01*
X161497497Y-98804730D01*
X161497499Y-98804728D01*
X161506401Y-98798495D01*
X161673495Y-98631401D01*
X161809035Y-98437829D01*
X161841228Y-98368791D01*
X161904307Y-98233520D01*
X161904309Y-98233516D01*
X161908903Y-98223663D01*
X161970063Y-97995408D01*
X161974608Y-97943466D01*
X161989711Y-97770835D01*
X161990659Y-97760000D01*
X161970063Y-97524592D01*
X161908903Y-97296337D01*
X161900461Y-97278232D01*
X161813631Y-97092027D01*
X161809035Y-97082171D01*
X161673495Y-96888599D01*
X161506401Y-96721505D01*
X161497503Y-96715275D01*
X161497500Y-96715272D01*
X161321729Y-96592196D01*
X161321728Y-96592195D01*
X161312830Y-96585965D01*
X161302985Y-96581374D01*
X161302983Y-96581373D01*
X161195461Y-96531235D01*
X161098663Y-96486097D01*
X161088165Y-96483284D01*
X161088162Y-96483283D01*
X160944154Y-96444697D01*
X160870408Y-96424937D01*
X160859575Y-96423989D01*
X160859574Y-96423989D01*
X160645835Y-96405289D01*
X160635000Y-96404341D01*
X160624165Y-96405289D01*
X160410426Y-96423989D01*
X160410425Y-96423989D01*
X160399592Y-96424937D01*
X160171337Y-96486097D01*
X160161484Y-96490691D01*
X160161480Y-96490693D01*
X160004708Y-96563798D01*
X159957171Y-96585965D01*
X159763599Y-96721505D01*
X159596505Y-96888599D01*
X159568968Y-96927926D01*
X159498789Y-96995109D01*
X159408240Y-97030322D01*
X159311108Y-97028203D01*
X159222181Y-96989075D01*
X159161032Y-96927926D01*
X159133495Y-96888599D01*
X158966401Y-96721505D01*
X158957503Y-96715275D01*
X158957500Y-96715272D01*
X158781729Y-96592196D01*
X158781728Y-96592195D01*
X158772830Y-96585965D01*
X158762985Y-96581374D01*
X158762983Y-96581373D01*
X158655461Y-96531235D01*
X158558663Y-96486097D01*
X158548165Y-96483284D01*
X158548162Y-96483283D01*
X158404154Y-96444697D01*
X158330408Y-96424937D01*
X158319575Y-96423989D01*
X158319574Y-96423989D01*
X158105835Y-96405289D01*
X158095000Y-96404341D01*
X158084165Y-96405289D01*
X157870426Y-96423989D01*
X157870425Y-96423989D01*
X157859592Y-96424937D01*
X157631337Y-96486097D01*
X157621484Y-96490691D01*
X157621480Y-96490693D01*
X157464708Y-96563798D01*
X157417171Y-96585965D01*
X157223599Y-96721505D01*
X157129284Y-96815820D01*
X157048502Y-96869796D01*
X156953214Y-96888750D01*
X156857926Y-96869796D01*
X156777144Y-96815820D01*
X156723168Y-96735038D01*
X156704214Y-96639700D01*
X156704217Y-96628371D01*
X156704723Y-94093678D01*
X156704782Y-93800768D01*
X156723755Y-93705484D01*
X156777748Y-93624713D01*
X156858540Y-93570753D01*
X156953832Y-93551818D01*
X157049116Y-93570791D01*
X157129852Y-93624748D01*
X157223599Y-93718495D01*
X157232497Y-93724725D01*
X157232500Y-93724728D01*
X157406260Y-93846396D01*
X157417170Y-93854035D01*
X157427015Y-93858626D01*
X157427017Y-93858627D01*
X157441362Y-93865316D01*
X157631337Y-93953903D01*
X157641835Y-93956716D01*
X157641838Y-93956717D01*
X157716798Y-93976802D01*
X157859592Y-94015063D01*
X157870425Y-94016011D01*
X157870426Y-94016011D01*
X158084165Y-94034711D01*
X158095000Y-94035659D01*
X158105835Y-94034711D01*
X158319574Y-94016011D01*
X158319575Y-94016011D01*
X158330408Y-94015063D01*
X158473202Y-93976802D01*
X158548162Y-93956717D01*
X158548165Y-93956716D01*
X158558663Y-93953903D01*
X158748638Y-93865316D01*
X158762983Y-93858627D01*
X158762985Y-93858626D01*
X158772830Y-93854035D01*
X158783740Y-93846396D01*
X158957500Y-93724728D01*
X158957503Y-93724725D01*
X158966401Y-93718495D01*
X159133495Y-93551401D01*
X159161032Y-93512074D01*
X159231211Y-93444891D01*
X159321760Y-93409678D01*
X159418892Y-93411797D01*
X159507819Y-93450925D01*
X159568968Y-93512074D01*
X159596505Y-93551401D01*
X159763599Y-93718495D01*
X159772497Y-93724725D01*
X159772500Y-93724728D01*
X159946260Y-93846396D01*
X159957170Y-93854035D01*
X159967015Y-93858626D01*
X159967017Y-93858627D01*
X159981362Y-93865316D01*
X160171337Y-93953903D01*
X160181835Y-93956716D01*
X160181838Y-93956717D01*
X160256798Y-93976802D01*
X160399592Y-94015063D01*
X160410425Y-94016011D01*
X160410426Y-94016011D01*
X160624165Y-94034711D01*
X160635000Y-94035659D01*
X160645835Y-94034711D01*
X160859574Y-94016011D01*
X160859575Y-94016011D01*
X160870408Y-94015063D01*
X161013202Y-93976802D01*
X161088162Y-93956717D01*
X161088165Y-93956716D01*
X161098663Y-93953903D01*
X161288638Y-93865316D01*
X161302983Y-93858627D01*
X161302985Y-93858626D01*
X161312830Y-93854035D01*
X161323740Y-93846396D01*
X161497500Y-93724728D01*
X161497503Y-93724725D01*
X161506401Y-93718495D01*
X161673495Y-93551401D01*
X161795492Y-93377171D01*
X161802797Y-93366738D01*
X161802798Y-93366737D01*
X161809035Y-93357829D01*
X161840303Y-93290776D01*
X161904307Y-93153520D01*
X161904309Y-93153516D01*
X161908903Y-93143663D01*
X161942214Y-93019345D01*
X161985183Y-92932210D01*
X162058228Y-92868151D01*
X162150226Y-92836920D01*
X162247173Y-92843274D01*
X162334309Y-92886244D01*
X162358799Y-92907720D01*
X163493570Y-94042491D01*
X163547546Y-94123273D01*
X163566500Y-94218561D01*
X163566500Y-100101800D01*
X163567137Y-100108067D01*
X163567137Y-100108076D01*
X163574265Y-100178246D01*
X163581880Y-100253216D01*
X163585654Y-100265259D01*
X163586415Y-100268967D01*
X163591500Y-100319034D01*
X163591500Y-100820114D01*
X163591403Y-100827067D01*
X163590786Y-100849170D01*
X163589040Y-100911653D01*
X163591230Y-100924070D01*
X163598734Y-100966627D01*
X163601242Y-100984706D01*
X163606880Y-101040216D01*
X163610650Y-101052246D01*
X163610651Y-101052251D01*
X163613109Y-101060093D01*
X163620719Y-101091310D01*
X163624336Y-101111821D01*
X163628979Y-101123547D01*
X163628980Y-101123552D01*
X163644878Y-101163707D01*
X163650967Y-101180902D01*
X163663889Y-101222135D01*
X163663892Y-101222142D01*
X163667662Y-101234172D01*
X163673776Y-101245201D01*
X163673777Y-101245204D01*
X163677758Y-101252385D01*
X163691496Y-101281447D01*
X163699160Y-101300805D01*
X163706067Y-101311360D01*
X163706068Y-101311362D01*
X163729720Y-101347506D01*
X163739143Y-101363127D01*
X163766203Y-101411944D01*
X163779759Y-101427760D01*
X163799054Y-101453459D01*
X163805216Y-101462877D01*
X163805220Y-101462882D01*
X163810455Y-101470882D01*
X163814917Y-101475838D01*
X163850490Y-101511411D01*
X163863479Y-101525439D01*
X163890267Y-101556693D01*
X163890271Y-101556697D01*
X163898477Y-101566271D01*
X163908439Y-101573999D01*
X163908444Y-101574003D01*
X163916735Y-101580434D01*
X163940192Y-101601113D01*
X166538917Y-104199838D01*
X166543764Y-104204823D01*
X166601881Y-104266280D01*
X166612214Y-104273516D01*
X166612216Y-104273517D01*
X166647600Y-104298293D01*
X166662135Y-104309285D01*
X166705404Y-104344574D01*
X166723871Y-104354228D01*
X166751321Y-104370919D01*
X166768379Y-104382863D01*
X166779954Y-104387872D01*
X166779956Y-104387873D01*
X166819599Y-104405028D01*
X166836069Y-104412884D01*
X166874352Y-104432898D01*
X166874355Y-104432899D01*
X166885531Y-104438742D01*
X166900155Y-104442935D01*
X166905561Y-104444486D01*
X166935809Y-104455317D01*
X166943335Y-104458574D01*
X166943342Y-104458576D01*
X166954919Y-104463586D01*
X167009562Y-104475001D01*
X167027252Y-104479380D01*
X167068786Y-104491290D01*
X167068790Y-104491291D01*
X167080913Y-104494767D01*
X167093484Y-104495734D01*
X167093489Y-104495735D01*
X167101671Y-104496364D01*
X167133497Y-104500893D01*
X167144517Y-104503195D01*
X167144519Y-104503195D01*
X167153880Y-104505151D01*
X167160539Y-104505500D01*
X167210845Y-104505500D01*
X167229946Y-104506234D01*
X167283571Y-104510360D01*
X167306504Y-104507463D01*
X167337711Y-104505500D01*
X173337114Y-104505500D01*
X173344067Y-104505597D01*
X173416048Y-104507608D01*
X173416049Y-104507608D01*
X173428653Y-104507960D01*
X173483628Y-104498266D01*
X173501707Y-104495758D01*
X173501934Y-104495735D01*
X173503938Y-104495531D01*
X173544667Y-104491395D01*
X173544671Y-104491394D01*
X173557216Y-104490120D01*
X173569246Y-104486350D01*
X173569251Y-104486349D01*
X173577093Y-104483891D01*
X173608310Y-104476281D01*
X173628821Y-104472664D01*
X173640547Y-104468021D01*
X173640552Y-104468020D01*
X173680707Y-104452122D01*
X173697902Y-104446033D01*
X173739135Y-104433111D01*
X173739142Y-104433108D01*
X173751172Y-104429338D01*
X173762201Y-104423224D01*
X173762204Y-104423223D01*
X173769385Y-104419242D01*
X173798447Y-104405504D01*
X173799649Y-104405028D01*
X173817805Y-104397840D01*
X173832716Y-104388083D01*
X173864506Y-104367280D01*
X173880127Y-104357857D01*
X173928944Y-104330797D01*
X173944760Y-104317241D01*
X173970454Y-104297949D01*
X173974410Y-104295361D01*
X173979877Y-104291784D01*
X173979882Y-104291780D01*
X173987882Y-104286545D01*
X173992838Y-104282083D01*
X174028411Y-104246510D01*
X174042439Y-104233521D01*
X174073693Y-104206733D01*
X174073697Y-104206729D01*
X174083271Y-104198523D01*
X174090999Y-104188561D01*
X174091003Y-104188556D01*
X174097434Y-104180265D01*
X174118113Y-104156808D01*
X175525909Y-102749012D01*
X175557811Y-102723455D01*
X175557611Y-102723199D01*
X175706337Y-102607002D01*
X175715934Y-102599504D01*
X175783706Y-102520989D01*
X175839258Y-102456632D01*
X175839260Y-102456629D01*
X175847216Y-102447412D01*
X175913928Y-102329978D01*
X175940438Y-102283312D01*
X175940439Y-102283310D01*
X175946456Y-102272718D01*
X176009874Y-102082075D01*
X176035056Y-101882744D01*
X176035457Y-101854000D01*
X176015851Y-101654044D01*
X175957780Y-101461704D01*
X175863457Y-101284307D01*
X175736473Y-101128609D01*
X175581665Y-101000541D01*
X175570961Y-100994754D01*
X175570959Y-100994752D01*
X175506360Y-100959824D01*
X175404931Y-100904982D01*
X175393297Y-100901380D01*
X175393293Y-100901379D01*
X175224634Y-100849170D01*
X175224633Y-100849170D01*
X175213001Y-100845569D01*
X175200891Y-100844296D01*
X175200890Y-100844296D01*
X175025299Y-100825841D01*
X175013187Y-100824568D01*
X174977753Y-100827793D01*
X174825226Y-100841674D01*
X174825223Y-100841675D01*
X174813099Y-100842778D01*
X174801420Y-100846215D01*
X174801416Y-100846216D01*
X174717616Y-100870880D01*
X174620359Y-100899504D01*
X174609565Y-100905147D01*
X174470537Y-100977829D01*
X174442307Y-100992587D01*
X174432821Y-101000214D01*
X174432818Y-101000216D01*
X174368100Y-101052251D01*
X174285727Y-101118481D01*
X174277899Y-101127810D01*
X174277898Y-101127811D01*
X174234872Y-101179087D01*
X174156581Y-101272391D01*
X174150714Y-101283063D01*
X174143834Y-101293111D01*
X174142604Y-101292269D01*
X174111858Y-101333221D01*
X174008670Y-101436409D01*
X173927888Y-101490385D01*
X173832600Y-101509339D01*
X173737312Y-101490385D01*
X173656530Y-101436409D01*
X173602554Y-101355627D01*
X173583600Y-101260339D01*
X173583600Y-100178246D01*
X173602554Y-100082958D01*
X173656530Y-100002176D01*
X173737312Y-99948200D01*
X173832600Y-99929246D01*
X173885237Y-99934965D01*
X173895939Y-99938442D01*
X174095441Y-99962231D01*
X174107580Y-99961297D01*
X174107582Y-99961297D01*
X174157626Y-99957446D01*
X174295763Y-99946817D01*
X174392520Y-99919802D01*
X174477548Y-99896062D01*
X174477550Y-99896061D01*
X174489277Y-99892787D01*
X174668611Y-99802199D01*
X174688909Y-99786341D01*
X174817337Y-99686002D01*
X174826934Y-99678504D01*
X174875559Y-99622171D01*
X174950258Y-99535632D01*
X174950260Y-99535629D01*
X174958216Y-99526412D01*
X175057456Y-99351718D01*
X175120874Y-99161075D01*
X175144242Y-98976105D01*
X175145184Y-98968648D01*
X175145184Y-98968644D01*
X175146056Y-98961744D01*
X175146457Y-98933000D01*
X175126851Y-98733044D01*
X175111405Y-98681885D01*
X175092410Y-98618968D01*
X175083014Y-98522269D01*
X175111339Y-98429334D01*
X175173072Y-98354313D01*
X175258815Y-98308627D01*
X175330783Y-98298000D01*
X181229000Y-98298000D01*
X181229000Y-97945556D01*
X181247954Y-97850268D01*
X181301930Y-97769486D01*
X181382712Y-97715510D01*
X181426233Y-97701997D01*
X181472421Y-97692180D01*
X181472424Y-97692179D01*
X181485188Y-97689466D01*
X181643521Y-97618971D01*
X181654072Y-97611306D01*
X181654076Y-97611303D01*
X181773184Y-97524765D01*
X181783737Y-97517098D01*
X181899709Y-97388299D01*
X181939892Y-97318701D01*
X181979844Y-97249503D01*
X181979846Y-97249498D01*
X181986368Y-97238202D01*
X181993589Y-97215980D01*
X182035893Y-97085778D01*
X182035893Y-97085776D01*
X182039925Y-97073368D01*
X182042969Y-97044413D01*
X182056678Y-96913977D01*
X182056678Y-96913976D01*
X182058042Y-96901000D01*
X182045826Y-96784778D01*
X182041289Y-96741607D01*
X182041289Y-96741605D01*
X182039925Y-96728632D01*
X182018853Y-96663778D01*
X181990401Y-96576209D01*
X181990399Y-96576205D01*
X181986368Y-96563798D01*
X181979846Y-96552502D01*
X181979844Y-96552497D01*
X181906235Y-96425004D01*
X181906234Y-96425003D01*
X181899709Y-96413701D01*
X181783737Y-96284902D01*
X181706137Y-96228522D01*
X181654076Y-96190697D01*
X181654072Y-96190694D01*
X181643521Y-96183029D01*
X181485188Y-96112534D01*
X181472424Y-96109821D01*
X181472421Y-96109820D01*
X181426233Y-96100003D01*
X181336967Y-96061653D01*
X181269173Y-95992061D01*
X181233170Y-95901823D01*
X181229000Y-95856444D01*
X181229000Y-95377000D01*
X183066958Y-95377000D01*
X183085075Y-95549368D01*
X183138632Y-95714202D01*
X183145154Y-95725498D01*
X183145156Y-95725503D01*
X183194827Y-95811534D01*
X183225291Y-95864299D01*
X183341263Y-95993098D01*
X183351816Y-96000765D01*
X183470924Y-96087303D01*
X183470928Y-96087306D01*
X183481479Y-96094971D01*
X183639812Y-96165466D01*
X183652577Y-96168179D01*
X183664991Y-96172213D01*
X183664183Y-96174700D01*
X183734768Y-96205020D01*
X183802566Y-96274607D01*
X183838574Y-96364843D01*
X183841382Y-96384205D01*
X183847075Y-96438368D01*
X183851107Y-96450776D01*
X183851107Y-96450778D01*
X183891862Y-96576209D01*
X183900632Y-96603202D01*
X183907154Y-96614498D01*
X183907156Y-96614503D01*
X183980765Y-96741996D01*
X183987291Y-96753299D01*
X184103263Y-96882098D01*
X184113816Y-96889765D01*
X184232924Y-96976303D01*
X184232928Y-96976306D01*
X184243479Y-96983971D01*
X184401812Y-97054466D01*
X184414577Y-97057179D01*
X184426991Y-97061213D01*
X184426183Y-97063700D01*
X184496768Y-97094020D01*
X184564566Y-97163607D01*
X184600574Y-97253843D01*
X184603382Y-97273205D01*
X184604934Y-97287967D01*
X184607145Y-97309001D01*
X184609075Y-97327368D01*
X184613107Y-97339776D01*
X184613107Y-97339778D01*
X184655028Y-97468798D01*
X184662632Y-97492202D01*
X184669154Y-97503498D01*
X184669156Y-97503503D01*
X184742765Y-97630996D01*
X184749291Y-97642299D01*
X184865263Y-97771098D01*
X184875816Y-97778765D01*
X184994924Y-97865303D01*
X184994928Y-97865306D01*
X185005479Y-97872971D01*
X185163812Y-97943466D01*
X185176577Y-97946179D01*
X185188991Y-97950213D01*
X185188183Y-97952700D01*
X185258768Y-97983020D01*
X185326566Y-98052607D01*
X185362574Y-98142843D01*
X185365382Y-98162205D01*
X185371075Y-98216368D01*
X185375107Y-98228776D01*
X185375107Y-98228778D01*
X185418818Y-98363307D01*
X185424632Y-98381202D01*
X185431154Y-98392498D01*
X185431156Y-98392503D01*
X185494912Y-98502930D01*
X185526142Y-98594929D01*
X185519788Y-98691875D01*
X185476817Y-98779011D01*
X185403772Y-98843070D01*
X185331041Y-98870989D01*
X185213701Y-98895930D01*
X185163812Y-98906534D01*
X185005479Y-98977029D01*
X184994928Y-98984694D01*
X184994924Y-98984697D01*
X184909000Y-99047125D01*
X184865263Y-99078902D01*
X184749291Y-99207701D01*
X184742766Y-99219003D01*
X184742765Y-99219004D01*
X184669156Y-99346497D01*
X184669154Y-99346502D01*
X184662632Y-99357798D01*
X184658601Y-99370205D01*
X184658599Y-99370209D01*
X184626850Y-99467924D01*
X184609075Y-99522632D01*
X184607711Y-99535605D01*
X184607711Y-99535607D01*
X184604285Y-99568203D01*
X184590958Y-99695000D01*
X184592322Y-99707977D01*
X184607332Y-99850782D01*
X184609075Y-99867368D01*
X184613107Y-99879776D01*
X184613107Y-99879778D01*
X184652540Y-100001141D01*
X184662632Y-100032202D01*
X184669154Y-100043498D01*
X184669156Y-100043503D01*
X184742765Y-100170996D01*
X184749291Y-100182299D01*
X184865263Y-100311098D01*
X184875816Y-100318765D01*
X184994924Y-100405303D01*
X184994928Y-100405306D01*
X185005479Y-100412971D01*
X185163812Y-100483466D01*
X185333342Y-100519500D01*
X185506658Y-100519500D01*
X185676188Y-100483466D01*
X185834521Y-100412971D01*
X185845072Y-100405306D01*
X185845076Y-100405303D01*
X185964184Y-100318765D01*
X185974737Y-100311098D01*
X186090709Y-100182299D01*
X186097235Y-100170996D01*
X186170844Y-100043503D01*
X186170846Y-100043498D01*
X186177368Y-100032202D01*
X186187461Y-100001141D01*
X186226893Y-99879778D01*
X186226893Y-99879776D01*
X186230925Y-99867368D01*
X186232669Y-99850782D01*
X186247678Y-99707977D01*
X186249042Y-99695000D01*
X186235715Y-99568203D01*
X186232289Y-99535607D01*
X186232289Y-99535605D01*
X186230925Y-99522632D01*
X186213150Y-99467924D01*
X186181401Y-99370209D01*
X186181399Y-99370205D01*
X186177368Y-99357798D01*
X186170846Y-99346502D01*
X186170844Y-99346497D01*
X186107088Y-99236070D01*
X186075858Y-99144071D01*
X186082212Y-99047125D01*
X186125183Y-98959989D01*
X186198228Y-98895930D01*
X186270959Y-98868011D01*
X186425424Y-98835179D01*
X186438188Y-98832466D01*
X186596521Y-98761971D01*
X186607072Y-98754306D01*
X186607076Y-98754303D01*
X186708736Y-98680442D01*
X186736737Y-98660098D01*
X186852709Y-98531299D01*
X186869088Y-98502930D01*
X186932844Y-98392503D01*
X186932846Y-98392498D01*
X186939368Y-98381202D01*
X186945183Y-98363307D01*
X186988893Y-98228778D01*
X186988893Y-98228776D01*
X186992925Y-98216368D01*
X186995593Y-98190991D01*
X187009678Y-98056977D01*
X187011042Y-98044000D01*
X186999917Y-97938157D01*
X186994289Y-97884607D01*
X186994289Y-97884605D01*
X186992925Y-97871632D01*
X186971600Y-97806000D01*
X193988958Y-97806000D01*
X193990322Y-97818977D01*
X194003407Y-97943466D01*
X194007075Y-97978368D01*
X194011107Y-97990776D01*
X194011107Y-97990778D01*
X194012612Y-97995408D01*
X194060632Y-98143202D01*
X194067154Y-98154498D01*
X194067156Y-98154503D01*
X194140765Y-98281996D01*
X194147291Y-98293299D01*
X194263263Y-98422098D01*
X194273816Y-98429765D01*
X194392924Y-98516303D01*
X194392928Y-98516306D01*
X194403479Y-98523971D01*
X194561812Y-98594466D01*
X194731342Y-98630500D01*
X194904658Y-98630500D01*
X195074188Y-98594466D01*
X195232521Y-98523971D01*
X195243072Y-98516306D01*
X195243076Y-98516303D01*
X195362184Y-98429765D01*
X195372737Y-98422098D01*
X195488709Y-98293299D01*
X195495235Y-98281996D01*
X195568844Y-98154503D01*
X195568846Y-98154498D01*
X195575368Y-98143202D01*
X195623389Y-97995408D01*
X195624893Y-97990778D01*
X195624893Y-97990776D01*
X195628925Y-97978368D01*
X195632594Y-97943466D01*
X195645678Y-97818977D01*
X195647042Y-97806000D01*
X195636111Y-97701997D01*
X195630289Y-97646607D01*
X195630289Y-97646605D01*
X195628925Y-97633632D01*
X195624893Y-97621222D01*
X195579401Y-97481209D01*
X195579399Y-97481205D01*
X195575368Y-97468798D01*
X195568846Y-97457502D01*
X195568844Y-97457497D01*
X195495235Y-97330004D01*
X195495234Y-97330003D01*
X195488709Y-97318701D01*
X195372737Y-97189902D01*
X195308075Y-97142922D01*
X195243076Y-97095697D01*
X195243072Y-97095694D01*
X195232521Y-97088029D01*
X195074188Y-97017534D01*
X194904658Y-96981500D01*
X194731342Y-96981500D01*
X194561812Y-97017534D01*
X194403479Y-97088029D01*
X194392928Y-97095694D01*
X194392924Y-97095697D01*
X194327925Y-97142922D01*
X194263263Y-97189902D01*
X194147291Y-97318701D01*
X194140766Y-97330003D01*
X194140765Y-97330004D01*
X194067156Y-97457497D01*
X194067154Y-97457502D01*
X194060632Y-97468798D01*
X194056601Y-97481205D01*
X194056599Y-97481209D01*
X194011107Y-97621222D01*
X194007075Y-97633632D01*
X194005711Y-97646605D01*
X194005711Y-97646607D01*
X193999889Y-97701997D01*
X193988958Y-97806000D01*
X186971600Y-97806000D01*
X186960175Y-97770835D01*
X186943401Y-97719209D01*
X186943399Y-97719205D01*
X186939368Y-97706798D01*
X186932846Y-97695502D01*
X186932844Y-97695497D01*
X186859235Y-97568004D01*
X186859234Y-97568003D01*
X186852709Y-97556701D01*
X186736737Y-97427902D01*
X186665230Y-97375949D01*
X186607076Y-97333697D01*
X186607072Y-97333694D01*
X186596521Y-97326029D01*
X186438188Y-97255534D01*
X186425423Y-97252821D01*
X186413009Y-97248787D01*
X186413817Y-97246300D01*
X186343232Y-97215980D01*
X186275434Y-97146393D01*
X186239426Y-97056157D01*
X186236617Y-97036789D01*
X186235938Y-97030322D01*
X186230925Y-96982632D01*
X186220907Y-96951800D01*
X186181401Y-96830209D01*
X186181399Y-96830205D01*
X186177368Y-96817798D01*
X186170846Y-96806502D01*
X186170844Y-96806497D01*
X186097235Y-96679004D01*
X186097234Y-96679003D01*
X186090709Y-96667701D01*
X186029750Y-96600000D01*
X199570958Y-96600000D01*
X199572322Y-96612977D01*
X199587071Y-96753299D01*
X199589075Y-96772368D01*
X199593107Y-96784776D01*
X199593107Y-96784778D01*
X199635086Y-96913977D01*
X199642632Y-96937202D01*
X199649154Y-96948498D01*
X199649156Y-96948503D01*
X199714230Y-97061213D01*
X199729291Y-97087299D01*
X199845263Y-97216098D01*
X199871914Y-97235461D01*
X199974924Y-97310303D01*
X199974928Y-97310306D01*
X199985479Y-97317971D01*
X200143812Y-97388466D01*
X200313342Y-97424500D01*
X200486658Y-97424500D01*
X200656188Y-97388466D01*
X200814521Y-97317971D01*
X200825072Y-97310306D01*
X200825076Y-97310303D01*
X200928086Y-97235461D01*
X200954737Y-97216098D01*
X201070709Y-97087299D01*
X201085770Y-97061213D01*
X201150844Y-96948503D01*
X201150846Y-96948498D01*
X201157368Y-96937202D01*
X201164915Y-96913977D01*
X201206893Y-96784778D01*
X201206893Y-96784776D01*
X201210925Y-96772368D01*
X201212930Y-96753299D01*
X201227678Y-96612977D01*
X201229042Y-96600000D01*
X201215988Y-96475804D01*
X201212289Y-96440607D01*
X201212289Y-96440605D01*
X201210925Y-96427632D01*
X201205831Y-96411954D01*
X201161401Y-96275209D01*
X201161399Y-96275205D01*
X201157368Y-96262798D01*
X201150846Y-96251502D01*
X201150844Y-96251497D01*
X201077235Y-96124004D01*
X201077234Y-96124003D01*
X201070709Y-96112701D01*
X200954737Y-95983902D01*
X200878893Y-95928798D01*
X200825076Y-95889697D01*
X200825072Y-95889694D01*
X200814521Y-95882029D01*
X200656188Y-95811534D01*
X200486658Y-95775500D01*
X200313342Y-95775500D01*
X200143812Y-95811534D01*
X199985479Y-95882029D01*
X199974928Y-95889694D01*
X199974924Y-95889697D01*
X199921107Y-95928798D01*
X199845263Y-95983902D01*
X199729291Y-96112701D01*
X199722766Y-96124003D01*
X199722765Y-96124004D01*
X199649156Y-96251497D01*
X199649154Y-96251502D01*
X199642632Y-96262798D01*
X199638601Y-96275205D01*
X199638599Y-96275209D01*
X199594169Y-96411954D01*
X199589075Y-96427632D01*
X199587711Y-96440605D01*
X199587711Y-96440607D01*
X199584012Y-96475804D01*
X199570958Y-96600000D01*
X186029750Y-96600000D01*
X185974737Y-96538902D01*
X185908383Y-96490693D01*
X185845076Y-96444697D01*
X185845072Y-96444694D01*
X185834521Y-96437029D01*
X185676188Y-96366534D01*
X185663423Y-96363821D01*
X185651009Y-96359787D01*
X185651817Y-96357300D01*
X185581232Y-96326980D01*
X185513434Y-96257393D01*
X185477426Y-96167157D01*
X185474617Y-96147789D01*
X185470289Y-96106608D01*
X185470289Y-96106607D01*
X185468925Y-96093632D01*
X185438751Y-96000765D01*
X185419401Y-95941209D01*
X185419399Y-95941205D01*
X185415368Y-95928798D01*
X185408846Y-95917502D01*
X185408844Y-95917497D01*
X185335235Y-95790004D01*
X185335234Y-95790003D01*
X185328709Y-95778701D01*
X185212737Y-95649902D01*
X185173409Y-95621328D01*
X185083076Y-95555697D01*
X185083072Y-95555694D01*
X185072521Y-95548029D01*
X184914188Y-95477534D01*
X184901423Y-95474821D01*
X184889009Y-95470787D01*
X184889817Y-95468300D01*
X184819232Y-95437980D01*
X184751434Y-95368393D01*
X184715426Y-95278157D01*
X184712617Y-95258789D01*
X184708289Y-95217608D01*
X184708289Y-95217607D01*
X184706925Y-95204632D01*
X184668145Y-95085277D01*
X184657401Y-95052209D01*
X184657399Y-95052205D01*
X184653368Y-95039798D01*
X184646846Y-95028502D01*
X184646844Y-95028497D01*
X184573235Y-94901004D01*
X184573234Y-94901003D01*
X184566709Y-94889701D01*
X184450737Y-94760902D01*
X184350300Y-94687930D01*
X184321076Y-94666697D01*
X184321072Y-94666694D01*
X184310521Y-94659029D01*
X184152188Y-94588534D01*
X183982658Y-94552500D01*
X183809342Y-94552500D01*
X183639812Y-94588534D01*
X183481479Y-94659029D01*
X183470928Y-94666694D01*
X183470924Y-94666697D01*
X183441700Y-94687930D01*
X183341263Y-94760902D01*
X183225291Y-94889701D01*
X183218766Y-94901003D01*
X183218765Y-94901004D01*
X183145156Y-95028497D01*
X183145154Y-95028502D01*
X183138632Y-95039798D01*
X183134601Y-95052205D01*
X183134599Y-95052209D01*
X183123855Y-95085277D01*
X183085075Y-95204632D01*
X183083711Y-95217605D01*
X183083711Y-95217607D01*
X183080880Y-95244542D01*
X183066958Y-95377000D01*
X181229000Y-95377000D01*
X181229000Y-94234000D01*
X181207223Y-94219627D01*
X190486643Y-94219627D01*
X190487662Y-94231762D01*
X190487662Y-94231764D01*
X190501248Y-94393550D01*
X190503455Y-94419837D01*
X190558835Y-94612968D01*
X190650673Y-94791665D01*
X190775471Y-94949121D01*
X190784744Y-94957013D01*
X190784746Y-94957015D01*
X190919203Y-95071447D01*
X190928475Y-95079338D01*
X191103858Y-95177356D01*
X191115438Y-95181119D01*
X191115439Y-95181119D01*
X191283353Y-95235678D01*
X191283358Y-95235679D01*
X191294939Y-95239442D01*
X191307033Y-95240884D01*
X191307037Y-95240885D01*
X191441042Y-95256864D01*
X191494441Y-95263231D01*
X191506580Y-95262297D01*
X191506582Y-95262297D01*
X191556626Y-95258446D01*
X191694763Y-95247817D01*
X191849435Y-95204632D01*
X191876548Y-95197062D01*
X191876550Y-95197061D01*
X191888277Y-95193787D01*
X192067611Y-95103199D01*
X192132876Y-95052209D01*
X192216337Y-94987002D01*
X192225934Y-94979504D01*
X192260398Y-94939577D01*
X192349258Y-94836632D01*
X192349260Y-94836629D01*
X192357216Y-94827412D01*
X192456456Y-94652718D01*
X192519874Y-94462075D01*
X192542383Y-94283903D01*
X192544184Y-94269648D01*
X192544184Y-94269644D01*
X192545056Y-94262744D01*
X192545457Y-94234000D01*
X192525851Y-94034044D01*
X192467780Y-93841704D01*
X192373457Y-93664307D01*
X192246473Y-93508609D01*
X192091665Y-93380541D01*
X192080961Y-93374754D01*
X192080959Y-93374752D01*
X192016360Y-93339824D01*
X191914931Y-93284982D01*
X191903297Y-93281380D01*
X191903293Y-93281379D01*
X191734634Y-93229170D01*
X191734633Y-93229170D01*
X191723001Y-93225569D01*
X191710891Y-93224296D01*
X191710890Y-93224296D01*
X191535299Y-93205841D01*
X191523187Y-93204568D01*
X191509200Y-93205841D01*
X191335226Y-93221674D01*
X191335223Y-93221675D01*
X191323099Y-93222778D01*
X191311420Y-93226215D01*
X191311416Y-93226216D01*
X191221636Y-93252640D01*
X191130359Y-93279504D01*
X191119565Y-93285147D01*
X190980537Y-93357829D01*
X190952307Y-93372587D01*
X190942821Y-93380214D01*
X190942818Y-93380216D01*
X190900542Y-93414207D01*
X190795727Y-93498481D01*
X190787899Y-93507810D01*
X190787898Y-93507811D01*
X190689806Y-93624713D01*
X190666581Y-93652391D01*
X190660717Y-93663057D01*
X190660716Y-93663059D01*
X190637393Y-93705484D01*
X190569790Y-93828454D01*
X190558097Y-93865316D01*
X190512723Y-94008349D01*
X190512722Y-94008354D01*
X190509039Y-94019964D01*
X190486643Y-94219627D01*
X181207223Y-94219627D01*
X178750991Y-92598514D01*
X178681905Y-92530207D01*
X178659554Y-92489410D01*
X178608743Y-92371741D01*
X178226802Y-91487246D01*
X178206400Y-91388534D01*
X178206400Y-91206505D01*
X178225354Y-91111217D01*
X178279330Y-91030435D01*
X178360112Y-90976459D01*
X178455400Y-90957505D01*
X178532345Y-90969692D01*
X178684953Y-91019278D01*
X178684958Y-91019279D01*
X178696539Y-91023042D01*
X178708633Y-91024484D01*
X178708637Y-91024485D01*
X178842642Y-91040464D01*
X178896041Y-91046831D01*
X178908180Y-91045897D01*
X178908182Y-91045897D01*
X178958226Y-91042046D01*
X179096363Y-91031417D01*
X179193120Y-91004402D01*
X179278148Y-90980662D01*
X179278150Y-90980661D01*
X179289877Y-90977387D01*
X179469211Y-90886799D01*
X179627534Y-90763104D01*
X179640573Y-90747998D01*
X179750858Y-90620232D01*
X179750860Y-90620229D01*
X179758816Y-90611012D01*
X179858056Y-90436318D01*
X179921474Y-90245675D01*
X179942380Y-90080189D01*
X179945784Y-90053248D01*
X179945784Y-90053244D01*
X179946656Y-90046344D01*
X179947057Y-90017600D01*
X179927451Y-89817644D01*
X179869380Y-89625304D01*
X179775057Y-89447907D01*
X179648073Y-89292209D01*
X179493265Y-89164141D01*
X179482561Y-89158354D01*
X179482559Y-89158352D01*
X179383286Y-89104676D01*
X179316531Y-89068582D01*
X179304897Y-89064980D01*
X179304893Y-89064979D01*
X179136234Y-89012770D01*
X179136233Y-89012770D01*
X179124601Y-89009169D01*
X179013573Y-88997500D01*
X178920788Y-88968690D01*
X178846091Y-88906566D01*
X178800854Y-88820585D01*
X178790600Y-88749864D01*
X178790600Y-88239600D01*
X177266600Y-86715600D01*
X170078400Y-86715600D01*
X170070120Y-86730181D01*
X168691266Y-89158352D01*
X168289877Y-89865200D01*
X166086156Y-93745968D01*
X166060121Y-93791815D01*
X165996586Y-93865316D01*
X165909760Y-93908909D01*
X165812861Y-93915956D01*
X165720641Y-93885385D01*
X165647140Y-93821850D01*
X165603547Y-93735024D01*
X165596576Y-93677460D01*
X165595532Y-93677537D01*
X165594608Y-93664953D01*
X165594960Y-93652347D01*
X165559665Y-93452179D01*
X165484841Y-93263195D01*
X165373545Y-93093118D01*
X165369083Y-93088162D01*
X165308510Y-93027589D01*
X165295521Y-93013561D01*
X165268733Y-92982307D01*
X165268729Y-92982303D01*
X165260523Y-92972729D01*
X165250561Y-92965001D01*
X165250556Y-92964997D01*
X165242265Y-92958566D01*
X165218808Y-92937887D01*
X164039290Y-91758369D01*
X162841490Y-90560570D01*
X162787514Y-90479788D01*
X162768560Y-90384500D01*
X162787514Y-90289212D01*
X162841490Y-90208430D01*
X162922272Y-90154454D01*
X163017560Y-90135500D01*
X164356735Y-90135499D01*
X164367828Y-90135499D01*
X164425090Y-90132399D01*
X164433566Y-90130744D01*
X164433572Y-90130743D01*
X164571066Y-90103892D01*
X164654193Y-90087658D01*
X164708320Y-90067151D01*
X164862631Y-90008688D01*
X164862635Y-90008686D01*
X164872483Y-90004955D01*
X164881566Y-89999616D01*
X164881569Y-89999614D01*
X165064629Y-89891999D01*
X165064633Y-89891996D01*
X165073717Y-89886656D01*
X165252142Y-89736142D01*
X165402656Y-89557717D01*
X165418144Y-89531372D01*
X165515614Y-89365569D01*
X165515616Y-89365566D01*
X165520955Y-89356483D01*
X165525122Y-89345486D01*
X165599922Y-89148054D01*
X165603658Y-89138193D01*
X165648399Y-88909090D01*
X165651500Y-88851829D01*
X165651499Y-86918172D01*
X165648399Y-86860910D01*
X165645702Y-86847097D01*
X165605679Y-86642157D01*
X165603658Y-86631807D01*
X165569962Y-86542868D01*
X165524688Y-86423369D01*
X165524686Y-86423365D01*
X165520955Y-86413517D01*
X165515614Y-86404431D01*
X165407999Y-86221371D01*
X165407996Y-86221367D01*
X165402656Y-86212283D01*
X165252142Y-86033858D01*
X165184524Y-85976817D01*
X165081778Y-85890144D01*
X165073717Y-85883344D01*
X165073948Y-85883070D01*
X165011537Y-85817188D01*
X164976798Y-85726456D01*
X164979425Y-85629336D01*
X165019019Y-85540615D01*
X165089550Y-85473799D01*
X165180282Y-85439060D01*
X165222238Y-85435500D01*
X167242904Y-85435499D01*
X167284300Y-85435499D01*
X167305225Y-85436380D01*
X167331466Y-85438593D01*
X167338432Y-85438984D01*
X167340785Y-85439116D01*
X167340788Y-85439116D01*
X167342550Y-85439215D01*
X167344327Y-85439265D01*
X167344332Y-85439265D01*
X167368836Y-85439952D01*
X167368866Y-85439952D01*
X167370564Y-85440000D01*
X168016216Y-85440000D01*
X168022639Y-85439912D01*
X168029101Y-85439823D01*
X168029165Y-85439822D01*
X168030011Y-85439810D01*
X168035482Y-85439659D01*
X168041349Y-85439415D01*
X168048520Y-85439118D01*
X168048576Y-85439115D01*
X168049329Y-85439084D01*
X168050160Y-85439038D01*
X168050241Y-85439034D01*
X168059679Y-85438511D01*
X168059706Y-85438510D01*
X168107219Y-85435880D01*
X168120981Y-85435499D01*
X168198376Y-85435499D01*
X168259580Y-85428851D01*
X168285111Y-85419280D01*
X168327977Y-85407452D01*
X168331834Y-85406751D01*
X168337205Y-85405698D01*
X168337943Y-85405543D01*
X168337986Y-85405534D01*
X168349895Y-85403028D01*
X168349901Y-85403027D01*
X168350698Y-85402859D01*
X168351483Y-85402682D01*
X168351545Y-85402669D01*
X172001351Y-84582000D01*
X183066958Y-84582000D01*
X183068322Y-84594977D01*
X183079736Y-84703568D01*
X183085075Y-84754368D01*
X183089107Y-84766776D01*
X183089107Y-84766778D01*
X183116556Y-84851257D01*
X183138632Y-84919202D01*
X183145154Y-84930498D01*
X183145156Y-84930503D01*
X183184500Y-84998648D01*
X183225291Y-85069299D01*
X183341263Y-85198098D01*
X183351816Y-85205765D01*
X183470924Y-85292303D01*
X183470928Y-85292306D01*
X183481479Y-85299971D01*
X183639812Y-85370466D01*
X183809342Y-85406500D01*
X183982658Y-85406500D01*
X184152188Y-85370466D01*
X184310521Y-85299971D01*
X184321072Y-85292305D01*
X184321081Y-85292300D01*
X184394202Y-85239174D01*
X184482432Y-85198499D01*
X184579512Y-85194685D01*
X184670662Y-85228312D01*
X184686916Y-85239172D01*
X184690122Y-85241501D01*
X184700679Y-85249171D01*
X184859012Y-85319666D01*
X185028542Y-85355700D01*
X185201858Y-85355700D01*
X185210185Y-85353930D01*
X185304515Y-85362599D01*
X185390495Y-85407837D01*
X185452619Y-85482534D01*
X185481428Y-85575319D01*
X185472537Y-85672067D01*
X185449433Y-85725842D01*
X185424632Y-85768798D01*
X185420601Y-85781205D01*
X185420599Y-85781209D01*
X185385205Y-85890144D01*
X185371075Y-85933632D01*
X185369711Y-85946605D01*
X185369711Y-85946607D01*
X185365067Y-85990789D01*
X185352958Y-86106000D01*
X185354322Y-86118977D01*
X185369434Y-86262752D01*
X185371075Y-86278368D01*
X185375107Y-86290776D01*
X185375107Y-86290778D01*
X185418188Y-86423369D01*
X185424632Y-86443202D01*
X185431154Y-86454498D01*
X185431156Y-86454503D01*
X185503324Y-86579500D01*
X185511291Y-86593299D01*
X185627263Y-86722098D01*
X185642187Y-86732941D01*
X185756924Y-86816303D01*
X185756928Y-86816306D01*
X185767479Y-86823971D01*
X185925812Y-86894466D01*
X186090578Y-86929487D01*
X186179842Y-86967838D01*
X186247636Y-87037430D01*
X186283638Y-87127668D01*
X186282647Y-87203335D01*
X186285475Y-87203632D01*
X186267358Y-87376000D01*
X186268722Y-87388977D01*
X186283456Y-87529155D01*
X186285475Y-87548368D01*
X186289507Y-87560776D01*
X186289507Y-87560778D01*
X186331234Y-87689201D01*
X186339032Y-87713202D01*
X186345554Y-87724498D01*
X186345556Y-87724503D01*
X186419165Y-87851996D01*
X186425691Y-87863299D01*
X186541663Y-87992098D01*
X186552216Y-87999765D01*
X186671324Y-88086303D01*
X186671328Y-88086306D01*
X186681879Y-88093971D01*
X186840212Y-88164466D01*
X187009742Y-88200500D01*
X187183058Y-88200500D01*
X187352588Y-88164466D01*
X187510921Y-88093971D01*
X187521472Y-88086306D01*
X187521476Y-88086303D01*
X187640584Y-87999765D01*
X187651137Y-87992098D01*
X187767109Y-87863299D01*
X187773635Y-87851996D01*
X187847244Y-87724503D01*
X187847246Y-87724498D01*
X187853768Y-87713202D01*
X187861567Y-87689201D01*
X187903293Y-87560778D01*
X187903293Y-87560776D01*
X187907325Y-87548368D01*
X187909345Y-87529155D01*
X187924078Y-87388977D01*
X187925442Y-87376000D01*
X187907325Y-87203632D01*
X187887242Y-87141821D01*
X187876132Y-87107627D01*
X196836643Y-87107627D01*
X196837662Y-87119762D01*
X196837662Y-87119764D01*
X196846159Y-87220945D01*
X196853455Y-87307837D01*
X196908835Y-87500968D01*
X196914396Y-87511789D01*
X196914397Y-87511791D01*
X196933195Y-87548368D01*
X197000673Y-87679665D01*
X197125471Y-87837121D01*
X197134744Y-87845013D01*
X197134746Y-87845015D01*
X197165732Y-87871386D01*
X197278475Y-87967338D01*
X197453858Y-88065356D01*
X197465438Y-88069119D01*
X197465439Y-88069119D01*
X197633353Y-88123678D01*
X197633358Y-88123679D01*
X197644939Y-88127442D01*
X197657033Y-88128884D01*
X197657037Y-88128885D01*
X197791042Y-88144864D01*
X197844441Y-88151231D01*
X197856580Y-88150297D01*
X197856582Y-88150297D01*
X197906626Y-88146446D01*
X198044763Y-88135817D01*
X198175631Y-88099278D01*
X198226548Y-88085062D01*
X198226550Y-88085061D01*
X198238277Y-88081787D01*
X198417611Y-87991199D01*
X198575934Y-87867504D01*
X198610398Y-87827577D01*
X198699258Y-87724632D01*
X198699260Y-87724629D01*
X198707216Y-87715412D01*
X198774898Y-87596271D01*
X198800438Y-87551312D01*
X198800439Y-87551310D01*
X198806456Y-87540718D01*
X198869874Y-87350075D01*
X198895056Y-87150744D01*
X198895457Y-87122000D01*
X198875851Y-86922044D01*
X198817780Y-86729704D01*
X198723457Y-86552307D01*
X198596473Y-86396609D01*
X198441665Y-86268541D01*
X198430961Y-86262754D01*
X198430959Y-86262752D01*
X198307108Y-86195787D01*
X198264931Y-86172982D01*
X198253297Y-86169380D01*
X198253293Y-86169379D01*
X198084634Y-86117170D01*
X198084633Y-86117170D01*
X198073001Y-86113569D01*
X198060891Y-86112296D01*
X198060890Y-86112296D01*
X197885299Y-86093841D01*
X197873187Y-86092568D01*
X197859200Y-86093841D01*
X197685226Y-86109674D01*
X197685223Y-86109675D01*
X197673099Y-86110778D01*
X197661420Y-86114215D01*
X197661416Y-86114216D01*
X197564554Y-86142724D01*
X197480359Y-86167504D01*
X197469565Y-86173147D01*
X197377321Y-86221371D01*
X197302307Y-86260587D01*
X197292821Y-86268214D01*
X197292818Y-86268216D01*
X197214527Y-86331164D01*
X197145727Y-86386481D01*
X197137899Y-86395810D01*
X197137898Y-86395811D01*
X197028229Y-86526510D01*
X197016581Y-86540391D01*
X197010717Y-86551057D01*
X197010716Y-86551059D01*
X196990664Y-86587534D01*
X196919790Y-86716454D01*
X196908440Y-86752235D01*
X196862723Y-86896349D01*
X196862722Y-86896354D01*
X196859039Y-86907964D01*
X196836643Y-87107627D01*
X187876132Y-87107627D01*
X187857801Y-87051209D01*
X187857799Y-87051205D01*
X187853768Y-87038798D01*
X187847246Y-87027502D01*
X187847244Y-87027497D01*
X187773635Y-86900004D01*
X187773634Y-86900003D01*
X187767109Y-86888701D01*
X187651137Y-86759902D01*
X187585759Y-86712402D01*
X187521476Y-86665697D01*
X187521472Y-86665694D01*
X187510921Y-86658029D01*
X187352588Y-86587534D01*
X187187822Y-86552513D01*
X187098558Y-86514162D01*
X187030764Y-86444570D01*
X186994762Y-86354332D01*
X186995753Y-86278665D01*
X186992925Y-86278368D01*
X187004380Y-86169379D01*
X187006840Y-86145978D01*
X187035651Y-86053193D01*
X187097776Y-85978496D01*
X187177531Y-85935193D01*
X187187421Y-85931980D01*
X187200188Y-85929266D01*
X187212110Y-85923958D01*
X187212113Y-85923957D01*
X187264983Y-85900417D01*
X187358521Y-85858771D01*
X187369072Y-85851106D01*
X187369076Y-85851103D01*
X187482358Y-85768798D01*
X187498737Y-85756898D01*
X187614709Y-85628099D01*
X187622897Y-85613917D01*
X187625401Y-85611062D01*
X187628905Y-85606239D01*
X187629348Y-85606561D01*
X187686956Y-85540873D01*
X187774092Y-85497903D01*
X187871039Y-85491550D01*
X187963038Y-85522780D01*
X188033676Y-85583753D01*
X188108471Y-85678121D01*
X188117744Y-85686013D01*
X188117746Y-85686015D01*
X188252203Y-85800447D01*
X188261475Y-85808338D01*
X188313998Y-85837692D01*
X188395193Y-85883070D01*
X188436858Y-85906356D01*
X188448438Y-85910119D01*
X188448439Y-85910119D01*
X188616353Y-85964678D01*
X188616358Y-85964679D01*
X188627939Y-85968442D01*
X188640033Y-85969884D01*
X188640037Y-85969885D01*
X188774042Y-85985864D01*
X188827441Y-85992231D01*
X188839580Y-85991297D01*
X188839582Y-85991297D01*
X188889626Y-85987446D01*
X189027763Y-85976817D01*
X189198072Y-85929266D01*
X189209548Y-85926062D01*
X189209550Y-85926061D01*
X189221277Y-85922787D01*
X189400611Y-85832199D01*
X189465876Y-85781209D01*
X189549337Y-85716002D01*
X189558934Y-85708504D01*
X189578346Y-85686015D01*
X189682258Y-85565632D01*
X189682260Y-85565629D01*
X189690216Y-85556412D01*
X189766904Y-85421416D01*
X189783438Y-85392312D01*
X189783439Y-85392310D01*
X189789456Y-85381718D01*
X189852874Y-85191075D01*
X189878056Y-84991744D01*
X189878153Y-84984791D01*
X189878360Y-84969956D01*
X189878360Y-84969955D01*
X189878457Y-84963000D01*
X189858851Y-84763044D01*
X189800780Y-84570704D01*
X189706457Y-84393307D01*
X189579473Y-84237609D01*
X189505766Y-84176633D01*
X189434044Y-84117300D01*
X189424665Y-84109541D01*
X189413961Y-84103754D01*
X189413959Y-84103752D01*
X189303265Y-84043901D01*
X189247931Y-84013982D01*
X189236297Y-84010380D01*
X189236293Y-84010379D01*
X189067634Y-83958170D01*
X189067633Y-83958170D01*
X189056001Y-83954569D01*
X189043891Y-83953296D01*
X189043890Y-83953296D01*
X188868299Y-83934841D01*
X188856187Y-83933568D01*
X188842200Y-83934841D01*
X188668226Y-83950674D01*
X188668223Y-83950675D01*
X188656099Y-83951778D01*
X188644420Y-83955215D01*
X188644416Y-83955216D01*
X188547554Y-83983724D01*
X188463359Y-84008504D01*
X188285307Y-84101587D01*
X188275821Y-84109214D01*
X188275818Y-84109216D01*
X188265764Y-84117300D01*
X188128727Y-84227481D01*
X188120899Y-84236810D01*
X188120898Y-84236811D01*
X188009919Y-84369071D01*
X187999581Y-84381391D01*
X187972585Y-84430497D01*
X187929589Y-84508707D01*
X187867074Y-84583078D01*
X187780858Y-84627864D01*
X187684065Y-84636247D01*
X187591432Y-84606952D01*
X187526345Y-84555364D01*
X187507466Y-84534397D01*
X187498737Y-84524702D01*
X187438811Y-84481163D01*
X187369076Y-84430497D01*
X187369072Y-84430494D01*
X187358521Y-84422829D01*
X187200188Y-84352334D01*
X187030658Y-84316300D01*
X186857342Y-84316300D01*
X186687812Y-84352334D01*
X186529479Y-84422829D01*
X186518928Y-84430494D01*
X186518924Y-84430497D01*
X186449189Y-84481163D01*
X186389263Y-84524702D01*
X186364365Y-84552354D01*
X186286523Y-84610481D01*
X186192358Y-84634397D01*
X186096208Y-84620456D01*
X186012712Y-84570782D01*
X185954582Y-84492936D01*
X185931689Y-84411767D01*
X185927489Y-84371807D01*
X185927489Y-84371805D01*
X185926125Y-84358832D01*
X185903218Y-84288329D01*
X185876601Y-84206409D01*
X185876599Y-84206405D01*
X185872568Y-84193998D01*
X185866046Y-84182702D01*
X185866044Y-84182697D01*
X185792435Y-84055204D01*
X185792434Y-84055203D01*
X185785909Y-84043901D01*
X185669937Y-83915102D01*
X185566611Y-83840031D01*
X185540276Y-83820897D01*
X185540272Y-83820894D01*
X185529721Y-83813229D01*
X185371388Y-83742734D01*
X185201858Y-83706700D01*
X185028542Y-83706700D01*
X184859012Y-83742734D01*
X184700679Y-83813229D01*
X184690128Y-83820895D01*
X184690119Y-83820900D01*
X184616998Y-83874026D01*
X184528768Y-83914701D01*
X184431688Y-83918515D01*
X184340538Y-83884888D01*
X184324284Y-83874028D01*
X184321078Y-83871699D01*
X184321075Y-83871697D01*
X184310521Y-83864029D01*
X184152188Y-83793534D01*
X183982658Y-83757500D01*
X183809342Y-83757500D01*
X183639812Y-83793534D01*
X183481479Y-83864029D01*
X183470928Y-83871694D01*
X183470924Y-83871697D01*
X183397838Y-83924798D01*
X183341263Y-83965902D01*
X183225291Y-84094701D01*
X183218766Y-84106003D01*
X183218765Y-84106004D01*
X183145156Y-84233497D01*
X183145154Y-84233502D01*
X183138632Y-84244798D01*
X183134601Y-84257205D01*
X183134599Y-84257209D01*
X183089107Y-84397222D01*
X183085075Y-84409632D01*
X183083711Y-84422605D01*
X183083711Y-84422607D01*
X183073786Y-84517035D01*
X183066958Y-84582000D01*
X172001351Y-84582000D01*
X174168543Y-84094701D01*
X179305134Y-82939725D01*
X179318599Y-82937086D01*
X179350625Y-82931724D01*
X179350628Y-82931723D01*
X179351139Y-82934777D01*
X179351143Y-82934777D01*
X179350632Y-82931723D01*
X179366361Y-82929090D01*
X179393707Y-82926054D01*
X179412645Y-82925006D01*
X179441991Y-82923381D01*
X179455754Y-82923000D01*
X199816298Y-82923000D01*
X199911586Y-82941954D01*
G37*
G04 #@! TD.AperFunction*
G04 #@! TA.AperFunction,Conductor*
G36*
X185251727Y-72393454D02*
G01*
X185332509Y-72447430D01*
X187666306Y-74781227D01*
X187720282Y-74862009D01*
X187739236Y-74957297D01*
X187720282Y-75052585D01*
X187666306Y-75133367D01*
X187585524Y-75187343D01*
X187490236Y-75206297D01*
X187428693Y-75196989D01*
X187428564Y-75197619D01*
X187416634Y-75195170D01*
X187405001Y-75191569D01*
X187392891Y-75190296D01*
X187392890Y-75190296D01*
X187217299Y-75171841D01*
X187205187Y-75170568D01*
X187191200Y-75171841D01*
X187017226Y-75187674D01*
X187017223Y-75187675D01*
X187005099Y-75188778D01*
X186993420Y-75192215D01*
X186993416Y-75192216D01*
X186900982Y-75219421D01*
X186812359Y-75245504D01*
X186801565Y-75251147D01*
X186647374Y-75331756D01*
X186634307Y-75338587D01*
X186624821Y-75346214D01*
X186624818Y-75346216D01*
X186588436Y-75375468D01*
X186477727Y-75464481D01*
X186469899Y-75473810D01*
X186469898Y-75473811D01*
X186370555Y-75592204D01*
X186348581Y-75618391D01*
X186342717Y-75629057D01*
X186342716Y-75629059D01*
X186310248Y-75688118D01*
X186251790Y-75794454D01*
X186248106Y-75806068D01*
X186194723Y-75974349D01*
X186194722Y-75974354D01*
X186191039Y-75985964D01*
X186189681Y-75998071D01*
X186187150Y-76009979D01*
X186185101Y-76009543D01*
X186160734Y-76086136D01*
X186098091Y-76160400D01*
X186011798Y-76205038D01*
X185914991Y-76213255D01*
X185824310Y-76184839D01*
X185719993Y-76128435D01*
X185719983Y-76128431D01*
X185709273Y-76122640D01*
X185697639Y-76119038D01*
X185697635Y-76119037D01*
X185528976Y-76066828D01*
X185528975Y-76066828D01*
X185517343Y-76063227D01*
X185505233Y-76061954D01*
X185505232Y-76061954D01*
X185329641Y-76043499D01*
X185317529Y-76042226D01*
X185303542Y-76043499D01*
X185129568Y-76059332D01*
X185129565Y-76059333D01*
X185117441Y-76060436D01*
X185105762Y-76063873D01*
X185105758Y-76063874D01*
X185036799Y-76084170D01*
X184924701Y-76117162D01*
X184913907Y-76122805D01*
X184763842Y-76201257D01*
X184746649Y-76210245D01*
X184737163Y-76217872D01*
X184737160Y-76217874D01*
X184648236Y-76289371D01*
X184590069Y-76336139D01*
X184582241Y-76345468D01*
X184582240Y-76345469D01*
X184485034Y-76461315D01*
X184460923Y-76490049D01*
X184455059Y-76500715D01*
X184455058Y-76500717D01*
X184424102Y-76557027D01*
X184364132Y-76666112D01*
X184360448Y-76677726D01*
X184307065Y-76846007D01*
X184307064Y-76846012D01*
X184303381Y-76857622D01*
X184280985Y-77057285D01*
X184282004Y-77069420D01*
X184282004Y-77069422D01*
X184295424Y-77229231D01*
X184297797Y-77257495D01*
X184353177Y-77450626D01*
X184358738Y-77461447D01*
X184358739Y-77461449D01*
X184363319Y-77470360D01*
X184445015Y-77629323D01*
X184569813Y-77786779D01*
X184579086Y-77794671D01*
X184579088Y-77794673D01*
X184637139Y-77844078D01*
X184722817Y-77916996D01*
X184898200Y-78015014D01*
X184909780Y-78018777D01*
X184909781Y-78018777D01*
X185077695Y-78073336D01*
X185077700Y-78073337D01*
X185089281Y-78077100D01*
X185101375Y-78078542D01*
X185101379Y-78078543D01*
X185203150Y-78090678D01*
X185288783Y-78100889D01*
X185300922Y-78099955D01*
X185300924Y-78099955D01*
X185350968Y-78096104D01*
X185489105Y-78085475D01*
X185640177Y-78043295D01*
X185670890Y-78034720D01*
X185670892Y-78034719D01*
X185682619Y-78031445D01*
X185861953Y-77940857D01*
X186020276Y-77817162D01*
X186125909Y-77694785D01*
X186143600Y-77674290D01*
X186143602Y-77674287D01*
X186151558Y-77665070D01*
X186234928Y-77518312D01*
X186244780Y-77500970D01*
X186244781Y-77500968D01*
X186250798Y-77490376D01*
X186314216Y-77299733D01*
X186317504Y-77273703D01*
X186348251Y-77181546D01*
X186411926Y-77108166D01*
X186498836Y-77064740D01*
X186595748Y-77057878D01*
X186686017Y-77087557D01*
X186785858Y-77143356D01*
X186797438Y-77147119D01*
X186797439Y-77147119D01*
X186965353Y-77201678D01*
X186965358Y-77201679D01*
X186976939Y-77205442D01*
X186989033Y-77206884D01*
X186989037Y-77206885D01*
X187123042Y-77222864D01*
X187176441Y-77229231D01*
X187188580Y-77228297D01*
X187188582Y-77228297D01*
X187238626Y-77224446D01*
X187376763Y-77213817D01*
X187492345Y-77181546D01*
X187558548Y-77163062D01*
X187558550Y-77163061D01*
X187570277Y-77159787D01*
X187749611Y-77069199D01*
X187827204Y-77008577D01*
X187913958Y-76964850D01*
X188010845Y-76957650D01*
X188103113Y-76988075D01*
X188176715Y-77051494D01*
X188220444Y-77138252D01*
X188229500Y-77204794D01*
X188229500Y-78729112D01*
X188224708Y-78774701D01*
X188223039Y-78779964D01*
X188200643Y-78979627D01*
X188201662Y-78991762D01*
X188201662Y-78991765D01*
X188211856Y-79113165D01*
X188200941Y-79209705D01*
X188153914Y-79294720D01*
X188077932Y-79355266D01*
X187984564Y-79382127D01*
X187963729Y-79383000D01*
X184170793Y-79383000D01*
X184146387Y-79381801D01*
X184061337Y-79373424D01*
X184013463Y-79363901D01*
X183967048Y-79349821D01*
X183921954Y-79331142D01*
X183879187Y-79308283D01*
X183838597Y-79281162D01*
X183801113Y-79250399D01*
X183766602Y-79215888D01*
X183735837Y-79178402D01*
X183708715Y-79137812D01*
X183685858Y-79095049D01*
X183667179Y-79049954D01*
X183653099Y-79003539D01*
X183643576Y-78955664D01*
X183635199Y-78870614D01*
X183634000Y-78846207D01*
X183634000Y-76696861D01*
X183633530Y-76677726D01*
X183633434Y-76673801D01*
X183633433Y-76673765D01*
X183633397Y-76672313D01*
X183632920Y-76662609D01*
X183631115Y-76638148D01*
X183625803Y-76584210D01*
X183613633Y-76460646D01*
X183613631Y-76460626D01*
X183613333Y-76457605D01*
X183606134Y-76409071D01*
X183602348Y-76390037D01*
X183590425Y-76342438D01*
X183556242Y-76229752D01*
X183540067Y-76176428D01*
X183540063Y-76176416D01*
X183539180Y-76173505D01*
X183533334Y-76157165D01*
X183523685Y-76130200D01*
X183523684Y-76130198D01*
X183522648Y-76127302D01*
X183515221Y-76109372D01*
X183494244Y-76065018D01*
X183411028Y-75909332D01*
X183385807Y-75867253D01*
X183375025Y-75851116D01*
X183345794Y-75811702D01*
X183341171Y-75806068D01*
X183300611Y-75756645D01*
X183300612Y-75756645D01*
X183300540Y-75756558D01*
X183235746Y-75677607D01*
X183235738Y-75677597D01*
X183233794Y-75675229D01*
X183200843Y-75638874D01*
X183187126Y-75625157D01*
X183150769Y-75592204D01*
X183014302Y-75480209D01*
X183011866Y-75478402D01*
X183011854Y-75478393D01*
X182977340Y-75452796D01*
X182977328Y-75452787D01*
X182974884Y-75450975D01*
X182958747Y-75440193D01*
X182916668Y-75414972D01*
X182760982Y-75331756D01*
X182740434Y-75322038D01*
X182719409Y-75312094D01*
X182719400Y-75312090D01*
X182716628Y-75310779D01*
X182698698Y-75303352D01*
X182695841Y-75302330D01*
X182695834Y-75302327D01*
X182655351Y-75287841D01*
X182655328Y-75287833D01*
X182652493Y-75286819D01*
X182568027Y-75261197D01*
X182483558Y-75235574D01*
X182435980Y-75223656D01*
X182432990Y-75223061D01*
X182432976Y-75223058D01*
X182427788Y-75222026D01*
X182416950Y-75219870D01*
X182405930Y-75218235D01*
X182371431Y-75213117D01*
X182371421Y-75213116D01*
X182368396Y-75212667D01*
X182365360Y-75212368D01*
X182365352Y-75212367D01*
X182283966Y-75204351D01*
X182187851Y-75194885D01*
X182177997Y-75194158D01*
X182164913Y-75193192D01*
X182164888Y-75193190D01*
X182163391Y-75193080D01*
X182161884Y-75193006D01*
X182161869Y-75193005D01*
X182159302Y-75192879D01*
X182153687Y-75192603D01*
X182152235Y-75192567D01*
X182152199Y-75192566D01*
X182135462Y-75192155D01*
X182129139Y-75192000D01*
X180328861Y-75192000D01*
X180322538Y-75192155D01*
X180305801Y-75192566D01*
X180305765Y-75192567D01*
X180304313Y-75192603D01*
X180298698Y-75192879D01*
X180296131Y-75193005D01*
X180296116Y-75193006D01*
X180294609Y-75193080D01*
X180293112Y-75193190D01*
X180293087Y-75193192D01*
X180280003Y-75194158D01*
X180270149Y-75194885D01*
X180174034Y-75204351D01*
X180092648Y-75212367D01*
X180092640Y-75212368D01*
X180089604Y-75212667D01*
X180086579Y-75213116D01*
X180086569Y-75213117D01*
X180052070Y-75218235D01*
X180041050Y-75219870D01*
X180030212Y-75222026D01*
X180025024Y-75223058D01*
X180025010Y-75223061D01*
X180022020Y-75223656D01*
X179974442Y-75235574D01*
X179971530Y-75236457D01*
X179971524Y-75236459D01*
X179931556Y-75248583D01*
X179889973Y-75261197D01*
X179805507Y-75286819D01*
X179802659Y-75287838D01*
X179802638Y-75287845D01*
X179762166Y-75302327D01*
X179762159Y-75302330D01*
X179759302Y-75303352D01*
X179741372Y-75310779D01*
X179738600Y-75312090D01*
X179738591Y-75312094D01*
X179717566Y-75322038D01*
X179697018Y-75331756D01*
X179541332Y-75414972D01*
X179499253Y-75440193D01*
X179483116Y-75450975D01*
X179480672Y-75452787D01*
X179480660Y-75452796D01*
X179446146Y-75478393D01*
X179446134Y-75478402D01*
X179443698Y-75480209D01*
X179307231Y-75592204D01*
X179270874Y-75625157D01*
X179257157Y-75638874D01*
X179224206Y-75675229D01*
X179222262Y-75677597D01*
X179222254Y-75677607D01*
X179157460Y-75756558D01*
X179157388Y-75756645D01*
X179157389Y-75756645D01*
X179116830Y-75806068D01*
X179112206Y-75811702D01*
X179082975Y-75851116D01*
X179072193Y-75867253D01*
X179046972Y-75909332D01*
X178963756Y-76065018D01*
X178942779Y-76109372D01*
X178935352Y-76127302D01*
X178934316Y-76130198D01*
X178934315Y-76130200D01*
X178924667Y-76157165D01*
X178918820Y-76173505D01*
X178917937Y-76176416D01*
X178917933Y-76176428D01*
X178901758Y-76229752D01*
X178867575Y-76342438D01*
X178855652Y-76390037D01*
X178851866Y-76409071D01*
X178844667Y-76457605D01*
X178844369Y-76460626D01*
X178844367Y-76460646D01*
X178832197Y-76584210D01*
X178826885Y-76638148D01*
X178825080Y-76662609D01*
X178824603Y-76672313D01*
X178824567Y-76673765D01*
X178824566Y-76673801D01*
X178824470Y-76677726D01*
X178824000Y-76696861D01*
X178824000Y-78388241D01*
X178822797Y-78412692D01*
X178814388Y-78497911D01*
X178804829Y-78545874D01*
X178790696Y-78592367D01*
X178771950Y-78637528D01*
X178751226Y-78676213D01*
X178749006Y-78680356D01*
X178721792Y-78720984D01*
X178693360Y-78755536D01*
X178693349Y-78755550D01*
X178690908Y-78758516D01*
X178667914Y-78781440D01*
X178668178Y-78781704D01*
X178668177Y-78781705D01*
X178662454Y-78786883D01*
X178656286Y-78793032D01*
X178649743Y-78798383D01*
X178640235Y-78806159D01*
X178618673Y-78823793D01*
X178577961Y-78850884D01*
X178535069Y-78873696D01*
X178489843Y-78892310D01*
X178407833Y-78916968D01*
X178384070Y-78922856D01*
X168170676Y-80926414D01*
X168158401Y-80928505D01*
X168134695Y-80931934D01*
X168099044Y-80934500D01*
X165564203Y-80934501D01*
X164603624Y-80934501D01*
X164542420Y-80941149D01*
X164408176Y-80991474D01*
X164293454Y-81077454D01*
X164207474Y-81192176D01*
X164201247Y-81208787D01*
X164167812Y-81297977D01*
X164157149Y-81326420D01*
X164150500Y-81387623D01*
X164150501Y-84982376D01*
X164157149Y-85043580D01*
X164207474Y-85177824D01*
X164218110Y-85192016D01*
X164218112Y-85192019D01*
X164251201Y-85236168D01*
X164293181Y-85323785D01*
X164298435Y-85420798D01*
X164266165Y-85512437D01*
X164201282Y-85584751D01*
X164113665Y-85626731D01*
X164051950Y-85634500D01*
X162454560Y-85634501D01*
X162434172Y-85634501D01*
X162376910Y-85637601D01*
X162368434Y-85639256D01*
X162368428Y-85639257D01*
X162230934Y-85666108D01*
X162147807Y-85682342D01*
X162137946Y-85686078D01*
X161939369Y-85761312D01*
X161939365Y-85761314D01*
X161929517Y-85765045D01*
X161920434Y-85770384D01*
X161920431Y-85770386D01*
X161737371Y-85878001D01*
X161737367Y-85878004D01*
X161728283Y-85883344D01*
X161549858Y-86033858D01*
X161399344Y-86212283D01*
X161394004Y-86221367D01*
X161394001Y-86221371D01*
X161286386Y-86404431D01*
X161281045Y-86413517D01*
X161277314Y-86423365D01*
X161277312Y-86423369D01*
X161232038Y-86542868D01*
X161198342Y-86631807D01*
X161153601Y-86860910D01*
X161153134Y-86869529D01*
X161153134Y-86869531D01*
X161152930Y-86873295D01*
X161150500Y-86918171D01*
X161150501Y-87881148D01*
X161150501Y-88268441D01*
X161131547Y-88363729D01*
X161077571Y-88444510D01*
X160996789Y-88498487D01*
X160901501Y-88517441D01*
X160806213Y-88498487D01*
X160725431Y-88444511D01*
X158807430Y-86526510D01*
X158753454Y-86445728D01*
X158734500Y-86350440D01*
X158734500Y-85528673D01*
X158753454Y-85433385D01*
X158807430Y-85352603D01*
X158888212Y-85298627D01*
X158983500Y-85279673D01*
X159087153Y-85302273D01*
X159231887Y-85368537D01*
X159242622Y-85371293D01*
X159242624Y-85371294D01*
X159437835Y-85421416D01*
X159448098Y-85424051D01*
X159588862Y-85435500D01*
X161213138Y-85435500D01*
X161353902Y-85424051D01*
X161364165Y-85421416D01*
X161559376Y-85371294D01*
X161559378Y-85371293D01*
X161570113Y-85368537D01*
X161773075Y-85275614D01*
X161782178Y-85269287D01*
X161782182Y-85269285D01*
X161947269Y-85154546D01*
X161947270Y-85154545D01*
X161956375Y-85148217D01*
X162114217Y-84990375D01*
X162172012Y-84907219D01*
X162235285Y-84816182D01*
X162235287Y-84816178D01*
X162241614Y-84807075D01*
X162334537Y-84604113D01*
X162342629Y-84572599D01*
X162387416Y-84398165D01*
X162387416Y-84398164D01*
X162390051Y-84387902D01*
X162401500Y-84247138D01*
X162401500Y-82122862D01*
X162390051Y-81982098D01*
X162386990Y-81970176D01*
X162337294Y-81776624D01*
X162337293Y-81776622D01*
X162334537Y-81765887D01*
X162241614Y-81562925D01*
X162235287Y-81553822D01*
X162235285Y-81553818D01*
X162120546Y-81388731D01*
X162120545Y-81388730D01*
X162114217Y-81379625D01*
X161956375Y-81221783D01*
X161937676Y-81208787D01*
X161782182Y-81100715D01*
X161782178Y-81100713D01*
X161773075Y-81094386D01*
X161570113Y-81001463D01*
X161559378Y-80998707D01*
X161559376Y-80998706D01*
X161364165Y-80948584D01*
X161364164Y-80948584D01*
X161353902Y-80945949D01*
X161213138Y-80934500D01*
X160349561Y-80934500D01*
X160254273Y-80915546D01*
X160173491Y-80861570D01*
X160119515Y-80780788D01*
X160100561Y-80685500D01*
X160119515Y-80590212D01*
X160173491Y-80509430D01*
X163608293Y-77074627D01*
X167829843Y-77074627D01*
X167830862Y-77086762D01*
X167830862Y-77086764D01*
X167835116Y-77137416D01*
X167846655Y-77274837D01*
X167902035Y-77467968D01*
X167907596Y-77478789D01*
X167907597Y-77478791D01*
X167950071Y-77561436D01*
X167993873Y-77646665D01*
X168001430Y-77656200D01*
X168001431Y-77656201D01*
X168008461Y-77665070D01*
X168118671Y-77804121D01*
X168127944Y-77812013D01*
X168127946Y-77812015D01*
X168262403Y-77926447D01*
X168271675Y-77934338D01*
X168447058Y-78032356D01*
X168458638Y-78036119D01*
X168458639Y-78036119D01*
X168626553Y-78090678D01*
X168626558Y-78090679D01*
X168638139Y-78094442D01*
X168650233Y-78095884D01*
X168650237Y-78095885D01*
X168784242Y-78111864D01*
X168837641Y-78118231D01*
X168849780Y-78117297D01*
X168849782Y-78117297D01*
X168899826Y-78113446D01*
X169037963Y-78102817D01*
X169143552Y-78073336D01*
X169219748Y-78052062D01*
X169219750Y-78052061D01*
X169231477Y-78048787D01*
X169410811Y-77958199D01*
X169502393Y-77886648D01*
X169559537Y-77842002D01*
X169566417Y-77836627D01*
X174865643Y-77836627D01*
X174866662Y-77848762D01*
X174866662Y-77848764D01*
X174875852Y-77958199D01*
X174882455Y-78036837D01*
X174937835Y-78229968D01*
X175029673Y-78408665D01*
X175154471Y-78566121D01*
X175163744Y-78574013D01*
X175163746Y-78574015D01*
X175198981Y-78604002D01*
X175307475Y-78696338D01*
X175351574Y-78720984D01*
X175469487Y-78786883D01*
X175482858Y-78794356D01*
X175494438Y-78798119D01*
X175494439Y-78798119D01*
X175662353Y-78852678D01*
X175662358Y-78852679D01*
X175673939Y-78856442D01*
X175686033Y-78857884D01*
X175686037Y-78857885D01*
X175818636Y-78873696D01*
X175873441Y-78880231D01*
X175885580Y-78879297D01*
X175885582Y-78879297D01*
X175935626Y-78875446D01*
X176073763Y-78864817D01*
X176220695Y-78823793D01*
X176255548Y-78814062D01*
X176255550Y-78814061D01*
X176267277Y-78810787D01*
X176446611Y-78720199D01*
X176604934Y-78596504D01*
X176736216Y-78444412D01*
X176802928Y-78326978D01*
X176829438Y-78280312D01*
X176829439Y-78280310D01*
X176835456Y-78269718D01*
X176898874Y-78079075D01*
X176915092Y-77950698D01*
X176923184Y-77886648D01*
X176923184Y-77886644D01*
X176924056Y-77879744D01*
X176924457Y-77851000D01*
X176904851Y-77651044D01*
X176846780Y-77458704D01*
X176752457Y-77281307D01*
X176625473Y-77125609D01*
X176470665Y-76997541D01*
X176459961Y-76991754D01*
X176459959Y-76991752D01*
X176318231Y-76915121D01*
X176293931Y-76901982D01*
X176282297Y-76898380D01*
X176282293Y-76898379D01*
X176113634Y-76846170D01*
X176113633Y-76846170D01*
X176102001Y-76842569D01*
X176089891Y-76841296D01*
X176089890Y-76841296D01*
X175914299Y-76822841D01*
X175902187Y-76821568D01*
X175888200Y-76822841D01*
X175714226Y-76838674D01*
X175714223Y-76838675D01*
X175702099Y-76839778D01*
X175690420Y-76843215D01*
X175690416Y-76843216D01*
X175598815Y-76870176D01*
X175509359Y-76896504D01*
X175331307Y-76989587D01*
X175321821Y-76997214D01*
X175321818Y-76997216D01*
X175290965Y-77022023D01*
X175174727Y-77115481D01*
X175166899Y-77124810D01*
X175166898Y-77124811D01*
X175065744Y-77245362D01*
X175045581Y-77269391D01*
X175039717Y-77280057D01*
X175039716Y-77280059D01*
X175033118Y-77292061D01*
X174948790Y-77445454D01*
X174945106Y-77457068D01*
X174891723Y-77625349D01*
X174891722Y-77625354D01*
X174888039Y-77636964D01*
X174865643Y-77836627D01*
X169566417Y-77836627D01*
X169569134Y-77834504D01*
X169667819Y-77720176D01*
X169692458Y-77691632D01*
X169692460Y-77691629D01*
X169700416Y-77682412D01*
X169799656Y-77507718D01*
X169863074Y-77317075D01*
X169882945Y-77159787D01*
X169887384Y-77124648D01*
X169887384Y-77124644D01*
X169888256Y-77117744D01*
X169888657Y-77089000D01*
X169869051Y-76889044D01*
X169810980Y-76696704D01*
X169716657Y-76519307D01*
X169589673Y-76363609D01*
X169567746Y-76345469D01*
X169485095Y-76277095D01*
X169434865Y-76235541D01*
X169424161Y-76229754D01*
X169424159Y-76229752D01*
X169320131Y-76173505D01*
X169258131Y-76139982D01*
X169246497Y-76136380D01*
X169246493Y-76136379D01*
X169077834Y-76084170D01*
X169077833Y-76084170D01*
X169066201Y-76080569D01*
X169054091Y-76079296D01*
X169054090Y-76079296D01*
X168878499Y-76060841D01*
X168866387Y-76059568D01*
X168830953Y-76062793D01*
X168678426Y-76076674D01*
X168678423Y-76076675D01*
X168666299Y-76077778D01*
X168654620Y-76081215D01*
X168654616Y-76081216D01*
X168568400Y-76106591D01*
X168473559Y-76134504D01*
X168462765Y-76140147D01*
X168313465Y-76218199D01*
X168295507Y-76227587D01*
X168286021Y-76235214D01*
X168286018Y-76235216D01*
X168193228Y-76309822D01*
X168138927Y-76353481D01*
X168131099Y-76362810D01*
X168131098Y-76362811D01*
X168024333Y-76490049D01*
X168009781Y-76507391D01*
X168003917Y-76518057D01*
X168003916Y-76518059D01*
X167979131Y-76563144D01*
X167912990Y-76683454D01*
X167909306Y-76695068D01*
X167855923Y-76863349D01*
X167855922Y-76863354D01*
X167852239Y-76874964D01*
X167829843Y-77074627D01*
X163608293Y-77074627D01*
X164778819Y-75904101D01*
X164783804Y-75899254D01*
X164836117Y-75849784D01*
X164845280Y-75841119D01*
X164877297Y-75795394D01*
X164888304Y-75780841D01*
X164915598Y-75747375D01*
X164923573Y-75737597D01*
X164933222Y-75719140D01*
X164949913Y-75691688D01*
X164961863Y-75674621D01*
X164984039Y-75623377D01*
X164991871Y-75606956D01*
X165017741Y-75557470D01*
X165023483Y-75537444D01*
X165034315Y-75507193D01*
X165042586Y-75488081D01*
X165054001Y-75433441D01*
X165058385Y-75415726D01*
X165058602Y-75414972D01*
X165073766Y-75362087D01*
X165075364Y-75341316D01*
X165079891Y-75309512D01*
X165084151Y-75289120D01*
X165084500Y-75282461D01*
X165084500Y-75232154D01*
X165085234Y-75213051D01*
X165086632Y-75194885D01*
X165089360Y-75159430D01*
X165086463Y-75136498D01*
X165084500Y-75105290D01*
X165084500Y-73163490D01*
X165088685Y-73126177D01*
X165087874Y-73126075D01*
X165112184Y-72933648D01*
X165112184Y-72933644D01*
X165113056Y-72926744D01*
X165113457Y-72898000D01*
X165093851Y-72698044D01*
X165090332Y-72686389D01*
X165087966Y-72674439D01*
X165090969Y-72673844D01*
X165083682Y-72598731D01*
X165112021Y-72505801D01*
X165173765Y-72430789D01*
X165259515Y-72385116D01*
X165331447Y-72374500D01*
X185156439Y-72374500D01*
X185251727Y-72393454D01*
G37*
G04 #@! TD.AperFunction*
G04 #@! TA.AperFunction,Conductor*
G36*
X204235788Y-67828954D02*
G01*
X204316570Y-67882930D01*
X204370546Y-67963712D01*
X204389500Y-68059000D01*
X204389501Y-69477376D01*
X204396149Y-69538580D01*
X204446474Y-69672824D01*
X204457113Y-69687019D01*
X204510780Y-69758626D01*
X204532454Y-69787546D01*
X204647176Y-69873526D01*
X204663787Y-69879753D01*
X204766804Y-69918372D01*
X204766805Y-69918372D01*
X204781420Y-69923851D01*
X204842623Y-69930500D01*
X204886522Y-69930500D01*
X206261001Y-69930499D01*
X206356288Y-69949453D01*
X206437069Y-70003429D01*
X206491046Y-70084211D01*
X206510000Y-70179499D01*
X206510000Y-74641383D01*
X206491046Y-74736671D01*
X206437070Y-74817453D01*
X206356288Y-74871429D01*
X206261000Y-74890383D01*
X206165712Y-74871429D01*
X206139521Y-74858740D01*
X206138639Y-74858247D01*
X206128302Y-74851009D01*
X205951085Y-74774320D01*
X205762067Y-74734832D01*
X205755732Y-74734500D01*
X204813941Y-74734500D01*
X204807675Y-74735137D01*
X204807665Y-74735137D01*
X204718624Y-74744182D01*
X204670090Y-74749112D01*
X204485827Y-74806856D01*
X204316939Y-74900472D01*
X204170325Y-75026136D01*
X204051973Y-75178714D01*
X203969034Y-75347270D01*
X203909957Y-75424400D01*
X203825861Y-75473051D01*
X203729548Y-75485816D01*
X203635681Y-75460753D01*
X203558551Y-75401676D01*
X203511931Y-75323313D01*
X203504210Y-75302327D01*
X203490910Y-75266179D01*
X203430497Y-75168743D01*
X203395799Y-75112781D01*
X203395797Y-75112778D01*
X203389155Y-75102066D01*
X203256479Y-74961765D01*
X203098302Y-74851009D01*
X202921085Y-74774320D01*
X202732067Y-74734832D01*
X202725732Y-74734500D01*
X201083941Y-74734500D01*
X201077675Y-74735137D01*
X201077665Y-74735137D01*
X200988624Y-74744182D01*
X200940090Y-74749112D01*
X200755827Y-74806856D01*
X200586939Y-74900472D01*
X200440325Y-75026136D01*
X200321973Y-75178714D01*
X200269212Y-75285939D01*
X200247311Y-75330449D01*
X200236719Y-75351974D01*
X200233541Y-75364173D01*
X200233541Y-75364174D01*
X200214147Y-75438631D01*
X200188045Y-75538837D01*
X200187385Y-75551431D01*
X200179169Y-75708209D01*
X200177939Y-75731671D01*
X200179826Y-75744148D01*
X200179826Y-75744149D01*
X200186446Y-75787919D01*
X200206814Y-75922599D01*
X200211170Y-75934439D01*
X200211171Y-75934442D01*
X200235308Y-76000044D01*
X200273490Y-76103821D01*
X200280136Y-76114540D01*
X200280138Y-76114544D01*
X200306564Y-76157165D01*
X200340667Y-76248138D01*
X200337361Y-76345237D01*
X200297148Y-76433679D01*
X200279983Y-76454990D01*
X200219075Y-76522634D01*
X200219071Y-76522639D01*
X200210341Y-76532335D01*
X200120950Y-76687165D01*
X200065703Y-76857197D01*
X200063836Y-76874964D01*
X200057872Y-76931704D01*
X200029061Y-77024489D01*
X199966937Y-77099185D01*
X199880956Y-77144422D01*
X199864255Y-77148746D01*
X195327535Y-78156906D01*
X190589939Y-79209705D01*
X190561422Y-79216042D01*
X190464291Y-79218210D01*
X190373724Y-79183043D01*
X190303509Y-79115894D01*
X190264335Y-79026987D01*
X190260006Y-78993946D01*
X190259457Y-78994000D01*
X190241039Y-78806159D01*
X190241039Y-78806158D01*
X190239851Y-78794044D01*
X190236333Y-78782392D01*
X190235242Y-78776882D01*
X190230500Y-78728519D01*
X190230500Y-74947863D01*
X190230597Y-74940911D01*
X190232607Y-74868953D01*
X190232607Y-74868952D01*
X190232959Y-74856347D01*
X190225312Y-74812975D01*
X190223268Y-74801385D01*
X190220760Y-74783310D01*
X190216395Y-74740334D01*
X190216394Y-74740331D01*
X190215120Y-74727784D01*
X190208891Y-74707907D01*
X190201281Y-74676691D01*
X190197664Y-74656178D01*
X190193022Y-74644453D01*
X190177120Y-74604288D01*
X190171030Y-74587088D01*
X190158114Y-74545874D01*
X190158110Y-74545866D01*
X190154338Y-74533828D01*
X190144237Y-74515605D01*
X190130505Y-74486554D01*
X190127485Y-74478927D01*
X190122840Y-74467195D01*
X190092278Y-74420491D01*
X190082869Y-74404893D01*
X190055797Y-74356056D01*
X190047590Y-74346481D01*
X190047586Y-74346475D01*
X190042242Y-74340240D01*
X190022947Y-74314542D01*
X190016780Y-74305118D01*
X190016778Y-74305115D01*
X190011544Y-74297117D01*
X190007082Y-74292162D01*
X189971516Y-74256596D01*
X189958527Y-74242568D01*
X189931735Y-74211309D01*
X189931730Y-74211304D01*
X189923523Y-74201729D01*
X189905264Y-74187566D01*
X189881807Y-74166887D01*
X186394101Y-70679181D01*
X186389254Y-70674196D01*
X186339784Y-70621883D01*
X186331119Y-70612720D01*
X186285394Y-70580703D01*
X186270841Y-70569696D01*
X186237372Y-70542399D01*
X186237370Y-70542397D01*
X186227597Y-70534427D01*
X186216419Y-70528584D01*
X186216417Y-70528582D01*
X186209144Y-70524780D01*
X186181684Y-70508085D01*
X186164621Y-70496137D01*
X186153048Y-70491129D01*
X186113407Y-70473975D01*
X186096930Y-70466116D01*
X186058648Y-70446102D01*
X186058649Y-70446102D01*
X186047470Y-70440258D01*
X186027437Y-70434514D01*
X185997190Y-70423683D01*
X185994719Y-70422614D01*
X185989655Y-70420422D01*
X185989651Y-70420421D01*
X185978081Y-70415414D01*
X185923451Y-70404001D01*
X185905744Y-70399619D01*
X185864210Y-70387710D01*
X185864209Y-70387710D01*
X185852087Y-70384234D01*
X185831316Y-70382636D01*
X185799512Y-70378109D01*
X185779120Y-70373849D01*
X185779115Y-70373848D01*
X185779321Y-70372860D01*
X185695725Y-70344647D01*
X185622567Y-70280718D01*
X185579443Y-70193658D01*
X185572917Y-70096722D01*
X185603984Y-70004668D01*
X185667913Y-69931510D01*
X185755398Y-69888271D01*
X185873165Y-69856716D01*
X185873166Y-69856716D01*
X185883663Y-69853903D01*
X186025966Y-69787546D01*
X186087983Y-69758627D01*
X186087985Y-69758626D01*
X186097830Y-69754035D01*
X186193539Y-69687019D01*
X186282500Y-69624728D01*
X186282503Y-69624725D01*
X186291401Y-69618495D01*
X186458495Y-69451401D01*
X186486032Y-69412074D01*
X186556211Y-69344891D01*
X186646760Y-69309678D01*
X186743892Y-69311797D01*
X186832819Y-69350925D01*
X186893968Y-69412074D01*
X186921505Y-69451401D01*
X187088599Y-69618495D01*
X187097497Y-69624725D01*
X187097500Y-69624728D01*
X187186461Y-69687019D01*
X187282170Y-69754035D01*
X187292015Y-69758626D01*
X187292017Y-69758627D01*
X187354034Y-69787546D01*
X187496337Y-69853903D01*
X187506835Y-69856716D01*
X187506838Y-69856717D01*
X187608602Y-69883984D01*
X187724592Y-69915063D01*
X187735425Y-69916011D01*
X187735426Y-69916011D01*
X187860515Y-69926955D01*
X187942433Y-69934122D01*
X187949165Y-69934711D01*
X187960000Y-69935659D01*
X187970835Y-69934711D01*
X187977568Y-69934122D01*
X188059485Y-69926955D01*
X188184574Y-69916011D01*
X188184575Y-69916011D01*
X188195408Y-69915063D01*
X188311398Y-69883984D01*
X188413162Y-69856717D01*
X188413165Y-69856716D01*
X188423663Y-69853903D01*
X188565966Y-69787546D01*
X188627983Y-69758627D01*
X188627985Y-69758626D01*
X188637830Y-69754035D01*
X188733539Y-69687019D01*
X188822500Y-69624728D01*
X188822503Y-69624725D01*
X188831401Y-69618495D01*
X188998495Y-69451401D01*
X189026032Y-69412074D01*
X189096211Y-69344891D01*
X189186760Y-69309678D01*
X189283892Y-69311797D01*
X189372819Y-69350925D01*
X189433968Y-69412074D01*
X189461505Y-69451401D01*
X189628599Y-69618495D01*
X189637497Y-69624725D01*
X189637500Y-69624728D01*
X189726461Y-69687019D01*
X189822170Y-69754035D01*
X189832015Y-69758626D01*
X189832017Y-69758627D01*
X189894034Y-69787546D01*
X190036337Y-69853903D01*
X190046835Y-69856716D01*
X190046838Y-69856717D01*
X190148602Y-69883984D01*
X190264592Y-69915063D01*
X190275425Y-69916011D01*
X190275426Y-69916011D01*
X190400515Y-69926955D01*
X190482433Y-69934122D01*
X190489165Y-69934711D01*
X190500000Y-69935659D01*
X190510835Y-69934711D01*
X190517568Y-69934122D01*
X190599485Y-69926955D01*
X190724574Y-69916011D01*
X190724575Y-69916011D01*
X190735408Y-69915063D01*
X190851398Y-69883984D01*
X190953162Y-69856717D01*
X190953165Y-69856716D01*
X190963663Y-69853903D01*
X191105966Y-69787546D01*
X191167983Y-69758627D01*
X191167985Y-69758626D01*
X191177830Y-69754035D01*
X191273539Y-69687019D01*
X191362500Y-69624728D01*
X191362503Y-69624725D01*
X191371401Y-69618495D01*
X191538495Y-69451401D01*
X191566032Y-69412074D01*
X191636211Y-69344891D01*
X191726760Y-69309678D01*
X191823892Y-69311797D01*
X191912819Y-69350925D01*
X191973968Y-69412074D01*
X192001505Y-69451401D01*
X192168599Y-69618495D01*
X192177497Y-69624725D01*
X192177500Y-69624728D01*
X192266461Y-69687019D01*
X192362170Y-69754035D01*
X192372015Y-69758626D01*
X192372017Y-69758627D01*
X192434034Y-69787546D01*
X192576337Y-69853903D01*
X192586835Y-69856716D01*
X192586838Y-69856717D01*
X192688602Y-69883984D01*
X192804592Y-69915063D01*
X192815425Y-69916011D01*
X192815426Y-69916011D01*
X192940515Y-69926955D01*
X193022433Y-69934122D01*
X193029165Y-69934711D01*
X193040000Y-69935659D01*
X193050835Y-69934711D01*
X193057568Y-69934122D01*
X193139485Y-69926955D01*
X193264574Y-69916011D01*
X193264575Y-69916011D01*
X193275408Y-69915063D01*
X193391398Y-69883984D01*
X193493162Y-69856717D01*
X193493165Y-69856716D01*
X193503663Y-69853903D01*
X193645966Y-69787546D01*
X193707983Y-69758627D01*
X193707985Y-69758626D01*
X193717830Y-69754035D01*
X193813539Y-69687019D01*
X193902500Y-69624728D01*
X193902503Y-69624725D01*
X193911401Y-69618495D01*
X194078495Y-69451401D01*
X194106032Y-69412074D01*
X194176211Y-69344891D01*
X194266760Y-69309678D01*
X194363892Y-69311797D01*
X194452819Y-69350925D01*
X194513968Y-69412074D01*
X194541505Y-69451401D01*
X194708599Y-69618495D01*
X194717497Y-69624725D01*
X194717500Y-69624728D01*
X194806461Y-69687019D01*
X194902170Y-69754035D01*
X194912015Y-69758626D01*
X194912017Y-69758627D01*
X194974034Y-69787546D01*
X195116337Y-69853903D01*
X195126835Y-69856716D01*
X195126838Y-69856717D01*
X195228602Y-69883984D01*
X195344592Y-69915063D01*
X195355425Y-69916011D01*
X195355426Y-69916011D01*
X195480515Y-69926955D01*
X195562433Y-69934122D01*
X195569165Y-69934711D01*
X195580000Y-69935659D01*
X195590835Y-69934711D01*
X195597568Y-69934122D01*
X195679485Y-69926955D01*
X195804574Y-69916011D01*
X195804575Y-69916011D01*
X195815408Y-69915063D01*
X195931398Y-69883984D01*
X196033162Y-69856717D01*
X196033165Y-69856716D01*
X196043663Y-69853903D01*
X196185966Y-69787546D01*
X196247983Y-69758627D01*
X196247985Y-69758626D01*
X196257830Y-69754035D01*
X196353539Y-69687019D01*
X196442500Y-69624728D01*
X196442503Y-69624725D01*
X196451401Y-69618495D01*
X196618495Y-69451401D01*
X196646032Y-69412074D01*
X196716211Y-69344891D01*
X196806760Y-69309678D01*
X196903892Y-69311797D01*
X196992819Y-69350925D01*
X197053968Y-69412074D01*
X197081505Y-69451401D01*
X197248599Y-69618495D01*
X197257497Y-69624725D01*
X197257500Y-69624728D01*
X197346461Y-69687019D01*
X197442170Y-69754035D01*
X197452015Y-69758626D01*
X197452017Y-69758627D01*
X197514034Y-69787546D01*
X197656337Y-69853903D01*
X197666835Y-69856716D01*
X197666838Y-69856717D01*
X197768602Y-69883984D01*
X197884592Y-69915063D01*
X197895425Y-69916011D01*
X197895426Y-69916011D01*
X198020515Y-69926955D01*
X198102433Y-69934122D01*
X198109165Y-69934711D01*
X198120000Y-69935659D01*
X198130835Y-69934711D01*
X198137568Y-69934122D01*
X198219485Y-69926955D01*
X198344574Y-69916011D01*
X198344575Y-69916011D01*
X198355408Y-69915063D01*
X198471398Y-69883984D01*
X198573162Y-69856717D01*
X198573165Y-69856716D01*
X198583663Y-69853903D01*
X198725966Y-69787546D01*
X198787983Y-69758627D01*
X198787985Y-69758626D01*
X198797830Y-69754035D01*
X198893539Y-69687019D01*
X198982500Y-69624728D01*
X198982503Y-69624725D01*
X198991401Y-69618495D01*
X199158495Y-69451401D01*
X199186032Y-69412074D01*
X199256211Y-69344891D01*
X199346760Y-69309678D01*
X199443892Y-69311797D01*
X199532819Y-69350925D01*
X199593968Y-69412074D01*
X199621505Y-69451401D01*
X199788599Y-69618495D01*
X199797497Y-69624725D01*
X199797500Y-69624728D01*
X199886461Y-69687019D01*
X199982170Y-69754035D01*
X199992015Y-69758626D01*
X199992017Y-69758627D01*
X200054034Y-69787546D01*
X200196337Y-69853903D01*
X200206835Y-69856716D01*
X200206838Y-69856717D01*
X200308602Y-69883984D01*
X200424592Y-69915063D01*
X200435425Y-69916011D01*
X200435426Y-69916011D01*
X200560515Y-69926955D01*
X200642433Y-69934122D01*
X200649165Y-69934711D01*
X200660000Y-69935659D01*
X200670835Y-69934711D01*
X200677568Y-69934122D01*
X200759485Y-69926955D01*
X200884574Y-69916011D01*
X200884575Y-69916011D01*
X200895408Y-69915063D01*
X201011398Y-69883984D01*
X201113162Y-69856717D01*
X201113165Y-69856716D01*
X201123663Y-69853903D01*
X201265966Y-69787546D01*
X201327983Y-69758627D01*
X201327985Y-69758626D01*
X201337830Y-69754035D01*
X201433539Y-69687019D01*
X201522500Y-69624728D01*
X201522503Y-69624725D01*
X201531401Y-69618495D01*
X201698495Y-69451401D01*
X201834035Y-69257829D01*
X201933903Y-69043663D01*
X201995063Y-68815408D01*
X202015659Y-68580000D01*
X201995063Y-68344592D01*
X201935808Y-68123445D01*
X201929454Y-68026498D01*
X201960684Y-67934499D01*
X202024743Y-67861454D01*
X202111879Y-67818484D01*
X202176324Y-67810000D01*
X204140500Y-67810000D01*
X204235788Y-67828954D01*
G37*
G04 #@! TD.AperFunction*
G04 #@! TA.AperFunction,Conductor*
G36*
X182138843Y-75692477D02*
G01*
X182319388Y-75710259D01*
X182338418Y-75714045D01*
X182422887Y-75739668D01*
X182507353Y-75765290D01*
X182525283Y-75772717D01*
X182680969Y-75855933D01*
X182697106Y-75866715D01*
X182833573Y-75978710D01*
X182847290Y-75992427D01*
X182914102Y-76073837D01*
X182959285Y-76128894D01*
X182970067Y-76145031D01*
X183053283Y-76300717D01*
X183060710Y-76318647D01*
X183111955Y-76487580D01*
X183115741Y-76506614D01*
X183133523Y-76687157D01*
X183134000Y-76696861D01*
X183134000Y-78883000D01*
X183134239Y-78885423D01*
X183134239Y-78885430D01*
X183152650Y-79072354D01*
X183153215Y-79078090D01*
X183210120Y-79265683D01*
X183212414Y-79269974D01*
X183212414Y-79269975D01*
X183285589Y-79406876D01*
X183302530Y-79438570D01*
X183426893Y-79590107D01*
X183578430Y-79714470D01*
X183751317Y-79806880D01*
X183938910Y-79863785D01*
X183943753Y-79864262D01*
X184131570Y-79882761D01*
X184131577Y-79882761D01*
X184134000Y-79883000D01*
X189755228Y-79883000D01*
X189756577Y-79882926D01*
X189756584Y-79882926D01*
X189790758Y-79881056D01*
X189864345Y-79877029D01*
X189972158Y-79859187D01*
X195436000Y-78645000D01*
X200087372Y-77611362D01*
X200092680Y-77610334D01*
X200122956Y-77605323D01*
X200147038Y-77601338D01*
X200157794Y-77600158D01*
X200174592Y-77599239D01*
X200233729Y-77614939D01*
X200272343Y-77662401D01*
X200279000Y-77698091D01*
X200279000Y-77844511D01*
X200278153Y-77857434D01*
X200259806Y-77996788D01*
X200253117Y-78021750D01*
X200201832Y-78145564D01*
X200188910Y-78167946D01*
X200103349Y-78279452D01*
X200094811Y-78289189D01*
X200025000Y-78359000D01*
X199917151Y-78490414D01*
X199837012Y-78640343D01*
X199787663Y-78803026D01*
X199787186Y-78807869D01*
X199780027Y-78880561D01*
X199771000Y-78972210D01*
X199771000Y-81047790D01*
X199787663Y-81216974D01*
X199837012Y-81379657D01*
X199839306Y-81383948D01*
X199839306Y-81383949D01*
X199866910Y-81435592D01*
X199917151Y-81529586D01*
X199920233Y-81533341D01*
X199920234Y-81533343D01*
X199982414Y-81609109D01*
X200025000Y-81661000D01*
X200094811Y-81730811D01*
X200103349Y-81740548D01*
X200188910Y-81852054D01*
X200201832Y-81874436D01*
X200253117Y-81998250D01*
X200259806Y-82023213D01*
X200276866Y-82152794D01*
X200275811Y-82185029D01*
X200263507Y-82246888D01*
X200248724Y-82282577D01*
X200215545Y-82332232D01*
X200188232Y-82359545D01*
X200138575Y-82392725D01*
X200102891Y-82407506D01*
X200034562Y-82421098D01*
X200015248Y-82423000D01*
X179435040Y-82423000D01*
X179324678Y-82429109D01*
X179321974Y-82429562D01*
X179321971Y-82429562D01*
X179268070Y-82438586D01*
X179215665Y-82447359D01*
X179214342Y-82447656D01*
X179214324Y-82447660D01*
X168241010Y-84915039D01*
X168235639Y-84916092D01*
X168185942Y-84924412D01*
X168134720Y-84932987D01*
X168123864Y-84934193D01*
X168032072Y-84939274D01*
X168021687Y-84939849D01*
X168016216Y-84940000D01*
X167370564Y-84940000D01*
X167359480Y-84939378D01*
X167340648Y-84937256D01*
X167205850Y-84922068D01*
X167184242Y-84917136D01*
X167043606Y-84867925D01*
X167023639Y-84858309D01*
X166897477Y-84779037D01*
X166880144Y-84765215D01*
X166774785Y-84659856D01*
X166760963Y-84642523D01*
X166681692Y-84516364D01*
X166672074Y-84496391D01*
X166622865Y-84355761D01*
X166617931Y-84334147D01*
X166600622Y-84180520D01*
X166600000Y-84169436D01*
X166600000Y-82210595D01*
X166600628Y-82199465D01*
X166618206Y-82044105D01*
X166623179Y-82022408D01*
X166673159Y-81880203D01*
X166682854Y-81860166D01*
X166763348Y-81732714D01*
X166777275Y-81715349D01*
X166884203Y-81609109D01*
X166901657Y-81595295D01*
X167029617Y-81515630D01*
X167049714Y-81506065D01*
X167192252Y-81456998D01*
X167213973Y-81452167D01*
X167369447Y-81435592D01*
X167380581Y-81435036D01*
X168049586Y-81439352D01*
X168050823Y-81439298D01*
X168050825Y-81439298D01*
X168147060Y-81435101D01*
X168147065Y-81435100D01*
X168149530Y-81434993D01*
X168151975Y-81434639D01*
X168151978Y-81434639D01*
X168247310Y-81420848D01*
X168247324Y-81420846D01*
X168248538Y-81420670D01*
X178516501Y-79406407D01*
X178704592Y-79349853D01*
X178878002Y-79257626D01*
X178966283Y-79185426D01*
X179026265Y-79136370D01*
X179026267Y-79136368D01*
X179030039Y-79133283D01*
X179079443Y-79073247D01*
X179151740Y-78985389D01*
X179154841Y-78981621D01*
X179161185Y-78969780D01*
X179245289Y-78812787D01*
X179247591Y-78808490D01*
X179304712Y-78620570D01*
X179324000Y-78425110D01*
X179324000Y-76696861D01*
X179324477Y-76687157D01*
X179342259Y-76506614D01*
X179346045Y-76487580D01*
X179397290Y-76318647D01*
X179404717Y-76300717D01*
X179487933Y-76145031D01*
X179498715Y-76128894D01*
X179543898Y-76073837D01*
X179610710Y-75992427D01*
X179624427Y-75978710D01*
X179760894Y-75866715D01*
X179777031Y-75855933D01*
X179932717Y-75772717D01*
X179950647Y-75765290D01*
X180035113Y-75739668D01*
X180119582Y-75714045D01*
X180138612Y-75710259D01*
X180319157Y-75692477D01*
X180328861Y-75692000D01*
X182129139Y-75692000D01*
X182138843Y-75692477D01*
G37*
G04 #@! TD.AperFunction*
M02*
