G04 #@! TF.GenerationSoftware,KiCad,Pcbnew,(6.0.0)*
G04 #@! TF.CreationDate,2022-05-20T23:18:51+02:00*
G04 #@! TF.ProjectId,STM32F103_uC_v1,53544d33-3246-4313-9033-5f75435f7631,rev?*
G04 #@! TF.SameCoordinates,Original*
G04 #@! TF.FileFunction,Legend,Bot*
G04 #@! TF.FilePolarity,Positive*
%FSLAX46Y46*%
G04 Gerber Fmt 4.6, Leading zero omitted, Abs format (unit mm)*
G04 Created by KiCad (PCBNEW (6.0.0)) date 2022-05-20 23:18:51*
%MOMM*%
%LPD*%
G01*
G04 APERTURE LIST*
%ADD10C,0.150000*%
%ADD11C,0.300000*%
G04 APERTURE END LIST*
D10*
X205240000Y-70993095D02*
X205192380Y-70897857D01*
X205192380Y-70755000D01*
X205240000Y-70612142D01*
X205335238Y-70516904D01*
X205430476Y-70469285D01*
X205620952Y-70421666D01*
X205763809Y-70421666D01*
X205954285Y-70469285D01*
X206049523Y-70516904D01*
X206144761Y-70612142D01*
X206192380Y-70755000D01*
X206192380Y-70850238D01*
X206144761Y-70993095D01*
X206097142Y-71040714D01*
X205763809Y-71040714D01*
X205763809Y-70850238D01*
X206192380Y-71469285D02*
X205192380Y-71469285D01*
X206192380Y-72040714D01*
X205192380Y-72040714D01*
X206192380Y-72516904D02*
X205192380Y-72516904D01*
X205192380Y-72755000D01*
X205240000Y-72897857D01*
X205335238Y-72993095D01*
X205430476Y-73040714D01*
X205620952Y-73088333D01*
X205763809Y-73088333D01*
X205954285Y-73040714D01*
X206049523Y-72993095D01*
X206144761Y-72897857D01*
X206192380Y-72755000D01*
X206192380Y-72516904D01*
X180268571Y-71350238D02*
X180316190Y-71493095D01*
X180363809Y-71540714D01*
X180459047Y-71588333D01*
X180601904Y-71588333D01*
X180697142Y-71540714D01*
X180744761Y-71493095D01*
X180792380Y-71397857D01*
X180792380Y-71016904D01*
X179792380Y-71016904D01*
X179792380Y-71350238D01*
X179840000Y-71445476D01*
X179887619Y-71493095D01*
X179982857Y-71540714D01*
X180078095Y-71540714D01*
X180173333Y-71493095D01*
X180220952Y-71445476D01*
X180268571Y-71350238D01*
X180268571Y-71016904D01*
X179792380Y-71921666D02*
X179792380Y-72540714D01*
X180173333Y-72207380D01*
X180173333Y-72350238D01*
X180220952Y-72445476D01*
X180268571Y-72493095D01*
X180363809Y-72540714D01*
X180601904Y-72540714D01*
X180697142Y-72493095D01*
X180744761Y-72445476D01*
X180792380Y-72350238D01*
X180792380Y-72064523D01*
X180744761Y-71969285D01*
X180697142Y-71921666D01*
X156980000Y-112903095D02*
X156932380Y-112807857D01*
X156932380Y-112665000D01*
X156980000Y-112522142D01*
X157075238Y-112426904D01*
X157170476Y-112379285D01*
X157360952Y-112331666D01*
X157503809Y-112331666D01*
X157694285Y-112379285D01*
X157789523Y-112426904D01*
X157884761Y-112522142D01*
X157932380Y-112665000D01*
X157932380Y-112760238D01*
X157884761Y-112903095D01*
X157837142Y-112950714D01*
X157503809Y-112950714D01*
X157503809Y-112760238D01*
X157932380Y-113379285D02*
X156932380Y-113379285D01*
X157932380Y-113950714D01*
X156932380Y-113950714D01*
X157932380Y-114426904D02*
X156932380Y-114426904D01*
X156932380Y-114665000D01*
X156980000Y-114807857D01*
X157075238Y-114903095D01*
X157170476Y-114950714D01*
X157360952Y-114998333D01*
X157503809Y-114998333D01*
X157694285Y-114950714D01*
X157789523Y-114903095D01*
X157884761Y-114807857D01*
X157932380Y-114665000D01*
X157932380Y-114426904D01*
X160186666Y-112950714D02*
X160186666Y-113426904D01*
X160472380Y-112855476D02*
X159472380Y-113188809D01*
X160472380Y-113522142D01*
X159472380Y-114045952D02*
X159472380Y-114141190D01*
X159520000Y-114236428D01*
X159567619Y-114284047D01*
X159662857Y-114331666D01*
X159853333Y-114379285D01*
X160091428Y-114379285D01*
X160281904Y-114331666D01*
X160377142Y-114284047D01*
X160424761Y-114236428D01*
X160472380Y-114141190D01*
X160472380Y-114045952D01*
X160424761Y-113950714D01*
X160377142Y-113903095D01*
X160281904Y-113855476D01*
X160091428Y-113807857D01*
X159853333Y-113807857D01*
X159662857Y-113855476D01*
X159567619Y-113903095D01*
X159520000Y-113950714D01*
X159472380Y-114045952D01*
X172648571Y-71350238D02*
X172696190Y-71493095D01*
X172743809Y-71540714D01*
X172839047Y-71588333D01*
X172981904Y-71588333D01*
X173077142Y-71540714D01*
X173124761Y-71493095D01*
X173172380Y-71397857D01*
X173172380Y-71016904D01*
X172172380Y-71016904D01*
X172172380Y-71350238D01*
X172220000Y-71445476D01*
X172267619Y-71493095D01*
X172362857Y-71540714D01*
X172458095Y-71540714D01*
X172553333Y-71493095D01*
X172600952Y-71445476D01*
X172648571Y-71350238D01*
X172648571Y-71016904D01*
X172172380Y-72445476D02*
X172172380Y-72255000D01*
X172220000Y-72159761D01*
X172267619Y-72112142D01*
X172410476Y-72016904D01*
X172600952Y-71969285D01*
X172981904Y-71969285D01*
X173077142Y-72016904D01*
X173124761Y-72064523D01*
X173172380Y-72159761D01*
X173172380Y-72350238D01*
X173124761Y-72445476D01*
X173077142Y-72493095D01*
X172981904Y-72540714D01*
X172743809Y-72540714D01*
X172648571Y-72493095D01*
X172600952Y-72445476D01*
X172553333Y-72350238D01*
X172553333Y-72159761D01*
X172600952Y-72064523D01*
X172648571Y-72016904D01*
X172743809Y-71969285D01*
X191086095Y-79757380D02*
X190752761Y-80757380D01*
X190419428Y-79757380D01*
X190086095Y-80757380D02*
X190086095Y-80090714D01*
X190086095Y-79757380D02*
X190133714Y-79805000D01*
X190086095Y-79852619D01*
X190038476Y-79805000D01*
X190086095Y-79757380D01*
X190086095Y-79852619D01*
X189609904Y-80090714D02*
X189609904Y-80757380D01*
X189609904Y-80185952D02*
X189562285Y-80138333D01*
X189467047Y-80090714D01*
X189324190Y-80090714D01*
X189228952Y-80138333D01*
X189181333Y-80233571D01*
X189181333Y-80757380D01*
X187943238Y-80757380D02*
X187943238Y-80090714D01*
X187943238Y-79757380D02*
X187990857Y-79805000D01*
X187943238Y-79852619D01*
X187895619Y-79805000D01*
X187943238Y-79757380D01*
X187943238Y-79852619D01*
X187467047Y-80090714D02*
X187467047Y-80757380D01*
X187467047Y-80185952D02*
X187419428Y-80138333D01*
X187324190Y-80090714D01*
X187181333Y-80090714D01*
X187086095Y-80138333D01*
X187038476Y-80233571D01*
X187038476Y-80757380D01*
X186562285Y-80090714D02*
X186562285Y-81090714D01*
X186562285Y-80138333D02*
X186467047Y-80090714D01*
X186276571Y-80090714D01*
X186181333Y-80138333D01*
X186133714Y-80185952D01*
X186086095Y-80281190D01*
X186086095Y-80566904D01*
X186133714Y-80662142D01*
X186181333Y-80709761D01*
X186276571Y-80757380D01*
X186467047Y-80757380D01*
X186562285Y-80709761D01*
X185228952Y-80090714D02*
X185228952Y-80757380D01*
X185657523Y-80090714D02*
X185657523Y-80614523D01*
X185609904Y-80709761D01*
X185514666Y-80757380D01*
X185371809Y-80757380D01*
X185276571Y-80709761D01*
X185228952Y-80662142D01*
X184895619Y-80090714D02*
X184514666Y-80090714D01*
X184752761Y-79757380D02*
X184752761Y-80614523D01*
X184705142Y-80709761D01*
X184609904Y-80757380D01*
X184514666Y-80757380D01*
X183419428Y-80757380D02*
X183419428Y-80090714D01*
X183419428Y-80281190D02*
X183371809Y-80185952D01*
X183324190Y-80138333D01*
X183228952Y-80090714D01*
X183133714Y-80090714D01*
X182371809Y-80757380D02*
X182371809Y-80233571D01*
X182419428Y-80138333D01*
X182514666Y-80090714D01*
X182705142Y-80090714D01*
X182800380Y-80138333D01*
X182371809Y-80709761D02*
X182467047Y-80757380D01*
X182705142Y-80757380D01*
X182800380Y-80709761D01*
X182848000Y-80614523D01*
X182848000Y-80519285D01*
X182800380Y-80424047D01*
X182705142Y-80376428D01*
X182467047Y-80376428D01*
X182371809Y-80328809D01*
X181895619Y-80090714D02*
X181895619Y-80757380D01*
X181895619Y-80185952D02*
X181848000Y-80138333D01*
X181752761Y-80090714D01*
X181609904Y-80090714D01*
X181514666Y-80138333D01*
X181467047Y-80233571D01*
X181467047Y-80757380D01*
X180562285Y-80090714D02*
X180562285Y-80900238D01*
X180609904Y-80995476D01*
X180657523Y-81043095D01*
X180752761Y-81090714D01*
X180895619Y-81090714D01*
X180990857Y-81043095D01*
X180562285Y-80709761D02*
X180657523Y-80757380D01*
X180848000Y-80757380D01*
X180943238Y-80709761D01*
X180990857Y-80662142D01*
X181038476Y-80566904D01*
X181038476Y-80281190D01*
X180990857Y-80185952D01*
X180943238Y-80138333D01*
X180848000Y-80090714D01*
X180657523Y-80090714D01*
X180562285Y-80138333D01*
X179705142Y-80709761D02*
X179800380Y-80757380D01*
X179990857Y-80757380D01*
X180086095Y-80709761D01*
X180133714Y-80614523D01*
X180133714Y-80233571D01*
X180086095Y-80138333D01*
X179990857Y-80090714D01*
X179800380Y-80090714D01*
X179705142Y-80138333D01*
X179657523Y-80233571D01*
X179657523Y-80328809D01*
X180133714Y-80424047D01*
X179228952Y-80662142D02*
X179181333Y-80709761D01*
X179228952Y-80757380D01*
X179276571Y-80709761D01*
X179228952Y-80662142D01*
X179228952Y-80757380D01*
X179228952Y-80138333D02*
X179181333Y-80185952D01*
X179228952Y-80233571D01*
X179276571Y-80185952D01*
X179228952Y-80138333D01*
X179228952Y-80233571D01*
X177562285Y-80090714D02*
X177562285Y-80757380D01*
X177800380Y-79709761D02*
X178038476Y-80424047D01*
X177419428Y-80424047D01*
X177038476Y-80662142D02*
X176990857Y-80709761D01*
X177038476Y-80757380D01*
X177086095Y-80709761D01*
X177038476Y-80662142D01*
X177038476Y-80757380D01*
X176086095Y-79757380D02*
X176562285Y-79757380D01*
X176609904Y-80233571D01*
X176562285Y-80185952D01*
X176467047Y-80138333D01*
X176228952Y-80138333D01*
X176133714Y-80185952D01*
X176086095Y-80233571D01*
X176038476Y-80328809D01*
X176038476Y-80566904D01*
X176086095Y-80662142D01*
X176133714Y-80709761D01*
X176228952Y-80757380D01*
X176467047Y-80757380D01*
X176562285Y-80709761D01*
X176609904Y-80662142D01*
X175752761Y-79757380D02*
X175419428Y-80757380D01*
X175086095Y-79757380D01*
X174752761Y-80376428D02*
X173990857Y-80376428D01*
X172990857Y-80757380D02*
X173562285Y-80757380D01*
X173276571Y-80757380D02*
X173276571Y-79757380D01*
X173371809Y-79900238D01*
X173467047Y-79995476D01*
X173562285Y-80043095D01*
X172419428Y-80185952D02*
X172514666Y-80138333D01*
X172562285Y-80090714D01*
X172609904Y-79995476D01*
X172609904Y-79947857D01*
X172562285Y-79852619D01*
X172514666Y-79805000D01*
X172419428Y-79757380D01*
X172228952Y-79757380D01*
X172133714Y-79805000D01*
X172086095Y-79852619D01*
X172038476Y-79947857D01*
X172038476Y-79995476D01*
X172086095Y-80090714D01*
X172133714Y-80138333D01*
X172228952Y-80185952D01*
X172419428Y-80185952D01*
X172514666Y-80233571D01*
X172562285Y-80281190D01*
X172609904Y-80376428D01*
X172609904Y-80566904D01*
X172562285Y-80662142D01*
X172514666Y-80709761D01*
X172419428Y-80757380D01*
X172228952Y-80757380D01*
X172133714Y-80709761D01*
X172086095Y-80662142D01*
X172038476Y-80566904D01*
X172038476Y-80376428D01*
X172086095Y-80281190D01*
X172133714Y-80233571D01*
X172228952Y-80185952D01*
X171752761Y-79757380D02*
X171419428Y-80757380D01*
X171086095Y-79757380D01*
X170752761Y-80662142D02*
X170705142Y-80709761D01*
X170752761Y-80757380D01*
X170800380Y-80709761D01*
X170752761Y-80662142D01*
X170752761Y-80757380D01*
X192109904Y-82367380D02*
X192109904Y-81367380D01*
X191871809Y-81367380D01*
X191728952Y-81415000D01*
X191633714Y-81510238D01*
X191586095Y-81605476D01*
X191538476Y-81795952D01*
X191538476Y-81938809D01*
X191586095Y-82129285D01*
X191633714Y-82224523D01*
X191728952Y-82319761D01*
X191871809Y-82367380D01*
X192109904Y-82367380D01*
X190967047Y-82367380D02*
X191062285Y-82319761D01*
X191109904Y-82272142D01*
X191157523Y-82176904D01*
X191157523Y-81891190D01*
X191109904Y-81795952D01*
X191062285Y-81748333D01*
X190967047Y-81700714D01*
X190824190Y-81700714D01*
X190728952Y-81748333D01*
X190681333Y-81795952D01*
X190633714Y-81891190D01*
X190633714Y-82176904D01*
X190681333Y-82272142D01*
X190728952Y-82319761D01*
X190824190Y-82367380D01*
X190967047Y-82367380D01*
X189443238Y-82367380D02*
X189443238Y-81367380D01*
X188871809Y-82367380D01*
X188871809Y-81367380D01*
X188205142Y-81367380D02*
X188014666Y-81367380D01*
X187919428Y-81415000D01*
X187824190Y-81510238D01*
X187776571Y-81700714D01*
X187776571Y-82034047D01*
X187824190Y-82224523D01*
X187919428Y-82319761D01*
X188014666Y-82367380D01*
X188205142Y-82367380D01*
X188300380Y-82319761D01*
X188395619Y-82224523D01*
X188443238Y-82034047D01*
X188443238Y-81700714D01*
X188395619Y-81510238D01*
X188300380Y-81415000D01*
X188205142Y-81367380D01*
X187490857Y-81367380D02*
X186919428Y-81367380D01*
X187205142Y-82367380D02*
X187205142Y-81367380D01*
X185824190Y-81700714D02*
X185824190Y-82700714D01*
X185824190Y-81748333D02*
X185728952Y-81700714D01*
X185538476Y-81700714D01*
X185443238Y-81748333D01*
X185395619Y-81795952D01*
X185348000Y-81891190D01*
X185348000Y-82176904D01*
X185395619Y-82272142D01*
X185443238Y-82319761D01*
X185538476Y-82367380D01*
X185728952Y-82367380D01*
X185824190Y-82319761D01*
X184776571Y-82367380D02*
X184871809Y-82319761D01*
X184919428Y-82272142D01*
X184967047Y-82176904D01*
X184967047Y-81891190D01*
X184919428Y-81795952D01*
X184871809Y-81748333D01*
X184776571Y-81700714D01*
X184633714Y-81700714D01*
X184538476Y-81748333D01*
X184490857Y-81795952D01*
X184443238Y-81891190D01*
X184443238Y-82176904D01*
X184490857Y-82272142D01*
X184538476Y-82319761D01*
X184633714Y-82367380D01*
X184776571Y-82367380D01*
X184109904Y-81700714D02*
X183919428Y-82367380D01*
X183728952Y-81891190D01*
X183538476Y-82367380D01*
X183348000Y-81700714D01*
X182586095Y-82319761D02*
X182681333Y-82367380D01*
X182871809Y-82367380D01*
X182967047Y-82319761D01*
X183014666Y-82224523D01*
X183014666Y-81843571D01*
X182967047Y-81748333D01*
X182871809Y-81700714D01*
X182681333Y-81700714D01*
X182586095Y-81748333D01*
X182538476Y-81843571D01*
X182538476Y-81938809D01*
X183014666Y-82034047D01*
X182109904Y-82367380D02*
X182109904Y-81700714D01*
X182109904Y-81891190D02*
X182062285Y-81795952D01*
X182014666Y-81748333D01*
X181919428Y-81700714D01*
X181824190Y-81700714D01*
X180824190Y-81700714D02*
X180586095Y-82367380D01*
X180348000Y-81700714D01*
X179967047Y-82367380D02*
X179967047Y-81700714D01*
X179967047Y-81367380D02*
X180014666Y-81415000D01*
X179967047Y-81462619D01*
X179919428Y-81415000D01*
X179967047Y-81367380D01*
X179967047Y-81462619D01*
X179062285Y-82367380D02*
X179062285Y-81843571D01*
X179109904Y-81748333D01*
X179205142Y-81700714D01*
X179395619Y-81700714D01*
X179490857Y-81748333D01*
X179062285Y-82319761D02*
X179157523Y-82367380D01*
X179395619Y-82367380D01*
X179490857Y-82319761D01*
X179538476Y-82224523D01*
X179538476Y-82129285D01*
X179490857Y-82034047D01*
X179395619Y-81986428D01*
X179157523Y-81986428D01*
X179062285Y-81938809D01*
X177824190Y-81367380D02*
X177824190Y-82176904D01*
X177776571Y-82272142D01*
X177728952Y-82319761D01*
X177633714Y-82367380D01*
X177443238Y-82367380D01*
X177348000Y-82319761D01*
X177300380Y-82272142D01*
X177252761Y-82176904D01*
X177252761Y-81367380D01*
X176824190Y-82319761D02*
X176681333Y-82367380D01*
X176443238Y-82367380D01*
X176348000Y-82319761D01*
X176300380Y-82272142D01*
X176252761Y-82176904D01*
X176252761Y-82081666D01*
X176300380Y-81986428D01*
X176348000Y-81938809D01*
X176443238Y-81891190D01*
X176633714Y-81843571D01*
X176728952Y-81795952D01*
X176776571Y-81748333D01*
X176824190Y-81653095D01*
X176824190Y-81557857D01*
X176776571Y-81462619D01*
X176728952Y-81415000D01*
X176633714Y-81367380D01*
X176395619Y-81367380D01*
X176252761Y-81415000D01*
X175490857Y-81843571D02*
X175348000Y-81891190D01*
X175300380Y-81938809D01*
X175252761Y-82034047D01*
X175252761Y-82176904D01*
X175300380Y-82272142D01*
X175348000Y-82319761D01*
X175443238Y-82367380D01*
X175824190Y-82367380D01*
X175824190Y-81367380D01*
X175490857Y-81367380D01*
X175395619Y-81415000D01*
X175348000Y-81462619D01*
X175300380Y-81557857D01*
X175300380Y-81653095D01*
X175348000Y-81748333D01*
X175395619Y-81795952D01*
X175490857Y-81843571D01*
X175824190Y-81843571D01*
X174824190Y-81986428D02*
X174062285Y-81986428D01*
X173014666Y-82272142D02*
X173062285Y-82319761D01*
X173205142Y-82367380D01*
X173300380Y-82367380D01*
X173443238Y-82319761D01*
X173538476Y-82224523D01*
X173586095Y-82129285D01*
X173633714Y-81938809D01*
X173633714Y-81795952D01*
X173586095Y-81605476D01*
X173538476Y-81510238D01*
X173443238Y-81415000D01*
X173300380Y-81367380D01*
X173205142Y-81367380D01*
X173062285Y-81415000D01*
X173014666Y-81462619D01*
X171395619Y-82367380D02*
X171395619Y-81843571D01*
X171443238Y-81748333D01*
X171538476Y-81700714D01*
X171728952Y-81700714D01*
X171824190Y-81748333D01*
X171395619Y-82319761D02*
X171490857Y-82367380D01*
X171728952Y-82367380D01*
X171824190Y-82319761D01*
X171871809Y-82224523D01*
X171871809Y-82129285D01*
X171824190Y-82034047D01*
X171728952Y-81986428D01*
X171490857Y-81986428D01*
X171395619Y-81938809D01*
X170919428Y-81700714D02*
X170919428Y-82367380D01*
X170919428Y-81795952D02*
X170871809Y-81748333D01*
X170776571Y-81700714D01*
X170633714Y-81700714D01*
X170538476Y-81748333D01*
X170490857Y-81843571D01*
X170490857Y-82367380D01*
X169586095Y-82367380D02*
X169586095Y-81367380D01*
X169586095Y-82319761D02*
X169681333Y-82367380D01*
X169871809Y-82367380D01*
X169967047Y-82319761D01*
X170014666Y-82272142D01*
X170062285Y-82176904D01*
X170062285Y-81891190D01*
X170014666Y-81795952D01*
X169967047Y-81748333D01*
X169871809Y-81700714D01*
X169681333Y-81700714D01*
X169586095Y-81748333D01*
X191181333Y-83977380D02*
X191181333Y-82977380D01*
X191181333Y-83358333D02*
X191086095Y-83310714D01*
X190895619Y-83310714D01*
X190800380Y-83358333D01*
X190752761Y-83405952D01*
X190705142Y-83501190D01*
X190705142Y-83786904D01*
X190752761Y-83882142D01*
X190800380Y-83929761D01*
X190895619Y-83977380D01*
X191086095Y-83977380D01*
X191181333Y-83929761D01*
X189848000Y-83977380D02*
X189848000Y-83453571D01*
X189895619Y-83358333D01*
X189990857Y-83310714D01*
X190181333Y-83310714D01*
X190276571Y-83358333D01*
X189848000Y-83929761D02*
X189943238Y-83977380D01*
X190181333Y-83977380D01*
X190276571Y-83929761D01*
X190324190Y-83834523D01*
X190324190Y-83739285D01*
X190276571Y-83644047D01*
X190181333Y-83596428D01*
X189943238Y-83596428D01*
X189848000Y-83548809D01*
X189371809Y-83977380D02*
X189371809Y-83310714D01*
X189371809Y-83501190D02*
X189324190Y-83405952D01*
X189276571Y-83358333D01*
X189181333Y-83310714D01*
X189086095Y-83310714D01*
X188752761Y-83977380D02*
X188752761Y-83310714D01*
X188752761Y-83501190D02*
X188705142Y-83405952D01*
X188657523Y-83358333D01*
X188562285Y-83310714D01*
X188467047Y-83310714D01*
X187752761Y-83929761D02*
X187848000Y-83977380D01*
X188038476Y-83977380D01*
X188133714Y-83929761D01*
X188181333Y-83834523D01*
X188181333Y-83453571D01*
X188133714Y-83358333D01*
X188038476Y-83310714D01*
X187848000Y-83310714D01*
X187752761Y-83358333D01*
X187705142Y-83453571D01*
X187705142Y-83548809D01*
X188181333Y-83644047D01*
X187133714Y-83977380D02*
X187228952Y-83929761D01*
X187276571Y-83834523D01*
X187276571Y-82977380D01*
X186752761Y-83596428D02*
X185990857Y-83596428D01*
X185514666Y-83310714D02*
X185514666Y-84167857D01*
X185562285Y-84263095D01*
X185657523Y-84310714D01*
X185705142Y-84310714D01*
X185514666Y-82977380D02*
X185562285Y-83025000D01*
X185514666Y-83072619D01*
X185467047Y-83025000D01*
X185514666Y-82977380D01*
X185514666Y-83072619D01*
X184609904Y-83977380D02*
X184609904Y-83453571D01*
X184657523Y-83358333D01*
X184752761Y-83310714D01*
X184943238Y-83310714D01*
X185038476Y-83358333D01*
X184609904Y-83929761D02*
X184705142Y-83977380D01*
X184943238Y-83977380D01*
X185038476Y-83929761D01*
X185086095Y-83834523D01*
X185086095Y-83739285D01*
X185038476Y-83644047D01*
X184943238Y-83596428D01*
X184705142Y-83596428D01*
X184609904Y-83548809D01*
X183705142Y-83929761D02*
X183800380Y-83977380D01*
X183990857Y-83977380D01*
X184086095Y-83929761D01*
X184133714Y-83882142D01*
X184181333Y-83786904D01*
X184181333Y-83501190D01*
X184133714Y-83405952D01*
X184086095Y-83358333D01*
X183990857Y-83310714D01*
X183800380Y-83310714D01*
X183705142Y-83358333D01*
X183276571Y-83977380D02*
X183276571Y-82977380D01*
X183181333Y-83596428D02*
X182895619Y-83977380D01*
X182895619Y-83310714D02*
X183276571Y-83691666D01*
X181752761Y-83929761D02*
X181657523Y-83977380D01*
X181467047Y-83977380D01*
X181371809Y-83929761D01*
X181324190Y-83834523D01*
X181324190Y-83786904D01*
X181371809Y-83691666D01*
X181467047Y-83644047D01*
X181609904Y-83644047D01*
X181705142Y-83596428D01*
X181752761Y-83501190D01*
X181752761Y-83453571D01*
X181705142Y-83358333D01*
X181609904Y-83310714D01*
X181467047Y-83310714D01*
X181371809Y-83358333D01*
X180895619Y-83977380D02*
X180895619Y-83310714D01*
X180895619Y-82977380D02*
X180943238Y-83025000D01*
X180895619Y-83072619D01*
X180848000Y-83025000D01*
X180895619Y-82977380D01*
X180895619Y-83072619D01*
X180419428Y-83977380D02*
X180419428Y-83310714D01*
X180419428Y-83405952D02*
X180371809Y-83358333D01*
X180276571Y-83310714D01*
X180133714Y-83310714D01*
X180038476Y-83358333D01*
X179990857Y-83453571D01*
X179990857Y-83977380D01*
X179990857Y-83453571D02*
X179943238Y-83358333D01*
X179848000Y-83310714D01*
X179705142Y-83310714D01*
X179609904Y-83358333D01*
X179562285Y-83453571D01*
X179562285Y-83977380D01*
X178657523Y-83310714D02*
X178657523Y-83977380D01*
X179086095Y-83310714D02*
X179086095Y-83834523D01*
X179038476Y-83929761D01*
X178943238Y-83977380D01*
X178800380Y-83977380D01*
X178705142Y-83929761D01*
X178657523Y-83882142D01*
X178038476Y-83977380D02*
X178133714Y-83929761D01*
X178181333Y-83834523D01*
X178181333Y-82977380D01*
X177800380Y-83310714D02*
X177419428Y-83310714D01*
X177657523Y-82977380D02*
X177657523Y-83834523D01*
X177609904Y-83929761D01*
X177514666Y-83977380D01*
X177419428Y-83977380D01*
X176657523Y-83977380D02*
X176657523Y-83453571D01*
X176705142Y-83358333D01*
X176800380Y-83310714D01*
X176990857Y-83310714D01*
X177086095Y-83358333D01*
X176657523Y-83929761D02*
X176752761Y-83977380D01*
X176990857Y-83977380D01*
X177086095Y-83929761D01*
X177133714Y-83834523D01*
X177133714Y-83739285D01*
X177086095Y-83644047D01*
X176990857Y-83596428D01*
X176752761Y-83596428D01*
X176657523Y-83548809D01*
X176181333Y-83310714D02*
X176181333Y-83977380D01*
X176181333Y-83405952D02*
X176133714Y-83358333D01*
X176038476Y-83310714D01*
X175895619Y-83310714D01*
X175800380Y-83358333D01*
X175752761Y-83453571D01*
X175752761Y-83977380D01*
X174895619Y-83929761D02*
X174990857Y-83977380D01*
X175181333Y-83977380D01*
X175276571Y-83929761D01*
X175324190Y-83834523D01*
X175324190Y-83453571D01*
X175276571Y-83358333D01*
X175181333Y-83310714D01*
X174990857Y-83310714D01*
X174895619Y-83358333D01*
X174848000Y-83453571D01*
X174848000Y-83548809D01*
X175324190Y-83644047D01*
X174276571Y-83977380D02*
X174371809Y-83929761D01*
X174419428Y-83882142D01*
X174467047Y-83786904D01*
X174467047Y-83501190D01*
X174419428Y-83405952D01*
X174371809Y-83358333D01*
X174276571Y-83310714D01*
X174133714Y-83310714D01*
X174038476Y-83358333D01*
X173990857Y-83405952D01*
X173943238Y-83501190D01*
X173943238Y-83786904D01*
X173990857Y-83882142D01*
X174038476Y-83929761D01*
X174133714Y-83977380D01*
X174276571Y-83977380D01*
X173086095Y-83310714D02*
X173086095Y-83977380D01*
X173514666Y-83310714D02*
X173514666Y-83834523D01*
X173467047Y-83929761D01*
X173371809Y-83977380D01*
X173228952Y-83977380D01*
X173133714Y-83929761D01*
X173086095Y-83882142D01*
X172657523Y-83929761D02*
X172562285Y-83977380D01*
X172371809Y-83977380D01*
X172276571Y-83929761D01*
X172228952Y-83834523D01*
X172228952Y-83786904D01*
X172276571Y-83691666D01*
X172371809Y-83644047D01*
X172514666Y-83644047D01*
X172609904Y-83596428D01*
X172657523Y-83501190D01*
X172657523Y-83453571D01*
X172609904Y-83358333D01*
X172514666Y-83310714D01*
X172371809Y-83310714D01*
X172276571Y-83358333D01*
X171657523Y-83977380D02*
X171752761Y-83929761D01*
X171800380Y-83834523D01*
X171800380Y-82977380D01*
X171371809Y-83310714D02*
X171133714Y-83977380D01*
X170895619Y-83310714D02*
X171133714Y-83977380D01*
X171228952Y-84215476D01*
X171276571Y-84263095D01*
X171371809Y-84310714D01*
X170514666Y-83882142D02*
X170467047Y-83929761D01*
X170514666Y-83977380D01*
X170562285Y-83929761D01*
X170514666Y-83882142D01*
X170514666Y-83977380D01*
D11*
X199801942Y-102704971D02*
X199801942Y-103847828D01*
X200373371Y-103276400D02*
X199230514Y-103276400D01*
D10*
X180109761Y-106259523D02*
X180157380Y-106402380D01*
X180157380Y-106640476D01*
X180109761Y-106735714D01*
X180062142Y-106783333D01*
X179966904Y-106830952D01*
X179871666Y-106830952D01*
X179776428Y-106783333D01*
X179728809Y-106735714D01*
X179681190Y-106640476D01*
X179633571Y-106450000D01*
X179585952Y-106354761D01*
X179538333Y-106307142D01*
X179443095Y-106259523D01*
X179347857Y-106259523D01*
X179252619Y-106307142D01*
X179205000Y-106354761D01*
X179157380Y-106450000D01*
X179157380Y-106688095D01*
X179205000Y-106830952D01*
X180157380Y-107259523D02*
X179157380Y-107259523D01*
X179157380Y-107497619D01*
X179205000Y-107640476D01*
X179300238Y-107735714D01*
X179395476Y-107783333D01*
X179585952Y-107830952D01*
X179728809Y-107830952D01*
X179919285Y-107783333D01*
X180014523Y-107735714D01*
X180109761Y-107640476D01*
X180157380Y-107497619D01*
X180157380Y-107259523D01*
X179871666Y-108211904D02*
X179871666Y-108688095D01*
X180157380Y-108116666D02*
X179157380Y-108450000D01*
X180157380Y-108783333D01*
X179252619Y-109069047D02*
X179205000Y-109116666D01*
X179157380Y-109211904D01*
X179157380Y-109450000D01*
X179205000Y-109545238D01*
X179252619Y-109592857D01*
X179347857Y-109640476D01*
X179443095Y-109640476D01*
X179585952Y-109592857D01*
X180157380Y-109021428D01*
X180157380Y-109640476D01*
X180268571Y-113260238D02*
X180316190Y-113403095D01*
X180363809Y-113450714D01*
X180459047Y-113498333D01*
X180601904Y-113498333D01*
X180697142Y-113450714D01*
X180744761Y-113403095D01*
X180792380Y-113307857D01*
X180792380Y-112926904D01*
X179792380Y-112926904D01*
X179792380Y-113260238D01*
X179840000Y-113355476D01*
X179887619Y-113403095D01*
X179982857Y-113450714D01*
X180078095Y-113450714D01*
X180173333Y-113403095D01*
X180220952Y-113355476D01*
X180268571Y-113260238D01*
X180268571Y-112926904D01*
X179792380Y-114117380D02*
X179792380Y-114212619D01*
X179840000Y-114307857D01*
X179887619Y-114355476D01*
X179982857Y-114403095D01*
X180173333Y-114450714D01*
X180411428Y-114450714D01*
X180601904Y-114403095D01*
X180697142Y-114355476D01*
X180744761Y-114307857D01*
X180792380Y-114212619D01*
X180792380Y-114117380D01*
X180744761Y-114022142D01*
X180697142Y-113974523D01*
X180601904Y-113926904D01*
X180411428Y-113879285D01*
X180173333Y-113879285D01*
X179982857Y-113926904D01*
X179887619Y-113974523D01*
X179840000Y-114022142D01*
X179792380Y-114117380D01*
X190428571Y-113260238D02*
X190476190Y-113403095D01*
X190523809Y-113450714D01*
X190619047Y-113498333D01*
X190761904Y-113498333D01*
X190857142Y-113450714D01*
X190904761Y-113403095D01*
X190952380Y-113307857D01*
X190952380Y-112926904D01*
X189952380Y-112926904D01*
X189952380Y-113260238D01*
X190000000Y-113355476D01*
X190047619Y-113403095D01*
X190142857Y-113450714D01*
X190238095Y-113450714D01*
X190333333Y-113403095D01*
X190380952Y-113355476D01*
X190428571Y-113260238D01*
X190428571Y-112926904D01*
X190047619Y-113879285D02*
X190000000Y-113926904D01*
X189952380Y-114022142D01*
X189952380Y-114260238D01*
X190000000Y-114355476D01*
X190047619Y-114403095D01*
X190142857Y-114450714D01*
X190238095Y-114450714D01*
X190380952Y-114403095D01*
X190952380Y-113831666D01*
X190952380Y-114450714D01*
X199398000Y-89916095D02*
X199350380Y-89820857D01*
X199350380Y-89678000D01*
X199398000Y-89535142D01*
X199493238Y-89439904D01*
X199588476Y-89392285D01*
X199778952Y-89344666D01*
X199921809Y-89344666D01*
X200112285Y-89392285D01*
X200207523Y-89439904D01*
X200302761Y-89535142D01*
X200350380Y-89678000D01*
X200350380Y-89773238D01*
X200302761Y-89916095D01*
X200255142Y-89963714D01*
X199921809Y-89963714D01*
X199921809Y-89773238D01*
X200350380Y-90392285D02*
X199350380Y-90392285D01*
X200350380Y-90963714D01*
X199350380Y-90963714D01*
X200350380Y-91439904D02*
X199350380Y-91439904D01*
X199350380Y-91678000D01*
X199398000Y-91820857D01*
X199493238Y-91916095D01*
X199588476Y-91963714D01*
X199778952Y-92011333D01*
X199921809Y-92011333D01*
X200112285Y-91963714D01*
X200207523Y-91916095D01*
X200302761Y-91820857D01*
X200350380Y-91678000D01*
X200350380Y-91439904D01*
X183046666Y-70564523D02*
X183046666Y-71040714D01*
X183332380Y-70469285D02*
X182332380Y-70802619D01*
X183332380Y-71135952D01*
X183332380Y-71993095D02*
X183332380Y-71421666D01*
X183332380Y-71707380D02*
X182332380Y-71707380D01*
X182475238Y-71612142D01*
X182570476Y-71516904D01*
X182618095Y-71421666D01*
X182332380Y-72897857D02*
X182332380Y-72421666D01*
X182808571Y-72374047D01*
X182760952Y-72421666D01*
X182713333Y-72516904D01*
X182713333Y-72755000D01*
X182760952Y-72850238D01*
X182808571Y-72897857D01*
X182903809Y-72945476D01*
X183141904Y-72945476D01*
X183237142Y-72897857D01*
X183284761Y-72850238D01*
X183332380Y-72755000D01*
X183332380Y-72516904D01*
X183284761Y-72421666D01*
X183237142Y-72374047D01*
X192643333Y-86117380D02*
X192405238Y-87117380D01*
X192214761Y-86403095D01*
X192024285Y-87117380D01*
X191786190Y-86117380D01*
X191405238Y-87117380D02*
X191405238Y-86117380D01*
X190976666Y-87117380D02*
X190976666Y-86593571D01*
X191024285Y-86498333D01*
X191119523Y-86450714D01*
X191262380Y-86450714D01*
X191357619Y-86498333D01*
X191405238Y-86545952D01*
X190119523Y-87069761D02*
X190214761Y-87117380D01*
X190405238Y-87117380D01*
X190500476Y-87069761D01*
X190548095Y-86974523D01*
X190548095Y-86593571D01*
X190500476Y-86498333D01*
X190405238Y-86450714D01*
X190214761Y-86450714D01*
X190119523Y-86498333D01*
X190071904Y-86593571D01*
X190071904Y-86688809D01*
X190548095Y-86784047D01*
X189643333Y-86450714D02*
X189643333Y-87117380D01*
X189643333Y-86545952D02*
X189595714Y-86498333D01*
X189500476Y-86450714D01*
X189357619Y-86450714D01*
X189262380Y-86498333D01*
X189214761Y-86593571D01*
X189214761Y-87117380D01*
X187976666Y-86450714D02*
X187976666Y-87450714D01*
X187976666Y-86498333D02*
X187881428Y-86450714D01*
X187690952Y-86450714D01*
X187595714Y-86498333D01*
X187548095Y-86545952D01*
X187500476Y-86641190D01*
X187500476Y-86926904D01*
X187548095Y-87022142D01*
X187595714Y-87069761D01*
X187690952Y-87117380D01*
X187881428Y-87117380D01*
X187976666Y-87069761D01*
X186929047Y-87117380D02*
X187024285Y-87069761D01*
X187071904Y-87022142D01*
X187119523Y-86926904D01*
X187119523Y-86641190D01*
X187071904Y-86545952D01*
X187024285Y-86498333D01*
X186929047Y-86450714D01*
X186786190Y-86450714D01*
X186690952Y-86498333D01*
X186643333Y-86545952D01*
X186595714Y-86641190D01*
X186595714Y-86926904D01*
X186643333Y-87022142D01*
X186690952Y-87069761D01*
X186786190Y-87117380D01*
X186929047Y-87117380D01*
X186262380Y-86450714D02*
X186071904Y-87117380D01*
X185881428Y-86641190D01*
X185690952Y-87117380D01*
X185500476Y-86450714D01*
X184738571Y-87069761D02*
X184833809Y-87117380D01*
X185024285Y-87117380D01*
X185119523Y-87069761D01*
X185167142Y-86974523D01*
X185167142Y-86593571D01*
X185119523Y-86498333D01*
X185024285Y-86450714D01*
X184833809Y-86450714D01*
X184738571Y-86498333D01*
X184690952Y-86593571D01*
X184690952Y-86688809D01*
X185167142Y-86784047D01*
X184262380Y-87117380D02*
X184262380Y-86450714D01*
X184262380Y-86641190D02*
X184214761Y-86545952D01*
X184167142Y-86498333D01*
X184071904Y-86450714D01*
X183976666Y-86450714D01*
X183643333Y-87117380D02*
X183643333Y-86450714D01*
X183643333Y-86117380D02*
X183690952Y-86165000D01*
X183643333Y-86212619D01*
X183595714Y-86165000D01*
X183643333Y-86117380D01*
X183643333Y-86212619D01*
X183167142Y-86450714D02*
X183167142Y-87117380D01*
X183167142Y-86545952D02*
X183119523Y-86498333D01*
X183024285Y-86450714D01*
X182881428Y-86450714D01*
X182786190Y-86498333D01*
X182738571Y-86593571D01*
X182738571Y-87117380D01*
X181833809Y-86450714D02*
X181833809Y-87260238D01*
X181881428Y-87355476D01*
X181929047Y-87403095D01*
X182024285Y-87450714D01*
X182167142Y-87450714D01*
X182262380Y-87403095D01*
X181833809Y-87069761D02*
X181929047Y-87117380D01*
X182119523Y-87117380D01*
X182214761Y-87069761D01*
X182262380Y-87022142D01*
X182310000Y-86926904D01*
X182310000Y-86641190D01*
X182262380Y-86545952D01*
X182214761Y-86498333D01*
X182119523Y-86450714D01*
X181929047Y-86450714D01*
X181833809Y-86498333D01*
X180690952Y-86450714D02*
X180452857Y-87117380D01*
X180214761Y-86450714D01*
X179833809Y-87117380D02*
X179833809Y-86450714D01*
X179833809Y-86117380D02*
X179881428Y-86165000D01*
X179833809Y-86212619D01*
X179786190Y-86165000D01*
X179833809Y-86117380D01*
X179833809Y-86212619D01*
X178929047Y-87117380D02*
X178929047Y-86593571D01*
X178976666Y-86498333D01*
X179071904Y-86450714D01*
X179262380Y-86450714D01*
X179357619Y-86498333D01*
X178929047Y-87069761D02*
X179024285Y-87117380D01*
X179262380Y-87117380D01*
X179357619Y-87069761D01*
X179405238Y-86974523D01*
X179405238Y-86879285D01*
X179357619Y-86784047D01*
X179262380Y-86736428D01*
X179024285Y-86736428D01*
X178929047Y-86688809D01*
X177786190Y-86117380D02*
X177167142Y-86117380D01*
X177500476Y-86498333D01*
X177357619Y-86498333D01*
X177262380Y-86545952D01*
X177214761Y-86593571D01*
X177167142Y-86688809D01*
X177167142Y-86926904D01*
X177214761Y-87022142D01*
X177262380Y-87069761D01*
X177357619Y-87117380D01*
X177643333Y-87117380D01*
X177738571Y-87069761D01*
X177786190Y-87022142D01*
X176881428Y-86117380D02*
X176548095Y-87117380D01*
X176214761Y-86117380D01*
X175976666Y-86117380D02*
X175357619Y-86117380D01*
X175690952Y-86498333D01*
X175548095Y-86498333D01*
X175452857Y-86545952D01*
X175405238Y-86593571D01*
X175357619Y-86688809D01*
X175357619Y-86926904D01*
X175405238Y-87022142D01*
X175452857Y-87069761D01*
X175548095Y-87117380D01*
X175833809Y-87117380D01*
X175929047Y-87069761D01*
X175976666Y-87022142D01*
X174167142Y-87117380D02*
X174167142Y-86117380D01*
X173786190Y-86117380D01*
X173690952Y-86165000D01*
X173643333Y-86212619D01*
X173595714Y-86307857D01*
X173595714Y-86450714D01*
X173643333Y-86545952D01*
X173690952Y-86593571D01*
X173786190Y-86641190D01*
X174167142Y-86641190D01*
X173214761Y-87069761D02*
X173071904Y-87117380D01*
X172833809Y-87117380D01*
X172738571Y-87069761D01*
X172690952Y-87022142D01*
X172643333Y-86926904D01*
X172643333Y-86831666D01*
X172690952Y-86736428D01*
X172738571Y-86688809D01*
X172833809Y-86641190D01*
X173024285Y-86593571D01*
X173119523Y-86545952D01*
X173167142Y-86498333D01*
X173214761Y-86403095D01*
X173214761Y-86307857D01*
X173167142Y-86212619D01*
X173119523Y-86165000D01*
X173024285Y-86117380D01*
X172786190Y-86117380D01*
X172643333Y-86165000D01*
X172214761Y-86117380D02*
X172214761Y-86926904D01*
X172167142Y-87022142D01*
X172119523Y-87069761D01*
X172024285Y-87117380D01*
X171833809Y-87117380D01*
X171738571Y-87069761D01*
X171690952Y-87022142D01*
X171643333Y-86926904D01*
X171643333Y-86117380D01*
X171119523Y-87069761D02*
X171119523Y-87117380D01*
X171167142Y-87212619D01*
X171214761Y-87260238D01*
X169929047Y-86450714D02*
X169929047Y-87450714D01*
X169929047Y-86498333D02*
X169833809Y-86450714D01*
X169643333Y-86450714D01*
X169548095Y-86498333D01*
X169500476Y-86545952D01*
X169452857Y-86641190D01*
X169452857Y-86926904D01*
X169500476Y-87022142D01*
X169548095Y-87069761D01*
X169643333Y-87117380D01*
X169833809Y-87117380D01*
X169929047Y-87069761D01*
X168881428Y-87117380D02*
X168976666Y-87069761D01*
X169024285Y-87022142D01*
X169071904Y-86926904D01*
X169071904Y-86641190D01*
X169024285Y-86545952D01*
X168976666Y-86498333D01*
X168881428Y-86450714D01*
X168738571Y-86450714D01*
X168643333Y-86498333D01*
X168595714Y-86545952D01*
X168548095Y-86641190D01*
X168548095Y-86926904D01*
X168595714Y-87022142D01*
X168643333Y-87069761D01*
X168738571Y-87117380D01*
X168881428Y-87117380D01*
X168214761Y-86450714D02*
X168024285Y-87117380D01*
X167833809Y-86641190D01*
X167643333Y-87117380D01*
X167452857Y-86450714D01*
X166690952Y-87069761D02*
X166786190Y-87117380D01*
X166976666Y-87117380D01*
X167071904Y-87069761D01*
X167119523Y-86974523D01*
X167119523Y-86593571D01*
X167071904Y-86498333D01*
X166976666Y-86450714D01*
X166786190Y-86450714D01*
X166690952Y-86498333D01*
X166643333Y-86593571D01*
X166643333Y-86688809D01*
X167119523Y-86784047D01*
X166214761Y-87117380D02*
X166214761Y-86450714D01*
X166214761Y-86641190D02*
X166167142Y-86545952D01*
X166119523Y-86498333D01*
X166024285Y-86450714D01*
X165929047Y-86450714D01*
X191357619Y-88060714D02*
X191119523Y-88727380D01*
X190881428Y-88060714D01*
X190500476Y-88727380D02*
X190500476Y-88060714D01*
X190500476Y-87727380D02*
X190548095Y-87775000D01*
X190500476Y-87822619D01*
X190452857Y-87775000D01*
X190500476Y-87727380D01*
X190500476Y-87822619D01*
X189595714Y-88727380D02*
X189595714Y-88203571D01*
X189643333Y-88108333D01*
X189738571Y-88060714D01*
X189929047Y-88060714D01*
X190024285Y-88108333D01*
X189595714Y-88679761D02*
X189690952Y-88727380D01*
X189929047Y-88727380D01*
X190024285Y-88679761D01*
X190071904Y-88584523D01*
X190071904Y-88489285D01*
X190024285Y-88394047D01*
X189929047Y-88346428D01*
X189690952Y-88346428D01*
X189595714Y-88298809D01*
X188452857Y-87727380D02*
X187833809Y-87727380D01*
X188167142Y-88108333D01*
X188024285Y-88108333D01*
X187929047Y-88155952D01*
X187881428Y-88203571D01*
X187833809Y-88298809D01*
X187833809Y-88536904D01*
X187881428Y-88632142D01*
X187929047Y-88679761D01*
X188024285Y-88727380D01*
X188310000Y-88727380D01*
X188405238Y-88679761D01*
X188452857Y-88632142D01*
X187548095Y-87727380D02*
X187214761Y-88727380D01*
X186881428Y-87727380D01*
X186643333Y-87727380D02*
X186024285Y-87727380D01*
X186357619Y-88108333D01*
X186214761Y-88108333D01*
X186119523Y-88155952D01*
X186071904Y-88203571D01*
X186024285Y-88298809D01*
X186024285Y-88536904D01*
X186071904Y-88632142D01*
X186119523Y-88679761D01*
X186214761Y-88727380D01*
X186500476Y-88727380D01*
X186595714Y-88679761D01*
X186643333Y-88632142D01*
X184833809Y-88060714D02*
X184833809Y-89060714D01*
X184833809Y-88108333D02*
X184738571Y-88060714D01*
X184548095Y-88060714D01*
X184452857Y-88108333D01*
X184405238Y-88155952D01*
X184357619Y-88251190D01*
X184357619Y-88536904D01*
X184405238Y-88632142D01*
X184452857Y-88679761D01*
X184548095Y-88727380D01*
X184738571Y-88727380D01*
X184833809Y-88679761D01*
X183929047Y-88727380D02*
X183929047Y-88060714D01*
X183929047Y-87727380D02*
X183976666Y-87775000D01*
X183929047Y-87822619D01*
X183881428Y-87775000D01*
X183929047Y-87727380D01*
X183929047Y-87822619D01*
X183452857Y-88060714D02*
X183452857Y-88727380D01*
X183452857Y-88155952D02*
X183405238Y-88108333D01*
X183310000Y-88060714D01*
X183167142Y-88060714D01*
X183071904Y-88108333D01*
X183024285Y-88203571D01*
X183024285Y-88727380D01*
X181786190Y-88346428D02*
X181024285Y-88346428D01*
X179786190Y-88727380D02*
X179786190Y-87727380D01*
X179214761Y-88727380D01*
X179214761Y-87727380D01*
X178548095Y-87727380D02*
X178357619Y-87727380D01*
X178262380Y-87775000D01*
X178167142Y-87870238D01*
X178119523Y-88060714D01*
X178119523Y-88394047D01*
X178167142Y-88584523D01*
X178262380Y-88679761D01*
X178357619Y-88727380D01*
X178548095Y-88727380D01*
X178643333Y-88679761D01*
X178738571Y-88584523D01*
X178786190Y-88394047D01*
X178786190Y-88060714D01*
X178738571Y-87870238D01*
X178643333Y-87775000D01*
X178548095Y-87727380D01*
X177833809Y-87727380D02*
X177262380Y-87727380D01*
X177548095Y-88727380D02*
X177548095Y-87727380D01*
X176262380Y-88060714D02*
X176024285Y-88727380D01*
X175786190Y-88060714D01*
X175405238Y-88727380D02*
X175405238Y-88060714D01*
X175405238Y-87727380D02*
X175452857Y-87775000D01*
X175405238Y-87822619D01*
X175357619Y-87775000D01*
X175405238Y-87727380D01*
X175405238Y-87822619D01*
X174500476Y-88727380D02*
X174500476Y-88203571D01*
X174548095Y-88108333D01*
X174643333Y-88060714D01*
X174833809Y-88060714D01*
X174929047Y-88108333D01*
X174500476Y-88679761D02*
X174595714Y-88727380D01*
X174833809Y-88727380D01*
X174929047Y-88679761D01*
X174976666Y-88584523D01*
X174976666Y-88489285D01*
X174929047Y-88394047D01*
X174833809Y-88346428D01*
X174595714Y-88346428D01*
X174500476Y-88298809D01*
X173405238Y-87727380D02*
X173071904Y-88727380D01*
X172738571Y-87727380D01*
X172405238Y-88727380D02*
X172405238Y-87727380D01*
X172167142Y-87727380D01*
X172024285Y-87775000D01*
X171929047Y-87870238D01*
X171881428Y-87965476D01*
X171833809Y-88155952D01*
X171833809Y-88298809D01*
X171881428Y-88489285D01*
X171929047Y-88584523D01*
X172024285Y-88679761D01*
X172167142Y-88727380D01*
X172405238Y-88727380D01*
X171405238Y-88727380D02*
X171405238Y-87727380D01*
X171167142Y-87727380D01*
X171024285Y-87775000D01*
X170929047Y-87870238D01*
X170881428Y-87965476D01*
X170833809Y-88155952D01*
X170833809Y-88298809D01*
X170881428Y-88489285D01*
X170929047Y-88584523D01*
X171024285Y-88679761D01*
X171167142Y-88727380D01*
X171405238Y-88727380D01*
X169643333Y-88060714D02*
X169643333Y-89060714D01*
X169643333Y-88108333D02*
X169548095Y-88060714D01*
X169357619Y-88060714D01*
X169262380Y-88108333D01*
X169214761Y-88155952D01*
X169167142Y-88251190D01*
X169167142Y-88536904D01*
X169214761Y-88632142D01*
X169262380Y-88679761D01*
X169357619Y-88727380D01*
X169548095Y-88727380D01*
X169643333Y-88679761D01*
X168738571Y-88727380D02*
X168738571Y-88060714D01*
X168738571Y-87727380D02*
X168786190Y-87775000D01*
X168738571Y-87822619D01*
X168690952Y-87775000D01*
X168738571Y-87727380D01*
X168738571Y-87822619D01*
X168262380Y-88060714D02*
X168262380Y-88727380D01*
X168262380Y-88155952D02*
X168214761Y-88108333D01*
X168119523Y-88060714D01*
X167976666Y-88060714D01*
X167881428Y-88108333D01*
X167833809Y-88203571D01*
X167833809Y-88727380D01*
X167357619Y-88632142D02*
X167310000Y-88679761D01*
X167357619Y-88727380D01*
X167405238Y-88679761D01*
X167357619Y-88632142D01*
X167357619Y-88727380D01*
X195508571Y-112784047D02*
X195556190Y-112926904D01*
X195603809Y-112974523D01*
X195699047Y-113022142D01*
X195841904Y-113022142D01*
X195937142Y-112974523D01*
X195984761Y-112926904D01*
X196032380Y-112831666D01*
X196032380Y-112450714D01*
X195032380Y-112450714D01*
X195032380Y-112784047D01*
X195080000Y-112879285D01*
X195127619Y-112926904D01*
X195222857Y-112974523D01*
X195318095Y-112974523D01*
X195413333Y-112926904D01*
X195460952Y-112879285D01*
X195508571Y-112784047D01*
X195508571Y-112450714D01*
X196032380Y-113974523D02*
X196032380Y-113403095D01*
X196032380Y-113688809D02*
X195032380Y-113688809D01*
X195175238Y-113593571D01*
X195270476Y-113498333D01*
X195318095Y-113403095D01*
X195032380Y-114593571D02*
X195032380Y-114688809D01*
X195080000Y-114784047D01*
X195127619Y-114831666D01*
X195222857Y-114879285D01*
X195413333Y-114926904D01*
X195651428Y-114926904D01*
X195841904Y-114879285D01*
X195937142Y-114831666D01*
X195984761Y-114784047D01*
X196032380Y-114688809D01*
X196032380Y-114593571D01*
X195984761Y-114498333D01*
X195937142Y-114450714D01*
X195841904Y-114403095D01*
X195651428Y-114355476D01*
X195413333Y-114355476D01*
X195222857Y-114403095D01*
X195127619Y-114450714D01*
X195080000Y-114498333D01*
X195032380Y-114593571D01*
X192968571Y-112784047D02*
X193016190Y-112926904D01*
X193063809Y-112974523D01*
X193159047Y-113022142D01*
X193301904Y-113022142D01*
X193397142Y-112974523D01*
X193444761Y-112926904D01*
X193492380Y-112831666D01*
X193492380Y-112450714D01*
X192492380Y-112450714D01*
X192492380Y-112784047D01*
X192540000Y-112879285D01*
X192587619Y-112926904D01*
X192682857Y-112974523D01*
X192778095Y-112974523D01*
X192873333Y-112926904D01*
X192920952Y-112879285D01*
X192968571Y-112784047D01*
X192968571Y-112450714D01*
X193492380Y-113974523D02*
X193492380Y-113403095D01*
X193492380Y-113688809D02*
X192492380Y-113688809D01*
X192635238Y-113593571D01*
X192730476Y-113498333D01*
X192778095Y-113403095D01*
X193492380Y-114926904D02*
X193492380Y-114355476D01*
X193492380Y-114641190D02*
X192492380Y-114641190D01*
X192635238Y-114545952D01*
X192730476Y-114450714D01*
X192778095Y-114355476D01*
X205668571Y-112784047D02*
X205716190Y-112926904D01*
X205763809Y-112974523D01*
X205859047Y-113022142D01*
X206001904Y-113022142D01*
X206097142Y-112974523D01*
X206144761Y-112926904D01*
X206192380Y-112831666D01*
X206192380Y-112450714D01*
X205192380Y-112450714D01*
X205192380Y-112784047D01*
X205240000Y-112879285D01*
X205287619Y-112926904D01*
X205382857Y-112974523D01*
X205478095Y-112974523D01*
X205573333Y-112926904D01*
X205620952Y-112879285D01*
X205668571Y-112784047D01*
X205668571Y-112450714D01*
X206192380Y-113974523D02*
X206192380Y-113403095D01*
X206192380Y-113688809D02*
X205192380Y-113688809D01*
X205335238Y-113593571D01*
X205430476Y-113498333D01*
X205478095Y-113403095D01*
X205192380Y-114879285D02*
X205192380Y-114403095D01*
X205668571Y-114355476D01*
X205620952Y-114403095D01*
X205573333Y-114498333D01*
X205573333Y-114736428D01*
X205620952Y-114831666D01*
X205668571Y-114879285D01*
X205763809Y-114926904D01*
X206001904Y-114926904D01*
X206097142Y-114879285D01*
X206144761Y-114831666D01*
X206192380Y-114736428D01*
X206192380Y-114498333D01*
X206144761Y-114403095D01*
X206097142Y-114355476D01*
D11*
X199801942Y-100164971D02*
X199801942Y-101307828D01*
D10*
X175426666Y-112950714D02*
X175426666Y-113426904D01*
X175712380Y-112855476D02*
X174712380Y-113188809D01*
X175712380Y-113522142D01*
X174712380Y-114284047D02*
X174712380Y-114093571D01*
X174760000Y-113998333D01*
X174807619Y-113950714D01*
X174950476Y-113855476D01*
X175140952Y-113807857D01*
X175521904Y-113807857D01*
X175617142Y-113855476D01*
X175664761Y-113903095D01*
X175712380Y-113998333D01*
X175712380Y-114188809D01*
X175664761Y-114284047D01*
X175617142Y-114331666D01*
X175521904Y-114379285D01*
X175283809Y-114379285D01*
X175188571Y-114331666D01*
X175140952Y-114284047D01*
X175093333Y-114188809D01*
X175093333Y-113998333D01*
X175140952Y-113903095D01*
X175188571Y-113855476D01*
X175283809Y-113807857D01*
X202652380Y-70421666D02*
X203652380Y-70755000D01*
X202652380Y-71088333D01*
X203652380Y-71421666D02*
X202652380Y-71421666D01*
X202652380Y-71659761D01*
X202700000Y-71802619D01*
X202795238Y-71897857D01*
X202890476Y-71945476D01*
X203080952Y-71993095D01*
X203223809Y-71993095D01*
X203414285Y-71945476D01*
X203509523Y-71897857D01*
X203604761Y-71802619D01*
X203652380Y-71659761D01*
X203652380Y-71421666D01*
X203652380Y-72421666D02*
X202652380Y-72421666D01*
X202652380Y-72659761D01*
X202700000Y-72802619D01*
X202795238Y-72897857D01*
X202890476Y-72945476D01*
X203080952Y-72993095D01*
X203223809Y-72993095D01*
X203414285Y-72945476D01*
X203509523Y-72897857D01*
X203604761Y-72802619D01*
X203652380Y-72659761D01*
X203652380Y-72421666D01*
X200826666Y-71040714D02*
X200826666Y-71516904D01*
X201112380Y-70945476D02*
X200112380Y-71278809D01*
X201112380Y-71612142D01*
X200540952Y-72088333D02*
X200493333Y-71993095D01*
X200445714Y-71945476D01*
X200350476Y-71897857D01*
X200302857Y-71897857D01*
X200207619Y-71945476D01*
X200160000Y-71993095D01*
X200112380Y-72088333D01*
X200112380Y-72278809D01*
X200160000Y-72374047D01*
X200207619Y-72421666D01*
X200302857Y-72469285D01*
X200350476Y-72469285D01*
X200445714Y-72421666D01*
X200493333Y-72374047D01*
X200540952Y-72278809D01*
X200540952Y-72088333D01*
X200588571Y-71993095D01*
X200636190Y-71945476D01*
X200731428Y-71897857D01*
X200921904Y-71897857D01*
X201017142Y-71945476D01*
X201064761Y-71993095D01*
X201112380Y-72088333D01*
X201112380Y-72278809D01*
X201064761Y-72374047D01*
X201017142Y-72421666D01*
X200921904Y-72469285D01*
X200731428Y-72469285D01*
X200636190Y-72421666D01*
X200588571Y-72374047D01*
X200540952Y-72278809D01*
X167806666Y-112950714D02*
X167806666Y-113426904D01*
X168092380Y-112855476D02*
X167092380Y-113188809D01*
X168092380Y-113522142D01*
X167092380Y-113760238D02*
X167092380Y-114379285D01*
X167473333Y-114045952D01*
X167473333Y-114188809D01*
X167520952Y-114284047D01*
X167568571Y-114331666D01*
X167663809Y-114379285D01*
X167901904Y-114379285D01*
X167997142Y-114331666D01*
X168044761Y-114284047D01*
X168092380Y-114188809D01*
X168092380Y-113903095D01*
X168044761Y-113807857D01*
X167997142Y-113760238D01*
X177966666Y-112950714D02*
X177966666Y-113426904D01*
X178252380Y-112855476D02*
X177252380Y-113188809D01*
X178252380Y-113522142D01*
X177252380Y-113760238D02*
X177252380Y-114426904D01*
X178252380Y-113998333D01*
X203128571Y-112784047D02*
X203176190Y-112926904D01*
X203223809Y-112974523D01*
X203319047Y-113022142D01*
X203461904Y-113022142D01*
X203557142Y-112974523D01*
X203604761Y-112926904D01*
X203652380Y-112831666D01*
X203652380Y-112450714D01*
X202652380Y-112450714D01*
X202652380Y-112784047D01*
X202700000Y-112879285D01*
X202747619Y-112926904D01*
X202842857Y-112974523D01*
X202938095Y-112974523D01*
X203033333Y-112926904D01*
X203080952Y-112879285D01*
X203128571Y-112784047D01*
X203128571Y-112450714D01*
X203652380Y-113974523D02*
X203652380Y-113403095D01*
X203652380Y-113688809D02*
X202652380Y-113688809D01*
X202795238Y-113593571D01*
X202890476Y-113498333D01*
X202938095Y-113403095D01*
X202985714Y-114831666D02*
X203652380Y-114831666D01*
X202604761Y-114593571D02*
X203319047Y-114355476D01*
X203319047Y-114974523D01*
X185586666Y-70564523D02*
X185586666Y-71040714D01*
X185872380Y-70469285D02*
X184872380Y-70802619D01*
X185872380Y-71135952D01*
X185872380Y-71993095D02*
X185872380Y-71421666D01*
X185872380Y-71707380D02*
X184872380Y-71707380D01*
X185015238Y-71612142D01*
X185110476Y-71516904D01*
X185158095Y-71421666D01*
X185205714Y-72850238D02*
X185872380Y-72850238D01*
X184824761Y-72612142D02*
X185539047Y-72374047D01*
X185539047Y-72993095D01*
X188126666Y-70564523D02*
X188126666Y-71040714D01*
X188412380Y-70469285D02*
X187412380Y-70802619D01*
X188412380Y-71135952D01*
X188412380Y-71993095D02*
X188412380Y-71421666D01*
X188412380Y-71707380D02*
X187412380Y-71707380D01*
X187555238Y-71612142D01*
X187650476Y-71516904D01*
X187698095Y-71421666D01*
X187412380Y-72326428D02*
X187412380Y-72945476D01*
X187793333Y-72612142D01*
X187793333Y-72755000D01*
X187840952Y-72850238D01*
X187888571Y-72897857D01*
X187983809Y-72945476D01*
X188221904Y-72945476D01*
X188317142Y-72897857D01*
X188364761Y-72850238D01*
X188412380Y-72755000D01*
X188412380Y-72469285D01*
X188364761Y-72374047D01*
X188317142Y-72326428D01*
X198048571Y-112784047D02*
X198096190Y-112926904D01*
X198143809Y-112974523D01*
X198239047Y-113022142D01*
X198381904Y-113022142D01*
X198477142Y-112974523D01*
X198524761Y-112926904D01*
X198572380Y-112831666D01*
X198572380Y-112450714D01*
X197572380Y-112450714D01*
X197572380Y-112784047D01*
X197620000Y-112879285D01*
X197667619Y-112926904D01*
X197762857Y-112974523D01*
X197858095Y-112974523D01*
X197953333Y-112926904D01*
X198000952Y-112879285D01*
X198048571Y-112784047D01*
X198048571Y-112450714D01*
X198572380Y-113974523D02*
X198572380Y-113403095D01*
X198572380Y-113688809D02*
X197572380Y-113688809D01*
X197715238Y-113593571D01*
X197810476Y-113498333D01*
X197858095Y-113403095D01*
X197667619Y-114355476D02*
X197620000Y-114403095D01*
X197572380Y-114498333D01*
X197572380Y-114736428D01*
X197620000Y-114831666D01*
X197667619Y-114879285D01*
X197762857Y-114926904D01*
X197858095Y-114926904D01*
X198000952Y-114879285D01*
X198572380Y-114307857D01*
X198572380Y-114926904D01*
X167568571Y-71350238D02*
X167616190Y-71493095D01*
X167663809Y-71540714D01*
X167759047Y-71588333D01*
X167901904Y-71588333D01*
X167997142Y-71540714D01*
X168044761Y-71493095D01*
X168092380Y-71397857D01*
X168092380Y-71016904D01*
X167092380Y-71016904D01*
X167092380Y-71350238D01*
X167140000Y-71445476D01*
X167187619Y-71493095D01*
X167282857Y-71540714D01*
X167378095Y-71540714D01*
X167473333Y-71493095D01*
X167520952Y-71445476D01*
X167568571Y-71350238D01*
X167568571Y-71016904D01*
X167520952Y-72159761D02*
X167473333Y-72064523D01*
X167425714Y-72016904D01*
X167330476Y-71969285D01*
X167282857Y-71969285D01*
X167187619Y-72016904D01*
X167140000Y-72064523D01*
X167092380Y-72159761D01*
X167092380Y-72350238D01*
X167140000Y-72445476D01*
X167187619Y-72493095D01*
X167282857Y-72540714D01*
X167330476Y-72540714D01*
X167425714Y-72493095D01*
X167473333Y-72445476D01*
X167520952Y-72350238D01*
X167520952Y-72159761D01*
X167568571Y-72064523D01*
X167616190Y-72016904D01*
X167711428Y-71969285D01*
X167901904Y-71969285D01*
X167997142Y-72016904D01*
X168044761Y-72064523D01*
X168092380Y-72159761D01*
X168092380Y-72350238D01*
X168044761Y-72445476D01*
X167997142Y-72493095D01*
X167901904Y-72540714D01*
X167711428Y-72540714D01*
X167616190Y-72493095D01*
X167568571Y-72445476D01*
X167520952Y-72350238D01*
X162012380Y-70628095D02*
X163012380Y-70961428D01*
X162012380Y-71294761D01*
X163012380Y-71628095D02*
X162012380Y-71628095D01*
X162012380Y-71866190D01*
X162060000Y-72009047D01*
X162155238Y-72104285D01*
X162250476Y-72151904D01*
X162440952Y-72199523D01*
X162583809Y-72199523D01*
X162774285Y-72151904D01*
X162869523Y-72104285D01*
X162964761Y-72009047D01*
X163012380Y-71866190D01*
X163012380Y-71628095D01*
X163012380Y-72628095D02*
X162012380Y-72628095D01*
X162012380Y-72866190D01*
X162060000Y-73009047D01*
X162155238Y-73104285D01*
X162250476Y-73151904D01*
X162440952Y-73199523D01*
X162583809Y-73199523D01*
X162774285Y-73151904D01*
X162869523Y-73104285D01*
X162964761Y-73009047D01*
X163012380Y-72866190D01*
X163012380Y-72628095D01*
X162726666Y-73580476D02*
X162726666Y-74056666D01*
X163012380Y-73485238D02*
X162012380Y-73818571D01*
X163012380Y-74151904D01*
X162726666Y-112950714D02*
X162726666Y-113426904D01*
X163012380Y-112855476D02*
X162012380Y-113188809D01*
X163012380Y-113522142D01*
X163012380Y-114379285D02*
X163012380Y-113807857D01*
X163012380Y-114093571D02*
X162012380Y-114093571D01*
X162155238Y-113998333D01*
X162250476Y-113903095D01*
X162298095Y-113807857D01*
X165028571Y-71350238D02*
X165076190Y-71493095D01*
X165123809Y-71540714D01*
X165219047Y-71588333D01*
X165361904Y-71588333D01*
X165457142Y-71540714D01*
X165504761Y-71493095D01*
X165552380Y-71397857D01*
X165552380Y-71016904D01*
X164552380Y-71016904D01*
X164552380Y-71350238D01*
X164600000Y-71445476D01*
X164647619Y-71493095D01*
X164742857Y-71540714D01*
X164838095Y-71540714D01*
X164933333Y-71493095D01*
X164980952Y-71445476D01*
X165028571Y-71350238D01*
X165028571Y-71016904D01*
X165552380Y-72064523D02*
X165552380Y-72255000D01*
X165504761Y-72350238D01*
X165457142Y-72397857D01*
X165314285Y-72493095D01*
X165123809Y-72540714D01*
X164742857Y-72540714D01*
X164647619Y-72493095D01*
X164600000Y-72445476D01*
X164552380Y-72350238D01*
X164552380Y-72159761D01*
X164600000Y-72064523D01*
X164647619Y-72016904D01*
X164742857Y-71969285D01*
X164980952Y-71969285D01*
X165076190Y-72016904D01*
X165123809Y-72064523D01*
X165171428Y-72159761D01*
X165171428Y-72350238D01*
X165123809Y-72445476D01*
X165076190Y-72493095D01*
X164980952Y-72540714D01*
X170346666Y-112950714D02*
X170346666Y-113426904D01*
X170632380Y-112855476D02*
X169632380Y-113188809D01*
X170632380Y-113522142D01*
X169965714Y-114284047D02*
X170632380Y-114284047D01*
X169584761Y-114045952D02*
X170299047Y-113807857D01*
X170299047Y-114426904D01*
X200588571Y-112784047D02*
X200636190Y-112926904D01*
X200683809Y-112974523D01*
X200779047Y-113022142D01*
X200921904Y-113022142D01*
X201017142Y-112974523D01*
X201064761Y-112926904D01*
X201112380Y-112831666D01*
X201112380Y-112450714D01*
X200112380Y-112450714D01*
X200112380Y-112784047D01*
X200160000Y-112879285D01*
X200207619Y-112926904D01*
X200302857Y-112974523D01*
X200398095Y-112974523D01*
X200493333Y-112926904D01*
X200540952Y-112879285D01*
X200588571Y-112784047D01*
X200588571Y-112450714D01*
X201112380Y-113974523D02*
X201112380Y-113403095D01*
X201112380Y-113688809D02*
X200112380Y-113688809D01*
X200255238Y-113593571D01*
X200350476Y-113498333D01*
X200398095Y-113403095D01*
X200112380Y-114307857D02*
X200112380Y-114926904D01*
X200493333Y-114593571D01*
X200493333Y-114736428D01*
X200540952Y-114831666D01*
X200588571Y-114879285D01*
X200683809Y-114926904D01*
X200921904Y-114926904D01*
X201017142Y-114879285D01*
X201064761Y-114831666D01*
X201112380Y-114736428D01*
X201112380Y-114450714D01*
X201064761Y-114355476D01*
X201017142Y-114307857D01*
X186650380Y-106870666D02*
X187650380Y-107204000D01*
X186650380Y-107537333D01*
X187650380Y-107870666D02*
X186650380Y-107870666D01*
X186650380Y-108108761D01*
X186698000Y-108251619D01*
X186793238Y-108346857D01*
X186888476Y-108394476D01*
X187078952Y-108442095D01*
X187221809Y-108442095D01*
X187412285Y-108394476D01*
X187507523Y-108346857D01*
X187602761Y-108251619D01*
X187650380Y-108108761D01*
X187650380Y-107870666D01*
X187650380Y-108870666D02*
X186650380Y-108870666D01*
X186650380Y-109108761D01*
X186698000Y-109251619D01*
X186793238Y-109346857D01*
X186888476Y-109394476D01*
X187078952Y-109442095D01*
X187221809Y-109442095D01*
X187412285Y-109394476D01*
X187507523Y-109346857D01*
X187602761Y-109251619D01*
X187650380Y-109108761D01*
X187650380Y-108870666D01*
X184920000Y-112903095D02*
X184872380Y-112807857D01*
X184872380Y-112665000D01*
X184920000Y-112522142D01*
X185015238Y-112426904D01*
X185110476Y-112379285D01*
X185300952Y-112331666D01*
X185443809Y-112331666D01*
X185634285Y-112379285D01*
X185729523Y-112426904D01*
X185824761Y-112522142D01*
X185872380Y-112665000D01*
X185872380Y-112760238D01*
X185824761Y-112903095D01*
X185777142Y-112950714D01*
X185443809Y-112950714D01*
X185443809Y-112760238D01*
X185872380Y-113379285D02*
X184872380Y-113379285D01*
X185872380Y-113950714D01*
X184872380Y-113950714D01*
X185872380Y-114426904D02*
X184872380Y-114426904D01*
X184872380Y-114665000D01*
X184920000Y-114807857D01*
X185015238Y-114903095D01*
X185110476Y-114950714D01*
X185300952Y-114998333D01*
X185443809Y-114998333D01*
X185634285Y-114950714D01*
X185729523Y-114903095D01*
X185824761Y-114807857D01*
X185872380Y-114665000D01*
X185872380Y-114426904D01*
X165266666Y-112950714D02*
X165266666Y-113426904D01*
X165552380Y-112855476D02*
X164552380Y-113188809D01*
X165552380Y-113522142D01*
X164647619Y-113807857D02*
X164600000Y-113855476D01*
X164552380Y-113950714D01*
X164552380Y-114188809D01*
X164600000Y-114284047D01*
X164647619Y-114331666D01*
X164742857Y-114379285D01*
X164838095Y-114379285D01*
X164980952Y-114331666D01*
X165552380Y-113760238D01*
X165552380Y-114379285D01*
X190666666Y-70564523D02*
X190666666Y-71040714D01*
X190952380Y-70469285D02*
X189952380Y-70802619D01*
X190952380Y-71135952D01*
X190952380Y-71993095D02*
X190952380Y-71421666D01*
X190952380Y-71707380D02*
X189952380Y-71707380D01*
X190095238Y-71612142D01*
X190190476Y-71516904D01*
X190238095Y-71421666D01*
X190047619Y-72374047D02*
X190000000Y-72421666D01*
X189952380Y-72516904D01*
X189952380Y-72755000D01*
X190000000Y-72850238D01*
X190047619Y-72897857D01*
X190142857Y-72945476D01*
X190238095Y-72945476D01*
X190380952Y-72897857D01*
X190952380Y-72326428D01*
X190952380Y-72945476D01*
X159472380Y-70135904D02*
X159472380Y-70754952D01*
X159853333Y-70421619D01*
X159853333Y-70564476D01*
X159900952Y-70659714D01*
X159948571Y-70707333D01*
X160043809Y-70754952D01*
X160281904Y-70754952D01*
X160377142Y-70707333D01*
X160424761Y-70659714D01*
X160472380Y-70564476D01*
X160472380Y-70278761D01*
X160424761Y-70183523D01*
X160377142Y-70135904D01*
X159472380Y-71040666D02*
X160472380Y-71374000D01*
X159472380Y-71707333D01*
X159472380Y-71945428D02*
X159472380Y-72564476D01*
X159853333Y-72231142D01*
X159853333Y-72374000D01*
X159900952Y-72469238D01*
X159948571Y-72516857D01*
X160043809Y-72564476D01*
X160281904Y-72564476D01*
X160377142Y-72516857D01*
X160424761Y-72469238D01*
X160472380Y-72374000D01*
X160472380Y-72088285D01*
X160424761Y-71993047D01*
X160377142Y-71945428D01*
X193206666Y-70564523D02*
X193206666Y-71040714D01*
X193492380Y-70469285D02*
X192492380Y-70802619D01*
X193492380Y-71135952D01*
X193492380Y-71993095D02*
X193492380Y-71421666D01*
X193492380Y-71707380D02*
X192492380Y-71707380D01*
X192635238Y-71612142D01*
X192730476Y-71516904D01*
X192778095Y-71421666D01*
X193492380Y-72945476D02*
X193492380Y-72374047D01*
X193492380Y-72659761D02*
X192492380Y-72659761D01*
X192635238Y-72564523D01*
X192730476Y-72469285D01*
X192778095Y-72374047D01*
X182332380Y-112331666D02*
X183332380Y-112665000D01*
X182332380Y-112998333D01*
X183332380Y-113331666D02*
X182332380Y-113331666D01*
X182332380Y-113569761D01*
X182380000Y-113712619D01*
X182475238Y-113807857D01*
X182570476Y-113855476D01*
X182760952Y-113903095D01*
X182903809Y-113903095D01*
X183094285Y-113855476D01*
X183189523Y-113807857D01*
X183284761Y-113712619D01*
X183332380Y-113569761D01*
X183332380Y-113331666D01*
X183332380Y-114331666D02*
X182332380Y-114331666D01*
X182332380Y-114569761D01*
X182380000Y-114712619D01*
X182475238Y-114807857D01*
X182570476Y-114855476D01*
X182760952Y-114903095D01*
X182903809Y-114903095D01*
X183094285Y-114855476D01*
X183189523Y-114807857D01*
X183284761Y-114712619D01*
X183332380Y-114569761D01*
X183332380Y-114331666D01*
X198286666Y-71040714D02*
X198286666Y-71516904D01*
X198572380Y-70945476D02*
X197572380Y-71278809D01*
X198572380Y-71612142D01*
X198572380Y-71993095D02*
X198572380Y-72183571D01*
X198524761Y-72278809D01*
X198477142Y-72326428D01*
X198334285Y-72421666D01*
X198143809Y-72469285D01*
X197762857Y-72469285D01*
X197667619Y-72421666D01*
X197620000Y-72374047D01*
X197572380Y-72278809D01*
X197572380Y-72088333D01*
X197620000Y-71993095D01*
X197667619Y-71945476D01*
X197762857Y-71897857D01*
X198000952Y-71897857D01*
X198096190Y-71945476D01*
X198143809Y-71993095D01*
X198191428Y-72088333D01*
X198191428Y-72278809D01*
X198143809Y-72374047D01*
X198096190Y-72421666D01*
X198000952Y-72469285D01*
D11*
X202378571Y-105247428D02*
X202378571Y-106104571D01*
X203878571Y-105676000D02*
X202378571Y-105676000D01*
X203735714Y-107461714D02*
X203807142Y-107390285D01*
X203878571Y-107176000D01*
X203878571Y-107033142D01*
X203807142Y-106818857D01*
X203664285Y-106676000D01*
X203521428Y-106604571D01*
X203235714Y-106533142D01*
X203021428Y-106533142D01*
X202735714Y-106604571D01*
X202592857Y-106676000D01*
X202450000Y-106818857D01*
X202378571Y-107033142D01*
X202378571Y-107176000D01*
X202450000Y-107390285D01*
X202521428Y-107461714D01*
D10*
X172886666Y-112950714D02*
X172886666Y-113426904D01*
X173172380Y-112855476D02*
X172172380Y-113188809D01*
X173172380Y-113522142D01*
X172172380Y-114331666D02*
X172172380Y-113855476D01*
X172648571Y-113807857D01*
X172600952Y-113855476D01*
X172553333Y-113950714D01*
X172553333Y-114188809D01*
X172600952Y-114284047D01*
X172648571Y-114331666D01*
X172743809Y-114379285D01*
X172981904Y-114379285D01*
X173077142Y-114331666D01*
X173124761Y-114284047D01*
X173172380Y-114188809D01*
X173172380Y-113950714D01*
X173124761Y-113855476D01*
X173077142Y-113807857D01*
X177728571Y-71350238D02*
X177776190Y-71493095D01*
X177823809Y-71540714D01*
X177919047Y-71588333D01*
X178061904Y-71588333D01*
X178157142Y-71540714D01*
X178204761Y-71493095D01*
X178252380Y-71397857D01*
X178252380Y-71016904D01*
X177252380Y-71016904D01*
X177252380Y-71350238D01*
X177300000Y-71445476D01*
X177347619Y-71493095D01*
X177442857Y-71540714D01*
X177538095Y-71540714D01*
X177633333Y-71493095D01*
X177680952Y-71445476D01*
X177728571Y-71350238D01*
X177728571Y-71016904D01*
X177585714Y-72445476D02*
X178252380Y-72445476D01*
X177204761Y-72207380D02*
X177919047Y-71969285D01*
X177919047Y-72588333D01*
X187888571Y-113260238D02*
X187936190Y-113403095D01*
X187983809Y-113450714D01*
X188079047Y-113498333D01*
X188221904Y-113498333D01*
X188317142Y-113450714D01*
X188364761Y-113403095D01*
X188412380Y-113307857D01*
X188412380Y-112926904D01*
X187412380Y-112926904D01*
X187412380Y-113260238D01*
X187460000Y-113355476D01*
X187507619Y-113403095D01*
X187602857Y-113450714D01*
X187698095Y-113450714D01*
X187793333Y-113403095D01*
X187840952Y-113355476D01*
X187888571Y-113260238D01*
X187888571Y-112926904D01*
X188412380Y-114450714D02*
X188412380Y-113879285D01*
X188412380Y-114165000D02*
X187412380Y-114165000D01*
X187555238Y-114069761D01*
X187650476Y-113974523D01*
X187698095Y-113879285D01*
X170108571Y-71350238D02*
X170156190Y-71493095D01*
X170203809Y-71540714D01*
X170299047Y-71588333D01*
X170441904Y-71588333D01*
X170537142Y-71540714D01*
X170584761Y-71493095D01*
X170632380Y-71397857D01*
X170632380Y-71016904D01*
X169632380Y-71016904D01*
X169632380Y-71350238D01*
X169680000Y-71445476D01*
X169727619Y-71493095D01*
X169822857Y-71540714D01*
X169918095Y-71540714D01*
X170013333Y-71493095D01*
X170060952Y-71445476D01*
X170108571Y-71350238D01*
X170108571Y-71016904D01*
X169632380Y-71921666D02*
X169632380Y-72588333D01*
X170632380Y-72159761D01*
X184158000Y-107442095D02*
X184110380Y-107346857D01*
X184110380Y-107204000D01*
X184158000Y-107061142D01*
X184253238Y-106965904D01*
X184348476Y-106918285D01*
X184538952Y-106870666D01*
X184681809Y-106870666D01*
X184872285Y-106918285D01*
X184967523Y-106965904D01*
X185062761Y-107061142D01*
X185110380Y-107204000D01*
X185110380Y-107299238D01*
X185062761Y-107442095D01*
X185015142Y-107489714D01*
X184681809Y-107489714D01*
X184681809Y-107299238D01*
X185110380Y-107918285D02*
X184110380Y-107918285D01*
X185110380Y-108489714D01*
X184110380Y-108489714D01*
X185110380Y-108965904D02*
X184110380Y-108965904D01*
X184110380Y-109204000D01*
X184158000Y-109346857D01*
X184253238Y-109442095D01*
X184348476Y-109489714D01*
X184538952Y-109537333D01*
X184681809Y-109537333D01*
X184872285Y-109489714D01*
X184967523Y-109442095D01*
X185062761Y-109346857D01*
X185110380Y-109204000D01*
X185110380Y-108965904D01*
D11*
X203878571Y-92920571D02*
X203164285Y-92420571D01*
X203878571Y-92063428D02*
X202378571Y-92063428D01*
X202378571Y-92634857D01*
X202450000Y-92777714D01*
X202521428Y-92849142D01*
X202664285Y-92920571D01*
X202878571Y-92920571D01*
X203021428Y-92849142D01*
X203092857Y-92777714D01*
X203164285Y-92634857D01*
X203164285Y-92063428D01*
X203807142Y-94134857D02*
X203878571Y-93992000D01*
X203878571Y-93706285D01*
X203807142Y-93563428D01*
X203664285Y-93492000D01*
X203092857Y-93492000D01*
X202950000Y-93563428D01*
X202878571Y-93706285D01*
X202878571Y-93992000D01*
X202950000Y-94134857D01*
X203092857Y-94206285D01*
X203235714Y-94206285D01*
X203378571Y-93492000D01*
X203878571Y-95063428D02*
X203807142Y-94920571D01*
X203664285Y-94849142D01*
X202378571Y-94849142D01*
X203878571Y-96277714D02*
X203092857Y-96277714D01*
X202950000Y-96206285D01*
X202878571Y-96063428D01*
X202878571Y-95777714D01*
X202950000Y-95634857D01*
X203807142Y-96277714D02*
X203878571Y-96134857D01*
X203878571Y-95777714D01*
X203807142Y-95634857D01*
X203664285Y-95563428D01*
X203521428Y-95563428D01*
X203378571Y-95634857D01*
X203307142Y-95777714D01*
X203307142Y-96134857D01*
X203235714Y-96277714D01*
X202878571Y-96849142D02*
X203878571Y-97206285D01*
X202878571Y-97563428D02*
X203878571Y-97206285D01*
X204235714Y-97063428D01*
X204307142Y-96992000D01*
X204378571Y-96849142D01*
D10*
X182522761Y-106283333D02*
X182570380Y-106426190D01*
X182570380Y-106664285D01*
X182522761Y-106759523D01*
X182475142Y-106807142D01*
X182379904Y-106854761D01*
X182284666Y-106854761D01*
X182189428Y-106807142D01*
X182141809Y-106759523D01*
X182094190Y-106664285D01*
X182046571Y-106473809D01*
X181998952Y-106378571D01*
X181951333Y-106330952D01*
X181856095Y-106283333D01*
X181760857Y-106283333D01*
X181665619Y-106330952D01*
X181618000Y-106378571D01*
X181570380Y-106473809D01*
X181570380Y-106711904D01*
X181618000Y-106854761D01*
X182475142Y-107854761D02*
X182522761Y-107807142D01*
X182570380Y-107664285D01*
X182570380Y-107569047D01*
X182522761Y-107426190D01*
X182427523Y-107330952D01*
X182332285Y-107283333D01*
X182141809Y-107235714D01*
X181998952Y-107235714D01*
X181808476Y-107283333D01*
X181713238Y-107330952D01*
X181618000Y-107426190D01*
X181570380Y-107569047D01*
X181570380Y-107664285D01*
X181618000Y-107807142D01*
X181665619Y-107854761D01*
X182570380Y-108759523D02*
X182570380Y-108283333D01*
X181570380Y-108283333D01*
X181665619Y-109045238D02*
X181618000Y-109092857D01*
X181570380Y-109188095D01*
X181570380Y-109426190D01*
X181618000Y-109521428D01*
X181665619Y-109569047D01*
X181760857Y-109616666D01*
X181856095Y-109616666D01*
X181998952Y-109569047D01*
X182570380Y-108997619D01*
X182570380Y-109616666D01*
X199826571Y-86971238D02*
X199874190Y-87114095D01*
X199921809Y-87161714D01*
X200017047Y-87209333D01*
X200159904Y-87209333D01*
X200255142Y-87161714D01*
X200302761Y-87114095D01*
X200350380Y-87018857D01*
X200350380Y-86637904D01*
X199350380Y-86637904D01*
X199350380Y-86971238D01*
X199398000Y-87066476D01*
X199445619Y-87114095D01*
X199540857Y-87161714D01*
X199636095Y-87161714D01*
X199731333Y-87114095D01*
X199778952Y-87066476D01*
X199826571Y-86971238D01*
X199826571Y-86637904D01*
X199445619Y-87590285D02*
X199398000Y-87637904D01*
X199350380Y-87733142D01*
X199350380Y-87971238D01*
X199398000Y-88066476D01*
X199445619Y-88114095D01*
X199540857Y-88161714D01*
X199636095Y-88161714D01*
X199778952Y-88114095D01*
X200350380Y-87542666D01*
X200350380Y-88161714D01*
X175188571Y-71350238D02*
X175236190Y-71493095D01*
X175283809Y-71540714D01*
X175379047Y-71588333D01*
X175521904Y-71588333D01*
X175617142Y-71540714D01*
X175664761Y-71493095D01*
X175712380Y-71397857D01*
X175712380Y-71016904D01*
X174712380Y-71016904D01*
X174712380Y-71350238D01*
X174760000Y-71445476D01*
X174807619Y-71493095D01*
X174902857Y-71540714D01*
X174998095Y-71540714D01*
X175093333Y-71493095D01*
X175140952Y-71445476D01*
X175188571Y-71350238D01*
X175188571Y-71016904D01*
X174712380Y-72493095D02*
X174712380Y-72016904D01*
X175188571Y-71969285D01*
X175140952Y-72016904D01*
X175093333Y-72112142D01*
X175093333Y-72350238D01*
X175140952Y-72445476D01*
X175188571Y-72493095D01*
X175283809Y-72540714D01*
X175521904Y-72540714D01*
X175617142Y-72493095D01*
X175664761Y-72445476D01*
X175712380Y-72350238D01*
X175712380Y-72112142D01*
X175664761Y-72016904D01*
X175617142Y-71969285D01*
X195746666Y-70564523D02*
X195746666Y-71040714D01*
X196032380Y-70469285D02*
X195032380Y-70802619D01*
X196032380Y-71135952D01*
X196032380Y-71993095D02*
X196032380Y-71421666D01*
X196032380Y-71707380D02*
X195032380Y-71707380D01*
X195175238Y-71612142D01*
X195270476Y-71516904D01*
X195318095Y-71421666D01*
X195032380Y-72612142D02*
X195032380Y-72707380D01*
X195080000Y-72802619D01*
X195127619Y-72850238D01*
X195222857Y-72897857D01*
X195413333Y-72945476D01*
X195651428Y-72945476D01*
X195841904Y-72897857D01*
X195937142Y-72850238D01*
X195984761Y-72802619D01*
X196032380Y-72707380D01*
X196032380Y-72612142D01*
X195984761Y-72516904D01*
X195937142Y-72469285D01*
X195841904Y-72421666D01*
X195651428Y-72374047D01*
X195413333Y-72374047D01*
X195222857Y-72421666D01*
X195127619Y-72469285D01*
X195080000Y-72516904D01*
X195032380Y-72612142D01*
X156932380Y-70731190D02*
X157932380Y-71064523D01*
X156932380Y-71397857D01*
X157932380Y-71731190D02*
X157265714Y-71731190D01*
X156932380Y-71731190D02*
X156980000Y-71683571D01*
X157027619Y-71731190D01*
X156980000Y-71778809D01*
X156932380Y-71731190D01*
X157027619Y-71731190D01*
X157265714Y-72207380D02*
X157932380Y-72207380D01*
X157360952Y-72207380D02*
X157313333Y-72255000D01*
X157265714Y-72350238D01*
X157265714Y-72493095D01*
X157313333Y-72588333D01*
X157408571Y-72635952D01*
X157932380Y-72635952D01*
X183794800Y-103380980D02*
X183794800Y-102380980D01*
X183794800Y-102857171D02*
X183223371Y-102857171D01*
X183223371Y-103380980D02*
X183223371Y-102380980D01*
X182604323Y-103380980D02*
X182699561Y-103333361D01*
X182747180Y-103285742D01*
X182794800Y-103190504D01*
X182794800Y-102904790D01*
X182747180Y-102809552D01*
X182699561Y-102761933D01*
X182604323Y-102714314D01*
X182461466Y-102714314D01*
X182366228Y-102761933D01*
X182318609Y-102809552D01*
X182270990Y-102904790D01*
X182270990Y-103190504D01*
X182318609Y-103285742D01*
X182366228Y-103333361D01*
X182461466Y-103380980D01*
X182604323Y-103380980D01*
X181985276Y-102714314D02*
X181604323Y-102714314D01*
X181842419Y-102380980D02*
X181842419Y-103238123D01*
X181794800Y-103333361D01*
X181699561Y-103380980D01*
X181604323Y-103380980D01*
X181270990Y-103000028D02*
X180509085Y-103000028D01*
X180032895Y-102714314D02*
X180032895Y-103714314D01*
X180032895Y-102761933D02*
X179937657Y-102714314D01*
X179747180Y-102714314D01*
X179651942Y-102761933D01*
X179604323Y-102809552D01*
X179556704Y-102904790D01*
X179556704Y-103190504D01*
X179604323Y-103285742D01*
X179651942Y-103333361D01*
X179747180Y-103380980D01*
X179937657Y-103380980D01*
X180032895Y-103333361D01*
X178985276Y-103380980D02*
X179080514Y-103333361D01*
X179128133Y-103238123D01*
X179128133Y-102380980D01*
X178175752Y-103380980D02*
X178175752Y-102857171D01*
X178223371Y-102761933D01*
X178318609Y-102714314D01*
X178509085Y-102714314D01*
X178604323Y-102761933D01*
X178175752Y-103333361D02*
X178270990Y-103380980D01*
X178509085Y-103380980D01*
X178604323Y-103333361D01*
X178651942Y-103238123D01*
X178651942Y-103142885D01*
X178604323Y-103047647D01*
X178509085Y-103000028D01*
X178270990Y-103000028D01*
X178175752Y-102952409D01*
X177842419Y-102714314D02*
X177461466Y-102714314D01*
X177699561Y-102380980D02*
X177699561Y-103238123D01*
X177651942Y-103333361D01*
X177556704Y-103380980D01*
X177461466Y-103380980D01*
X176747180Y-103333361D02*
X176842419Y-103380980D01*
X177032895Y-103380980D01*
X177128133Y-103333361D01*
X177175752Y-103238123D01*
X177175752Y-102857171D01*
X177128133Y-102761933D01*
X177032895Y-102714314D01*
X176842419Y-102714314D01*
X176747180Y-102761933D01*
X176699561Y-102857171D01*
X176699561Y-102952409D01*
X177175752Y-103047647D01*
X175080514Y-103333361D02*
X175175752Y-103380980D01*
X175366228Y-103380980D01*
X175461466Y-103333361D01*
X175509085Y-103285742D01*
X175556704Y-103190504D01*
X175556704Y-102904790D01*
X175509085Y-102809552D01*
X175461466Y-102761933D01*
X175366228Y-102714314D01*
X175175752Y-102714314D01*
X175080514Y-102761933D01*
X174509085Y-103380980D02*
X174604323Y-103333361D01*
X174651942Y-103285742D01*
X174699561Y-103190504D01*
X174699561Y-102904790D01*
X174651942Y-102809552D01*
X174604323Y-102761933D01*
X174509085Y-102714314D01*
X174366228Y-102714314D01*
X174270990Y-102761933D01*
X174223371Y-102809552D01*
X174175752Y-102904790D01*
X174175752Y-103190504D01*
X174223371Y-103285742D01*
X174270990Y-103333361D01*
X174366228Y-103380980D01*
X174509085Y-103380980D01*
X173747180Y-102714314D02*
X173747180Y-103380980D01*
X173747180Y-102809552D02*
X173699561Y-102761933D01*
X173604323Y-102714314D01*
X173461466Y-102714314D01*
X173366228Y-102761933D01*
X173318609Y-102857171D01*
X173318609Y-103380980D01*
X172985276Y-102714314D02*
X172604323Y-102714314D01*
X172842419Y-102380980D02*
X172842419Y-103238123D01*
X172794800Y-103333361D01*
X172699561Y-103380980D01*
X172604323Y-103380980D01*
X172270990Y-103380980D02*
X172270990Y-102714314D01*
X172270990Y-102904790D02*
X172223371Y-102809552D01*
X172175752Y-102761933D01*
X172080514Y-102714314D01*
X171985276Y-102714314D01*
X171509085Y-103380980D02*
X171604323Y-103333361D01*
X171651942Y-103285742D01*
X171699561Y-103190504D01*
X171699561Y-102904790D01*
X171651942Y-102809552D01*
X171604323Y-102761933D01*
X171509085Y-102714314D01*
X171366228Y-102714314D01*
X171270990Y-102761933D01*
X171223371Y-102809552D01*
X171175752Y-102904790D01*
X171175752Y-103190504D01*
X171223371Y-103285742D01*
X171270990Y-103333361D01*
X171366228Y-103380980D01*
X171509085Y-103380980D01*
X170604323Y-103380980D02*
X170699561Y-103333361D01*
X170747180Y-103238123D01*
X170747180Y-102380980D01*
X170080514Y-103380980D02*
X170175752Y-103333361D01*
X170223371Y-103238123D01*
X170223371Y-102380980D01*
X169318609Y-103333361D02*
X169413847Y-103380980D01*
X169604323Y-103380980D01*
X169699561Y-103333361D01*
X169747180Y-103238123D01*
X169747180Y-102857171D01*
X169699561Y-102761933D01*
X169604323Y-102714314D01*
X169413847Y-102714314D01*
X169318609Y-102761933D01*
X169270990Y-102857171D01*
X169270990Y-102952409D01*
X169747180Y-103047647D01*
X168842419Y-103380980D02*
X168842419Y-102714314D01*
X168842419Y-102904790D02*
X168794800Y-102809552D01*
X168747180Y-102761933D01*
X168651942Y-102714314D01*
X168556704Y-102714314D01*
X167556704Y-102714314D02*
X167318609Y-103380980D01*
X167080514Y-102714314D01*
X166175752Y-103380980D02*
X166747180Y-103380980D01*
X166461466Y-103380980D02*
X166461466Y-102380980D01*
X166556704Y-102523838D01*
X166651942Y-102619076D01*
X166747180Y-102666695D01*
X165747180Y-103285742D02*
X165699561Y-103333361D01*
X165747180Y-103380980D01*
X165794800Y-103333361D01*
X165747180Y-103285742D01*
X165747180Y-103380980D01*
X165080514Y-102380980D02*
X164985276Y-102380980D01*
X164890038Y-102428600D01*
X164842419Y-102476219D01*
X164794800Y-102571457D01*
X164747180Y-102761933D01*
X164747180Y-103000028D01*
X164794800Y-103190504D01*
X164842419Y-103285742D01*
X164890038Y-103333361D01*
X164985276Y-103380980D01*
X165080514Y-103380980D01*
X165175752Y-103333361D01*
X165223371Y-103285742D01*
X165270990Y-103190504D01*
X165318609Y-103000028D01*
X165318609Y-102761933D01*
X165270990Y-102571457D01*
X165223371Y-102476219D01*
X165175752Y-102428600D01*
X165080514Y-102380980D01*
X182794800Y-104467171D02*
X182461466Y-104467171D01*
X182318609Y-104990980D02*
X182794800Y-104990980D01*
X182794800Y-103990980D01*
X182318609Y-103990980D01*
X181461466Y-104324314D02*
X181461466Y-105133838D01*
X181509085Y-105229076D01*
X181556704Y-105276695D01*
X181651942Y-105324314D01*
X181794800Y-105324314D01*
X181890038Y-105276695D01*
X181461466Y-104943361D02*
X181556704Y-104990980D01*
X181747180Y-104990980D01*
X181842419Y-104943361D01*
X181890038Y-104895742D01*
X181937657Y-104800504D01*
X181937657Y-104514790D01*
X181890038Y-104419552D01*
X181842419Y-104371933D01*
X181747180Y-104324314D01*
X181556704Y-104324314D01*
X181461466Y-104371933D01*
X180985276Y-104990980D02*
X180985276Y-104324314D01*
X180985276Y-103990980D02*
X181032895Y-104038600D01*
X180985276Y-104086219D01*
X180937657Y-104038600D01*
X180985276Y-103990980D01*
X180985276Y-104086219D01*
X180366228Y-104990980D02*
X180461466Y-104943361D01*
X180509085Y-104848123D01*
X180509085Y-103990980D01*
X179842419Y-104990980D02*
X179937657Y-104943361D01*
X179985276Y-104848123D01*
X179985276Y-103990980D01*
X178699561Y-104990980D02*
X178699561Y-103990980D01*
X178366228Y-104705266D01*
X178032895Y-103990980D01*
X178032895Y-104990980D01*
X177556704Y-104990980D02*
X177556704Y-104324314D01*
X177556704Y-103990980D02*
X177604323Y-104038600D01*
X177556704Y-104086219D01*
X177509085Y-104038600D01*
X177556704Y-103990980D01*
X177556704Y-104086219D01*
X176937657Y-104990980D02*
X177032895Y-104943361D01*
X177080514Y-104848123D01*
X177080514Y-103990980D01*
X176128133Y-104990980D02*
X176128133Y-104467171D01*
X176175752Y-104371933D01*
X176270990Y-104324314D01*
X176461466Y-104324314D01*
X176556704Y-104371933D01*
X176128133Y-104943361D02*
X176223371Y-104990980D01*
X176461466Y-104990980D01*
X176556704Y-104943361D01*
X176604323Y-104848123D01*
X176604323Y-104752885D01*
X176556704Y-104657647D01*
X176461466Y-104610028D01*
X176223371Y-104610028D01*
X176128133Y-104562409D01*
X175651942Y-104324314D02*
X175651942Y-104990980D01*
X175651942Y-104419552D02*
X175604323Y-104371933D01*
X175509085Y-104324314D01*
X175366228Y-104324314D01*
X175270990Y-104371933D01*
X175223371Y-104467171D01*
X175223371Y-104990980D01*
X173461466Y-104038600D02*
X173556704Y-103990980D01*
X173699561Y-103990980D01*
X173842419Y-104038600D01*
X173937657Y-104133838D01*
X173985276Y-104229076D01*
X174032895Y-104419552D01*
X174032895Y-104562409D01*
X173985276Y-104752885D01*
X173937657Y-104848123D01*
X173842419Y-104943361D01*
X173699561Y-104990980D01*
X173604323Y-104990980D01*
X173461466Y-104943361D01*
X173413847Y-104895742D01*
X173413847Y-104562409D01*
X173604323Y-104562409D01*
X172556704Y-104324314D02*
X172556704Y-104990980D01*
X172985276Y-104324314D02*
X172985276Y-104848123D01*
X172937657Y-104943361D01*
X172842419Y-104990980D01*
X172699561Y-104990980D01*
X172604323Y-104943361D01*
X172556704Y-104895742D01*
X172080514Y-104324314D02*
X172080514Y-104990980D01*
X172080514Y-104419552D02*
X172032895Y-104371933D01*
X171937657Y-104324314D01*
X171794800Y-104324314D01*
X171699561Y-104371933D01*
X171651942Y-104467171D01*
X171651942Y-104990980D01*
X171175752Y-104324314D02*
X171175752Y-104990980D01*
X171175752Y-104419552D02*
X171128133Y-104371933D01*
X171032895Y-104324314D01*
X170890038Y-104324314D01*
X170794800Y-104371933D01*
X170747180Y-104467171D01*
X170747180Y-104990980D01*
X169842419Y-104990980D02*
X169842419Y-104467171D01*
X169890038Y-104371933D01*
X169985276Y-104324314D01*
X170175752Y-104324314D01*
X170270990Y-104371933D01*
X169842419Y-104943361D02*
X169937657Y-104990980D01*
X170175752Y-104990980D01*
X170270990Y-104943361D01*
X170318609Y-104848123D01*
X170318609Y-104752885D01*
X170270990Y-104657647D01*
X170175752Y-104610028D01*
X169937657Y-104610028D01*
X169842419Y-104562409D01*
X169366228Y-104990980D02*
X169366228Y-104324314D01*
X169366228Y-104514790D02*
X169318609Y-104419552D01*
X169270990Y-104371933D01*
X169175752Y-104324314D01*
X169080514Y-104324314D01*
X168794800Y-104943361D02*
X168699561Y-104990980D01*
X168509085Y-104990980D01*
X168413847Y-104943361D01*
X168366228Y-104848123D01*
X168366228Y-104800504D01*
X168413847Y-104705266D01*
X168509085Y-104657647D01*
X168651942Y-104657647D01*
X168747180Y-104610028D01*
X168794800Y-104514790D01*
X168794800Y-104467171D01*
X168747180Y-104371933D01*
X168651942Y-104324314D01*
X168509085Y-104324314D01*
X168413847Y-104371933D01*
X167985276Y-104943361D02*
X167890038Y-104990980D01*
X167699561Y-104990980D01*
X167604323Y-104943361D01*
X167556704Y-104848123D01*
X167556704Y-104800504D01*
X167604323Y-104705266D01*
X167699561Y-104657647D01*
X167842419Y-104657647D01*
X167937657Y-104610028D01*
X167985276Y-104514790D01*
X167985276Y-104467171D01*
X167937657Y-104371933D01*
X167842419Y-104324314D01*
X167699561Y-104324314D01*
X167604323Y-104371933D01*
X166985276Y-104990980D02*
X167080514Y-104943361D01*
X167128133Y-104895742D01*
X167175752Y-104800504D01*
X167175752Y-104514790D01*
X167128133Y-104419552D01*
X167080514Y-104371933D01*
X166985276Y-104324314D01*
X166842419Y-104324314D01*
X166747180Y-104371933D01*
X166699561Y-104419552D01*
X166651942Y-104514790D01*
X166651942Y-104800504D01*
X166699561Y-104895742D01*
X166747180Y-104943361D01*
X166842419Y-104990980D01*
X166985276Y-104990980D01*
X166223371Y-104324314D02*
X166223371Y-104990980D01*
X166223371Y-104419552D02*
X166175752Y-104371933D01*
X166080514Y-104324314D01*
X165937657Y-104324314D01*
X165842419Y-104371933D01*
X165794800Y-104467171D01*
X165794800Y-104990980D01*
M02*
