G04 #@! TF.GenerationSoftware,KiCad,Pcbnew,(6.0.0)*
G04 #@! TF.CreationDate,2022-05-20T23:18:51+02:00*
G04 #@! TF.ProjectId,STM32F103_uC_v1,53544d33-3246-4313-9033-5f75435f7631,rev?*
G04 #@! TF.SameCoordinates,Original*
G04 #@! TF.FileFunction,Legend,Top*
G04 #@! TF.FilePolarity,Positive*
%FSLAX46Y46*%
G04 Gerber Fmt 4.6, Leading zero omitted, Abs format (unit mm)*
G04 Created by KiCad (PCBNEW (6.0.0)) date 2022-05-20 23:18:51*
%MOMM*%
%LPD*%
G01*
G04 APERTURE LIST*
%ADD10C,0.150000*%
%ADD11C,0.400000*%
%ADD12C,0.120000*%
G04 APERTURE END LIST*
D10*
X158023809Y-90827380D02*
X158023809Y-89827380D01*
X159071428Y-90732142D02*
X159023809Y-90779761D01*
X158880952Y-90827380D01*
X158785714Y-90827380D01*
X158642857Y-90779761D01*
X158547619Y-90684523D01*
X158500000Y-90589285D01*
X158452380Y-90398809D01*
X158452380Y-90255952D01*
X158500000Y-90065476D01*
X158547619Y-89970238D01*
X158642857Y-89875000D01*
X158785714Y-89827380D01*
X158880952Y-89827380D01*
X159023809Y-89875000D01*
X159071428Y-89922619D01*
X159452380Y-90779761D02*
X159595238Y-90827380D01*
X159833333Y-90827380D01*
X159928571Y-90779761D01*
X159976190Y-90732142D01*
X160023809Y-90636904D01*
X160023809Y-90541666D01*
X159976190Y-90446428D01*
X159928571Y-90398809D01*
X159833333Y-90351190D01*
X159642857Y-90303571D01*
X159547619Y-90255952D01*
X159500000Y-90208333D01*
X159452380Y-90113095D01*
X159452380Y-90017857D01*
X159500000Y-89922619D01*
X159547619Y-89875000D01*
X159642857Y-89827380D01*
X159880952Y-89827380D01*
X160023809Y-89875000D01*
X160452380Y-90827380D02*
X160452380Y-89827380D01*
X160833333Y-89827380D01*
X160928571Y-89875000D01*
X160976190Y-89922619D01*
X161023809Y-90017857D01*
X161023809Y-90160714D01*
X160976190Y-90255952D01*
X160928571Y-90303571D01*
X160833333Y-90351190D01*
X160452380Y-90351190D01*
X198286666Y-71834285D02*
X198286666Y-71358095D01*
X198572380Y-71929523D02*
X197572380Y-71596190D01*
X198572380Y-71262857D01*
X198572380Y-70881904D02*
X198572380Y-70691428D01*
X198524761Y-70596190D01*
X198477142Y-70548571D01*
X198334285Y-70453333D01*
X198143809Y-70405714D01*
X197762857Y-70405714D01*
X197667619Y-70453333D01*
X197620000Y-70500952D01*
X197572380Y-70596190D01*
X197572380Y-70786666D01*
X197620000Y-70881904D01*
X197667619Y-70929523D01*
X197762857Y-70977142D01*
X198000952Y-70977142D01*
X198096190Y-70929523D01*
X198143809Y-70881904D01*
X198191428Y-70786666D01*
X198191428Y-70596190D01*
X198143809Y-70500952D01*
X198096190Y-70453333D01*
X198000952Y-70405714D01*
X156980000Y-115061904D02*
X156932380Y-115157142D01*
X156932380Y-115300000D01*
X156980000Y-115442857D01*
X157075238Y-115538095D01*
X157170476Y-115585714D01*
X157360952Y-115633333D01*
X157503809Y-115633333D01*
X157694285Y-115585714D01*
X157789523Y-115538095D01*
X157884761Y-115442857D01*
X157932380Y-115300000D01*
X157932380Y-115204761D01*
X157884761Y-115061904D01*
X157837142Y-115014285D01*
X157503809Y-115014285D01*
X157503809Y-115204761D01*
X157932380Y-114585714D02*
X156932380Y-114585714D01*
X157932380Y-114014285D01*
X156932380Y-114014285D01*
X157932380Y-113538095D02*
X156932380Y-113538095D01*
X156932380Y-113300000D01*
X156980000Y-113157142D01*
X157075238Y-113061904D01*
X157170476Y-113014285D01*
X157360952Y-112966666D01*
X157503809Y-112966666D01*
X157694285Y-113014285D01*
X157789523Y-113061904D01*
X157884761Y-113157142D01*
X157932380Y-113300000D01*
X157932380Y-113538095D01*
X195746666Y-72310476D02*
X195746666Y-71834285D01*
X196032380Y-72405714D02*
X195032380Y-72072380D01*
X196032380Y-71739047D01*
X196032380Y-70881904D02*
X196032380Y-71453333D01*
X196032380Y-71167619D02*
X195032380Y-71167619D01*
X195175238Y-71262857D01*
X195270476Y-71358095D01*
X195318095Y-71453333D01*
X195032380Y-70262857D02*
X195032380Y-70167619D01*
X195080000Y-70072380D01*
X195127619Y-70024761D01*
X195222857Y-69977142D01*
X195413333Y-69929523D01*
X195651428Y-69929523D01*
X195841904Y-69977142D01*
X195937142Y-70024761D01*
X195984761Y-70072380D01*
X196032380Y-70167619D01*
X196032380Y-70262857D01*
X195984761Y-70358095D01*
X195937142Y-70405714D01*
X195841904Y-70453333D01*
X195651428Y-70500952D01*
X195413333Y-70500952D01*
X195222857Y-70453333D01*
X195127619Y-70405714D01*
X195080000Y-70358095D01*
X195032380Y-70262857D01*
X159472380Y-72358095D02*
X159472380Y-71739047D01*
X159853333Y-72072380D01*
X159853333Y-71929523D01*
X159900952Y-71834285D01*
X159948571Y-71786666D01*
X160043809Y-71739047D01*
X160281904Y-71739047D01*
X160377142Y-71786666D01*
X160424761Y-71834285D01*
X160472380Y-71929523D01*
X160472380Y-72215238D01*
X160424761Y-72310476D01*
X160377142Y-72358095D01*
X159472380Y-71453333D02*
X160472380Y-71120000D01*
X159472380Y-70786666D01*
X159472380Y-70548571D02*
X159472380Y-69929523D01*
X159853333Y-70262857D01*
X159853333Y-70120000D01*
X159900952Y-70024761D01*
X159948571Y-69977142D01*
X160043809Y-69929523D01*
X160281904Y-69929523D01*
X160377142Y-69977142D01*
X160424761Y-70024761D01*
X160472380Y-70120000D01*
X160472380Y-70405714D01*
X160424761Y-70500952D01*
X160377142Y-70548571D01*
X162012380Y-73516904D02*
X163012380Y-73183571D01*
X162012380Y-72850238D01*
X163012380Y-72516904D02*
X162012380Y-72516904D01*
X162012380Y-72278809D01*
X162060000Y-72135952D01*
X162155238Y-72040714D01*
X162250476Y-71993095D01*
X162440952Y-71945476D01*
X162583809Y-71945476D01*
X162774285Y-71993095D01*
X162869523Y-72040714D01*
X162964761Y-72135952D01*
X163012380Y-72278809D01*
X163012380Y-72516904D01*
X163012380Y-71516904D02*
X162012380Y-71516904D01*
X162012380Y-71278809D01*
X162060000Y-71135952D01*
X162155238Y-71040714D01*
X162250476Y-70993095D01*
X162440952Y-70945476D01*
X162583809Y-70945476D01*
X162774285Y-70993095D01*
X162869523Y-71040714D01*
X162964761Y-71135952D01*
X163012380Y-71278809D01*
X163012380Y-71516904D01*
X162726666Y-70564523D02*
X162726666Y-70088333D01*
X163012380Y-70659761D02*
X162012380Y-70326428D01*
X163012380Y-69993095D01*
X165266666Y-115014285D02*
X165266666Y-114538095D01*
X165552380Y-115109523D02*
X164552380Y-114776190D01*
X165552380Y-114442857D01*
X164647619Y-114157142D02*
X164600000Y-114109523D01*
X164552380Y-114014285D01*
X164552380Y-113776190D01*
X164600000Y-113680952D01*
X164647619Y-113633333D01*
X164742857Y-113585714D01*
X164838095Y-113585714D01*
X164980952Y-113633333D01*
X165552380Y-114204761D01*
X165552380Y-113585714D01*
X204625380Y-96214285D02*
X204149190Y-96547619D01*
X204625380Y-96785714D02*
X203625380Y-96785714D01*
X203625380Y-96404761D01*
X203673000Y-96309523D01*
X203720619Y-96261904D01*
X203815857Y-96214285D01*
X203958714Y-96214285D01*
X204053952Y-96261904D01*
X204101571Y-96309523D01*
X204149190Y-96404761D01*
X204149190Y-96785714D01*
X204577761Y-95404761D02*
X204625380Y-95500000D01*
X204625380Y-95690476D01*
X204577761Y-95785714D01*
X204482523Y-95833333D01*
X204101571Y-95833333D01*
X204006333Y-95785714D01*
X203958714Y-95690476D01*
X203958714Y-95500000D01*
X204006333Y-95404761D01*
X204101571Y-95357142D01*
X204196809Y-95357142D01*
X204292047Y-95833333D01*
X204625380Y-94785714D02*
X204577761Y-94880952D01*
X204482523Y-94928571D01*
X203625380Y-94928571D01*
X204625380Y-93976190D02*
X204101571Y-93976190D01*
X204006333Y-94023809D01*
X203958714Y-94119047D01*
X203958714Y-94309523D01*
X204006333Y-94404761D01*
X204577761Y-93976190D02*
X204625380Y-94071428D01*
X204625380Y-94309523D01*
X204577761Y-94404761D01*
X204482523Y-94452380D01*
X204387285Y-94452380D01*
X204292047Y-94404761D01*
X204244428Y-94309523D01*
X204244428Y-94071428D01*
X204196809Y-93976190D01*
X203958714Y-93595238D02*
X204625380Y-93357142D01*
X203958714Y-93119047D02*
X204625380Y-93357142D01*
X204863476Y-93452380D01*
X204911095Y-93500000D01*
X204958714Y-93595238D01*
X205283000Y-97119047D02*
X205235380Y-97214285D01*
X205235380Y-97357142D01*
X205283000Y-97500000D01*
X205378238Y-97595238D01*
X205473476Y-97642857D01*
X205663952Y-97690476D01*
X205806809Y-97690476D01*
X205997285Y-97642857D01*
X206092523Y-97595238D01*
X206187761Y-97500000D01*
X206235380Y-97357142D01*
X206235380Y-97261904D01*
X206187761Y-97119047D01*
X206140142Y-97071428D01*
X205806809Y-97071428D01*
X205806809Y-97261904D01*
X206235380Y-96642857D02*
X205235380Y-96642857D01*
X206235380Y-96071428D01*
X205235380Y-96071428D01*
X206235380Y-95595238D02*
X205235380Y-95595238D01*
X205235380Y-95357142D01*
X205283000Y-95214285D01*
X205378238Y-95119047D01*
X205473476Y-95071428D01*
X205663952Y-95023809D01*
X205806809Y-95023809D01*
X205997285Y-95071428D01*
X206092523Y-95119047D01*
X206187761Y-95214285D01*
X206235380Y-95357142D01*
X206235380Y-95595238D01*
X205711571Y-93500000D02*
X205759190Y-93357142D01*
X205806809Y-93309523D01*
X205902047Y-93261904D01*
X206044904Y-93261904D01*
X206140142Y-93309523D01*
X206187761Y-93357142D01*
X206235380Y-93452380D01*
X206235380Y-93833333D01*
X205235380Y-93833333D01*
X205235380Y-93500000D01*
X205283000Y-93404761D01*
X205330619Y-93357142D01*
X205425857Y-93309523D01*
X205521095Y-93309523D01*
X205616333Y-93357142D01*
X205663952Y-93404761D01*
X205711571Y-93500000D01*
X205711571Y-93833333D01*
X205330619Y-92880952D02*
X205283000Y-92833333D01*
X205235380Y-92738095D01*
X205235380Y-92500000D01*
X205283000Y-92404761D01*
X205330619Y-92357142D01*
X205425857Y-92309523D01*
X205521095Y-92309523D01*
X205663952Y-92357142D01*
X206235380Y-92928571D01*
X206235380Y-92309523D01*
X180268571Y-71524761D02*
X180316190Y-71381904D01*
X180363809Y-71334285D01*
X180459047Y-71286666D01*
X180601904Y-71286666D01*
X180697142Y-71334285D01*
X180744761Y-71381904D01*
X180792380Y-71477142D01*
X180792380Y-71858095D01*
X179792380Y-71858095D01*
X179792380Y-71524761D01*
X179840000Y-71429523D01*
X179887619Y-71381904D01*
X179982857Y-71334285D01*
X180078095Y-71334285D01*
X180173333Y-71381904D01*
X180220952Y-71429523D01*
X180268571Y-71524761D01*
X180268571Y-71858095D01*
X179792380Y-70953333D02*
X179792380Y-70334285D01*
X180173333Y-70667619D01*
X180173333Y-70524761D01*
X180220952Y-70429523D01*
X180268571Y-70381904D01*
X180363809Y-70334285D01*
X180601904Y-70334285D01*
X180697142Y-70381904D01*
X180744761Y-70429523D01*
X180792380Y-70524761D01*
X180792380Y-70810476D01*
X180744761Y-70905714D01*
X180697142Y-70953333D01*
X180268571Y-114704761D02*
X180316190Y-114561904D01*
X180363809Y-114514285D01*
X180459047Y-114466666D01*
X180601904Y-114466666D01*
X180697142Y-114514285D01*
X180744761Y-114561904D01*
X180792380Y-114657142D01*
X180792380Y-115038095D01*
X179792380Y-115038095D01*
X179792380Y-114704761D01*
X179840000Y-114609523D01*
X179887619Y-114561904D01*
X179982857Y-114514285D01*
X180078095Y-114514285D01*
X180173333Y-114561904D01*
X180220952Y-114609523D01*
X180268571Y-114704761D01*
X180268571Y-115038095D01*
X179792380Y-113847619D02*
X179792380Y-113752380D01*
X179840000Y-113657142D01*
X179887619Y-113609523D01*
X179982857Y-113561904D01*
X180173333Y-113514285D01*
X180411428Y-113514285D01*
X180601904Y-113561904D01*
X180697142Y-113609523D01*
X180744761Y-113657142D01*
X180792380Y-113752380D01*
X180792380Y-113847619D01*
X180744761Y-113942857D01*
X180697142Y-113990476D01*
X180601904Y-114038095D01*
X180411428Y-114085714D01*
X180173333Y-114085714D01*
X179982857Y-114038095D01*
X179887619Y-113990476D01*
X179840000Y-113942857D01*
X179792380Y-113847619D01*
X172886666Y-115014285D02*
X172886666Y-114538095D01*
X173172380Y-115109523D02*
X172172380Y-114776190D01*
X173172380Y-114442857D01*
X172172380Y-113633333D02*
X172172380Y-114109523D01*
X172648571Y-114157142D01*
X172600952Y-114109523D01*
X172553333Y-114014285D01*
X172553333Y-113776190D01*
X172600952Y-113680952D01*
X172648571Y-113633333D01*
X172743809Y-113585714D01*
X172981904Y-113585714D01*
X173077142Y-113633333D01*
X173124761Y-113680952D01*
X173172380Y-113776190D01*
X173172380Y-114014285D01*
X173124761Y-114109523D01*
X173077142Y-114157142D01*
X204176380Y-82390952D02*
X204985904Y-82390952D01*
X205081142Y-82343333D01*
X205128761Y-82295714D01*
X205176380Y-82200476D01*
X205176380Y-82010000D01*
X205128761Y-81914761D01*
X205081142Y-81867142D01*
X204985904Y-81819523D01*
X204176380Y-81819523D01*
X205128761Y-81390952D02*
X205176380Y-81248095D01*
X205176380Y-81010000D01*
X205128761Y-80914761D01*
X205081142Y-80867142D01*
X204985904Y-80819523D01*
X204890666Y-80819523D01*
X204795428Y-80867142D01*
X204747809Y-80914761D01*
X204700190Y-81010000D01*
X204652571Y-81200476D01*
X204604952Y-81295714D01*
X204557333Y-81343333D01*
X204462095Y-81390952D01*
X204366857Y-81390952D01*
X204271619Y-81343333D01*
X204224000Y-81295714D01*
X204176380Y-81200476D01*
X204176380Y-80962380D01*
X204224000Y-80819523D01*
X204652571Y-80057619D02*
X204700190Y-79914761D01*
X204747809Y-79867142D01*
X204843047Y-79819523D01*
X204985904Y-79819523D01*
X205081142Y-79867142D01*
X205128761Y-79914761D01*
X205176380Y-80010000D01*
X205176380Y-80390952D01*
X204176380Y-80390952D01*
X204176380Y-80057619D01*
X204224000Y-79962380D01*
X204271619Y-79914761D01*
X204366857Y-79867142D01*
X204462095Y-79867142D01*
X204557333Y-79914761D01*
X204604952Y-79962380D01*
X204652571Y-80057619D01*
X204652571Y-80390952D01*
X204795428Y-79390952D02*
X204795428Y-78629047D01*
X205081142Y-77581428D02*
X205128761Y-77629047D01*
X205176380Y-77771904D01*
X205176380Y-77867142D01*
X205128761Y-78010000D01*
X205033523Y-78105238D01*
X204938285Y-78152857D01*
X204747809Y-78200476D01*
X204604952Y-78200476D01*
X204414476Y-78152857D01*
X204319238Y-78105238D01*
X204224000Y-78010000D01*
X204176380Y-77867142D01*
X204176380Y-77771904D01*
X204224000Y-77629047D01*
X204271619Y-77581428D01*
X177966666Y-115014285D02*
X177966666Y-114538095D01*
X178252380Y-115109523D02*
X177252380Y-114776190D01*
X178252380Y-114442857D01*
X177252380Y-114204761D02*
X177252380Y-113538095D01*
X178252380Y-113966666D01*
X205668571Y-115180952D02*
X205716190Y-115038095D01*
X205763809Y-114990476D01*
X205859047Y-114942857D01*
X206001904Y-114942857D01*
X206097142Y-114990476D01*
X206144761Y-115038095D01*
X206192380Y-115133333D01*
X206192380Y-115514285D01*
X205192380Y-115514285D01*
X205192380Y-115180952D01*
X205240000Y-115085714D01*
X205287619Y-115038095D01*
X205382857Y-114990476D01*
X205478095Y-114990476D01*
X205573333Y-115038095D01*
X205620952Y-115085714D01*
X205668571Y-115180952D01*
X205668571Y-115514285D01*
X206192380Y-113990476D02*
X206192380Y-114561904D01*
X206192380Y-114276190D02*
X205192380Y-114276190D01*
X205335238Y-114371428D01*
X205430476Y-114466666D01*
X205478095Y-114561904D01*
X205192380Y-113085714D02*
X205192380Y-113561904D01*
X205668571Y-113609523D01*
X205620952Y-113561904D01*
X205573333Y-113466666D01*
X205573333Y-113228571D01*
X205620952Y-113133333D01*
X205668571Y-113085714D01*
X205763809Y-113038095D01*
X206001904Y-113038095D01*
X206097142Y-113085714D01*
X206144761Y-113133333D01*
X206192380Y-113228571D01*
X206192380Y-113466666D01*
X206144761Y-113561904D01*
X206097142Y-113609523D01*
X172648571Y-71524761D02*
X172696190Y-71381904D01*
X172743809Y-71334285D01*
X172839047Y-71286666D01*
X172981904Y-71286666D01*
X173077142Y-71334285D01*
X173124761Y-71381904D01*
X173172380Y-71477142D01*
X173172380Y-71858095D01*
X172172380Y-71858095D01*
X172172380Y-71524761D01*
X172220000Y-71429523D01*
X172267619Y-71381904D01*
X172362857Y-71334285D01*
X172458095Y-71334285D01*
X172553333Y-71381904D01*
X172600952Y-71429523D01*
X172648571Y-71524761D01*
X172648571Y-71858095D01*
X172172380Y-70429523D02*
X172172380Y-70620000D01*
X172220000Y-70715238D01*
X172267619Y-70762857D01*
X172410476Y-70858095D01*
X172600952Y-70905714D01*
X172981904Y-70905714D01*
X173077142Y-70858095D01*
X173124761Y-70810476D01*
X173172380Y-70715238D01*
X173172380Y-70524761D01*
X173124761Y-70429523D01*
X173077142Y-70381904D01*
X172981904Y-70334285D01*
X172743809Y-70334285D01*
X172648571Y-70381904D01*
X172600952Y-70429523D01*
X172553333Y-70524761D01*
X172553333Y-70715238D01*
X172600952Y-70810476D01*
X172648571Y-70858095D01*
X172743809Y-70905714D01*
X157964666Y-79938571D02*
X158107523Y-79986190D01*
X158155142Y-80033809D01*
X158202761Y-80129047D01*
X158202761Y-80271904D01*
X158155142Y-80367142D01*
X158107523Y-80414761D01*
X158012285Y-80462380D01*
X157631333Y-80462380D01*
X157631333Y-79462380D01*
X157964666Y-79462380D01*
X158059904Y-79510000D01*
X158107523Y-79557619D01*
X158155142Y-79652857D01*
X158155142Y-79748095D01*
X158107523Y-79843333D01*
X158059904Y-79890952D01*
X157964666Y-79938571D01*
X157631333Y-79938571D01*
X159059904Y-80462380D02*
X159059904Y-79938571D01*
X159012285Y-79843333D01*
X158917047Y-79795714D01*
X158726571Y-79795714D01*
X158631333Y-79843333D01*
X159059904Y-80414761D02*
X158964666Y-80462380D01*
X158726571Y-80462380D01*
X158631333Y-80414761D01*
X158583714Y-80319523D01*
X158583714Y-80224285D01*
X158631333Y-80129047D01*
X158726571Y-80081428D01*
X158964666Y-80081428D01*
X159059904Y-80033809D01*
X159536095Y-80462380D02*
X159536095Y-79795714D01*
X159536095Y-79986190D02*
X159583714Y-79890952D01*
X159631333Y-79843333D01*
X159726571Y-79795714D01*
X159821809Y-79795714D01*
X160155142Y-80462380D02*
X160155142Y-79795714D01*
X160155142Y-79986190D02*
X160202761Y-79890952D01*
X160250380Y-79843333D01*
X160345619Y-79795714D01*
X160440857Y-79795714D01*
X161155142Y-80414761D02*
X161059904Y-80462380D01*
X160869428Y-80462380D01*
X160774190Y-80414761D01*
X160726571Y-80319523D01*
X160726571Y-79938571D01*
X160774190Y-79843333D01*
X160869428Y-79795714D01*
X161059904Y-79795714D01*
X161155142Y-79843333D01*
X161202761Y-79938571D01*
X161202761Y-80033809D01*
X160726571Y-80129047D01*
X161774190Y-80462380D02*
X161678952Y-80414761D01*
X161631333Y-80319523D01*
X161631333Y-79462380D01*
X162155142Y-80081428D02*
X162917047Y-80081428D01*
X163393238Y-79795714D02*
X163393238Y-80652857D01*
X163345619Y-80748095D01*
X163250380Y-80795714D01*
X163202761Y-80795714D01*
X163393238Y-79462380D02*
X163345619Y-79510000D01*
X163393238Y-79557619D01*
X163440857Y-79510000D01*
X163393238Y-79462380D01*
X163393238Y-79557619D01*
X164298000Y-80462380D02*
X164298000Y-79938571D01*
X164250380Y-79843333D01*
X164155142Y-79795714D01*
X163964666Y-79795714D01*
X163869428Y-79843333D01*
X164298000Y-80414761D02*
X164202761Y-80462380D01*
X163964666Y-80462380D01*
X163869428Y-80414761D01*
X163821809Y-80319523D01*
X163821809Y-80224285D01*
X163869428Y-80129047D01*
X163964666Y-80081428D01*
X164202761Y-80081428D01*
X164298000Y-80033809D01*
X165202761Y-80414761D02*
X165107523Y-80462380D01*
X164917047Y-80462380D01*
X164821809Y-80414761D01*
X164774190Y-80367142D01*
X164726571Y-80271904D01*
X164726571Y-79986190D01*
X164774190Y-79890952D01*
X164821809Y-79843333D01*
X164917047Y-79795714D01*
X165107523Y-79795714D01*
X165202761Y-79843333D01*
X165631333Y-80462380D02*
X165631333Y-79462380D01*
X165726571Y-80081428D02*
X166012285Y-80462380D01*
X166012285Y-79795714D02*
X165631333Y-80176666D01*
X190666666Y-72310476D02*
X190666666Y-71834285D01*
X190952380Y-72405714D02*
X189952380Y-72072380D01*
X190952380Y-71739047D01*
X190952380Y-70881904D02*
X190952380Y-71453333D01*
X190952380Y-71167619D02*
X189952380Y-71167619D01*
X190095238Y-71262857D01*
X190190476Y-71358095D01*
X190238095Y-71453333D01*
X190047619Y-70500952D02*
X190000000Y-70453333D01*
X189952380Y-70358095D01*
X189952380Y-70120000D01*
X190000000Y-70024761D01*
X190047619Y-69977142D01*
X190142857Y-69929523D01*
X190238095Y-69929523D01*
X190380952Y-69977142D01*
X190952380Y-70548571D01*
X190952380Y-69929523D01*
X190428571Y-114704761D02*
X190476190Y-114561904D01*
X190523809Y-114514285D01*
X190619047Y-114466666D01*
X190761904Y-114466666D01*
X190857142Y-114514285D01*
X190904761Y-114561904D01*
X190952380Y-114657142D01*
X190952380Y-115038095D01*
X189952380Y-115038095D01*
X189952380Y-114704761D01*
X190000000Y-114609523D01*
X190047619Y-114561904D01*
X190142857Y-114514285D01*
X190238095Y-114514285D01*
X190333333Y-114561904D01*
X190380952Y-114609523D01*
X190428571Y-114704761D01*
X190428571Y-115038095D01*
X190047619Y-114085714D02*
X190000000Y-114038095D01*
X189952380Y-113942857D01*
X189952380Y-113704761D01*
X190000000Y-113609523D01*
X190047619Y-113561904D01*
X190142857Y-113514285D01*
X190238095Y-113514285D01*
X190380952Y-113561904D01*
X190952380Y-114133333D01*
X190952380Y-113514285D01*
X200826666Y-71834285D02*
X200826666Y-71358095D01*
X201112380Y-71929523D02*
X200112380Y-71596190D01*
X201112380Y-71262857D01*
X200540952Y-70786666D02*
X200493333Y-70881904D01*
X200445714Y-70929523D01*
X200350476Y-70977142D01*
X200302857Y-70977142D01*
X200207619Y-70929523D01*
X200160000Y-70881904D01*
X200112380Y-70786666D01*
X200112380Y-70596190D01*
X200160000Y-70500952D01*
X200207619Y-70453333D01*
X200302857Y-70405714D01*
X200350476Y-70405714D01*
X200445714Y-70453333D01*
X200493333Y-70500952D01*
X200540952Y-70596190D01*
X200540952Y-70786666D01*
X200588571Y-70881904D01*
X200636190Y-70929523D01*
X200731428Y-70977142D01*
X200921904Y-70977142D01*
X201017142Y-70929523D01*
X201064761Y-70881904D01*
X201112380Y-70786666D01*
X201112380Y-70596190D01*
X201064761Y-70500952D01*
X201017142Y-70453333D01*
X200921904Y-70405714D01*
X200731428Y-70405714D01*
X200636190Y-70453333D01*
X200588571Y-70500952D01*
X200540952Y-70596190D01*
X176617380Y-112450380D02*
X176617380Y-112259904D01*
X176665000Y-112164666D01*
X176760238Y-112069428D01*
X176950714Y-112021809D01*
X177284047Y-112021809D01*
X177474523Y-112069428D01*
X177569761Y-112164666D01*
X177617380Y-112259904D01*
X177617380Y-112450380D01*
X177569761Y-112545619D01*
X177474523Y-112640857D01*
X177284047Y-112688476D01*
X176950714Y-112688476D01*
X176760238Y-112640857D01*
X176665000Y-112545619D01*
X176617380Y-112450380D01*
X177617380Y-111117047D02*
X177617380Y-111593238D01*
X176617380Y-111593238D01*
X177093571Y-110783714D02*
X177093571Y-110450380D01*
X177617380Y-110307523D02*
X177617380Y-110783714D01*
X176617380Y-110783714D01*
X176617380Y-110307523D01*
X177617380Y-109878952D02*
X176617380Y-109878952D01*
X176617380Y-109640857D01*
X176665000Y-109498000D01*
X176760238Y-109402761D01*
X176855476Y-109355142D01*
X177045952Y-109307523D01*
X177188809Y-109307523D01*
X177379285Y-109355142D01*
X177474523Y-109402761D01*
X177569761Y-109498000D01*
X177617380Y-109640857D01*
X177617380Y-109878952D01*
X202652380Y-72453333D02*
X203652380Y-72120000D01*
X202652380Y-71786666D01*
X203652380Y-71453333D02*
X202652380Y-71453333D01*
X202652380Y-71215238D01*
X202700000Y-71072380D01*
X202795238Y-70977142D01*
X202890476Y-70929523D01*
X203080952Y-70881904D01*
X203223809Y-70881904D01*
X203414285Y-70929523D01*
X203509523Y-70977142D01*
X203604761Y-71072380D01*
X203652380Y-71215238D01*
X203652380Y-71453333D01*
X203652380Y-70453333D02*
X202652380Y-70453333D01*
X202652380Y-70215238D01*
X202700000Y-70072380D01*
X202795238Y-69977142D01*
X202890476Y-69929523D01*
X203080952Y-69881904D01*
X203223809Y-69881904D01*
X203414285Y-69929523D01*
X203509523Y-69977142D01*
X203604761Y-70072380D01*
X203652380Y-70215238D01*
X203652380Y-70453333D01*
X167568571Y-71524761D02*
X167616190Y-71381904D01*
X167663809Y-71334285D01*
X167759047Y-71286666D01*
X167901904Y-71286666D01*
X167997142Y-71334285D01*
X168044761Y-71381904D01*
X168092380Y-71477142D01*
X168092380Y-71858095D01*
X167092380Y-71858095D01*
X167092380Y-71524761D01*
X167140000Y-71429523D01*
X167187619Y-71381904D01*
X167282857Y-71334285D01*
X167378095Y-71334285D01*
X167473333Y-71381904D01*
X167520952Y-71429523D01*
X167568571Y-71524761D01*
X167568571Y-71858095D01*
X167520952Y-70715238D02*
X167473333Y-70810476D01*
X167425714Y-70858095D01*
X167330476Y-70905714D01*
X167282857Y-70905714D01*
X167187619Y-70858095D01*
X167140000Y-70810476D01*
X167092380Y-70715238D01*
X167092380Y-70524761D01*
X167140000Y-70429523D01*
X167187619Y-70381904D01*
X167282857Y-70334285D01*
X167330476Y-70334285D01*
X167425714Y-70381904D01*
X167473333Y-70429523D01*
X167520952Y-70524761D01*
X167520952Y-70715238D01*
X167568571Y-70810476D01*
X167616190Y-70858095D01*
X167711428Y-70905714D01*
X167901904Y-70905714D01*
X167997142Y-70858095D01*
X168044761Y-70810476D01*
X168092380Y-70715238D01*
X168092380Y-70524761D01*
X168044761Y-70429523D01*
X167997142Y-70381904D01*
X167901904Y-70334285D01*
X167711428Y-70334285D01*
X167616190Y-70381904D01*
X167568571Y-70429523D01*
X167520952Y-70524761D01*
X182522761Y-109362666D02*
X182570380Y-109219809D01*
X182570380Y-108981714D01*
X182522761Y-108886476D01*
X182475142Y-108838857D01*
X182379904Y-108791238D01*
X182284666Y-108791238D01*
X182189428Y-108838857D01*
X182141809Y-108886476D01*
X182094190Y-108981714D01*
X182046571Y-109172190D01*
X181998952Y-109267428D01*
X181951333Y-109315047D01*
X181856095Y-109362666D01*
X181760857Y-109362666D01*
X181665619Y-109315047D01*
X181618000Y-109267428D01*
X181570380Y-109172190D01*
X181570380Y-108934095D01*
X181618000Y-108791238D01*
X182475142Y-107791238D02*
X182522761Y-107838857D01*
X182570380Y-107981714D01*
X182570380Y-108076952D01*
X182522761Y-108219809D01*
X182427523Y-108315047D01*
X182332285Y-108362666D01*
X182141809Y-108410285D01*
X181998952Y-108410285D01*
X181808476Y-108362666D01*
X181713238Y-108315047D01*
X181618000Y-108219809D01*
X181570380Y-108076952D01*
X181570380Y-107981714D01*
X181618000Y-107838857D01*
X181665619Y-107791238D01*
X182570380Y-106886476D02*
X182570380Y-107362666D01*
X181570380Y-107362666D01*
X181665619Y-106600761D02*
X181618000Y-106553142D01*
X181570380Y-106457904D01*
X181570380Y-106219809D01*
X181618000Y-106124571D01*
X181665619Y-106076952D01*
X181760857Y-106029333D01*
X181856095Y-106029333D01*
X181998952Y-106076952D01*
X182570380Y-106648380D01*
X182570380Y-106029333D01*
X187888571Y-114704761D02*
X187936190Y-114561904D01*
X187983809Y-114514285D01*
X188079047Y-114466666D01*
X188221904Y-114466666D01*
X188317142Y-114514285D01*
X188364761Y-114561904D01*
X188412380Y-114657142D01*
X188412380Y-115038095D01*
X187412380Y-115038095D01*
X187412380Y-114704761D01*
X187460000Y-114609523D01*
X187507619Y-114561904D01*
X187602857Y-114514285D01*
X187698095Y-114514285D01*
X187793333Y-114561904D01*
X187840952Y-114609523D01*
X187888571Y-114704761D01*
X187888571Y-115038095D01*
X188412380Y-113514285D02*
X188412380Y-114085714D01*
X188412380Y-113800000D02*
X187412380Y-113800000D01*
X187555238Y-113895238D01*
X187650476Y-113990476D01*
X187698095Y-114085714D01*
X170346666Y-115014285D02*
X170346666Y-114538095D01*
X170632380Y-115109523D02*
X169632380Y-114776190D01*
X170632380Y-114442857D01*
X169965714Y-113680952D02*
X170632380Y-113680952D01*
X169584761Y-113919047D02*
X170299047Y-114157142D01*
X170299047Y-113538095D01*
X203625380Y-107357714D02*
X203625380Y-106786285D01*
X204625380Y-107072000D02*
X203625380Y-107072000D01*
X204530142Y-105881523D02*
X204577761Y-105929142D01*
X204625380Y-106072000D01*
X204625380Y-106167238D01*
X204577761Y-106310095D01*
X204482523Y-106405333D01*
X204387285Y-106452952D01*
X204196809Y-106500571D01*
X204053952Y-106500571D01*
X203863476Y-106452952D01*
X203768238Y-106405333D01*
X203673000Y-106310095D01*
X203625380Y-106167238D01*
X203625380Y-106072000D01*
X203673000Y-105929142D01*
X203720619Y-105881523D01*
X205854428Y-107572000D02*
X205854428Y-106810095D01*
X206235380Y-107191047D02*
X205473476Y-107191047D01*
X205854428Y-106333904D02*
X205854428Y-105572000D01*
X200588571Y-115180952D02*
X200636190Y-115038095D01*
X200683809Y-114990476D01*
X200779047Y-114942857D01*
X200921904Y-114942857D01*
X201017142Y-114990476D01*
X201064761Y-115038095D01*
X201112380Y-115133333D01*
X201112380Y-115514285D01*
X200112380Y-115514285D01*
X200112380Y-115180952D01*
X200160000Y-115085714D01*
X200207619Y-115038095D01*
X200302857Y-114990476D01*
X200398095Y-114990476D01*
X200493333Y-115038095D01*
X200540952Y-115085714D01*
X200588571Y-115180952D01*
X200588571Y-115514285D01*
X201112380Y-113990476D02*
X201112380Y-114561904D01*
X201112380Y-114276190D02*
X200112380Y-114276190D01*
X200255238Y-114371428D01*
X200350476Y-114466666D01*
X200398095Y-114561904D01*
X200112380Y-113657142D02*
X200112380Y-113038095D01*
X200493333Y-113371428D01*
X200493333Y-113228571D01*
X200540952Y-113133333D01*
X200588571Y-113085714D01*
X200683809Y-113038095D01*
X200921904Y-113038095D01*
X201017142Y-113085714D01*
X201064761Y-113133333D01*
X201112380Y-113228571D01*
X201112380Y-113514285D01*
X201064761Y-113609523D01*
X201017142Y-113657142D01*
X193206666Y-72310476D02*
X193206666Y-71834285D01*
X193492380Y-72405714D02*
X192492380Y-72072380D01*
X193492380Y-71739047D01*
X193492380Y-70881904D02*
X193492380Y-71453333D01*
X193492380Y-71167619D02*
X192492380Y-71167619D01*
X192635238Y-71262857D01*
X192730476Y-71358095D01*
X192778095Y-71453333D01*
X193492380Y-69929523D02*
X193492380Y-70500952D01*
X193492380Y-70215238D02*
X192492380Y-70215238D01*
X192635238Y-70310476D01*
X192730476Y-70405714D01*
X192778095Y-70500952D01*
X170108571Y-71524761D02*
X170156190Y-71381904D01*
X170203809Y-71334285D01*
X170299047Y-71286666D01*
X170441904Y-71286666D01*
X170537142Y-71334285D01*
X170584761Y-71381904D01*
X170632380Y-71477142D01*
X170632380Y-71858095D01*
X169632380Y-71858095D01*
X169632380Y-71524761D01*
X169680000Y-71429523D01*
X169727619Y-71381904D01*
X169822857Y-71334285D01*
X169918095Y-71334285D01*
X170013333Y-71381904D01*
X170060952Y-71429523D01*
X170108571Y-71524761D01*
X170108571Y-71858095D01*
X169632380Y-70953333D02*
X169632380Y-70286666D01*
X170632380Y-70715238D01*
X198048571Y-115180952D02*
X198096190Y-115038095D01*
X198143809Y-114990476D01*
X198239047Y-114942857D01*
X198381904Y-114942857D01*
X198477142Y-114990476D01*
X198524761Y-115038095D01*
X198572380Y-115133333D01*
X198572380Y-115514285D01*
X197572380Y-115514285D01*
X197572380Y-115180952D01*
X197620000Y-115085714D01*
X197667619Y-115038095D01*
X197762857Y-114990476D01*
X197858095Y-114990476D01*
X197953333Y-115038095D01*
X198000952Y-115085714D01*
X198048571Y-115180952D01*
X198048571Y-115514285D01*
X198572380Y-113990476D02*
X198572380Y-114561904D01*
X198572380Y-114276190D02*
X197572380Y-114276190D01*
X197715238Y-114371428D01*
X197810476Y-114466666D01*
X197858095Y-114561904D01*
X197667619Y-113609523D02*
X197620000Y-113561904D01*
X197572380Y-113466666D01*
X197572380Y-113228571D01*
X197620000Y-113133333D01*
X197667619Y-113085714D01*
X197762857Y-113038095D01*
X197858095Y-113038095D01*
X198000952Y-113085714D01*
X198572380Y-113657142D01*
X198572380Y-113038095D01*
X165028571Y-71524761D02*
X165076190Y-71381904D01*
X165123809Y-71334285D01*
X165219047Y-71286666D01*
X165361904Y-71286666D01*
X165457142Y-71334285D01*
X165504761Y-71381904D01*
X165552380Y-71477142D01*
X165552380Y-71858095D01*
X164552380Y-71858095D01*
X164552380Y-71524761D01*
X164600000Y-71429523D01*
X164647619Y-71381904D01*
X164742857Y-71334285D01*
X164838095Y-71334285D01*
X164933333Y-71381904D01*
X164980952Y-71429523D01*
X165028571Y-71524761D01*
X165028571Y-71858095D01*
X165552380Y-70810476D02*
X165552380Y-70620000D01*
X165504761Y-70524761D01*
X165457142Y-70477142D01*
X165314285Y-70381904D01*
X165123809Y-70334285D01*
X164742857Y-70334285D01*
X164647619Y-70381904D01*
X164600000Y-70429523D01*
X164552380Y-70524761D01*
X164552380Y-70715238D01*
X164600000Y-70810476D01*
X164647619Y-70858095D01*
X164742857Y-70905714D01*
X164980952Y-70905714D01*
X165076190Y-70858095D01*
X165123809Y-70810476D01*
X165171428Y-70715238D01*
X165171428Y-70524761D01*
X165123809Y-70429523D01*
X165076190Y-70381904D01*
X164980952Y-70334285D01*
X160186666Y-115014285D02*
X160186666Y-114538095D01*
X160472380Y-115109523D02*
X159472380Y-114776190D01*
X160472380Y-114442857D01*
X159472380Y-113919047D02*
X159472380Y-113823809D01*
X159520000Y-113728571D01*
X159567619Y-113680952D01*
X159662857Y-113633333D01*
X159853333Y-113585714D01*
X160091428Y-113585714D01*
X160281904Y-113633333D01*
X160377142Y-113680952D01*
X160424761Y-113728571D01*
X160472380Y-113823809D01*
X160472380Y-113919047D01*
X160424761Y-114014285D01*
X160377142Y-114061904D01*
X160281904Y-114109523D01*
X160091428Y-114157142D01*
X159853333Y-114157142D01*
X159662857Y-114109523D01*
X159567619Y-114061904D01*
X159520000Y-114014285D01*
X159472380Y-113919047D01*
X175426666Y-115014285D02*
X175426666Y-114538095D01*
X175712380Y-115109523D02*
X174712380Y-114776190D01*
X175712380Y-114442857D01*
X174712380Y-113680952D02*
X174712380Y-113871428D01*
X174760000Y-113966666D01*
X174807619Y-114014285D01*
X174950476Y-114109523D01*
X175140952Y-114157142D01*
X175521904Y-114157142D01*
X175617142Y-114109523D01*
X175664761Y-114061904D01*
X175712380Y-113966666D01*
X175712380Y-113776190D01*
X175664761Y-113680952D01*
X175617142Y-113633333D01*
X175521904Y-113585714D01*
X175283809Y-113585714D01*
X175188571Y-113633333D01*
X175140952Y-113680952D01*
X175093333Y-113776190D01*
X175093333Y-113966666D01*
X175140952Y-114061904D01*
X175188571Y-114109523D01*
X175283809Y-114157142D01*
X182332380Y-115633333D02*
X183332380Y-115300000D01*
X182332380Y-114966666D01*
X183332380Y-114633333D02*
X182332380Y-114633333D01*
X182332380Y-114395238D01*
X182380000Y-114252380D01*
X182475238Y-114157142D01*
X182570476Y-114109523D01*
X182760952Y-114061904D01*
X182903809Y-114061904D01*
X183094285Y-114109523D01*
X183189523Y-114157142D01*
X183284761Y-114252380D01*
X183332380Y-114395238D01*
X183332380Y-114633333D01*
X183332380Y-113633333D02*
X182332380Y-113633333D01*
X182332380Y-113395238D01*
X182380000Y-113252380D01*
X182475238Y-113157142D01*
X182570476Y-113109523D01*
X182760952Y-113061904D01*
X182903809Y-113061904D01*
X183094285Y-113109523D01*
X183189523Y-113157142D01*
X183284761Y-113252380D01*
X183332380Y-113395238D01*
X183332380Y-113633333D01*
X188126666Y-72310476D02*
X188126666Y-71834285D01*
X188412380Y-72405714D02*
X187412380Y-72072380D01*
X188412380Y-71739047D01*
X188412380Y-70881904D02*
X188412380Y-71453333D01*
X188412380Y-71167619D02*
X187412380Y-71167619D01*
X187555238Y-71262857D01*
X187650476Y-71358095D01*
X187698095Y-71453333D01*
X187412380Y-70548571D02*
X187412380Y-69929523D01*
X187793333Y-70262857D01*
X187793333Y-70120000D01*
X187840952Y-70024761D01*
X187888571Y-69977142D01*
X187983809Y-69929523D01*
X188221904Y-69929523D01*
X188317142Y-69977142D01*
X188364761Y-70024761D01*
X188412380Y-70120000D01*
X188412380Y-70405714D01*
X188364761Y-70500952D01*
X188317142Y-70548571D01*
X177728571Y-71524761D02*
X177776190Y-71381904D01*
X177823809Y-71334285D01*
X177919047Y-71286666D01*
X178061904Y-71286666D01*
X178157142Y-71334285D01*
X178204761Y-71381904D01*
X178252380Y-71477142D01*
X178252380Y-71858095D01*
X177252380Y-71858095D01*
X177252380Y-71524761D01*
X177300000Y-71429523D01*
X177347619Y-71381904D01*
X177442857Y-71334285D01*
X177538095Y-71334285D01*
X177633333Y-71381904D01*
X177680952Y-71429523D01*
X177728571Y-71524761D01*
X177728571Y-71858095D01*
X177585714Y-70429523D02*
X178252380Y-70429523D01*
X177204761Y-70667619D02*
X177919047Y-70905714D01*
X177919047Y-70286666D01*
X195508571Y-115180952D02*
X195556190Y-115038095D01*
X195603809Y-114990476D01*
X195699047Y-114942857D01*
X195841904Y-114942857D01*
X195937142Y-114990476D01*
X195984761Y-115038095D01*
X196032380Y-115133333D01*
X196032380Y-115514285D01*
X195032380Y-115514285D01*
X195032380Y-115180952D01*
X195080000Y-115085714D01*
X195127619Y-115038095D01*
X195222857Y-114990476D01*
X195318095Y-114990476D01*
X195413333Y-115038095D01*
X195460952Y-115085714D01*
X195508571Y-115180952D01*
X195508571Y-115514285D01*
X196032380Y-113990476D02*
X196032380Y-114561904D01*
X196032380Y-114276190D02*
X195032380Y-114276190D01*
X195175238Y-114371428D01*
X195270476Y-114466666D01*
X195318095Y-114561904D01*
X195032380Y-113371428D02*
X195032380Y-113276190D01*
X195080000Y-113180952D01*
X195127619Y-113133333D01*
X195222857Y-113085714D01*
X195413333Y-113038095D01*
X195651428Y-113038095D01*
X195841904Y-113085714D01*
X195937142Y-113133333D01*
X195984761Y-113180952D01*
X196032380Y-113276190D01*
X196032380Y-113371428D01*
X195984761Y-113466666D01*
X195937142Y-113514285D01*
X195841904Y-113561904D01*
X195651428Y-113609523D01*
X195413333Y-113609523D01*
X195222857Y-113561904D01*
X195127619Y-113514285D01*
X195080000Y-113466666D01*
X195032380Y-113371428D01*
X203128571Y-115180952D02*
X203176190Y-115038095D01*
X203223809Y-114990476D01*
X203319047Y-114942857D01*
X203461904Y-114942857D01*
X203557142Y-114990476D01*
X203604761Y-115038095D01*
X203652380Y-115133333D01*
X203652380Y-115514285D01*
X202652380Y-115514285D01*
X202652380Y-115180952D01*
X202700000Y-115085714D01*
X202747619Y-115038095D01*
X202842857Y-114990476D01*
X202938095Y-114990476D01*
X203033333Y-115038095D01*
X203080952Y-115085714D01*
X203128571Y-115180952D01*
X203128571Y-115514285D01*
X203652380Y-113990476D02*
X203652380Y-114561904D01*
X203652380Y-114276190D02*
X202652380Y-114276190D01*
X202795238Y-114371428D01*
X202890476Y-114466666D01*
X202938095Y-114561904D01*
X202985714Y-113133333D02*
X203652380Y-113133333D01*
X202604761Y-113371428D02*
X203319047Y-113609523D01*
X203319047Y-112990476D01*
D11*
X176180904Y-81073761D02*
X176561857Y-81073761D01*
X176752333Y-81169000D01*
X176942809Y-81359476D01*
X177038047Y-81740428D01*
X177038047Y-82407095D01*
X176942809Y-82788047D01*
X176752333Y-82978523D01*
X176561857Y-83073761D01*
X176180904Y-83073761D01*
X175990428Y-82978523D01*
X175799952Y-82788047D01*
X175704714Y-82407095D01*
X175704714Y-81740428D01*
X175799952Y-81359476D01*
X175990428Y-81169000D01*
X176180904Y-81073761D01*
X177895190Y-83073761D02*
X177895190Y-81073761D01*
X179038047Y-83073761D01*
X179038047Y-81073761D01*
D10*
X175188571Y-71524761D02*
X175236190Y-71381904D01*
X175283809Y-71334285D01*
X175379047Y-71286666D01*
X175521904Y-71286666D01*
X175617142Y-71334285D01*
X175664761Y-71381904D01*
X175712380Y-71477142D01*
X175712380Y-71858095D01*
X174712380Y-71858095D01*
X174712380Y-71524761D01*
X174760000Y-71429523D01*
X174807619Y-71381904D01*
X174902857Y-71334285D01*
X174998095Y-71334285D01*
X175093333Y-71381904D01*
X175140952Y-71429523D01*
X175188571Y-71524761D01*
X175188571Y-71858095D01*
X174712380Y-70381904D02*
X174712380Y-70858095D01*
X175188571Y-70905714D01*
X175140952Y-70858095D01*
X175093333Y-70762857D01*
X175093333Y-70524761D01*
X175140952Y-70429523D01*
X175188571Y-70381904D01*
X175283809Y-70334285D01*
X175521904Y-70334285D01*
X175617142Y-70381904D01*
X175664761Y-70429523D01*
X175712380Y-70524761D01*
X175712380Y-70762857D01*
X175664761Y-70858095D01*
X175617142Y-70905714D01*
X188936380Y-112331333D02*
X189936380Y-111998000D01*
X188936380Y-111664666D01*
X189936380Y-111331333D02*
X188936380Y-111331333D01*
X188936380Y-111093238D01*
X188984000Y-110950380D01*
X189079238Y-110855142D01*
X189174476Y-110807523D01*
X189364952Y-110759904D01*
X189507809Y-110759904D01*
X189698285Y-110807523D01*
X189793523Y-110855142D01*
X189888761Y-110950380D01*
X189936380Y-111093238D01*
X189936380Y-111331333D01*
X189936380Y-110331333D02*
X188936380Y-110331333D01*
X188936380Y-110093238D01*
X188984000Y-109950380D01*
X189079238Y-109855142D01*
X189174476Y-109807523D01*
X189364952Y-109759904D01*
X189507809Y-109759904D01*
X189698285Y-109807523D01*
X189793523Y-109855142D01*
X189888761Y-109950380D01*
X189936380Y-110093238D01*
X189936380Y-110331333D01*
X192968571Y-115180952D02*
X193016190Y-115038095D01*
X193063809Y-114990476D01*
X193159047Y-114942857D01*
X193301904Y-114942857D01*
X193397142Y-114990476D01*
X193444761Y-115038095D01*
X193492380Y-115133333D01*
X193492380Y-115514285D01*
X192492380Y-115514285D01*
X192492380Y-115180952D01*
X192540000Y-115085714D01*
X192587619Y-115038095D01*
X192682857Y-114990476D01*
X192778095Y-114990476D01*
X192873333Y-115038095D01*
X192920952Y-115085714D01*
X192968571Y-115180952D01*
X192968571Y-115514285D01*
X193492380Y-113990476D02*
X193492380Y-114561904D01*
X193492380Y-114276190D02*
X192492380Y-114276190D01*
X192635238Y-114371428D01*
X192730476Y-114466666D01*
X192778095Y-114561904D01*
X193492380Y-113038095D02*
X193492380Y-113609523D01*
X193492380Y-113323809D02*
X192492380Y-113323809D01*
X192635238Y-113419047D01*
X192730476Y-113514285D01*
X192778095Y-113609523D01*
X156932380Y-72143809D02*
X157932380Y-71810476D01*
X156932380Y-71477142D01*
X157932380Y-71143809D02*
X157265714Y-71143809D01*
X156932380Y-71143809D02*
X156980000Y-71191428D01*
X157027619Y-71143809D01*
X156980000Y-71096190D01*
X156932380Y-71143809D01*
X157027619Y-71143809D01*
X157265714Y-70667619D02*
X157932380Y-70667619D01*
X157360952Y-70667619D02*
X157313333Y-70620000D01*
X157265714Y-70524761D01*
X157265714Y-70381904D01*
X157313333Y-70286666D01*
X157408571Y-70239047D01*
X157932380Y-70239047D01*
X167806666Y-115014285D02*
X167806666Y-114538095D01*
X168092380Y-115109523D02*
X167092380Y-114776190D01*
X168092380Y-114442857D01*
X167092380Y-114204761D02*
X167092380Y-113585714D01*
X167473333Y-113919047D01*
X167473333Y-113776190D01*
X167520952Y-113680952D01*
X167568571Y-113633333D01*
X167663809Y-113585714D01*
X167901904Y-113585714D01*
X167997142Y-113633333D01*
X168044761Y-113680952D01*
X168092380Y-113776190D01*
X168092380Y-114061904D01*
X168044761Y-114157142D01*
X167997142Y-114204761D01*
X184920000Y-115061904D02*
X184872380Y-115157142D01*
X184872380Y-115300000D01*
X184920000Y-115442857D01*
X185015238Y-115538095D01*
X185110476Y-115585714D01*
X185300952Y-115633333D01*
X185443809Y-115633333D01*
X185634285Y-115585714D01*
X185729523Y-115538095D01*
X185824761Y-115442857D01*
X185872380Y-115300000D01*
X185872380Y-115204761D01*
X185824761Y-115061904D01*
X185777142Y-115014285D01*
X185443809Y-115014285D01*
X185443809Y-115204761D01*
X185872380Y-114585714D02*
X184872380Y-114585714D01*
X185872380Y-114014285D01*
X184872380Y-114014285D01*
X185872380Y-113538095D02*
X184872380Y-113538095D01*
X184872380Y-113300000D01*
X184920000Y-113157142D01*
X185015238Y-113061904D01*
X185110476Y-113014285D01*
X185300952Y-112966666D01*
X185443809Y-112966666D01*
X185634285Y-113014285D01*
X185729523Y-113061904D01*
X185824761Y-113157142D01*
X185872380Y-113300000D01*
X185872380Y-113538095D01*
X179982761Y-109386476D02*
X180030380Y-109243619D01*
X180030380Y-109005523D01*
X179982761Y-108910285D01*
X179935142Y-108862666D01*
X179839904Y-108815047D01*
X179744666Y-108815047D01*
X179649428Y-108862666D01*
X179601809Y-108910285D01*
X179554190Y-109005523D01*
X179506571Y-109196000D01*
X179458952Y-109291238D01*
X179411333Y-109338857D01*
X179316095Y-109386476D01*
X179220857Y-109386476D01*
X179125619Y-109338857D01*
X179078000Y-109291238D01*
X179030380Y-109196000D01*
X179030380Y-108957904D01*
X179078000Y-108815047D01*
X180030380Y-108386476D02*
X179030380Y-108386476D01*
X179030380Y-108148380D01*
X179078000Y-108005523D01*
X179173238Y-107910285D01*
X179268476Y-107862666D01*
X179458952Y-107815047D01*
X179601809Y-107815047D01*
X179792285Y-107862666D01*
X179887523Y-107910285D01*
X179982761Y-108005523D01*
X180030380Y-108148380D01*
X180030380Y-108386476D01*
X179744666Y-107434095D02*
X179744666Y-106957904D01*
X180030380Y-107529333D02*
X179030380Y-107196000D01*
X180030380Y-106862666D01*
X179125619Y-106576952D02*
X179078000Y-106529333D01*
X179030380Y-106434095D01*
X179030380Y-106196000D01*
X179078000Y-106100761D01*
X179125619Y-106053142D01*
X179220857Y-106005523D01*
X179316095Y-106005523D01*
X179458952Y-106053142D01*
X180030380Y-106624571D01*
X180030380Y-106005523D01*
X205240000Y-71881904D02*
X205192380Y-71977142D01*
X205192380Y-72120000D01*
X205240000Y-72262857D01*
X205335238Y-72358095D01*
X205430476Y-72405714D01*
X205620952Y-72453333D01*
X205763809Y-72453333D01*
X205954285Y-72405714D01*
X206049523Y-72358095D01*
X206144761Y-72262857D01*
X206192380Y-72120000D01*
X206192380Y-72024761D01*
X206144761Y-71881904D01*
X206097142Y-71834285D01*
X205763809Y-71834285D01*
X205763809Y-72024761D01*
X206192380Y-71405714D02*
X205192380Y-71405714D01*
X206192380Y-70834285D01*
X205192380Y-70834285D01*
X206192380Y-70358095D02*
X205192380Y-70358095D01*
X205192380Y-70120000D01*
X205240000Y-69977142D01*
X205335238Y-69881904D01*
X205430476Y-69834285D01*
X205620952Y-69786666D01*
X205763809Y-69786666D01*
X205954285Y-69834285D01*
X206049523Y-69881904D01*
X206144761Y-69977142D01*
X206192380Y-70120000D01*
X206192380Y-70358095D01*
X183046666Y-72310476D02*
X183046666Y-71834285D01*
X183332380Y-72405714D02*
X182332380Y-72072380D01*
X183332380Y-71739047D01*
X183332380Y-70881904D02*
X183332380Y-71453333D01*
X183332380Y-71167619D02*
X182332380Y-71167619D01*
X182475238Y-71262857D01*
X182570476Y-71358095D01*
X182618095Y-71453333D01*
X182332380Y-69977142D02*
X182332380Y-70453333D01*
X182808571Y-70500952D01*
X182760952Y-70453333D01*
X182713333Y-70358095D01*
X182713333Y-70120000D01*
X182760952Y-70024761D01*
X182808571Y-69977142D01*
X182903809Y-69929523D01*
X183141904Y-69929523D01*
X183237142Y-69977142D01*
X183284761Y-70024761D01*
X183332380Y-70120000D01*
X183332380Y-70358095D01*
X183284761Y-70453333D01*
X183237142Y-70500952D01*
X162726666Y-115014285D02*
X162726666Y-114538095D01*
X163012380Y-115109523D02*
X162012380Y-114776190D01*
X163012380Y-114442857D01*
X163012380Y-113585714D02*
X163012380Y-114157142D01*
X163012380Y-113871428D02*
X162012380Y-113871428D01*
X162155238Y-113966666D01*
X162250476Y-114061904D01*
X162298095Y-114157142D01*
X185586666Y-72310476D02*
X185586666Y-71834285D01*
X185872380Y-72405714D02*
X184872380Y-72072380D01*
X185872380Y-71739047D01*
X185872380Y-70881904D02*
X185872380Y-71453333D01*
X185872380Y-71167619D02*
X184872380Y-71167619D01*
X185015238Y-71262857D01*
X185110476Y-71358095D01*
X185158095Y-71453333D01*
X185205714Y-70024761D02*
X185872380Y-70024761D01*
X184824761Y-70262857D02*
X185539047Y-70500952D01*
X185539047Y-69881904D01*
X175032990Y-91865390D02*
X175509180Y-91865390D01*
X174509180Y-92198723D02*
X175032990Y-91865390D01*
X174509180Y-91532057D01*
X174604419Y-91246342D02*
X174556800Y-91198723D01*
X174509180Y-91103485D01*
X174509180Y-90865390D01*
X174556800Y-90770152D01*
X174604419Y-90722533D01*
X174699657Y-90674914D01*
X174794895Y-90674914D01*
X174937752Y-90722533D01*
X175509180Y-91293961D01*
X175509180Y-90674914D01*
X190079333Y-91924142D02*
X190031714Y-91971761D01*
X189888857Y-92019380D01*
X189793619Y-92019380D01*
X189650761Y-91971761D01*
X189555523Y-91876523D01*
X189507904Y-91781285D01*
X189460285Y-91590809D01*
X189460285Y-91447952D01*
X189507904Y-91257476D01*
X189555523Y-91162238D01*
X189650761Y-91067000D01*
X189793619Y-91019380D01*
X189888857Y-91019380D01*
X190031714Y-91067000D01*
X190079333Y-91114619D01*
X190555523Y-92019380D02*
X190746000Y-92019380D01*
X190841238Y-91971761D01*
X190888857Y-91924142D01*
X190984095Y-91781285D01*
X191031714Y-91590809D01*
X191031714Y-91209857D01*
X190984095Y-91114619D01*
X190936476Y-91067000D01*
X190841238Y-91019380D01*
X190650761Y-91019380D01*
X190555523Y-91067000D01*
X190507904Y-91114619D01*
X190460285Y-91209857D01*
X190460285Y-91447952D01*
X190507904Y-91543190D01*
X190555523Y-91590809D01*
X190650761Y-91638428D01*
X190841238Y-91638428D01*
X190936476Y-91590809D01*
X190984095Y-91543190D01*
X191031714Y-91447952D01*
X171918333Y-87707742D02*
X171870714Y-87755361D01*
X171727857Y-87802980D01*
X171632619Y-87802980D01*
X171489761Y-87755361D01*
X171394523Y-87660123D01*
X171346904Y-87564885D01*
X171299285Y-87374409D01*
X171299285Y-87231552D01*
X171346904Y-87041076D01*
X171394523Y-86945838D01*
X171489761Y-86850600D01*
X171632619Y-86802980D01*
X171727857Y-86802980D01*
X171870714Y-86850600D01*
X171918333Y-86898219D01*
X172775476Y-86802980D02*
X172585000Y-86802980D01*
X172489761Y-86850600D01*
X172442142Y-86898219D01*
X172346904Y-87041076D01*
X172299285Y-87231552D01*
X172299285Y-87612504D01*
X172346904Y-87707742D01*
X172394523Y-87755361D01*
X172489761Y-87802980D01*
X172680238Y-87802980D01*
X172775476Y-87755361D01*
X172823095Y-87707742D01*
X172870714Y-87612504D01*
X172870714Y-87374409D01*
X172823095Y-87279171D01*
X172775476Y-87231552D01*
X172680238Y-87183933D01*
X172489761Y-87183933D01*
X172394523Y-87231552D01*
X172346904Y-87279171D01*
X172299285Y-87374409D01*
X187158333Y-85447142D02*
X187110714Y-85494761D01*
X186967857Y-85542380D01*
X186872619Y-85542380D01*
X186729761Y-85494761D01*
X186634523Y-85399523D01*
X186586904Y-85304285D01*
X186539285Y-85113809D01*
X186539285Y-84970952D01*
X186586904Y-84780476D01*
X186634523Y-84685238D01*
X186729761Y-84590000D01*
X186872619Y-84542380D01*
X186967857Y-84542380D01*
X187110714Y-84590000D01*
X187158333Y-84637619D01*
X187539285Y-84637619D02*
X187586904Y-84590000D01*
X187682142Y-84542380D01*
X187920238Y-84542380D01*
X188015476Y-84590000D01*
X188063095Y-84637619D01*
X188110714Y-84732857D01*
X188110714Y-84828095D01*
X188063095Y-84970952D01*
X187491666Y-85542380D01*
X188110714Y-85542380D01*
X192905142Y-89257142D02*
X192857523Y-89304761D01*
X192714666Y-89352380D01*
X192619428Y-89352380D01*
X192476571Y-89304761D01*
X192381333Y-89209523D01*
X192333714Y-89114285D01*
X192286095Y-88923809D01*
X192286095Y-88780952D01*
X192333714Y-88590476D01*
X192381333Y-88495238D01*
X192476571Y-88400000D01*
X192619428Y-88352380D01*
X192714666Y-88352380D01*
X192857523Y-88400000D01*
X192905142Y-88447619D01*
X193857523Y-89352380D02*
X193286095Y-89352380D01*
X193571809Y-89352380D02*
X193571809Y-88352380D01*
X193476571Y-88495238D01*
X193381333Y-88590476D01*
X193286095Y-88638095D01*
X194714666Y-88352380D02*
X194524190Y-88352380D01*
X194428952Y-88400000D01*
X194381333Y-88447619D01*
X194286095Y-88590476D01*
X194238476Y-88780952D01*
X194238476Y-89161904D01*
X194286095Y-89257142D01*
X194333714Y-89304761D01*
X194428952Y-89352380D01*
X194619428Y-89352380D01*
X194714666Y-89304761D01*
X194762285Y-89257142D01*
X194809904Y-89161904D01*
X194809904Y-88923809D01*
X194762285Y-88828571D01*
X194714666Y-88780952D01*
X194619428Y-88733333D01*
X194428952Y-88733333D01*
X194333714Y-88780952D01*
X194286095Y-88828571D01*
X194238476Y-88923809D01*
X177474666Y-103052571D02*
X177141333Y-103052571D01*
X177141333Y-103576380D02*
X177141333Y-102576380D01*
X177617523Y-102576380D01*
X178331809Y-103052571D02*
X178474666Y-103100190D01*
X178522285Y-103147809D01*
X178569904Y-103243047D01*
X178569904Y-103385904D01*
X178522285Y-103481142D01*
X178474666Y-103528761D01*
X178379428Y-103576380D01*
X177998476Y-103576380D01*
X177998476Y-102576380D01*
X178331809Y-102576380D01*
X178427047Y-102624000D01*
X178474666Y-102671619D01*
X178522285Y-102766857D01*
X178522285Y-102862095D01*
X178474666Y-102957333D01*
X178427047Y-103004952D01*
X178331809Y-103052571D01*
X177998476Y-103052571D01*
X178950857Y-102671619D02*
X178998476Y-102624000D01*
X179093714Y-102576380D01*
X179331809Y-102576380D01*
X179427047Y-102624000D01*
X179474666Y-102671619D01*
X179522285Y-102766857D01*
X179522285Y-102862095D01*
X179474666Y-103004952D01*
X178903238Y-103576380D01*
X179522285Y-103576380D01*
X181157571Y-84018333D02*
X181157571Y-84351666D01*
X181681380Y-84351666D02*
X180681380Y-84351666D01*
X180681380Y-83875476D01*
X181157571Y-83161190D02*
X181205190Y-83018333D01*
X181252809Y-82970714D01*
X181348047Y-82923095D01*
X181490904Y-82923095D01*
X181586142Y-82970714D01*
X181633761Y-83018333D01*
X181681380Y-83113571D01*
X181681380Y-83494523D01*
X180681380Y-83494523D01*
X180681380Y-83161190D01*
X180729000Y-83065952D01*
X180776619Y-83018333D01*
X180871857Y-82970714D01*
X180967095Y-82970714D01*
X181062333Y-83018333D01*
X181109952Y-83065952D01*
X181157571Y-83161190D01*
X181157571Y-83494523D01*
X181681380Y-81970714D02*
X181681380Y-82542142D01*
X181681380Y-82256428D02*
X180681380Y-82256428D01*
X180824238Y-82351666D01*
X180919476Y-82446904D01*
X180967095Y-82542142D01*
X183983333Y-85701142D02*
X183935714Y-85748761D01*
X183792857Y-85796380D01*
X183697619Y-85796380D01*
X183554761Y-85748761D01*
X183459523Y-85653523D01*
X183411904Y-85558285D01*
X183364285Y-85367809D01*
X183364285Y-85224952D01*
X183411904Y-85034476D01*
X183459523Y-84939238D01*
X183554761Y-84844000D01*
X183697619Y-84796380D01*
X183792857Y-84796380D01*
X183935714Y-84844000D01*
X183983333Y-84891619D01*
X184935714Y-85796380D02*
X184364285Y-85796380D01*
X184650000Y-85796380D02*
X184650000Y-84796380D01*
X184554761Y-84939238D01*
X184459523Y-85034476D01*
X184364285Y-85082095D01*
X190277761Y-89320619D02*
X190182523Y-89273000D01*
X190087285Y-89177761D01*
X189944428Y-89034904D01*
X189849190Y-88987285D01*
X189753952Y-88987285D01*
X189801571Y-89225380D02*
X189706333Y-89177761D01*
X189611095Y-89082523D01*
X189563476Y-88892047D01*
X189563476Y-88558714D01*
X189611095Y-88368238D01*
X189706333Y-88273000D01*
X189801571Y-88225380D01*
X189992047Y-88225380D01*
X190087285Y-88273000D01*
X190182523Y-88368238D01*
X190230142Y-88558714D01*
X190230142Y-88892047D01*
X190182523Y-89082523D01*
X190087285Y-89177761D01*
X189992047Y-89225380D01*
X189801571Y-89225380D01*
X191182523Y-89225380D02*
X190611095Y-89225380D01*
X190896809Y-89225380D02*
X190896809Y-88225380D01*
X190801571Y-88368238D01*
X190706333Y-88463476D01*
X190611095Y-88511095D01*
X177785733Y-95448380D02*
X177452400Y-94972190D01*
X177214304Y-95448380D02*
X177214304Y-94448380D01*
X177595257Y-94448380D01*
X177690495Y-94496000D01*
X177738114Y-94543619D01*
X177785733Y-94638857D01*
X177785733Y-94781714D01*
X177738114Y-94876952D01*
X177690495Y-94924571D01*
X177595257Y-94972190D01*
X177214304Y-94972190D01*
X178642876Y-94448380D02*
X178452400Y-94448380D01*
X178357161Y-94496000D01*
X178309542Y-94543619D01*
X178214304Y-94686476D01*
X178166685Y-94876952D01*
X178166685Y-95257904D01*
X178214304Y-95353142D01*
X178261923Y-95400761D01*
X178357161Y-95448380D01*
X178547638Y-95448380D01*
X178642876Y-95400761D01*
X178690495Y-95353142D01*
X178738114Y-95257904D01*
X178738114Y-95019809D01*
X178690495Y-94924571D01*
X178642876Y-94876952D01*
X178547638Y-94829333D01*
X178357161Y-94829333D01*
X178261923Y-94876952D01*
X178214304Y-94924571D01*
X178166685Y-95019809D01*
X200906142Y-93575142D02*
X200858523Y-93622761D01*
X200715666Y-93670380D01*
X200620428Y-93670380D01*
X200477571Y-93622761D01*
X200382333Y-93527523D01*
X200334714Y-93432285D01*
X200287095Y-93241809D01*
X200287095Y-93098952D01*
X200334714Y-92908476D01*
X200382333Y-92813238D01*
X200477571Y-92718000D01*
X200620428Y-92670380D01*
X200715666Y-92670380D01*
X200858523Y-92718000D01*
X200906142Y-92765619D01*
X201858523Y-93670380D02*
X201287095Y-93670380D01*
X201572809Y-93670380D02*
X201572809Y-92670380D01*
X201477571Y-92813238D01*
X201382333Y-92908476D01*
X201287095Y-92956095D01*
X202191857Y-92670380D02*
X202858523Y-92670380D01*
X202429952Y-93670380D01*
X168108333Y-103379542D02*
X168060714Y-103427161D01*
X167917857Y-103474780D01*
X167822619Y-103474780D01*
X167679761Y-103427161D01*
X167584523Y-103331923D01*
X167536904Y-103236685D01*
X167489285Y-103046209D01*
X167489285Y-102903352D01*
X167536904Y-102712876D01*
X167584523Y-102617638D01*
X167679761Y-102522400D01*
X167822619Y-102474780D01*
X167917857Y-102474780D01*
X168060714Y-102522400D01*
X168108333Y-102570019D01*
X168965476Y-102808114D02*
X168965476Y-103474780D01*
X168727380Y-102427161D02*
X168489285Y-103141447D01*
X169108333Y-103141447D01*
X174331333Y-75636380D02*
X173998000Y-75160190D01*
X173759904Y-75636380D02*
X173759904Y-74636380D01*
X174140857Y-74636380D01*
X174236095Y-74684000D01*
X174283714Y-74731619D01*
X174331333Y-74826857D01*
X174331333Y-74969714D01*
X174283714Y-75064952D01*
X174236095Y-75112571D01*
X174140857Y-75160190D01*
X173759904Y-75160190D01*
X174664666Y-74636380D02*
X175331333Y-74636380D01*
X174902761Y-75636380D01*
X191182666Y-78668571D02*
X190849333Y-78668571D01*
X190849333Y-79192380D02*
X190849333Y-78192380D01*
X191325523Y-78192380D01*
X192230285Y-79192380D02*
X191658857Y-79192380D01*
X191944571Y-79192380D02*
X191944571Y-78192380D01*
X191849333Y-78335238D01*
X191754095Y-78430476D01*
X191658857Y-78478095D01*
X194429142Y-79446380D02*
X194095809Y-78970190D01*
X193857714Y-79446380D02*
X193857714Y-78446380D01*
X194238666Y-78446380D01*
X194333904Y-78494000D01*
X194381523Y-78541619D01*
X194429142Y-78636857D01*
X194429142Y-78779714D01*
X194381523Y-78874952D01*
X194333904Y-78922571D01*
X194238666Y-78970190D01*
X193857714Y-78970190D01*
X195381523Y-79446380D02*
X194810095Y-79446380D01*
X195095809Y-79446380D02*
X195095809Y-78446380D01*
X195000571Y-78589238D01*
X194905333Y-78684476D01*
X194810095Y-78732095D01*
X196238666Y-78779714D02*
X196238666Y-79446380D01*
X196000571Y-78398761D02*
X195762476Y-79113047D01*
X196381523Y-79113047D01*
X187285333Y-106624380D02*
X186952000Y-106148190D01*
X186713904Y-106624380D02*
X186713904Y-105624380D01*
X187094857Y-105624380D01*
X187190095Y-105672000D01*
X187237714Y-105719619D01*
X187285333Y-105814857D01*
X187285333Y-105957714D01*
X187237714Y-106052952D01*
X187190095Y-106100571D01*
X187094857Y-106148190D01*
X186713904Y-106148190D01*
X187761523Y-106624380D02*
X187952000Y-106624380D01*
X188047238Y-106576761D01*
X188094857Y-106529142D01*
X188190095Y-106386285D01*
X188237714Y-106195809D01*
X188237714Y-105814857D01*
X188190095Y-105719619D01*
X188142476Y-105672000D01*
X188047238Y-105624380D01*
X187856761Y-105624380D01*
X187761523Y-105672000D01*
X187713904Y-105719619D01*
X187666285Y-105814857D01*
X187666285Y-106052952D01*
X187713904Y-106148190D01*
X187761523Y-106195809D01*
X187856761Y-106243428D01*
X188047238Y-106243428D01*
X188142476Y-106195809D01*
X188190095Y-106148190D01*
X188237714Y-106052952D01*
X190873142Y-100147380D02*
X190539809Y-99671190D01*
X190301714Y-100147380D02*
X190301714Y-99147380D01*
X190682666Y-99147380D01*
X190777904Y-99195000D01*
X190825523Y-99242619D01*
X190873142Y-99337857D01*
X190873142Y-99480714D01*
X190825523Y-99575952D01*
X190777904Y-99623571D01*
X190682666Y-99671190D01*
X190301714Y-99671190D01*
X191825523Y-100147380D02*
X191254095Y-100147380D01*
X191539809Y-100147380D02*
X191539809Y-99147380D01*
X191444571Y-99290238D01*
X191349333Y-99385476D01*
X191254095Y-99433095D01*
X192777904Y-100147380D02*
X192206476Y-100147380D01*
X192492190Y-100147380D02*
X192492190Y-99147380D01*
X192396952Y-99290238D01*
X192301714Y-99385476D01*
X192206476Y-99433095D01*
X177125333Y-75636380D02*
X176792000Y-75160190D01*
X176553904Y-75636380D02*
X176553904Y-74636380D01*
X176934857Y-74636380D01*
X177030095Y-74684000D01*
X177077714Y-74731619D01*
X177125333Y-74826857D01*
X177125333Y-74969714D01*
X177077714Y-75064952D01*
X177030095Y-75112571D01*
X176934857Y-75160190D01*
X176553904Y-75160190D01*
X177458666Y-74636380D02*
X178077714Y-74636380D01*
X177744380Y-75017333D01*
X177887238Y-75017333D01*
X177982476Y-75064952D01*
X178030095Y-75112571D01*
X178077714Y-75207809D01*
X178077714Y-75445904D01*
X178030095Y-75541142D01*
X177982476Y-75588761D01*
X177887238Y-75636380D01*
X177601523Y-75636380D01*
X177506285Y-75588761D01*
X177458666Y-75541142D01*
X170973809Y-97385190D02*
X170973809Y-97861380D01*
X170640476Y-96861380D02*
X170973809Y-97385190D01*
X171307142Y-96861380D01*
X172164285Y-97861380D02*
X171592857Y-97861380D01*
X171878571Y-97861380D02*
X171878571Y-96861380D01*
X171783333Y-97004238D01*
X171688095Y-97099476D01*
X171592857Y-97147095D01*
X192143142Y-103481142D02*
X192095523Y-103528761D01*
X191952666Y-103576380D01*
X191857428Y-103576380D01*
X191714571Y-103528761D01*
X191619333Y-103433523D01*
X191571714Y-103338285D01*
X191524095Y-103147809D01*
X191524095Y-103004952D01*
X191571714Y-102814476D01*
X191619333Y-102719238D01*
X191714571Y-102624000D01*
X191857428Y-102576380D01*
X191952666Y-102576380D01*
X192095523Y-102624000D01*
X192143142Y-102671619D01*
X193095523Y-103576380D02*
X192524095Y-103576380D01*
X192809809Y-103576380D02*
X192809809Y-102576380D01*
X192714571Y-102719238D01*
X192619333Y-102814476D01*
X192524095Y-102862095D01*
X193476476Y-102671619D02*
X193524095Y-102624000D01*
X193619333Y-102576380D01*
X193857428Y-102576380D01*
X193952666Y-102624000D01*
X194000285Y-102671619D01*
X194047904Y-102766857D01*
X194047904Y-102862095D01*
X194000285Y-103004952D01*
X193428857Y-103576380D01*
X194047904Y-103576380D01*
X183134095Y-96734380D02*
X183134095Y-97543904D01*
X183181714Y-97639142D01*
X183229333Y-97686761D01*
X183324571Y-97734380D01*
X183515047Y-97734380D01*
X183610285Y-97686761D01*
X183657904Y-97639142D01*
X183705523Y-97543904D01*
X183705523Y-96734380D01*
X184134095Y-96829619D02*
X184181714Y-96782000D01*
X184276952Y-96734380D01*
X184515047Y-96734380D01*
X184610285Y-96782000D01*
X184657904Y-96829619D01*
X184705523Y-96924857D01*
X184705523Y-97020095D01*
X184657904Y-97162952D01*
X184086476Y-97734380D01*
X184705523Y-97734380D01*
X177665142Y-101830142D02*
X177617523Y-101877761D01*
X177474666Y-101925380D01*
X177379428Y-101925380D01*
X177236571Y-101877761D01*
X177141333Y-101782523D01*
X177093714Y-101687285D01*
X177046095Y-101496809D01*
X177046095Y-101353952D01*
X177093714Y-101163476D01*
X177141333Y-101068238D01*
X177236571Y-100973000D01*
X177379428Y-100925380D01*
X177474666Y-100925380D01*
X177617523Y-100973000D01*
X177665142Y-101020619D01*
X178617523Y-101925380D02*
X178046095Y-101925380D01*
X178331809Y-101925380D02*
X178331809Y-100925380D01*
X178236571Y-101068238D01*
X178141333Y-101163476D01*
X178046095Y-101211095D01*
X178950857Y-100925380D02*
X179569904Y-100925380D01*
X179236571Y-101306333D01*
X179379428Y-101306333D01*
X179474666Y-101353952D01*
X179522285Y-101401571D01*
X179569904Y-101496809D01*
X179569904Y-101734904D01*
X179522285Y-101830142D01*
X179474666Y-101877761D01*
X179379428Y-101925380D01*
X179093714Y-101925380D01*
X178998476Y-101877761D01*
X178950857Y-101830142D01*
X168311533Y-92330542D02*
X168263914Y-92378161D01*
X168121057Y-92425780D01*
X168025819Y-92425780D01*
X167882961Y-92378161D01*
X167787723Y-92282923D01*
X167740104Y-92187685D01*
X167692485Y-91997209D01*
X167692485Y-91854352D01*
X167740104Y-91663876D01*
X167787723Y-91568638D01*
X167882961Y-91473400D01*
X168025819Y-91425780D01*
X168121057Y-91425780D01*
X168263914Y-91473400D01*
X168311533Y-91521019D01*
X168644866Y-91425780D02*
X169263914Y-91425780D01*
X168930580Y-91806733D01*
X169073438Y-91806733D01*
X169168676Y-91854352D01*
X169216295Y-91901971D01*
X169263914Y-91997209D01*
X169263914Y-92235304D01*
X169216295Y-92330542D01*
X169168676Y-92378161D01*
X169073438Y-92425780D01*
X168787723Y-92425780D01*
X168692485Y-92378161D01*
X168644866Y-92330542D01*
X175829933Y-87707742D02*
X175782314Y-87755361D01*
X175639457Y-87802980D01*
X175544219Y-87802980D01*
X175401361Y-87755361D01*
X175306123Y-87660123D01*
X175258504Y-87564885D01*
X175210885Y-87374409D01*
X175210885Y-87231552D01*
X175258504Y-87041076D01*
X175306123Y-86945838D01*
X175401361Y-86850600D01*
X175544219Y-86802980D01*
X175639457Y-86802980D01*
X175782314Y-86850600D01*
X175829933Y-86898219D01*
X176734695Y-86802980D02*
X176258504Y-86802980D01*
X176210885Y-87279171D01*
X176258504Y-87231552D01*
X176353742Y-87183933D01*
X176591838Y-87183933D01*
X176687076Y-87231552D01*
X176734695Y-87279171D01*
X176782314Y-87374409D01*
X176782314Y-87612504D01*
X176734695Y-87707742D01*
X176687076Y-87755361D01*
X176591838Y-87802980D01*
X176353742Y-87802980D01*
X176258504Y-87755361D01*
X176210885Y-87707742D01*
X168108333Y-74366380D02*
X167775000Y-73890190D01*
X167536904Y-74366380D02*
X167536904Y-73366380D01*
X167917857Y-73366380D01*
X168013095Y-73414000D01*
X168060714Y-73461619D01*
X168108333Y-73556857D01*
X168108333Y-73699714D01*
X168060714Y-73794952D01*
X168013095Y-73842571D01*
X167917857Y-73890190D01*
X167536904Y-73890190D01*
X168679761Y-73794952D02*
X168584523Y-73747333D01*
X168536904Y-73699714D01*
X168489285Y-73604476D01*
X168489285Y-73556857D01*
X168536904Y-73461619D01*
X168584523Y-73414000D01*
X168679761Y-73366380D01*
X168870238Y-73366380D01*
X168965476Y-73414000D01*
X169013095Y-73461619D01*
X169060714Y-73556857D01*
X169060714Y-73604476D01*
X169013095Y-73699714D01*
X168965476Y-73747333D01*
X168870238Y-73794952D01*
X168679761Y-73794952D01*
X168584523Y-73842571D01*
X168536904Y-73890190D01*
X168489285Y-73985428D01*
X168489285Y-74175904D01*
X168536904Y-74271142D01*
X168584523Y-74318761D01*
X168679761Y-74366380D01*
X168870238Y-74366380D01*
X168965476Y-74318761D01*
X169013095Y-74271142D01*
X169060714Y-74175904D01*
X169060714Y-73985428D01*
X169013095Y-73890190D01*
X168965476Y-73842571D01*
X168870238Y-73794952D01*
X199890142Y-98623380D02*
X199556809Y-98147190D01*
X199318714Y-98623380D02*
X199318714Y-97623380D01*
X199699666Y-97623380D01*
X199794904Y-97671000D01*
X199842523Y-97718619D01*
X199890142Y-97813857D01*
X199890142Y-97956714D01*
X199842523Y-98051952D01*
X199794904Y-98099571D01*
X199699666Y-98147190D01*
X199318714Y-98147190D01*
X200842523Y-98623380D02*
X200271095Y-98623380D01*
X200556809Y-98623380D02*
X200556809Y-97623380D01*
X200461571Y-97766238D01*
X200366333Y-97861476D01*
X200271095Y-97909095D01*
X201223476Y-97718619D02*
X201271095Y-97671000D01*
X201366333Y-97623380D01*
X201604428Y-97623380D01*
X201699666Y-97671000D01*
X201747285Y-97718619D01*
X201794904Y-97813857D01*
X201794904Y-97909095D01*
X201747285Y-98051952D01*
X201175857Y-98623380D01*
X201794904Y-98623380D01*
X174397942Y-102750857D02*
X174445561Y-102798476D01*
X174493180Y-102941333D01*
X174493180Y-103036571D01*
X174445561Y-103179428D01*
X174350323Y-103274666D01*
X174255085Y-103322285D01*
X174064609Y-103369904D01*
X173921752Y-103369904D01*
X173731276Y-103322285D01*
X173636038Y-103274666D01*
X173540800Y-103179428D01*
X173493180Y-103036571D01*
X173493180Y-102941333D01*
X173540800Y-102798476D01*
X173588419Y-102750857D01*
X174493180Y-101798476D02*
X174493180Y-102369904D01*
X174493180Y-102084190D02*
X173493180Y-102084190D01*
X173636038Y-102179428D01*
X173731276Y-102274666D01*
X173778895Y-102369904D01*
X173826514Y-100941333D02*
X174493180Y-100941333D01*
X173445561Y-101179428D02*
X174159847Y-101417523D01*
X174159847Y-100798476D01*
X185031142Y-103354142D02*
X184983523Y-103401761D01*
X184840666Y-103449380D01*
X184745428Y-103449380D01*
X184602571Y-103401761D01*
X184507333Y-103306523D01*
X184459714Y-103211285D01*
X184412095Y-103020809D01*
X184412095Y-102877952D01*
X184459714Y-102687476D01*
X184507333Y-102592238D01*
X184602571Y-102497000D01*
X184745428Y-102449380D01*
X184840666Y-102449380D01*
X184983523Y-102497000D01*
X185031142Y-102544619D01*
X185983523Y-103449380D02*
X185412095Y-103449380D01*
X185697809Y-103449380D02*
X185697809Y-102449380D01*
X185602571Y-102592238D01*
X185507333Y-102687476D01*
X185412095Y-102735095D01*
X186602571Y-102449380D02*
X186697809Y-102449380D01*
X186793047Y-102497000D01*
X186840666Y-102544619D01*
X186888285Y-102639857D01*
X186935904Y-102830333D01*
X186935904Y-103068428D01*
X186888285Y-103258904D01*
X186840666Y-103354142D01*
X186793047Y-103401761D01*
X186697809Y-103449380D01*
X186602571Y-103449380D01*
X186507333Y-103401761D01*
X186459714Y-103354142D01*
X186412095Y-103258904D01*
X186364476Y-103068428D01*
X186364476Y-102830333D01*
X186412095Y-102639857D01*
X186459714Y-102544619D01*
X186507333Y-102497000D01*
X186602571Y-102449380D01*
X177785733Y-96896180D02*
X177452400Y-96419990D01*
X177214304Y-96896180D02*
X177214304Y-95896180D01*
X177595257Y-95896180D01*
X177690495Y-95943800D01*
X177738114Y-95991419D01*
X177785733Y-96086657D01*
X177785733Y-96229514D01*
X177738114Y-96324752D01*
X177690495Y-96372371D01*
X177595257Y-96419990D01*
X177214304Y-96419990D01*
X178690495Y-95896180D02*
X178214304Y-95896180D01*
X178166685Y-96372371D01*
X178214304Y-96324752D01*
X178309542Y-96277133D01*
X178547638Y-96277133D01*
X178642876Y-96324752D01*
X178690495Y-96372371D01*
X178738114Y-96467609D01*
X178738114Y-96705704D01*
X178690495Y-96800942D01*
X178642876Y-96848561D01*
X178547638Y-96896180D01*
X178309542Y-96896180D01*
X178214304Y-96848561D01*
X178166685Y-96800942D01*
X178776333Y-89257142D02*
X178728714Y-89304761D01*
X178585857Y-89352380D01*
X178490619Y-89352380D01*
X178347761Y-89304761D01*
X178252523Y-89209523D01*
X178204904Y-89114285D01*
X178157285Y-88923809D01*
X178157285Y-88780952D01*
X178204904Y-88590476D01*
X178252523Y-88495238D01*
X178347761Y-88400000D01*
X178490619Y-88352380D01*
X178585857Y-88352380D01*
X178728714Y-88400000D01*
X178776333Y-88447619D01*
X179347761Y-88780952D02*
X179252523Y-88733333D01*
X179204904Y-88685714D01*
X179157285Y-88590476D01*
X179157285Y-88542857D01*
X179204904Y-88447619D01*
X179252523Y-88400000D01*
X179347761Y-88352380D01*
X179538238Y-88352380D01*
X179633476Y-88400000D01*
X179681095Y-88447619D01*
X179728714Y-88542857D01*
X179728714Y-88590476D01*
X179681095Y-88685714D01*
X179633476Y-88733333D01*
X179538238Y-88780952D01*
X179347761Y-88780952D01*
X179252523Y-88828571D01*
X179204904Y-88876190D01*
X179157285Y-88971428D01*
X179157285Y-89161904D01*
X179204904Y-89257142D01*
X179252523Y-89304761D01*
X179347761Y-89352380D01*
X179538238Y-89352380D01*
X179633476Y-89304761D01*
X179681095Y-89257142D01*
X179728714Y-89161904D01*
X179728714Y-88971428D01*
X179681095Y-88876190D01*
X179633476Y-88828571D01*
X179538238Y-88780952D01*
X182872142Y-90400142D02*
X182824523Y-90447761D01*
X182681666Y-90495380D01*
X182586428Y-90495380D01*
X182443571Y-90447761D01*
X182348333Y-90352523D01*
X182300714Y-90257285D01*
X182253095Y-90066809D01*
X182253095Y-89923952D01*
X182300714Y-89733476D01*
X182348333Y-89638238D01*
X182443571Y-89543000D01*
X182586428Y-89495380D01*
X182681666Y-89495380D01*
X182824523Y-89543000D01*
X182872142Y-89590619D01*
X183824523Y-90495380D02*
X183253095Y-90495380D01*
X183538809Y-90495380D02*
X183538809Y-89495380D01*
X183443571Y-89638238D01*
X183348333Y-89733476D01*
X183253095Y-89781095D01*
X184776904Y-90495380D02*
X184205476Y-90495380D01*
X184491190Y-90495380D02*
X184491190Y-89495380D01*
X184395952Y-89638238D01*
X184300714Y-89733476D01*
X184205476Y-89781095D01*
X177871380Y-80240095D02*
X176871380Y-80240095D01*
X176871380Y-80002000D01*
X176919000Y-79859142D01*
X177014238Y-79763904D01*
X177109476Y-79716285D01*
X177299952Y-79668666D01*
X177442809Y-79668666D01*
X177633285Y-79716285D01*
X177728523Y-79763904D01*
X177823761Y-79859142D01*
X177871380Y-80002000D01*
X177871380Y-80240095D01*
X176966619Y-79287714D02*
X176919000Y-79240095D01*
X176871380Y-79144857D01*
X176871380Y-78906761D01*
X176919000Y-78811523D01*
X176966619Y-78763904D01*
X177061857Y-78716285D01*
X177157095Y-78716285D01*
X177299952Y-78763904D01*
X177871380Y-79335333D01*
X177871380Y-78716285D01*
X187317142Y-108783380D02*
X186983809Y-108307190D01*
X186745714Y-108783380D02*
X186745714Y-107783380D01*
X187126666Y-107783380D01*
X187221904Y-107831000D01*
X187269523Y-107878619D01*
X187317142Y-107973857D01*
X187317142Y-108116714D01*
X187269523Y-108211952D01*
X187221904Y-108259571D01*
X187126666Y-108307190D01*
X186745714Y-108307190D01*
X188269523Y-108783380D02*
X187698095Y-108783380D01*
X187983809Y-108783380D02*
X187983809Y-107783380D01*
X187888571Y-107926238D01*
X187793333Y-108021476D01*
X187698095Y-108069095D01*
X188888571Y-107783380D02*
X188983809Y-107783380D01*
X189079047Y-107831000D01*
X189126666Y-107878619D01*
X189174285Y-107973857D01*
X189221904Y-108164333D01*
X189221904Y-108402428D01*
X189174285Y-108592904D01*
X189126666Y-108688142D01*
X189079047Y-108735761D01*
X188983809Y-108783380D01*
X188888571Y-108783380D01*
X188793333Y-108735761D01*
X188745714Y-108688142D01*
X188698095Y-108592904D01*
X188650476Y-108402428D01*
X188650476Y-108164333D01*
X188698095Y-107973857D01*
X188745714Y-107878619D01*
X188793333Y-107831000D01*
X188888571Y-107783380D01*
X174966333Y-107164142D02*
X174918714Y-107211761D01*
X174775857Y-107259380D01*
X174680619Y-107259380D01*
X174537761Y-107211761D01*
X174442523Y-107116523D01*
X174394904Y-107021285D01*
X174347285Y-106830809D01*
X174347285Y-106687952D01*
X174394904Y-106497476D01*
X174442523Y-106402238D01*
X174537761Y-106307000D01*
X174680619Y-106259380D01*
X174775857Y-106259380D01*
X174918714Y-106307000D01*
X174966333Y-106354619D01*
X175299666Y-106259380D02*
X175966333Y-106259380D01*
X175537761Y-107259380D01*
X185420095Y-77811380D02*
X185420095Y-78620904D01*
X185467714Y-78716142D01*
X185515333Y-78763761D01*
X185610571Y-78811380D01*
X185801047Y-78811380D01*
X185896285Y-78763761D01*
X185943904Y-78716142D01*
X185991523Y-78620904D01*
X185991523Y-77811380D01*
X186991523Y-78811380D02*
X186420095Y-78811380D01*
X186705809Y-78811380D02*
X186705809Y-77811380D01*
X186610571Y-77954238D01*
X186515333Y-78049476D01*
X186420095Y-78097095D01*
X170013333Y-81097380D02*
X169680000Y-80621190D01*
X169441904Y-81097380D02*
X169441904Y-80097380D01*
X169822857Y-80097380D01*
X169918095Y-80145000D01*
X169965714Y-80192619D01*
X170013333Y-80287857D01*
X170013333Y-80430714D01*
X169965714Y-80525952D01*
X169918095Y-80573571D01*
X169822857Y-80621190D01*
X169441904Y-80621190D01*
X170870476Y-80430714D02*
X170870476Y-81097380D01*
X170632380Y-80049761D02*
X170394285Y-80764047D01*
X171013333Y-80764047D01*
X195445142Y-103576380D02*
X195111809Y-103100190D01*
X194873714Y-103576380D02*
X194873714Y-102576380D01*
X195254666Y-102576380D01*
X195349904Y-102624000D01*
X195397523Y-102671619D01*
X195445142Y-102766857D01*
X195445142Y-102909714D01*
X195397523Y-103004952D01*
X195349904Y-103052571D01*
X195254666Y-103100190D01*
X194873714Y-103100190D01*
X196397523Y-103576380D02*
X195826095Y-103576380D01*
X196111809Y-103576380D02*
X196111809Y-102576380D01*
X196016571Y-102719238D01*
X195921333Y-102814476D01*
X195826095Y-102862095D01*
X196730857Y-102576380D02*
X197349904Y-102576380D01*
X197016571Y-102957333D01*
X197159428Y-102957333D01*
X197254666Y-103004952D01*
X197302285Y-103052571D01*
X197349904Y-103147809D01*
X197349904Y-103385904D01*
X197302285Y-103481142D01*
X197254666Y-103528761D01*
X197159428Y-103576380D01*
X196873714Y-103576380D01*
X196778476Y-103528761D01*
X196730857Y-103481142D01*
X195961095Y-93305380D02*
X195961095Y-94114904D01*
X196008714Y-94210142D01*
X196056333Y-94257761D01*
X196151571Y-94305380D01*
X196342047Y-94305380D01*
X196437285Y-94257761D01*
X196484904Y-94210142D01*
X196532523Y-94114904D01*
X196532523Y-93305380D01*
X196913476Y-93305380D02*
X197532523Y-93305380D01*
X197199190Y-93686333D01*
X197342047Y-93686333D01*
X197437285Y-93733952D01*
X197484904Y-93781571D01*
X197532523Y-93876809D01*
X197532523Y-94114904D01*
X197484904Y-94210142D01*
X197437285Y-94257761D01*
X197342047Y-94305380D01*
X197056333Y-94305380D01*
X196961095Y-94257761D01*
X196913476Y-94210142D01*
X166433666Y-106068761D02*
X166576523Y-106116380D01*
X166814619Y-106116380D01*
X166909857Y-106068761D01*
X166957476Y-106021142D01*
X167005095Y-105925904D01*
X167005095Y-105830666D01*
X166957476Y-105735428D01*
X166909857Y-105687809D01*
X166814619Y-105640190D01*
X166624142Y-105592571D01*
X166528904Y-105544952D01*
X166481285Y-105497333D01*
X166433666Y-105402095D01*
X166433666Y-105306857D01*
X166481285Y-105211619D01*
X166528904Y-105164000D01*
X166624142Y-105116380D01*
X166862238Y-105116380D01*
X167005095Y-105164000D01*
X167338428Y-105116380D02*
X167576523Y-106116380D01*
X167767000Y-105402095D01*
X167957476Y-106116380D01*
X168195571Y-105116380D01*
X169100333Y-106116380D02*
X168528904Y-106116380D01*
X168814619Y-106116380D02*
X168814619Y-105116380D01*
X168719380Y-105259238D01*
X168624142Y-105354476D01*
X168528904Y-105402095D01*
D12*
X172306000Y-90540000D02*
X172306000Y-92340000D01*
X174456000Y-90490000D02*
X175556000Y-90490000D01*
X174456000Y-92390000D02*
X175556000Y-92390000D01*
X190981000Y-93718748D02*
X190981000Y-94241252D01*
X189511000Y-93718748D02*
X189511000Y-94241252D01*
X172346252Y-89787400D02*
X171823748Y-89787400D01*
X172346252Y-88317400D02*
X171823748Y-88317400D01*
X188475252Y-82577000D02*
X187952748Y-82577000D01*
X188475252Y-84047000D02*
X187952748Y-84047000D01*
X196588748Y-89254000D02*
X197111252Y-89254000D01*
X196588748Y-87784000D02*
X197111252Y-87784000D01*
X175312000Y-103385252D02*
X175312000Y-102862748D01*
X176732000Y-103385252D02*
X176732000Y-102862748D01*
X180519000Y-79875748D02*
X180519000Y-80398252D01*
X181939000Y-79875748D02*
X181939000Y-80398252D01*
X183888748Y-84047000D02*
X184411252Y-84047000D01*
X183888748Y-82577000D02*
X184411252Y-82577000D01*
X191315000Y-87883000D02*
X189565000Y-87883000D01*
X190715000Y-84583000D02*
X189065000Y-84583000D01*
X188915000Y-87249000D02*
X188915000Y-86833000D01*
X188915000Y-85433000D02*
X188915000Y-85633000D01*
X175286936Y-92991000D02*
X175741064Y-92991000D01*
X175286936Y-94461000D02*
X175741064Y-94461000D01*
X201287748Y-95477000D02*
X201810252Y-95477000D01*
X201287748Y-94007000D02*
X201810252Y-94007000D01*
X167740000Y-99433748D02*
X167740000Y-99956252D01*
X169210000Y-99433748D02*
X169210000Y-99956252D01*
X173455000Y-74141064D02*
X173455000Y-73686936D01*
X171985000Y-74141064D02*
X171985000Y-73686936D01*
X156368000Y-78585000D02*
X167301000Y-78585000D01*
X167301000Y-87785000D02*
X165401000Y-87785000D01*
X167301000Y-85085000D02*
X167301000Y-87785000D01*
X166451000Y-78385000D02*
X167501000Y-78385000D01*
X167501000Y-79435000D02*
X167501000Y-78385000D01*
X167301000Y-78585000D02*
X167301000Y-81185000D01*
X161401000Y-87785000D02*
X156368000Y-87785000D01*
X190606000Y-81185936D02*
X190606000Y-82390064D01*
X192426000Y-81185936D02*
X192426000Y-82390064D01*
X195299064Y-81380000D02*
X194844936Y-81380000D01*
X195299064Y-79910000D02*
X194844936Y-79910000D01*
X185012064Y-106907000D02*
X184557936Y-106907000D01*
X185012064Y-105437000D02*
X184557936Y-105437000D01*
X206487000Y-86840000D02*
X206487000Y-86070000D01*
X205927000Y-86840000D02*
X205927000Y-86070000D01*
X200627000Y-86070000D02*
X206487000Y-86070000D01*
X206727000Y-91970000D02*
X206727000Y-91470000D01*
X200627000Y-91730000D02*
X206487000Y-91730000D01*
X206487000Y-89380000D02*
X206487000Y-88420000D01*
X205927000Y-89380000D02*
X205927000Y-88420000D01*
X206487000Y-91730000D02*
X206487000Y-90960000D01*
X200627000Y-91730000D02*
X200627000Y-86070000D01*
X205927000Y-91730000D02*
X205927000Y-90960000D01*
X205987000Y-91970000D02*
X206727000Y-91970000D01*
X194664000Y-99922064D02*
X194664000Y-99467936D01*
X193194000Y-99922064D02*
X193194000Y-99467936D01*
X178335000Y-73686936D02*
X178335000Y-74141064D01*
X179805000Y-73686936D02*
X179805000Y-74141064D01*
X173250000Y-101981000D02*
X173250000Y-98298000D01*
X169650000Y-94709000D02*
X169650000Y-101981000D01*
X169650000Y-101981000D02*
X172593000Y-101981000D01*
X191108000Y-102735748D02*
X191108000Y-103258252D01*
X189638000Y-102735748D02*
X189638000Y-103258252D01*
X187506000Y-100892000D02*
X187506000Y-100442000D01*
X180286000Y-100892000D02*
X180286000Y-100442000D01*
X180736000Y-93672000D02*
X180286000Y-93672000D01*
X180286000Y-94122000D02*
X178996000Y-94122000D01*
X187056000Y-100892000D02*
X187506000Y-100892000D01*
X180286000Y-93672000D02*
X180286000Y-94122000D01*
X187506000Y-93672000D02*
X187506000Y-94122000D01*
X180736000Y-100892000D02*
X180286000Y-100892000D01*
X187056000Y-93672000D02*
X187506000Y-93672000D01*
X177773000Y-99321252D02*
X177773000Y-98798748D01*
X176303000Y-99321252D02*
X176303000Y-98798748D01*
X167740000Y-95892252D02*
X167740000Y-95369748D01*
X169210000Y-95892252D02*
X169210000Y-95369748D01*
X175735348Y-89787400D02*
X176257852Y-89787400D01*
X175735348Y-88317400D02*
X176257852Y-88317400D01*
X169445000Y-74141064D02*
X169445000Y-73686936D01*
X170915000Y-74141064D02*
X170915000Y-73686936D01*
X197512000Y-99922064D02*
X197512000Y-99467936D01*
X198982000Y-99922064D02*
X198982000Y-99467936D01*
X158095000Y-104170000D02*
X156765000Y-104170000D01*
X159365000Y-104170000D02*
X159365000Y-101570000D01*
X159365000Y-101570000D02*
X156765000Y-101570000D01*
X161905000Y-91350000D02*
X156765000Y-91350000D01*
X161905000Y-104170000D02*
X161905000Y-91350000D01*
X161905000Y-104170000D02*
X159365000Y-104170000D01*
X156765000Y-101570000D02*
X156765000Y-91350000D01*
X156765000Y-104170000D02*
X156765000Y-102840000D01*
X200627000Y-104830000D02*
X200627000Y-99170000D01*
X200627000Y-104830000D02*
X206487000Y-104830000D01*
X205927000Y-102480000D02*
X205927000Y-101520000D01*
X205987000Y-105070000D02*
X206727000Y-105070000D01*
X206487000Y-104830000D02*
X206487000Y-104060000D01*
X205927000Y-104830000D02*
X205927000Y-104060000D01*
X205927000Y-99940000D02*
X205927000Y-99170000D01*
X206487000Y-99940000D02*
X206487000Y-99170000D01*
X206727000Y-105070000D02*
X206727000Y-104570000D01*
X206487000Y-102480000D02*
X206487000Y-101520000D01*
X200627000Y-99170000D02*
X206487000Y-99170000D01*
X175741000Y-99321252D02*
X175741000Y-98798748D01*
X187352000Y-102735748D02*
X187352000Y-103258252D01*
X188822000Y-102735748D02*
X188822000Y-103258252D01*
X175032936Y-95404000D02*
X175487064Y-95404000D01*
X203302200Y-75415000D02*
X204202200Y-75415000D01*
X200222200Y-84485000D02*
X200222200Y-75535000D01*
X203302200Y-84605000D02*
X204202200Y-84605000D01*
X178181000Y-92336252D02*
X178181000Y-91813748D01*
X179705000Y-92336252D02*
X179705000Y-91813748D01*
X180240000Y-90304252D02*
X180240000Y-89781748D01*
X181710000Y-90304252D02*
X181710000Y-89781748D01*
X174959000Y-80637000D02*
X179019000Y-80637000D01*
X174959000Y-78367000D02*
X174959000Y-80637000D01*
X179019000Y-78367000D02*
X174959000Y-78367000D01*
X185012064Y-107596000D02*
X184557936Y-107596000D01*
X185012064Y-109066000D02*
X184557936Y-109066000D01*
X172620000Y-105656748D02*
X172620000Y-106179252D01*
X174090000Y-105656748D02*
X174090000Y-106179252D01*
X182772000Y-81697000D02*
X182772000Y-75687000D01*
X189592000Y-78597000D02*
X189592000Y-75687000D01*
X182772000Y-75687000D02*
X184032000Y-75687000D01*
X189592000Y-75687000D02*
X188332000Y-75687000D01*
X187258000Y-109674000D02*
X188588000Y-109674000D01*
X185988000Y-109674000D02*
X185988000Y-112334000D01*
X188588000Y-109674000D02*
X188588000Y-111004000D01*
X185988000Y-112334000D02*
X178308000Y-112334000D01*
X185988000Y-109674000D02*
X178308000Y-109674000D01*
X178308000Y-109674000D02*
X178308000Y-112334000D01*
X169445000Y-78332064D02*
X169445000Y-77877936D01*
X170915000Y-78332064D02*
X170915000Y-77877936D01*
X196823000Y-99922064D02*
X196823000Y-99467936D01*
X195353000Y-99922064D02*
X195353000Y-99467936D01*
X194163000Y-93853000D02*
X194163000Y-91903000D01*
X199283000Y-93853000D02*
X199283000Y-90403000D01*
X199283000Y-93853000D02*
X199283000Y-95803000D01*
X194163000Y-93853000D02*
X194163000Y-95803000D01*
X170977000Y-102454000D02*
X169617000Y-102454000D01*
X170977000Y-106864000D02*
X170977000Y-104464000D01*
X164557000Y-108874000D02*
X170977000Y-108874000D01*
X164557000Y-104464000D02*
X164557000Y-106864000D01*
X164557000Y-108464000D02*
X164557000Y-108874000D01*
X170977000Y-108874000D02*
X170977000Y-108464000D01*
X164557000Y-102454000D02*
X164557000Y-102734000D01*
X166947000Y-102454000D02*
X164557000Y-102454000D01*
X170977000Y-102864000D02*
X170977000Y-102454000D01*
M02*
