G04 #@! TF.GenerationSoftware,KiCad,Pcbnew,(6.0.0)*
G04 #@! TF.CreationDate,2022-05-20T23:18:51+02:00*
G04 #@! TF.ProjectId,STM32F103_uC_v1,53544d33-3246-4313-9033-5f75435f7631,rev?*
G04 #@! TF.SameCoordinates,Original*
G04 #@! TF.FileFunction,Copper,L4,Bot*
G04 #@! TF.FilePolarity,Positive*
%FSLAX46Y46*%
G04 Gerber Fmt 4.6, Leading zero omitted, Abs format (unit mm)*
G04 Created by KiCad (PCBNEW (6.0.0)) date 2022-05-20 23:18:51*
%MOMM*%
%LPD*%
G01*
G04 APERTURE LIST*
G04 Aperture macros list*
%AMRoundRect*
0 Rectangle with rounded corners*
0 $1 Rounding radius*
0 $2 $3 $4 $5 $6 $7 $8 $9 X,Y pos of 4 corners*
0 Add a 4 corners polygon primitive as box body*
4,1,4,$2,$3,$4,$5,$6,$7,$8,$9,$2,$3,0*
0 Add four circle primitives for the rounded corners*
1,1,$1+$1,$2,$3*
1,1,$1+$1,$4,$5*
1,1,$1+$1,$6,$7*
1,1,$1+$1,$8,$9*
0 Add four rect primitives between the rounded corners*
20,1,$1+$1,$2,$3,$4,$5,0*
20,1,$1+$1,$4,$5,$6,$7,0*
20,1,$1+$1,$6,$7,$8,$9,0*
20,1,$1+$1,$8,$9,$2,$3,0*%
G04 Aperture macros list end*
G04 #@! TA.AperFunction,ComponentPad*
%ADD10R,3.500000X3.500000*%
G04 #@! TD*
G04 #@! TA.AperFunction,ComponentPad*
%ADD11RoundRect,0.750000X-0.750000X-1.000000X0.750000X-1.000000X0.750000X1.000000X-0.750000X1.000000X0*%
G04 #@! TD*
G04 #@! TA.AperFunction,ComponentPad*
%ADD12RoundRect,0.875000X-0.875000X-0.875000X0.875000X-0.875000X0.875000X0.875000X-0.875000X0.875000X0*%
G04 #@! TD*
G04 #@! TA.AperFunction,ComponentPad*
%ADD13R,2.200000X2.200000*%
G04 #@! TD*
G04 #@! TA.AperFunction,ComponentPad*
%ADD14C,2.200000*%
G04 #@! TD*
G04 #@! TA.AperFunction,ComponentPad*
%ADD15R,1.700000X1.700000*%
G04 #@! TD*
G04 #@! TA.AperFunction,ComponentPad*
%ADD16O,1.700000X1.700000*%
G04 #@! TD*
G04 #@! TA.AperFunction,ComponentPad*
%ADD17C,0.700000*%
G04 #@! TD*
G04 #@! TA.AperFunction,ComponentPad*
%ADD18O,1.700000X0.900000*%
G04 #@! TD*
G04 #@! TA.AperFunction,ComponentPad*
%ADD19O,2.400000X0.900000*%
G04 #@! TD*
G04 #@! TA.AperFunction,ViaPad*
%ADD20C,0.648000*%
G04 #@! TD*
G04 #@! TA.AperFunction,ViaPad*
%ADD21C,1.048000*%
G04 #@! TD*
G04 #@! TA.AperFunction,Conductor*
%ADD22C,0.600000*%
G04 #@! TD*
G04 #@! TA.AperFunction,Conductor*
%ADD23C,0.300000*%
G04 #@! TD*
G04 #@! TA.AperFunction,Conductor*
%ADD24C,1.200000*%
G04 #@! TD*
G04 #@! TA.AperFunction,Conductor*
%ADD25C,0.500000*%
G04 #@! TD*
G04 #@! TA.AperFunction,Conductor*
%ADD26C,0.900000*%
G04 #@! TD*
G04 APERTURE END LIST*
D10*
X166401000Y-83185000D03*
D11*
X160401000Y-83185000D03*
D12*
X163401000Y-87885000D03*
D13*
X203327000Y-90170000D03*
D14*
X203327000Y-87630000D03*
D15*
X158095000Y-102840000D03*
D16*
X160635000Y-102840000D03*
X158095000Y-100300000D03*
X160635000Y-100300000D03*
X158095000Y-97760000D03*
X160635000Y-97760000D03*
X158095000Y-95220000D03*
X160635000Y-95220000D03*
X158095000Y-92680000D03*
X160635000Y-92680000D03*
D13*
X203327000Y-103270000D03*
D14*
X203327000Y-100730000D03*
D17*
X200902200Y-82985000D03*
X200902200Y-82135000D03*
X200902200Y-81285000D03*
X200902200Y-80435000D03*
X200902200Y-79585000D03*
X200902200Y-78735000D03*
X200902200Y-77885000D03*
X200902200Y-77035000D03*
X202252200Y-77035000D03*
X202252200Y-77885000D03*
X202252200Y-78735000D03*
X202252200Y-79585000D03*
X202252200Y-80435000D03*
X202252200Y-81285000D03*
X202252200Y-82135000D03*
X202252200Y-82985000D03*
D18*
X205262200Y-84335000D03*
D19*
X201882200Y-84335000D03*
D18*
X205262200Y-75685000D03*
D19*
X201882200Y-75685000D03*
D15*
X187198000Y-110998000D03*
D16*
X184658000Y-110998000D03*
X182118000Y-110998000D03*
X179578000Y-110998000D03*
D15*
X205740000Y-68580000D03*
D16*
X203200000Y-68580000D03*
X200660000Y-68580000D03*
X198120000Y-68580000D03*
X195580000Y-68580000D03*
X193040000Y-68580000D03*
X190500000Y-68580000D03*
X187960000Y-68580000D03*
X185420000Y-68580000D03*
X182880000Y-68580000D03*
X180340000Y-68580000D03*
X177800000Y-68580000D03*
X175260000Y-68580000D03*
X172720000Y-68580000D03*
X170180000Y-68580000D03*
X167640000Y-68580000D03*
X165100000Y-68580000D03*
X162560000Y-68580000D03*
X160020000Y-68580000D03*
X157480000Y-68580000D03*
D15*
X157480000Y-116840000D03*
D16*
X160020000Y-116840000D03*
X162560000Y-116840000D03*
X165100000Y-116840000D03*
X167640000Y-116840000D03*
X170180000Y-116840000D03*
X172720000Y-116840000D03*
X175260000Y-116840000D03*
X177800000Y-116840000D03*
X180340000Y-116840000D03*
X182880000Y-116840000D03*
X185420000Y-116840000D03*
X187960000Y-116840000D03*
X190500000Y-116840000D03*
X193040000Y-116840000D03*
X195580000Y-116840000D03*
X198120000Y-116840000D03*
X200660000Y-116840000D03*
X203200000Y-116840000D03*
X205740000Y-116840000D03*
D20*
X200400000Y-96600000D03*
X175260000Y-96951800D03*
D21*
X175895000Y-77851000D03*
D20*
X170611800Y-90297000D03*
D21*
X178917600Y-90017600D03*
X191516000Y-94234000D03*
X168475000Y-97675000D03*
D20*
X169799000Y-102209600D03*
X202000000Y-106400000D03*
D21*
X174040800Y-89052400D03*
D20*
X167792400Y-93370400D03*
D21*
X167672000Y-107664000D03*
D20*
X171856400Y-91541600D03*
X173304200Y-97866200D03*
D21*
X188849000Y-84963000D03*
X187198000Y-76200000D03*
D20*
X172110400Y-88036400D03*
X176022000Y-88036400D03*
X177901600Y-90170000D03*
D21*
X191719200Y-104038400D03*
X197866000Y-87122000D03*
X168859200Y-77089000D03*
X174117000Y-98933000D03*
D20*
X167501000Y-97675000D03*
D21*
X185310342Y-77071658D03*
D20*
X173329600Y-93573600D03*
X169672000Y-92659200D03*
X201000000Y-103000000D03*
X185420000Y-99695000D03*
X181229000Y-96901000D03*
D21*
X181205921Y-76708000D03*
X181205921Y-77874079D03*
X191516000Y-92456000D03*
X195834000Y-87122000D03*
X172720000Y-85344000D03*
X172720000Y-77343000D03*
X196088000Y-102108000D03*
D20*
X181356000Y-90170000D03*
D21*
X175387000Y-105664000D03*
X188976000Y-90170000D03*
X194056000Y-77089000D03*
X170434000Y-85344000D03*
X188976000Y-89027000D03*
X191719200Y-102108000D03*
X171577000Y-85344000D03*
D20*
X178943000Y-92329000D03*
D21*
X172720000Y-78486000D03*
X172720000Y-76200000D03*
X188976000Y-87884000D03*
X181213500Y-72898000D03*
X194056000Y-83947000D03*
X168859200Y-74930000D03*
X198475600Y-101904800D03*
D20*
X194818000Y-97806000D03*
X198374000Y-103124000D03*
X182880000Y-108331000D03*
D21*
X189230000Y-78994000D03*
X175006000Y-101854000D03*
X164084000Y-72898000D03*
D20*
X183269500Y-104902000D03*
X184023000Y-104394000D03*
X184522500Y-103632000D03*
X186182000Y-98044000D03*
X185420000Y-97155000D03*
X184658000Y-96266000D03*
X183896000Y-95377000D03*
X187096400Y-87376000D03*
X186944000Y-85140800D03*
X186182000Y-86106000D03*
X185115200Y-84531200D03*
X183896000Y-84582000D03*
D22*
X184658000Y-102362000D02*
X190500000Y-108204000D01*
X184658000Y-100457000D02*
X184658000Y-102362000D01*
X185420000Y-99695000D02*
X184658000Y-100457000D01*
X190500000Y-108204000D02*
X190500000Y-116840000D01*
X185420000Y-99695000D02*
X189484000Y-99695000D01*
X201549000Y-87630000D02*
X203327000Y-87630000D01*
X189484000Y-99695000D02*
X201549000Y-87630000D01*
D23*
X164846000Y-103378000D02*
X163068000Y-101600000D01*
X181229000Y-96901000D02*
X174752000Y-103378000D01*
X174752000Y-103378000D02*
X164846000Y-103378000D01*
X163068000Y-101600000D02*
X159335000Y-101600000D01*
X159335000Y-101600000D02*
X158095000Y-102840000D01*
D24*
X172720000Y-77343000D02*
X172720000Y-76200000D01*
X172720000Y-85344000D02*
X172720000Y-78486000D01*
X170434000Y-85344000D02*
X171577000Y-85344000D01*
X172720000Y-78486000D02*
X172720000Y-77343000D01*
X171577000Y-85344000D02*
X172720000Y-85344000D01*
D23*
X194818000Y-99568000D02*
X194818000Y-97806000D01*
X198374000Y-103124000D02*
X194818000Y-99568000D01*
D25*
X182245000Y-108331000D02*
X179578000Y-110998000D01*
X182880000Y-108331000D02*
X182245000Y-108331000D01*
X183261000Y-104902000D02*
X177800000Y-110363000D01*
X177800000Y-110363000D02*
X177800000Y-116840000D01*
X183269500Y-104902000D02*
X183261000Y-104902000D01*
X183388000Y-110236000D02*
X183388000Y-113792000D01*
X183388000Y-113792000D02*
X180340000Y-116840000D01*
X184023000Y-109601000D02*
X183388000Y-110236000D01*
X184023000Y-104394000D02*
X184023000Y-109601000D01*
X184522500Y-103632000D02*
X184531000Y-103632000D01*
X184531000Y-103632000D02*
X188849000Y-107950000D01*
X188849000Y-107950000D02*
X188849000Y-115951000D01*
X188849000Y-115951000D02*
X187960000Y-116840000D01*
D23*
X186182000Y-98044000D02*
X186182000Y-96393000D01*
X186182000Y-96393000D02*
X191643000Y-90932000D01*
X191643000Y-90932000D02*
X191643000Y-77597000D01*
X191643000Y-77597000D02*
X200660000Y-68580000D01*
X190881000Y-77216000D02*
X198120000Y-69977000D01*
X198120000Y-69977000D02*
X198120000Y-68580000D01*
X185420000Y-97155000D02*
X185420000Y-96152533D01*
X185420000Y-96152533D02*
X190881000Y-90691533D01*
X190881000Y-90691533D02*
X190881000Y-77216000D01*
X184658000Y-96266000D02*
X184658000Y-95885000D01*
X190119000Y-76835000D02*
X195580000Y-71374000D01*
X195580000Y-71374000D02*
X195580000Y-68580000D01*
X184658000Y-95885000D02*
X190119000Y-90424000D01*
X190119000Y-90424000D02*
X190119000Y-76835000D01*
X201999400Y-80435000D02*
X201149400Y-79585000D01*
X202252200Y-80435000D02*
X201999400Y-80435000D01*
X201149400Y-79585000D02*
X200902200Y-79585000D01*
X183896000Y-95377000D02*
X175133000Y-104140000D01*
X175133000Y-104140000D02*
X161935000Y-104140000D01*
X161935000Y-104140000D02*
X160635000Y-102840000D01*
X178663600Y-87884000D02*
X177901600Y-87122000D01*
X163322000Y-93980000D02*
X163322000Y-95656400D01*
X170180000Y-87122000D02*
X163322000Y-93980000D01*
X187706000Y-86766400D02*
X187706000Y-78232000D01*
X186588400Y-87884000D02*
X178663600Y-87884000D01*
X163322000Y-95656400D02*
X161218400Y-97760000D01*
X185420000Y-75946000D02*
X185420000Y-68580000D01*
X187096400Y-87376000D02*
X186588400Y-87884000D01*
X177901600Y-87122000D02*
X170180000Y-87122000D01*
X187706000Y-78232000D02*
X185420000Y-75946000D01*
X161218400Y-97760000D02*
X160635000Y-97760000D01*
X187096400Y-87376000D02*
X187706000Y-86766400D01*
X186944000Y-85140800D02*
X186944000Y-80010000D01*
X182880000Y-75946000D02*
X182880000Y-68580000D01*
X186944000Y-80010000D02*
X182880000Y-75946000D01*
X161239200Y-96469200D02*
X159385800Y-96469200D01*
X186182000Y-86106000D02*
X186182000Y-80365600D01*
X162204400Y-93827600D02*
X162204400Y-95504000D01*
X159385800Y-96469200D02*
X158095000Y-97760000D01*
X169367200Y-86664800D02*
X162204400Y-93827600D01*
X186182000Y-80365600D02*
X180340000Y-74523600D01*
X186182000Y-86106000D02*
X185623200Y-86664800D01*
X180340000Y-74523600D02*
X180340000Y-68580000D01*
X162204400Y-95504000D02*
X161239200Y-96469200D01*
X185623200Y-86664800D02*
X169367200Y-86664800D01*
X177800000Y-76098400D02*
X177800000Y-68580000D01*
X185115200Y-83413600D02*
X177800000Y-76098400D01*
X185115200Y-84531200D02*
X185115200Y-83413600D01*
X175260000Y-75946000D02*
X175260000Y-68580000D01*
X183896000Y-84582000D02*
X175260000Y-75946000D01*
D26*
X205262200Y-75685000D02*
X205262200Y-84335000D01*
X201882200Y-75685000D02*
X205262200Y-75685000D01*
X201882200Y-84335000D02*
X205262200Y-84335000D01*
G04 #@! TA.AperFunction,Conductor*
G36*
X206165500Y-68099962D02*
G01*
X206220038Y-68154500D01*
X206240000Y-68229000D01*
X206240000Y-69810383D01*
X206244145Y-69825854D01*
X206259616Y-69829999D01*
X206561000Y-69829999D01*
X206635500Y-69849961D01*
X206690038Y-69904499D01*
X206710000Y-69978999D01*
X206710000Y-74908000D01*
X206690038Y-74982500D01*
X206635500Y-75037038D01*
X206561000Y-75057000D01*
X206118524Y-75057000D01*
X206050763Y-75040701D01*
X205925584Y-74976781D01*
X205755594Y-74935185D01*
X205748976Y-74934774D01*
X205748973Y-74934774D01*
X205746844Y-74934642D01*
X205746838Y-74934642D01*
X205744552Y-74934500D01*
X205290480Y-74934500D01*
X205281254Y-74934214D01*
X205229978Y-74931033D01*
X205221338Y-74930497D01*
X205210566Y-74932348D01*
X205185333Y-74934500D01*
X201088378Y-74934500D01*
X201084101Y-74934999D01*
X201084095Y-74934999D01*
X201031154Y-74941172D01*
X200958372Y-74949657D01*
X200853595Y-74987689D01*
X200802001Y-75006417D01*
X200801999Y-75006418D01*
X200793869Y-75009369D01*
X200786632Y-75014114D01*
X200758427Y-75032606D01*
X200685179Y-75056760D01*
X200676731Y-75057000D01*
X200279000Y-75057000D01*
X200279000Y-76573577D01*
X200255245Y-76654291D01*
X200230675Y-76692416D01*
X200223316Y-76707241D01*
X200171465Y-76849699D01*
X200167572Y-76865791D01*
X200148572Y-77016201D01*
X200148340Y-77032748D01*
X200163134Y-77183625D01*
X200166579Y-77199832D01*
X200214429Y-77343673D01*
X200221376Y-77358708D01*
X200257449Y-77418272D01*
X200279000Y-77495458D01*
X200279000Y-77664547D01*
X200271473Y-77704576D01*
X200273006Y-77704970D01*
X200270773Y-77713668D01*
X200267509Y-77722039D01*
X200246958Y-77878138D01*
X200264235Y-78034633D01*
X200267324Y-78043075D01*
X200267325Y-78043078D01*
X200269925Y-78050184D01*
X200279000Y-78101388D01*
X200279000Y-78514547D01*
X200271473Y-78554576D01*
X200273006Y-78554970D01*
X200270773Y-78563668D01*
X200267509Y-78572039D01*
X200246958Y-78728138D01*
X200264235Y-78884633D01*
X200267324Y-78893075D01*
X200267325Y-78893078D01*
X200269925Y-78900184D01*
X200279000Y-78951388D01*
X200279000Y-79364547D01*
X200271473Y-79404576D01*
X200273006Y-79404970D01*
X200270773Y-79413668D01*
X200267509Y-79422039D01*
X200266336Y-79430945D01*
X200266336Y-79430947D01*
X200259707Y-79481299D01*
X200246958Y-79578138D01*
X200264235Y-79734633D01*
X200267324Y-79743075D01*
X200267325Y-79743078D01*
X200269925Y-79750184D01*
X200279000Y-79801388D01*
X200279000Y-80214547D01*
X200271473Y-80254576D01*
X200273006Y-80254970D01*
X200270773Y-80263668D01*
X200267509Y-80272039D01*
X200246958Y-80428138D01*
X200264235Y-80584633D01*
X200267324Y-80593075D01*
X200267325Y-80593078D01*
X200269925Y-80600184D01*
X200279000Y-80651388D01*
X200279000Y-81064547D01*
X200271473Y-81104576D01*
X200273006Y-81104970D01*
X200270773Y-81113668D01*
X200267509Y-81122039D01*
X200266336Y-81130945D01*
X200266336Y-81130947D01*
X200258194Y-81192796D01*
X200246958Y-81278138D01*
X200264235Y-81434633D01*
X200267324Y-81443075D01*
X200267325Y-81443078D01*
X200269925Y-81450184D01*
X200279000Y-81501388D01*
X200279000Y-81914547D01*
X200271473Y-81954576D01*
X200273006Y-81954970D01*
X200270773Y-81963668D01*
X200267509Y-81972039D01*
X200266336Y-81980945D01*
X200266336Y-81980947D01*
X200253572Y-82077902D01*
X200246958Y-82128138D01*
X200264235Y-82284633D01*
X200267324Y-82293075D01*
X200267325Y-82293078D01*
X200269925Y-82300184D01*
X200279000Y-82351388D01*
X200279000Y-82523577D01*
X200255245Y-82604291D01*
X200230675Y-82642416D01*
X200223316Y-82657241D01*
X200171465Y-82799699D01*
X200167572Y-82815791D01*
X200148572Y-82966201D01*
X200148340Y-82982748D01*
X200163134Y-83133625D01*
X200166579Y-83149832D01*
X200214429Y-83293673D01*
X200221376Y-83308708D01*
X200257449Y-83368272D01*
X200279000Y-83445458D01*
X200279000Y-84963000D01*
X200675876Y-84963000D01*
X200743637Y-84979299D01*
X200868816Y-85043219D01*
X201038806Y-85084815D01*
X201045424Y-85085226D01*
X201045427Y-85085226D01*
X201047556Y-85085358D01*
X201047562Y-85085358D01*
X201049848Y-85085500D01*
X205233920Y-85085500D01*
X205243146Y-85085786D01*
X205303062Y-85089503D01*
X205313834Y-85087652D01*
X205339067Y-85085500D01*
X205706022Y-85085500D01*
X205710299Y-85085001D01*
X205710305Y-85085001D01*
X205763246Y-85078828D01*
X205836028Y-85070343D01*
X205940805Y-85032311D01*
X205992399Y-85013583D01*
X205992401Y-85013582D01*
X206000531Y-85010631D01*
X206035973Y-84987394D01*
X206109221Y-84963240D01*
X206117669Y-84963000D01*
X206561000Y-84963000D01*
X206635500Y-84982962D01*
X206690038Y-85037500D01*
X206710000Y-85112000D01*
X206710000Y-86904968D01*
X206690038Y-86979468D01*
X206635500Y-87034006D01*
X206561000Y-87053968D01*
X206486500Y-87034006D01*
X206460339Y-87014435D01*
X206456980Y-87010460D01*
X206446445Y-87002405D01*
X206369979Y-86943943D01*
X206310180Y-86898223D01*
X206142703Y-86820127D01*
X206134838Y-86818369D01*
X206134835Y-86818368D01*
X205968327Y-86781150D01*
X205968326Y-86781150D01*
X205962363Y-86779817D01*
X205956693Y-86779500D01*
X205820836Y-86779500D01*
X205816843Y-86779934D01*
X205816839Y-86779934D01*
X205719670Y-86790490D01*
X205683291Y-86794442D01*
X205675642Y-86797016D01*
X205675643Y-86797016D01*
X205534393Y-86844552D01*
X205508152Y-86853383D01*
X205501236Y-86857538D01*
X205501235Y-86857539D01*
X205493360Y-86862271D01*
X205349756Y-86948557D01*
X205343891Y-86954103D01*
X205343890Y-86954104D01*
X205307953Y-86988088D01*
X205215493Y-87075524D01*
X205111625Y-87228360D01*
X205108630Y-87235848D01*
X205108629Y-87235850D01*
X205097646Y-87263310D01*
X205043000Y-87399935D01*
X205041682Y-87407896D01*
X205041681Y-87407900D01*
X205019538Y-87541657D01*
X204987676Y-87611897D01*
X204952881Y-87636807D01*
X204963607Y-87641250D01*
X205010560Y-87702440D01*
X205021698Y-87751664D01*
X205022490Y-87766781D01*
X205071562Y-87944936D01*
X205075324Y-87952072D01*
X205075326Y-87952076D01*
X205134227Y-88063790D01*
X205157746Y-88108398D01*
X205277020Y-88249540D01*
X205283429Y-88254440D01*
X205283430Y-88254441D01*
X205295433Y-88263618D01*
X205423820Y-88361777D01*
X205591297Y-88439873D01*
X205599162Y-88441631D01*
X205599165Y-88441632D01*
X205765673Y-88478850D01*
X205771637Y-88480183D01*
X205777307Y-88480500D01*
X205913164Y-88480500D01*
X205917157Y-88480066D01*
X205917161Y-88480066D01*
X206042691Y-88466429D01*
X206050709Y-88465558D01*
X206225848Y-88406617D01*
X206284511Y-88371369D01*
X206341106Y-88337363D01*
X206384244Y-88311443D01*
X206411081Y-88286065D01*
X206458624Y-88241105D01*
X206526469Y-88204420D01*
X206603567Y-88206574D01*
X206669259Y-88246988D01*
X206705944Y-88314833D01*
X206710000Y-88349364D01*
X206710000Y-89444968D01*
X206690038Y-89519468D01*
X206635500Y-89574006D01*
X206561000Y-89593968D01*
X206486500Y-89574006D01*
X206460339Y-89554435D01*
X206456980Y-89550460D01*
X206450008Y-89545129D01*
X206370578Y-89484401D01*
X206310180Y-89438223D01*
X206142703Y-89360127D01*
X206134838Y-89358369D01*
X206134835Y-89358368D01*
X205968327Y-89321150D01*
X205968326Y-89321150D01*
X205962363Y-89319817D01*
X205956693Y-89319500D01*
X205820836Y-89319500D01*
X205816843Y-89319934D01*
X205816839Y-89319934D01*
X205707611Y-89331800D01*
X205683291Y-89334442D01*
X205675642Y-89337016D01*
X205675643Y-89337016D01*
X205523467Y-89388229D01*
X205508152Y-89393383D01*
X205349756Y-89488557D01*
X205215493Y-89615524D01*
X205111625Y-89768360D01*
X205108630Y-89775847D01*
X205107558Y-89777864D01*
X205054957Y-89834272D01*
X204981199Y-89856822D01*
X204906048Y-89839472D01*
X204849640Y-89786871D01*
X204826999Y-89707913D01*
X204826999Y-89044376D01*
X204826083Y-89032736D01*
X204813999Y-88956435D01*
X204806841Y-88934403D01*
X204759963Y-88842400D01*
X204746352Y-88823666D01*
X204673334Y-88750648D01*
X204654600Y-88737037D01*
X204562595Y-88690158D01*
X204535463Y-88681342D01*
X204470778Y-88639334D01*
X204435764Y-88570612D01*
X204439801Y-88493590D01*
X204460507Y-88452688D01*
X204528009Y-88358749D01*
X204528011Y-88358745D01*
X204531577Y-88353783D01*
X204633615Y-88147325D01*
X204635393Y-88141474D01*
X204698786Y-87932825D01*
X204698787Y-87932821D01*
X204700563Y-87926975D01*
X204712017Y-87839971D01*
X204725177Y-87740012D01*
X204754692Y-87668755D01*
X204793066Y-87639309D01*
X204777964Y-87632459D01*
X204733066Y-87569746D01*
X204724040Y-87529531D01*
X204713931Y-87406567D01*
X204713930Y-87406562D01*
X204713430Y-87400478D01*
X204711411Y-87392440D01*
X204658816Y-87183050D01*
X204658814Y-87183045D01*
X204657326Y-87177120D01*
X204565496Y-86965924D01*
X204482525Y-86837670D01*
X204443726Y-86777696D01*
X204443724Y-86777693D01*
X204440405Y-86772563D01*
X204285412Y-86602229D01*
X204104681Y-86459496D01*
X204099328Y-86456541D01*
X204099325Y-86456539D01*
X203960576Y-86379946D01*
X203903065Y-86348198D01*
X203774287Y-86302595D01*
X203691748Y-86273366D01*
X203691745Y-86273365D01*
X203685978Y-86271323D01*
X203679957Y-86270250D01*
X203679955Y-86270250D01*
X203465274Y-86232010D01*
X203459250Y-86230937D01*
X203453136Y-86230862D01*
X203453133Y-86230862D01*
X203360007Y-86229724D01*
X203228971Y-86228123D01*
X203222932Y-86229047D01*
X203222933Y-86229047D01*
X203007362Y-86262034D01*
X203007360Y-86262035D01*
X203001325Y-86262958D01*
X202782424Y-86334506D01*
X202777009Y-86337325D01*
X202583569Y-86438023D01*
X202583564Y-86438026D01*
X202578149Y-86440845D01*
X202573260Y-86444516D01*
X202573258Y-86444517D01*
X202398878Y-86575444D01*
X202398874Y-86575447D01*
X202393984Y-86579119D01*
X202234877Y-86745616D01*
X202231434Y-86750664D01*
X202231431Y-86750667D01*
X202211467Y-86779934D01*
X202105099Y-86935863D01*
X202102528Y-86941402D01*
X202102525Y-86941407D01*
X202101677Y-86943235D01*
X202101085Y-86943943D01*
X202099507Y-86946721D01*
X202099002Y-86946434D01*
X202052203Y-87002405D01*
X201979773Y-87028910D01*
X201966528Y-87029500D01*
X201598124Y-87029500D01*
X201578678Y-87028225D01*
X201549000Y-87024318D01*
X201539315Y-87025593D01*
X201509639Y-87029500D01*
X201401921Y-87043681D01*
X201401919Y-87043681D01*
X201392238Y-87044956D01*
X201383216Y-87048693D01*
X201262460Y-87098712D01*
X201246159Y-87105464D01*
X201120718Y-87201718D01*
X201114772Y-87209467D01*
X201102494Y-87225468D01*
X201089643Y-87240122D01*
X189278906Y-99050859D01*
X189212111Y-99089423D01*
X189173547Y-99094500D01*
X185611333Y-99094500D01*
X185575035Y-99090011D01*
X185507559Y-99073062D01*
X185507555Y-99073061D01*
X185498846Y-99070874D01*
X185416728Y-99070444D01*
X185356674Y-99070129D01*
X185347695Y-99070082D01*
X185338966Y-99072178D01*
X185338963Y-99072178D01*
X185267134Y-99089423D01*
X185200718Y-99105368D01*
X185066401Y-99174694D01*
X184952497Y-99274059D01*
X184947332Y-99281408D01*
X184947331Y-99281409D01*
X184867191Y-99395436D01*
X184850646Y-99415119D01*
X184268122Y-99997643D01*
X184253468Y-100010494D01*
X184229718Y-100028718D01*
X184151047Y-100131244D01*
X184133464Y-100154159D01*
X184121849Y-100182200D01*
X184080076Y-100283050D01*
X184072956Y-100300238D01*
X184071681Y-100309919D01*
X184071681Y-100309921D01*
X184067834Y-100339141D01*
X184052318Y-100457000D01*
X184056225Y-100486675D01*
X184057500Y-100506124D01*
X184057500Y-102312876D01*
X184056225Y-102332322D01*
X184052318Y-102362000D01*
X184053593Y-102371685D01*
X184057500Y-102401361D01*
X184067656Y-102478501D01*
X184072956Y-102518762D01*
X184076693Y-102527784D01*
X184124693Y-102643665D01*
X184133464Y-102664841D01*
X184229718Y-102790282D01*
X184237467Y-102796228D01*
X184253468Y-102808506D01*
X184268122Y-102821357D01*
X184281623Y-102834858D01*
X184320187Y-102901653D01*
X184320187Y-102978781D01*
X184281623Y-103045576D01*
X184244603Y-103072621D01*
X184176885Y-103107573D01*
X184168901Y-103111694D01*
X184054997Y-103211059D01*
X184049832Y-103218408D01*
X184049831Y-103218409D01*
X184009294Y-103276087D01*
X183968083Y-103334724D01*
X183913177Y-103475552D01*
X183893447Y-103625412D01*
X183896257Y-103650861D01*
X183884592Y-103727100D01*
X183836369Y-103787294D01*
X183805532Y-103803933D01*
X183803718Y-103804368D01*
X183795741Y-103808485D01*
X183795739Y-103808486D01*
X183699604Y-103858105D01*
X183669401Y-103873694D01*
X183555497Y-103973059D01*
X183550332Y-103980408D01*
X183550331Y-103980409D01*
X183538758Y-103996876D01*
X183468583Y-104096724D01*
X183465320Y-104105092D01*
X183465320Y-104105093D01*
X183435054Y-104182723D01*
X183389394Y-104244883D01*
X183318771Y-104275884D01*
X183295453Y-104277597D01*
X183226924Y-104277238D01*
X183206174Y-104277129D01*
X183197195Y-104277082D01*
X183188466Y-104279178D01*
X183188463Y-104279178D01*
X183115797Y-104296624D01*
X183050218Y-104312368D01*
X182915901Y-104381694D01*
X182801997Y-104481059D01*
X182796832Y-104488408D01*
X182796831Y-104488409D01*
X182727978Y-104586376D01*
X182715083Y-104604724D01*
X182711820Y-104613093D01*
X182711819Y-104613095D01*
X182685116Y-104681586D01*
X182651653Y-104732822D01*
X177421692Y-109962784D01*
X177417188Y-109967103D01*
X177384493Y-109997168D01*
X177371844Y-110008799D01*
X177366494Y-110017428D01*
X177349485Y-110044861D01*
X177341535Y-110056428D01*
X177315888Y-110090217D01*
X177312148Y-110099663D01*
X177312147Y-110099665D01*
X177311110Y-110102285D01*
X177299208Y-110125949D01*
X177292365Y-110136986D01*
X177289531Y-110146741D01*
X177280528Y-110177730D01*
X177275980Y-110191011D01*
X177272071Y-110200884D01*
X177260364Y-110230453D01*
X177259302Y-110240552D01*
X177259302Y-110240554D01*
X177259007Y-110243362D01*
X177253908Y-110269354D01*
X177250285Y-110281825D01*
X177249500Y-110292515D01*
X177249500Y-110326012D01*
X177248684Y-110341586D01*
X177246194Y-110365281D01*
X177244599Y-110380454D01*
X177247415Y-110397103D01*
X177249500Y-110421940D01*
X177249500Y-115743972D01*
X177229538Y-115818472D01*
X177176683Y-115872023D01*
X177126727Y-115901744D01*
X177126718Y-115901750D01*
X177120856Y-115905238D01*
X177066695Y-115952736D01*
X176967022Y-116040146D01*
X176967021Y-116040147D01*
X176961881Y-116044655D01*
X176906189Y-116115300D01*
X176835207Y-116205340D01*
X176835203Y-116205346D01*
X176830976Y-116210708D01*
X176827797Y-116216751D01*
X176827794Y-116216755D01*
X176814295Y-116242413D01*
X176732523Y-116397836D01*
X176730499Y-116404354D01*
X176730496Y-116404362D01*
X176671153Y-116595480D01*
X176629997Y-116660710D01*
X176561739Y-116696622D01*
X176484671Y-116693594D01*
X176419441Y-116652438D01*
X176385449Y-116591741D01*
X176340541Y-116432509D01*
X176338686Y-116425931D01*
X176245165Y-116236290D01*
X176241084Y-116230825D01*
X176241081Y-116230820D01*
X176122739Y-116072341D01*
X176122737Y-116072339D01*
X176118651Y-116066867D01*
X175963381Y-115923337D01*
X175784554Y-115810505D01*
X175778215Y-115807976D01*
X175778209Y-115807973D01*
X175594504Y-115734683D01*
X175588160Y-115732152D01*
X175499889Y-115714594D01*
X175387478Y-115692234D01*
X175387475Y-115692234D01*
X175380775Y-115690901D01*
X175275060Y-115689517D01*
X175176180Y-115688222D01*
X175176175Y-115688222D01*
X175169346Y-115688133D01*
X175162613Y-115689290D01*
X175162612Y-115689290D01*
X174967684Y-115722784D01*
X174967680Y-115722785D01*
X174960953Y-115723941D01*
X174762575Y-115797127D01*
X174756702Y-115800621D01*
X174629270Y-115876435D01*
X174580856Y-115905238D01*
X174548641Y-115933489D01*
X174427022Y-116040146D01*
X174427021Y-116040147D01*
X174421881Y-116044655D01*
X174366189Y-116115300D01*
X174295207Y-116205340D01*
X174295203Y-116205346D01*
X174290976Y-116210708D01*
X174287797Y-116216751D01*
X174287794Y-116216755D01*
X174274295Y-116242413D01*
X174192523Y-116397836D01*
X174190499Y-116404354D01*
X174190496Y-116404362D01*
X174131153Y-116595480D01*
X174089997Y-116660710D01*
X174021739Y-116696622D01*
X173944671Y-116693594D01*
X173879441Y-116652438D01*
X173845449Y-116591741D01*
X173800541Y-116432509D01*
X173798686Y-116425931D01*
X173705165Y-116236290D01*
X173701084Y-116230825D01*
X173701081Y-116230820D01*
X173582739Y-116072341D01*
X173582737Y-116072339D01*
X173578651Y-116066867D01*
X173423381Y-115923337D01*
X173244554Y-115810505D01*
X173238215Y-115807976D01*
X173238209Y-115807973D01*
X173054504Y-115734683D01*
X173048160Y-115732152D01*
X172959889Y-115714594D01*
X172847478Y-115692234D01*
X172847475Y-115692234D01*
X172840775Y-115690901D01*
X172735060Y-115689517D01*
X172636180Y-115688222D01*
X172636175Y-115688222D01*
X172629346Y-115688133D01*
X172622613Y-115689290D01*
X172622612Y-115689290D01*
X172427684Y-115722784D01*
X172427680Y-115722785D01*
X172420953Y-115723941D01*
X172222575Y-115797127D01*
X172216702Y-115800621D01*
X172089270Y-115876435D01*
X172040856Y-115905238D01*
X172008641Y-115933489D01*
X171887022Y-116040146D01*
X171887021Y-116040147D01*
X171881881Y-116044655D01*
X171826189Y-116115300D01*
X171755207Y-116205340D01*
X171755203Y-116205346D01*
X171750976Y-116210708D01*
X171747797Y-116216751D01*
X171747794Y-116216755D01*
X171734295Y-116242413D01*
X171652523Y-116397836D01*
X171650499Y-116404354D01*
X171650496Y-116404362D01*
X171591153Y-116595480D01*
X171549997Y-116660710D01*
X171481739Y-116696622D01*
X171404671Y-116693594D01*
X171339441Y-116652438D01*
X171305449Y-116591741D01*
X171260541Y-116432509D01*
X171258686Y-116425931D01*
X171165165Y-116236290D01*
X171161084Y-116230825D01*
X171161081Y-116230820D01*
X171042739Y-116072341D01*
X171042737Y-116072339D01*
X171038651Y-116066867D01*
X170883381Y-115923337D01*
X170704554Y-115810505D01*
X170698215Y-115807976D01*
X170698209Y-115807973D01*
X170514504Y-115734683D01*
X170508160Y-115732152D01*
X170419889Y-115714594D01*
X170307478Y-115692234D01*
X170307475Y-115692234D01*
X170300775Y-115690901D01*
X170195060Y-115689517D01*
X170096180Y-115688222D01*
X170096175Y-115688222D01*
X170089346Y-115688133D01*
X170082613Y-115689290D01*
X170082612Y-115689290D01*
X169887684Y-115722784D01*
X169887680Y-115722785D01*
X169880953Y-115723941D01*
X169682575Y-115797127D01*
X169676702Y-115800621D01*
X169549270Y-115876435D01*
X169500856Y-115905238D01*
X169468641Y-115933489D01*
X169347022Y-116040146D01*
X169347021Y-116040147D01*
X169341881Y-116044655D01*
X169286189Y-116115300D01*
X169215207Y-116205340D01*
X169215203Y-116205346D01*
X169210976Y-116210708D01*
X169207797Y-116216751D01*
X169207794Y-116216755D01*
X169194295Y-116242413D01*
X169112523Y-116397836D01*
X169110499Y-116404354D01*
X169110496Y-116404362D01*
X169051153Y-116595480D01*
X169009997Y-116660710D01*
X168941739Y-116696622D01*
X168864671Y-116693594D01*
X168799441Y-116652438D01*
X168765449Y-116591741D01*
X168720541Y-116432509D01*
X168718686Y-116425931D01*
X168625165Y-116236290D01*
X168621084Y-116230825D01*
X168621081Y-116230820D01*
X168502739Y-116072341D01*
X168502737Y-116072339D01*
X168498651Y-116066867D01*
X168343381Y-115923337D01*
X168164554Y-115810505D01*
X168158215Y-115807976D01*
X168158209Y-115807973D01*
X167974504Y-115734683D01*
X167968160Y-115732152D01*
X167879889Y-115714594D01*
X167767478Y-115692234D01*
X167767475Y-115692234D01*
X167760775Y-115690901D01*
X167655060Y-115689517D01*
X167556180Y-115688222D01*
X167556175Y-115688222D01*
X167549346Y-115688133D01*
X167542613Y-115689290D01*
X167542612Y-115689290D01*
X167347684Y-115722784D01*
X167347680Y-115722785D01*
X167340953Y-115723941D01*
X167142575Y-115797127D01*
X167136702Y-115800621D01*
X167009270Y-115876435D01*
X166960856Y-115905238D01*
X166928641Y-115933489D01*
X166807022Y-116040146D01*
X166807021Y-116040147D01*
X166801881Y-116044655D01*
X166746189Y-116115300D01*
X166675207Y-116205340D01*
X166675203Y-116205346D01*
X166670976Y-116210708D01*
X166667797Y-116216751D01*
X166667794Y-116216755D01*
X166654295Y-116242413D01*
X166572523Y-116397836D01*
X166570499Y-116404354D01*
X166570496Y-116404362D01*
X166511153Y-116595480D01*
X166469997Y-116660710D01*
X166401739Y-116696622D01*
X166324671Y-116693594D01*
X166259441Y-116652438D01*
X166225449Y-116591741D01*
X166180541Y-116432509D01*
X166178686Y-116425931D01*
X166085165Y-116236290D01*
X166081084Y-116230825D01*
X166081081Y-116230820D01*
X165962739Y-116072341D01*
X165962737Y-116072339D01*
X165958651Y-116066867D01*
X165803381Y-115923337D01*
X165624554Y-115810505D01*
X165618215Y-115807976D01*
X165618209Y-115807973D01*
X165434504Y-115734683D01*
X165428160Y-115732152D01*
X165339889Y-115714594D01*
X165227478Y-115692234D01*
X165227475Y-115692234D01*
X165220775Y-115690901D01*
X165115060Y-115689517D01*
X165016180Y-115688222D01*
X165016175Y-115688222D01*
X165009346Y-115688133D01*
X165002613Y-115689290D01*
X165002612Y-115689290D01*
X164807684Y-115722784D01*
X164807680Y-115722785D01*
X164800953Y-115723941D01*
X164602575Y-115797127D01*
X164596702Y-115800621D01*
X164469270Y-115876435D01*
X164420856Y-115905238D01*
X164388641Y-115933489D01*
X164267022Y-116040146D01*
X164267021Y-116040147D01*
X164261881Y-116044655D01*
X164206189Y-116115300D01*
X164135207Y-116205340D01*
X164135203Y-116205346D01*
X164130976Y-116210708D01*
X164127797Y-116216751D01*
X164127794Y-116216755D01*
X164114295Y-116242413D01*
X164032523Y-116397836D01*
X164030499Y-116404354D01*
X164030496Y-116404362D01*
X163971153Y-116595480D01*
X163929997Y-116660710D01*
X163861739Y-116696622D01*
X163784671Y-116693594D01*
X163719441Y-116652438D01*
X163685449Y-116591741D01*
X163640541Y-116432509D01*
X163638686Y-116425931D01*
X163545165Y-116236290D01*
X163541084Y-116230825D01*
X163541081Y-116230820D01*
X163422739Y-116072341D01*
X163422737Y-116072339D01*
X163418651Y-116066867D01*
X163263381Y-115923337D01*
X163084554Y-115810505D01*
X163078215Y-115807976D01*
X163078209Y-115807973D01*
X162894504Y-115734683D01*
X162888160Y-115732152D01*
X162799889Y-115714594D01*
X162687478Y-115692234D01*
X162687475Y-115692234D01*
X162680775Y-115690901D01*
X162575060Y-115689517D01*
X162476180Y-115688222D01*
X162476175Y-115688222D01*
X162469346Y-115688133D01*
X162462613Y-115689290D01*
X162462612Y-115689290D01*
X162267684Y-115722784D01*
X162267680Y-115722785D01*
X162260953Y-115723941D01*
X162062575Y-115797127D01*
X162056702Y-115800621D01*
X161929270Y-115876435D01*
X161880856Y-115905238D01*
X161848641Y-115933489D01*
X161727022Y-116040146D01*
X161727021Y-116040147D01*
X161721881Y-116044655D01*
X161666189Y-116115300D01*
X161595207Y-116205340D01*
X161595203Y-116205346D01*
X161590976Y-116210708D01*
X161587797Y-116216751D01*
X161587794Y-116216755D01*
X161574295Y-116242413D01*
X161492523Y-116397836D01*
X161490499Y-116404354D01*
X161490496Y-116404362D01*
X161431153Y-116595480D01*
X161389997Y-116660710D01*
X161321739Y-116696622D01*
X161244671Y-116693594D01*
X161179441Y-116652438D01*
X161145449Y-116591741D01*
X161100541Y-116432509D01*
X161098686Y-116425931D01*
X161005165Y-116236290D01*
X161001084Y-116230825D01*
X161001081Y-116230820D01*
X160882739Y-116072341D01*
X160882737Y-116072339D01*
X160878651Y-116066867D01*
X160723381Y-115923337D01*
X160544554Y-115810505D01*
X160538215Y-115807976D01*
X160538209Y-115807973D01*
X160354504Y-115734683D01*
X160348160Y-115732152D01*
X160259889Y-115714594D01*
X160147478Y-115692234D01*
X160147475Y-115692234D01*
X160140775Y-115690901D01*
X160035060Y-115689517D01*
X159936180Y-115688222D01*
X159936175Y-115688222D01*
X159929346Y-115688133D01*
X159922613Y-115689290D01*
X159922612Y-115689290D01*
X159727684Y-115722784D01*
X159727680Y-115722785D01*
X159720953Y-115723941D01*
X159522575Y-115797127D01*
X159516702Y-115800621D01*
X159389270Y-115876435D01*
X159340856Y-115905238D01*
X159308641Y-115933489D01*
X159187022Y-116040146D01*
X159187021Y-116040147D01*
X159181881Y-116044655D01*
X159126189Y-116115300D01*
X159055207Y-116205340D01*
X159055203Y-116205346D01*
X159050976Y-116210708D01*
X159047797Y-116216751D01*
X159047794Y-116216755D01*
X159010862Y-116286952D01*
X158958507Y-116343589D01*
X158884849Y-116366460D01*
X158809622Y-116349438D01*
X158752985Y-116297083D01*
X158729999Y-116217575D01*
X158729999Y-115964376D01*
X158729083Y-115952736D01*
X158716999Y-115876435D01*
X158709841Y-115854403D01*
X158662963Y-115762400D01*
X158649352Y-115743666D01*
X158576334Y-115670648D01*
X158557600Y-115657037D01*
X158465594Y-115610158D01*
X158443569Y-115603001D01*
X158367261Y-115590916D01*
X158355626Y-115590000D01*
X157999616Y-115590000D01*
X157984145Y-115594145D01*
X157980000Y-115609616D01*
X157980000Y-117191000D01*
X157960038Y-117265500D01*
X157905500Y-117320038D01*
X157831000Y-117340000D01*
X157129000Y-117340000D01*
X157054500Y-117320038D01*
X156999962Y-117265500D01*
X156980000Y-117191000D01*
X156980000Y-115609617D01*
X156975855Y-115594146D01*
X156960384Y-115590001D01*
X156649457Y-115590001D01*
X156574957Y-115570039D01*
X156520419Y-115515501D01*
X156500457Y-115440971D01*
X156500708Y-114187897D01*
X156501436Y-110543233D01*
X158094906Y-110543233D01*
X158121102Y-110817792D01*
X158186657Y-111085694D01*
X158188678Y-111090682D01*
X158188679Y-111090687D01*
X158260389Y-111267730D01*
X158290199Y-111341326D01*
X158429558Y-111579335D01*
X158601816Y-111794732D01*
X158645526Y-111835564D01*
X158722796Y-111907745D01*
X158803364Y-111983008D01*
X158962511Y-112093412D01*
X159020934Y-112133941D01*
X159029979Y-112140216D01*
X159034816Y-112142622D01*
X159034817Y-112142623D01*
X159037207Y-112143812D01*
X159276914Y-112263065D01*
X159358323Y-112289752D01*
X159533860Y-112347296D01*
X159533864Y-112347297D01*
X159538998Y-112348980D01*
X159810738Y-112396162D01*
X159897876Y-112400500D01*
X160070070Y-112400500D01*
X160072751Y-112400305D01*
X160072764Y-112400305D01*
X160182744Y-112392325D01*
X160275083Y-112385625D01*
X160544403Y-112326164D01*
X160549452Y-112324251D01*
X160549459Y-112324249D01*
X160797270Y-112230362D01*
X160797271Y-112230361D01*
X160802319Y-112228449D01*
X160807037Y-112225828D01*
X160807040Y-112225827D01*
X160941997Y-112150865D01*
X161043428Y-112094525D01*
X161262678Y-111927198D01*
X161377481Y-111809760D01*
X161451701Y-111733837D01*
X161451703Y-111733835D01*
X161455477Y-111729974D01*
X161514271Y-111649200D01*
X161614606Y-111511355D01*
X161614609Y-111511350D01*
X161617787Y-111506984D01*
X161707573Y-111336329D01*
X161743693Y-111267676D01*
X161743694Y-111267673D01*
X161746206Y-111262899D01*
X161838045Y-111002832D01*
X161891380Y-110732232D01*
X161905094Y-110456767D01*
X161878898Y-110182208D01*
X161813343Y-109914306D01*
X161803692Y-109890477D01*
X161711825Y-109663671D01*
X161709801Y-109658674D01*
X161570442Y-109420665D01*
X161398184Y-109205268D01*
X161196636Y-109016992D01*
X160970021Y-108859784D01*
X160891066Y-108820504D01*
X160797937Y-108774173D01*
X160723086Y-108736935D01*
X160536444Y-108675751D01*
X160466140Y-108652704D01*
X160466136Y-108652703D01*
X160461002Y-108651020D01*
X160189262Y-108603838D01*
X160102124Y-108599500D01*
X159929930Y-108599500D01*
X159927249Y-108599695D01*
X159927236Y-108599695D01*
X159817256Y-108607675D01*
X159724917Y-108614375D01*
X159455597Y-108673836D01*
X159450548Y-108675749D01*
X159450541Y-108675751D01*
X159202730Y-108769638D01*
X159197681Y-108771551D01*
X159192963Y-108774172D01*
X159192960Y-108774173D01*
X159109549Y-108820504D01*
X158956572Y-108905475D01*
X158737322Y-109072802D01*
X158544523Y-109270026D01*
X158541347Y-109274390D01*
X158541344Y-109274393D01*
X158385394Y-109488645D01*
X158385391Y-109488650D01*
X158382213Y-109493016D01*
X158379695Y-109497802D01*
X158260977Y-109723449D01*
X158253794Y-109737101D01*
X158161955Y-109997168D01*
X158160912Y-110002458D01*
X158160911Y-110002463D01*
X158141026Y-110103354D01*
X158108620Y-110267768D01*
X158108352Y-110273148D01*
X158108352Y-110273149D01*
X158104968Y-110341119D01*
X158094906Y-110543233D01*
X156501436Y-110543233D01*
X156502630Y-104567411D01*
X156505777Y-88820331D01*
X161251001Y-88820331D01*
X161251247Y-88826383D01*
X161262159Y-88960555D01*
X161264251Y-88973023D01*
X161317624Y-89180897D01*
X161322037Y-89193358D01*
X161411256Y-89388229D01*
X161417806Y-89399714D01*
X161540123Y-89575705D01*
X161548601Y-89585845D01*
X161700155Y-89737399D01*
X161710295Y-89745877D01*
X161886286Y-89868194D01*
X161897771Y-89874744D01*
X162092642Y-89963963D01*
X162105103Y-89968376D01*
X162312975Y-90021749D01*
X162325446Y-90023841D01*
X162459619Y-90034755D01*
X162465667Y-90035000D01*
X162881384Y-90035000D01*
X162896855Y-90030855D01*
X162901000Y-90015384D01*
X162901000Y-90015383D01*
X163901000Y-90015383D01*
X163905145Y-90030854D01*
X163920616Y-90034999D01*
X164336331Y-90034999D01*
X164342383Y-90034753D01*
X164476555Y-90023841D01*
X164489023Y-90021749D01*
X164696897Y-89968376D01*
X164709358Y-89963963D01*
X164904229Y-89874744D01*
X164915714Y-89868194D01*
X165091705Y-89745877D01*
X165101845Y-89737399D01*
X165253399Y-89585845D01*
X165261877Y-89575705D01*
X165384194Y-89399714D01*
X165390744Y-89388229D01*
X165479963Y-89193358D01*
X165484376Y-89180897D01*
X165537749Y-88973025D01*
X165539841Y-88960554D01*
X165550755Y-88826381D01*
X165551000Y-88820333D01*
X165551000Y-88404616D01*
X165546855Y-88389145D01*
X165531384Y-88385000D01*
X163920616Y-88385000D01*
X163905145Y-88389145D01*
X163901000Y-88404616D01*
X163901000Y-90015383D01*
X162901000Y-90015383D01*
X162901000Y-88404616D01*
X162896855Y-88389145D01*
X162881384Y-88385000D01*
X161270617Y-88385000D01*
X161255146Y-88389145D01*
X161251001Y-88404616D01*
X161251001Y-88820331D01*
X156505777Y-88820331D01*
X156506068Y-87365384D01*
X161251000Y-87365384D01*
X161255145Y-87380855D01*
X161270616Y-87385000D01*
X162881384Y-87385000D01*
X162896855Y-87380855D01*
X162901000Y-87365384D01*
X163901000Y-87365384D01*
X163905145Y-87380855D01*
X163920616Y-87385000D01*
X165531383Y-87385000D01*
X165546854Y-87380855D01*
X165550999Y-87365384D01*
X165550999Y-86949669D01*
X165550753Y-86943617D01*
X165539841Y-86809445D01*
X165537749Y-86796977D01*
X165484376Y-86589103D01*
X165479963Y-86576642D01*
X165390744Y-86381771D01*
X165384194Y-86370286D01*
X165261877Y-86194295D01*
X165253399Y-86184155D01*
X165101845Y-86032601D01*
X165091705Y-86024123D01*
X164915714Y-85901806D01*
X164904229Y-85895256D01*
X164709358Y-85806037D01*
X164696897Y-85801624D01*
X164489025Y-85748251D01*
X164476554Y-85746159D01*
X164342381Y-85735245D01*
X164336333Y-85735000D01*
X163920616Y-85735000D01*
X163905145Y-85739145D01*
X163901000Y-85754616D01*
X163901000Y-87365384D01*
X162901000Y-87365384D01*
X162901000Y-85754617D01*
X162896855Y-85739146D01*
X162881384Y-85735001D01*
X162465669Y-85735001D01*
X162459617Y-85735247D01*
X162325445Y-85746159D01*
X162312977Y-85748251D01*
X162105103Y-85801624D01*
X162092642Y-85806037D01*
X161897771Y-85895256D01*
X161886286Y-85901806D01*
X161710295Y-86024123D01*
X161700155Y-86032601D01*
X161548601Y-86184155D01*
X161540123Y-86194295D01*
X161417806Y-86370286D01*
X161411256Y-86381771D01*
X161322037Y-86576642D01*
X161317624Y-86589103D01*
X161264251Y-86796975D01*
X161262159Y-86809446D01*
X161251245Y-86943619D01*
X161251000Y-86949667D01*
X161251000Y-87365384D01*
X156506068Y-87365384D01*
X156506691Y-84251006D01*
X158501001Y-84251006D01*
X158501200Y-84256448D01*
X158507726Y-84345651D01*
X158509596Y-84357637D01*
X158556089Y-84550553D01*
X158560473Y-84563432D01*
X158641039Y-84743961D01*
X158647699Y-84755828D01*
X158759818Y-84918659D01*
X158768519Y-84929102D01*
X158908438Y-85068776D01*
X158918904Y-85077465D01*
X159081924Y-85189296D01*
X159093800Y-85195934D01*
X159274470Y-85276185D01*
X159287359Y-85280548D01*
X159480364Y-85326706D01*
X159492336Y-85328554D01*
X159579609Y-85334809D01*
X159584937Y-85335000D01*
X159881384Y-85335000D01*
X159896855Y-85330855D01*
X159901000Y-85315384D01*
X159901000Y-85315383D01*
X160901000Y-85315383D01*
X160905145Y-85330854D01*
X160920616Y-85334999D01*
X161217006Y-85334999D01*
X161222448Y-85334800D01*
X161311651Y-85328274D01*
X161323637Y-85326404D01*
X161516553Y-85279911D01*
X161529432Y-85275527D01*
X161709961Y-85194961D01*
X161721828Y-85188301D01*
X161884659Y-85076182D01*
X161895102Y-85067481D01*
X161982783Y-84979646D01*
X164350500Y-84979646D01*
X164353618Y-85005846D01*
X164399061Y-85108153D01*
X164408796Y-85117871D01*
X164457921Y-85166910D01*
X164478287Y-85187241D01*
X164490867Y-85192803D01*
X164490869Y-85192804D01*
X164570426Y-85227976D01*
X164580673Y-85232506D01*
X164595318Y-85234213D01*
X164602070Y-85235001D01*
X164602078Y-85235001D01*
X164606354Y-85235500D01*
X168195646Y-85235500D01*
X168221846Y-85232382D01*
X168324153Y-85186939D01*
X168403241Y-85107713D01*
X168408957Y-85094786D01*
X168443976Y-85015574D01*
X168443976Y-85015573D01*
X168448506Y-85005327D01*
X168451500Y-84979646D01*
X168451500Y-81390354D01*
X168448382Y-81364154D01*
X168402939Y-81261847D01*
X168323713Y-81182759D01*
X168311133Y-81177197D01*
X168311131Y-81177196D01*
X168231574Y-81142024D01*
X168231573Y-81142024D01*
X168221327Y-81137494D01*
X168206682Y-81135787D01*
X168199930Y-81134999D01*
X168199922Y-81134999D01*
X168195646Y-81134500D01*
X164606354Y-81134500D01*
X164580154Y-81137618D01*
X164477847Y-81183061D01*
X164398759Y-81262287D01*
X164353494Y-81364673D01*
X164350500Y-81390354D01*
X164350500Y-84979646D01*
X161982783Y-84979646D01*
X162034776Y-84927562D01*
X162043465Y-84917096D01*
X162155296Y-84754076D01*
X162161934Y-84742200D01*
X162242185Y-84561530D01*
X162246548Y-84548641D01*
X162292706Y-84355636D01*
X162294554Y-84343664D01*
X162300809Y-84256391D01*
X162301000Y-84251063D01*
X162301000Y-83704616D01*
X162296855Y-83689145D01*
X162281384Y-83685000D01*
X160920616Y-83685000D01*
X160905145Y-83689145D01*
X160901000Y-83704616D01*
X160901000Y-85315383D01*
X159901000Y-85315383D01*
X159901000Y-83704616D01*
X159896855Y-83689145D01*
X159881384Y-83685000D01*
X158520617Y-83685000D01*
X158505146Y-83689145D01*
X158501001Y-83704616D01*
X158501001Y-84251006D01*
X156506691Y-84251006D01*
X156507008Y-82665384D01*
X158501000Y-82665384D01*
X158505145Y-82680855D01*
X158520616Y-82685000D01*
X159881384Y-82685000D01*
X159896855Y-82680855D01*
X159901000Y-82665384D01*
X160901000Y-82665384D01*
X160905145Y-82680855D01*
X160920616Y-82685000D01*
X162281383Y-82685000D01*
X162296854Y-82680855D01*
X162300999Y-82665384D01*
X162300999Y-82118994D01*
X162300800Y-82113552D01*
X162294274Y-82024349D01*
X162292404Y-82012363D01*
X162245911Y-81819447D01*
X162241527Y-81806568D01*
X162160961Y-81626039D01*
X162154301Y-81614172D01*
X162042182Y-81451341D01*
X162033481Y-81440898D01*
X161893562Y-81301224D01*
X161883096Y-81292535D01*
X161720076Y-81180704D01*
X161708200Y-81174066D01*
X161527530Y-81093815D01*
X161514641Y-81089452D01*
X161321636Y-81043294D01*
X161309664Y-81041446D01*
X161222391Y-81035191D01*
X161217063Y-81035000D01*
X160920616Y-81035000D01*
X160905145Y-81039145D01*
X160901000Y-81054616D01*
X160901000Y-82665384D01*
X159901000Y-82665384D01*
X159901000Y-81054617D01*
X159896855Y-81039146D01*
X159881384Y-81035001D01*
X159584994Y-81035001D01*
X159579552Y-81035200D01*
X159490349Y-81041726D01*
X159478363Y-81043596D01*
X159285447Y-81090089D01*
X159272568Y-81094473D01*
X159092039Y-81175039D01*
X159080172Y-81181699D01*
X158917341Y-81293818D01*
X158906898Y-81302519D01*
X158767224Y-81442438D01*
X158758535Y-81452904D01*
X158646704Y-81615924D01*
X158640066Y-81627800D01*
X158559815Y-81808470D01*
X158555452Y-81821359D01*
X158509294Y-82014364D01*
X158507446Y-82026336D01*
X158501191Y-82113609D01*
X158501000Y-82118937D01*
X158501000Y-82665384D01*
X156507008Y-82665384D01*
X156508631Y-74543233D01*
X158094906Y-74543233D01*
X158121102Y-74817792D01*
X158186657Y-75085694D01*
X158188678Y-75090682D01*
X158188679Y-75090687D01*
X158262913Y-75273961D01*
X158290199Y-75341326D01*
X158429558Y-75579335D01*
X158601816Y-75794732D01*
X158605764Y-75798420D01*
X158773851Y-75955438D01*
X158803364Y-75983008D01*
X158960334Y-76091902D01*
X159006127Y-76123669D01*
X159029979Y-76140216D01*
X159034816Y-76142622D01*
X159034817Y-76142623D01*
X159099262Y-76174684D01*
X159276914Y-76263065D01*
X159400908Y-76303712D01*
X159533860Y-76347296D01*
X159533864Y-76347297D01*
X159538998Y-76348980D01*
X159810738Y-76396162D01*
X159897876Y-76400500D01*
X160070070Y-76400500D01*
X160072751Y-76400305D01*
X160072764Y-76400305D01*
X160182744Y-76392325D01*
X160275083Y-76385625D01*
X160544403Y-76326164D01*
X160549452Y-76324251D01*
X160549459Y-76324249D01*
X160797270Y-76230362D01*
X160797271Y-76230361D01*
X160802319Y-76228449D01*
X160807037Y-76225828D01*
X160807040Y-76225827D01*
X160956835Y-76142623D01*
X161043428Y-76094525D01*
X161262678Y-75927198D01*
X161426714Y-75759397D01*
X161451701Y-75733837D01*
X161451703Y-75733835D01*
X161455477Y-75729974D01*
X161462671Y-75720091D01*
X161614606Y-75511355D01*
X161614609Y-75511350D01*
X161617787Y-75506984D01*
X161663321Y-75420438D01*
X161743693Y-75267676D01*
X161743694Y-75267673D01*
X161746206Y-75262899D01*
X161838045Y-75002832D01*
X161842053Y-74982500D01*
X161852400Y-74930000D01*
X168030158Y-74930000D01*
X168030974Y-74937760D01*
X168043507Y-75057000D01*
X168048275Y-75102368D01*
X168050685Y-75109785D01*
X168050686Y-75109790D01*
X168098781Y-75257813D01*
X168101832Y-75267202D01*
X168188491Y-75417299D01*
X168304463Y-75546098D01*
X168444679Y-75647971D01*
X168503574Y-75674193D01*
X168595873Y-75715288D01*
X168595877Y-75715289D01*
X168603012Y-75718466D01*
X168610654Y-75720090D01*
X168610656Y-75720091D01*
X168764901Y-75752876D01*
X168764902Y-75752876D01*
X168772542Y-75754500D01*
X168945858Y-75754500D01*
X168953498Y-75752876D01*
X168953499Y-75752876D01*
X169107744Y-75720091D01*
X169107746Y-75720090D01*
X169115388Y-75718466D01*
X169122523Y-75715289D01*
X169122527Y-75715288D01*
X169214826Y-75674193D01*
X169273721Y-75647971D01*
X169413937Y-75546098D01*
X169529909Y-75417299D01*
X169616568Y-75267202D01*
X169619619Y-75257813D01*
X169667714Y-75109790D01*
X169667715Y-75109785D01*
X169670125Y-75102368D01*
X169674894Y-75057000D01*
X169687426Y-74937760D01*
X169688242Y-74930000D01*
X169675883Y-74812412D01*
X169670941Y-74765393D01*
X169670940Y-74765391D01*
X169670125Y-74757632D01*
X169667715Y-74750215D01*
X169667714Y-74750210D01*
X169618980Y-74600220D01*
X169618978Y-74600216D01*
X169616568Y-74592798D01*
X169529909Y-74442701D01*
X169413937Y-74313902D01*
X169357846Y-74273149D01*
X169280040Y-74216620D01*
X169273721Y-74212029D01*
X169194958Y-74176961D01*
X169122527Y-74144712D01*
X169122523Y-74144711D01*
X169115388Y-74141534D01*
X169107746Y-74139910D01*
X169107744Y-74139909D01*
X168953499Y-74107124D01*
X168953498Y-74107124D01*
X168945858Y-74105500D01*
X168772542Y-74105500D01*
X168764902Y-74107124D01*
X168764901Y-74107124D01*
X168610656Y-74139909D01*
X168610654Y-74139910D01*
X168603012Y-74141534D01*
X168595877Y-74144711D01*
X168595873Y-74144712D01*
X168523442Y-74176961D01*
X168444679Y-74212029D01*
X168438360Y-74216620D01*
X168360555Y-74273149D01*
X168304463Y-74313902D01*
X168188491Y-74442701D01*
X168101832Y-74592798D01*
X168099422Y-74600216D01*
X168099420Y-74600220D01*
X168050686Y-74750210D01*
X168050685Y-74750215D01*
X168048275Y-74757632D01*
X168047460Y-74765391D01*
X168047459Y-74765393D01*
X168042517Y-74812412D01*
X168030158Y-74930000D01*
X161852400Y-74930000D01*
X161874516Y-74817792D01*
X161891380Y-74732232D01*
X161905094Y-74456767D01*
X161878898Y-74182208D01*
X161813343Y-73914306D01*
X161739633Y-73732324D01*
X161711825Y-73663671D01*
X161709801Y-73658674D01*
X161570442Y-73420665D01*
X161398184Y-73205268D01*
X161196636Y-73016992D01*
X161025109Y-72898000D01*
X163254958Y-72898000D01*
X163273075Y-73070368D01*
X163275485Y-73077785D01*
X163275486Y-73077790D01*
X163316906Y-73205268D01*
X163326632Y-73235202D01*
X163413291Y-73385299D01*
X163529263Y-73514098D01*
X163669479Y-73615971D01*
X163728374Y-73642193D01*
X163820673Y-73683288D01*
X163820677Y-73683289D01*
X163827812Y-73686466D01*
X163835454Y-73688090D01*
X163835456Y-73688091D01*
X163989701Y-73720876D01*
X163989702Y-73720876D01*
X163997342Y-73722500D01*
X164170658Y-73722500D01*
X164178298Y-73720876D01*
X164178299Y-73720876D01*
X164332544Y-73688091D01*
X164332546Y-73688090D01*
X164340188Y-73686466D01*
X164347323Y-73683289D01*
X164347327Y-73683288D01*
X164439626Y-73642193D01*
X164498521Y-73615971D01*
X164638737Y-73514098D01*
X164754709Y-73385299D01*
X164841368Y-73235202D01*
X164851094Y-73205268D01*
X164892514Y-73077790D01*
X164892515Y-73077785D01*
X164894925Y-73070368D01*
X164913042Y-72898000D01*
X164900027Y-72774173D01*
X164895741Y-72733393D01*
X164895740Y-72733391D01*
X164894925Y-72725632D01*
X164892515Y-72718215D01*
X164892514Y-72718210D01*
X164843780Y-72568220D01*
X164843778Y-72568216D01*
X164841368Y-72560798D01*
X164754709Y-72410701D01*
X164638737Y-72281902D01*
X164498521Y-72180029D01*
X164439626Y-72153807D01*
X164347327Y-72112712D01*
X164347323Y-72112711D01*
X164340188Y-72109534D01*
X164332546Y-72107910D01*
X164332544Y-72107909D01*
X164178299Y-72075124D01*
X164178298Y-72075124D01*
X164170658Y-72073500D01*
X163997342Y-72073500D01*
X163989702Y-72075124D01*
X163989701Y-72075124D01*
X163835456Y-72107909D01*
X163835454Y-72107910D01*
X163827812Y-72109534D01*
X163820677Y-72112711D01*
X163820673Y-72112712D01*
X163728374Y-72153807D01*
X163669479Y-72180029D01*
X163529263Y-72281902D01*
X163413291Y-72410701D01*
X163326632Y-72560798D01*
X163324222Y-72568216D01*
X163324220Y-72568220D01*
X163275486Y-72718210D01*
X163275485Y-72718215D01*
X163273075Y-72725632D01*
X163272260Y-72733391D01*
X163272259Y-72733393D01*
X163267973Y-72774173D01*
X163254958Y-72898000D01*
X161025109Y-72898000D01*
X160974464Y-72862866D01*
X160974462Y-72862865D01*
X160970021Y-72859784D01*
X160723086Y-72736935D01*
X160536444Y-72675751D01*
X160466140Y-72652704D01*
X160466136Y-72652703D01*
X160461002Y-72651020D01*
X160189262Y-72603838D01*
X160102124Y-72599500D01*
X159929930Y-72599500D01*
X159927249Y-72599695D01*
X159927236Y-72599695D01*
X159817256Y-72607675D01*
X159724917Y-72614375D01*
X159455597Y-72673836D01*
X159450548Y-72675749D01*
X159450541Y-72675751D01*
X159282698Y-72739341D01*
X159197681Y-72771551D01*
X159192963Y-72774172D01*
X159192960Y-72774173D01*
X159077126Y-72838513D01*
X158956572Y-72905475D01*
X158737322Y-73072802D01*
X158733549Y-73076662D01*
X158578566Y-73235202D01*
X158544523Y-73270026D01*
X158541347Y-73274390D01*
X158541344Y-73274393D01*
X158385394Y-73488645D01*
X158385391Y-73488650D01*
X158382213Y-73493016D01*
X158253794Y-73737101D01*
X158161955Y-73997168D01*
X158108620Y-74267768D01*
X158094906Y-74543233D01*
X156508631Y-74543233D01*
X156509621Y-69592512D01*
X156529598Y-69518016D01*
X156584147Y-69463489D01*
X156658651Y-69443542D01*
X156733147Y-69463519D01*
X156749854Y-69475004D01*
X156752865Y-69477937D01*
X156928677Y-69595411D01*
X157122953Y-69678878D01*
X157329186Y-69725544D01*
X157380544Y-69727562D01*
X157533641Y-69733578D01*
X157533645Y-69733578D01*
X157540470Y-69733846D01*
X157749730Y-69703504D01*
X157756187Y-69701312D01*
X157756192Y-69701311D01*
X157930500Y-69642141D01*
X157949955Y-69635537D01*
X158044713Y-69582470D01*
X158128481Y-69535558D01*
X158128486Y-69535554D01*
X158134442Y-69532219D01*
X158297012Y-69397012D01*
X158432219Y-69234442D01*
X158435554Y-69228486D01*
X158435558Y-69228481D01*
X158492891Y-69126105D01*
X158535537Y-69049955D01*
X158574054Y-68936487D01*
X158601311Y-68856192D01*
X158601312Y-68856187D01*
X158603504Y-68849730D01*
X158604483Y-68842977D01*
X158606079Y-68836329D01*
X158607585Y-68836691D01*
X158634723Y-68773523D01*
X158696521Y-68727374D01*
X158773114Y-68718306D01*
X158843979Y-68748751D01*
X158890128Y-68810549D01*
X158896152Y-68829088D01*
X158901395Y-68849730D01*
X158930845Y-68965690D01*
X158933703Y-68971890D01*
X158933705Y-68971895D01*
X158971234Y-69053301D01*
X159019369Y-69157714D01*
X159141405Y-69330391D01*
X159292865Y-69477937D01*
X159468677Y-69595411D01*
X159662953Y-69678878D01*
X159869186Y-69725544D01*
X159920544Y-69727562D01*
X160073641Y-69733578D01*
X160073645Y-69733578D01*
X160080470Y-69733846D01*
X160289730Y-69703504D01*
X160296187Y-69701312D01*
X160296192Y-69701311D01*
X160470500Y-69642141D01*
X160489955Y-69635537D01*
X160584713Y-69582470D01*
X160668481Y-69535558D01*
X160668486Y-69535554D01*
X160674442Y-69532219D01*
X160837012Y-69397012D01*
X160972219Y-69234442D01*
X160975554Y-69228486D01*
X160975558Y-69228481D01*
X161032891Y-69126105D01*
X161075537Y-69049955D01*
X161114054Y-68936487D01*
X161141311Y-68856192D01*
X161141312Y-68856187D01*
X161143504Y-68849730D01*
X161144483Y-68842977D01*
X161146079Y-68836329D01*
X161147585Y-68836691D01*
X161174723Y-68773523D01*
X161236521Y-68727374D01*
X161313114Y-68718306D01*
X161383979Y-68748751D01*
X161430128Y-68810549D01*
X161436152Y-68829088D01*
X161441395Y-68849730D01*
X161470845Y-68965690D01*
X161473703Y-68971890D01*
X161473705Y-68971895D01*
X161511234Y-69053301D01*
X161559369Y-69157714D01*
X161681405Y-69330391D01*
X161832865Y-69477937D01*
X162008677Y-69595411D01*
X162202953Y-69678878D01*
X162409186Y-69725544D01*
X162460544Y-69727562D01*
X162613641Y-69733578D01*
X162613645Y-69733578D01*
X162620470Y-69733846D01*
X162829730Y-69703504D01*
X162836187Y-69701312D01*
X162836192Y-69701311D01*
X163010500Y-69642141D01*
X163029955Y-69635537D01*
X163124713Y-69582470D01*
X163208481Y-69535558D01*
X163208486Y-69535554D01*
X163214442Y-69532219D01*
X163377012Y-69397012D01*
X163512219Y-69234442D01*
X163515554Y-69228486D01*
X163515558Y-69228481D01*
X163572891Y-69126105D01*
X163615537Y-69049955D01*
X163654054Y-68936487D01*
X163681311Y-68856192D01*
X163681312Y-68856187D01*
X163683504Y-68849730D01*
X163684483Y-68842977D01*
X163686079Y-68836329D01*
X163687585Y-68836691D01*
X163714723Y-68773523D01*
X163776521Y-68727374D01*
X163853114Y-68718306D01*
X163923979Y-68748751D01*
X163970128Y-68810549D01*
X163976152Y-68829088D01*
X163981395Y-68849730D01*
X164010845Y-68965690D01*
X164013703Y-68971890D01*
X164013705Y-68971895D01*
X164051234Y-69053301D01*
X164099369Y-69157714D01*
X164221405Y-69330391D01*
X164372865Y-69477937D01*
X164548677Y-69595411D01*
X164742953Y-69678878D01*
X164949186Y-69725544D01*
X165000544Y-69727562D01*
X165153641Y-69733578D01*
X165153645Y-69733578D01*
X165160470Y-69733846D01*
X165369730Y-69703504D01*
X165376187Y-69701312D01*
X165376192Y-69701311D01*
X165550500Y-69642141D01*
X165569955Y-69635537D01*
X165664713Y-69582470D01*
X165748481Y-69535558D01*
X165748486Y-69535554D01*
X165754442Y-69532219D01*
X165917012Y-69397012D01*
X166052219Y-69234442D01*
X166055554Y-69228486D01*
X166055558Y-69228481D01*
X166112891Y-69126105D01*
X166155537Y-69049955D01*
X166194054Y-68936487D01*
X166221311Y-68856192D01*
X166221312Y-68856187D01*
X166223504Y-68849730D01*
X166224483Y-68842977D01*
X166226079Y-68836329D01*
X166227585Y-68836691D01*
X166254723Y-68773523D01*
X166316521Y-68727374D01*
X166393114Y-68718306D01*
X166463979Y-68748751D01*
X166510128Y-68810549D01*
X166516152Y-68829088D01*
X166521395Y-68849730D01*
X166550845Y-68965690D01*
X166553703Y-68971890D01*
X166553705Y-68971895D01*
X166591234Y-69053301D01*
X166639369Y-69157714D01*
X166761405Y-69330391D01*
X166912865Y-69477937D01*
X167088677Y-69595411D01*
X167282953Y-69678878D01*
X167489186Y-69725544D01*
X167540544Y-69727562D01*
X167693641Y-69733578D01*
X167693645Y-69733578D01*
X167700470Y-69733846D01*
X167909730Y-69703504D01*
X167916187Y-69701312D01*
X167916192Y-69701311D01*
X168090500Y-69642141D01*
X168109955Y-69635537D01*
X168204713Y-69582470D01*
X168288481Y-69535558D01*
X168288486Y-69535554D01*
X168294442Y-69532219D01*
X168457012Y-69397012D01*
X168592219Y-69234442D01*
X168595554Y-69228486D01*
X168595558Y-69228481D01*
X168652891Y-69126105D01*
X168695537Y-69049955D01*
X168734054Y-68936487D01*
X168761311Y-68856192D01*
X168761312Y-68856187D01*
X168763504Y-68849730D01*
X168764483Y-68842977D01*
X168766079Y-68836329D01*
X168767585Y-68836691D01*
X168794723Y-68773523D01*
X168856521Y-68727374D01*
X168933114Y-68718306D01*
X169003979Y-68748751D01*
X169050128Y-68810549D01*
X169056152Y-68829088D01*
X169061395Y-68849730D01*
X169090845Y-68965690D01*
X169093703Y-68971890D01*
X169093705Y-68971895D01*
X169131234Y-69053301D01*
X169179369Y-69157714D01*
X169301405Y-69330391D01*
X169452865Y-69477937D01*
X169628677Y-69595411D01*
X169822953Y-69678878D01*
X170029186Y-69725544D01*
X170080544Y-69727562D01*
X170233641Y-69733578D01*
X170233645Y-69733578D01*
X170240470Y-69733846D01*
X170449730Y-69703504D01*
X170456187Y-69701312D01*
X170456192Y-69701311D01*
X170630500Y-69642141D01*
X170649955Y-69635537D01*
X170744713Y-69582470D01*
X170828481Y-69535558D01*
X170828486Y-69535554D01*
X170834442Y-69532219D01*
X170997012Y-69397012D01*
X171132219Y-69234442D01*
X171135554Y-69228486D01*
X171135558Y-69228481D01*
X171192891Y-69126105D01*
X171235537Y-69049955D01*
X171274054Y-68936487D01*
X171301311Y-68856192D01*
X171301312Y-68856187D01*
X171303504Y-68849730D01*
X171304483Y-68842977D01*
X171306079Y-68836329D01*
X171307585Y-68836691D01*
X171334723Y-68773523D01*
X171396521Y-68727374D01*
X171473114Y-68718306D01*
X171543979Y-68748751D01*
X171590128Y-68810549D01*
X171596152Y-68829088D01*
X171601395Y-68849730D01*
X171630845Y-68965690D01*
X171633703Y-68971890D01*
X171633705Y-68971895D01*
X171671234Y-69053301D01*
X171719369Y-69157714D01*
X171841405Y-69330391D01*
X171992865Y-69477937D01*
X172168677Y-69595411D01*
X172362953Y-69678878D01*
X172569186Y-69725544D01*
X172620544Y-69727562D01*
X172773641Y-69733578D01*
X172773645Y-69733578D01*
X172780470Y-69733846D01*
X172989730Y-69703504D01*
X172996187Y-69701312D01*
X172996192Y-69701311D01*
X173170500Y-69642141D01*
X173189955Y-69635537D01*
X173284713Y-69582470D01*
X173368481Y-69535558D01*
X173368486Y-69535554D01*
X173374442Y-69532219D01*
X173537012Y-69397012D01*
X173672219Y-69234442D01*
X173675554Y-69228486D01*
X173675558Y-69228481D01*
X173732891Y-69126105D01*
X173775537Y-69049955D01*
X173814054Y-68936487D01*
X173841311Y-68856192D01*
X173841312Y-68856187D01*
X173843504Y-68849730D01*
X173844483Y-68842977D01*
X173846079Y-68836329D01*
X173847585Y-68836691D01*
X173874723Y-68773523D01*
X173936521Y-68727374D01*
X174013114Y-68718306D01*
X174083979Y-68748751D01*
X174130128Y-68810549D01*
X174136152Y-68829088D01*
X174141395Y-68849730D01*
X174170845Y-68965690D01*
X174173703Y-68971890D01*
X174173705Y-68971895D01*
X174211234Y-69053301D01*
X174259369Y-69157714D01*
X174381405Y-69330391D01*
X174532865Y-69477937D01*
X174708677Y-69595411D01*
X174719314Y-69599981D01*
X174779885Y-69647729D01*
X174808467Y-69719365D01*
X174809500Y-69736882D01*
X174809500Y-75910428D01*
X174808467Y-75927941D01*
X174804636Y-75960310D01*
X174806637Y-75971266D01*
X174806637Y-75971269D01*
X174815111Y-76017668D01*
X174815879Y-76022284D01*
X174824551Y-76079962D01*
X174827679Y-76086475D01*
X174828975Y-76093573D01*
X174844609Y-76123669D01*
X174855843Y-76145296D01*
X174857926Y-76149465D01*
X174883191Y-76202079D01*
X174888094Y-76207383D01*
X174891421Y-76213788D01*
X174895725Y-76218828D01*
X174932657Y-76255760D01*
X174936711Y-76259977D01*
X174975146Y-76301556D01*
X174981754Y-76305394D01*
X174986902Y-76310005D01*
X183231765Y-84554868D01*
X183270329Y-84621663D01*
X183274506Y-84643877D01*
X183280042Y-84694020D01*
X183283534Y-84725653D01*
X183335479Y-84867600D01*
X183419784Y-84993058D01*
X183426424Y-84999100D01*
X183426425Y-84999101D01*
X183442341Y-85013583D01*
X183531582Y-85094786D01*
X183539472Y-85099070D01*
X183578086Y-85120036D01*
X183664418Y-85166910D01*
X183673095Y-85169186D01*
X183673099Y-85169188D01*
X183775048Y-85195934D01*
X183810623Y-85205267D01*
X183819599Y-85205408D01*
X183952780Y-85207500D01*
X183961757Y-85207641D01*
X183970511Y-85205636D01*
X183970512Y-85205636D01*
X184100334Y-85175903D01*
X184100336Y-85175902D01*
X184109096Y-85173896D01*
X184146993Y-85154836D01*
X184218128Y-85119058D01*
X184244131Y-85105980D01*
X184250957Y-85100150D01*
X184250960Y-85100148D01*
X184322226Y-85039281D01*
X184359069Y-85007814D01*
X184402293Y-84947661D01*
X184461977Y-84898810D01*
X184538091Y-84886346D01*
X184610240Y-84913608D01*
X184634871Y-84936138D01*
X184638984Y-84942258D01*
X184750782Y-85043986D01*
X184883618Y-85116110D01*
X184892295Y-85118386D01*
X184892299Y-85118388D01*
X185010315Y-85149349D01*
X185029823Y-85154467D01*
X185038799Y-85154608D01*
X185171980Y-85156700D01*
X185180957Y-85156841D01*
X185189711Y-85154836D01*
X185189712Y-85154836D01*
X185319534Y-85125103D01*
X185319536Y-85125102D01*
X185328296Y-85123096D01*
X185358882Y-85107713D01*
X185407544Y-85083238D01*
X185463331Y-85055180D01*
X185470161Y-85049347D01*
X185470165Y-85049344D01*
X185485733Y-85036048D01*
X185555348Y-85002844D01*
X185632238Y-85008896D01*
X185695801Y-85052582D01*
X185729005Y-85122197D01*
X185731500Y-85149349D01*
X185731500Y-85613744D01*
X185711538Y-85688244D01*
X185704406Y-85699417D01*
X185627583Y-85808724D01*
X185572677Y-85949552D01*
X185571504Y-85958458D01*
X185571504Y-85958460D01*
X185559771Y-86047582D01*
X185530256Y-86118839D01*
X185517405Y-86133492D01*
X185480238Y-86170659D01*
X185413443Y-86209223D01*
X185374879Y-86214300D01*
X173487368Y-86214300D01*
X173412868Y-86194338D01*
X173358330Y-86139800D01*
X173338368Y-86065300D01*
X173358330Y-85990800D01*
X173382256Y-85961255D01*
X173381860Y-85960899D01*
X173387087Y-85955094D01*
X173392888Y-85949871D01*
X173397475Y-85943558D01*
X173397482Y-85943550D01*
X173416192Y-85917798D01*
X173426004Y-85905680D01*
X173433692Y-85897141D01*
X173452533Y-85876216D01*
X173459658Y-85863876D01*
X173472357Y-85841880D01*
X173480851Y-85828801D01*
X173499560Y-85803051D01*
X173499566Y-85803041D01*
X173504151Y-85796730D01*
X173520276Y-85760514D01*
X173527347Y-85746635D01*
X173547179Y-85712284D01*
X173551359Y-85699420D01*
X173559432Y-85674575D01*
X173565021Y-85660015D01*
X173581144Y-85623803D01*
X173589387Y-85585023D01*
X173593424Y-85569957D01*
X173603259Y-85539688D01*
X173605674Y-85532256D01*
X173609818Y-85492826D01*
X173612258Y-85477421D01*
X173618876Y-85446286D01*
X173620500Y-85438646D01*
X173620500Y-76152808D01*
X173605674Y-76011744D01*
X173547179Y-75831716D01*
X173482855Y-75720304D01*
X173456438Y-75674547D01*
X173456436Y-75674544D01*
X173452533Y-75667784D01*
X173447311Y-75661984D01*
X173447307Y-75661979D01*
X173368697Y-75574675D01*
X173325871Y-75527112D01*
X173304184Y-75511355D01*
X173179046Y-75420438D01*
X173172730Y-75415849D01*
X172999803Y-75338856D01*
X172992167Y-75337233D01*
X172992164Y-75337232D01*
X172822287Y-75301124D01*
X172822286Y-75301124D01*
X172814646Y-75299500D01*
X172625354Y-75299500D01*
X172617714Y-75301124D01*
X172617713Y-75301124D01*
X172447836Y-75337232D01*
X172447833Y-75337233D01*
X172440197Y-75338856D01*
X172267270Y-75415849D01*
X172260954Y-75420438D01*
X172135817Y-75511355D01*
X172114129Y-75527112D01*
X172071303Y-75574675D01*
X171992693Y-75661979D01*
X171992689Y-75661984D01*
X171987467Y-75667784D01*
X171983564Y-75674544D01*
X171983562Y-75674547D01*
X171957145Y-75720304D01*
X171892821Y-75831716D01*
X171834326Y-76011744D01*
X171819500Y-76152808D01*
X171819500Y-84294500D01*
X171799538Y-84369000D01*
X171745000Y-84423538D01*
X171670500Y-84443500D01*
X170386808Y-84443500D01*
X170323116Y-84450194D01*
X170253514Y-84457509D01*
X170253511Y-84457510D01*
X170245744Y-84458326D01*
X170065716Y-84516821D01*
X169999817Y-84554868D01*
X169908547Y-84607562D01*
X169908544Y-84607564D01*
X169901784Y-84611467D01*
X169895984Y-84616689D01*
X169895979Y-84616693D01*
X169823002Y-84682403D01*
X169761112Y-84738129D01*
X169756521Y-84744447D01*
X169756520Y-84744449D01*
X169703954Y-84816800D01*
X169649849Y-84891270D01*
X169572856Y-85064197D01*
X169571233Y-85071833D01*
X169571232Y-85071836D01*
X169543355Y-85202989D01*
X169533500Y-85249354D01*
X169533500Y-85438646D01*
X169535124Y-85446286D01*
X169535124Y-85446287D01*
X169551746Y-85524486D01*
X169572856Y-85623803D01*
X169649849Y-85796730D01*
X169656611Y-85806037D01*
X169756520Y-85943550D01*
X169761112Y-85949871D01*
X169766918Y-85955099D01*
X169772139Y-85960897D01*
X169771067Y-85961862D01*
X169808339Y-86019256D01*
X169812376Y-86096279D01*
X169777361Y-86165000D01*
X169712676Y-86207007D01*
X169666632Y-86214300D01*
X169402772Y-86214300D01*
X169385259Y-86213267D01*
X169385056Y-86213243D01*
X169352890Y-86209436D01*
X169341934Y-86211437D01*
X169341931Y-86211437D01*
X169295532Y-86219911D01*
X169290916Y-86220679D01*
X169244257Y-86227694D01*
X169244255Y-86227695D01*
X169233238Y-86229351D01*
X169226725Y-86232479D01*
X169219627Y-86233775D01*
X169167887Y-86260652D01*
X169163735Y-86262726D01*
X169111121Y-86287991D01*
X169105817Y-86292894D01*
X169099412Y-86296221D01*
X169094372Y-86300525D01*
X169057440Y-86337457D01*
X169053222Y-86341512D01*
X169019823Y-86372385D01*
X169019822Y-86372387D01*
X169011644Y-86379946D01*
X169007806Y-86386554D01*
X169003195Y-86391702D01*
X161911006Y-93483891D01*
X161897893Y-93495544D01*
X161872290Y-93515728D01*
X161865958Y-93524890D01*
X161865956Y-93524892D01*
X161839141Y-93563690D01*
X161836420Y-93567498D01*
X161828710Y-93577937D01*
X161801766Y-93614416D01*
X161799373Y-93621232D01*
X161795269Y-93627169D01*
X161791910Y-93637790D01*
X161777686Y-93682765D01*
X161776213Y-93687180D01*
X161756881Y-93742231D01*
X161756598Y-93749445D01*
X161754420Y-93756330D01*
X161753900Y-93762937D01*
X161753900Y-93815171D01*
X161753785Y-93821020D01*
X161751562Y-93877594D01*
X161753520Y-93884979D01*
X161753900Y-93891882D01*
X161753900Y-94348679D01*
X161733938Y-94423179D01*
X161679400Y-94477717D01*
X161604900Y-94497679D01*
X161530400Y-94477717D01*
X161495712Y-94449627D01*
X161493651Y-94446867D01*
X161338381Y-94303337D01*
X161159554Y-94190505D01*
X161153215Y-94187976D01*
X161153209Y-94187973D01*
X160969504Y-94114683D01*
X160963160Y-94112152D01*
X160891512Y-94097900D01*
X160822339Y-94063789D01*
X160779489Y-93999659D01*
X160774444Y-93922696D01*
X160808556Y-93853522D01*
X160872686Y-93810672D01*
X160891356Y-93806189D01*
X160891329Y-93806079D01*
X160897977Y-93804483D01*
X160904730Y-93803504D01*
X160911187Y-93801312D01*
X160911192Y-93801311D01*
X161085235Y-93742231D01*
X161104955Y-93735537D01*
X161199713Y-93682470D01*
X161283481Y-93635558D01*
X161283486Y-93635554D01*
X161289442Y-93632219D01*
X161452012Y-93497012D01*
X161587219Y-93334442D01*
X161590554Y-93328486D01*
X161590558Y-93328481D01*
X161667912Y-93190354D01*
X161690537Y-93149955D01*
X161721389Y-93059068D01*
X161756311Y-92956192D01*
X161756312Y-92956187D01*
X161758504Y-92949730D01*
X161788846Y-92740470D01*
X161790429Y-92680000D01*
X161785259Y-92623730D01*
X161771706Y-92476242D01*
X161771081Y-92469440D01*
X161713686Y-92265931D01*
X161620165Y-92076290D01*
X161616084Y-92070825D01*
X161616081Y-92070820D01*
X161497739Y-91912341D01*
X161497737Y-91912339D01*
X161493651Y-91906867D01*
X161338381Y-91763337D01*
X161159554Y-91650505D01*
X161153215Y-91647976D01*
X161153209Y-91647973D01*
X160969504Y-91574683D01*
X160963160Y-91572152D01*
X160908713Y-91561322D01*
X160762478Y-91532234D01*
X160762475Y-91532234D01*
X160755775Y-91530901D01*
X160650060Y-91529517D01*
X160551180Y-91528222D01*
X160551175Y-91528222D01*
X160544346Y-91528133D01*
X160537613Y-91529290D01*
X160537612Y-91529290D01*
X160342684Y-91562784D01*
X160342680Y-91562785D01*
X160335953Y-91563941D01*
X160306836Y-91574683D01*
X160152828Y-91631500D01*
X160137575Y-91637127D01*
X160131702Y-91640621D01*
X159965723Y-91739368D01*
X159955856Y-91745238D01*
X159923641Y-91773489D01*
X159802022Y-91880146D01*
X159802019Y-91880149D01*
X159796881Y-91884655D01*
X159774554Y-91912977D01*
X159670207Y-92045340D01*
X159670203Y-92045346D01*
X159665976Y-92050708D01*
X159662797Y-92056751D01*
X159662794Y-92056755D01*
X159649295Y-92082413D01*
X159567523Y-92237836D01*
X159565499Y-92244356D01*
X159565496Y-92244362D01*
X159506153Y-92435480D01*
X159464997Y-92500710D01*
X159396739Y-92536622D01*
X159319671Y-92533594D01*
X159254441Y-92492438D01*
X159220449Y-92431741D01*
X159175541Y-92272509D01*
X159173686Y-92265931D01*
X159080165Y-92076290D01*
X159076084Y-92070825D01*
X159076081Y-92070820D01*
X158957739Y-91912341D01*
X158957737Y-91912339D01*
X158953651Y-91906867D01*
X158798381Y-91763337D01*
X158619554Y-91650505D01*
X158613215Y-91647976D01*
X158613209Y-91647973D01*
X158429504Y-91574683D01*
X158423160Y-91572152D01*
X158368713Y-91561322D01*
X158222478Y-91532234D01*
X158222475Y-91532234D01*
X158215775Y-91530901D01*
X158110060Y-91529517D01*
X158011180Y-91528222D01*
X158011175Y-91528222D01*
X158004346Y-91528133D01*
X157997613Y-91529290D01*
X157997612Y-91529290D01*
X157802684Y-91562784D01*
X157802680Y-91562785D01*
X157795953Y-91563941D01*
X157766836Y-91574683D01*
X157612828Y-91631500D01*
X157597575Y-91637127D01*
X157591702Y-91640621D01*
X157425723Y-91739368D01*
X157415856Y-91745238D01*
X157383641Y-91773489D01*
X157262022Y-91880146D01*
X157262019Y-91880149D01*
X157256881Y-91884655D01*
X157234554Y-91912977D01*
X157130207Y-92045340D01*
X157130203Y-92045346D01*
X157125976Y-92050708D01*
X157122797Y-92056751D01*
X157122794Y-92056755D01*
X157109295Y-92082413D01*
X157027523Y-92237836D01*
X157016757Y-92272509D01*
X156966844Y-92433253D01*
X156966843Y-92433258D01*
X156964820Y-92439773D01*
X156964018Y-92446550D01*
X156964017Y-92446554D01*
X156941620Y-92635790D01*
X156939967Y-92649754D01*
X156940414Y-92656572D01*
X156953287Y-92852980D01*
X156953796Y-92860749D01*
X157005845Y-93065690D01*
X157008703Y-93071890D01*
X157008705Y-93071895D01*
X157055763Y-93173971D01*
X157094369Y-93257714D01*
X157098305Y-93263284D01*
X157098306Y-93263285D01*
X157144382Y-93328481D01*
X157216405Y-93430391D01*
X157367865Y-93577937D01*
X157543677Y-93695411D01*
X157737953Y-93778878D01*
X157848903Y-93803984D01*
X157917159Y-93839895D01*
X157958316Y-93905124D01*
X157961344Y-93982193D01*
X157925432Y-94050450D01*
X157860203Y-94091607D01*
X157841252Y-94096157D01*
X157824668Y-94099007D01*
X157795953Y-94103941D01*
X157597575Y-94177127D01*
X157591702Y-94180621D01*
X157492258Y-94239784D01*
X157415856Y-94285238D01*
X157383641Y-94313489D01*
X157262022Y-94420146D01*
X157262019Y-94420149D01*
X157256881Y-94424655D01*
X157201189Y-94495300D01*
X157130207Y-94585340D01*
X157130203Y-94585346D01*
X157125976Y-94590708D01*
X157122797Y-94596751D01*
X157122794Y-94596755D01*
X157109295Y-94622413D01*
X157027523Y-94777836D01*
X157016757Y-94812509D01*
X156966844Y-94973253D01*
X156966843Y-94973258D01*
X156964820Y-94979773D01*
X156964018Y-94986550D01*
X156964017Y-94986554D01*
X156953357Y-95076622D01*
X156939967Y-95189754D01*
X156940414Y-95196572D01*
X156953010Y-95388751D01*
X156953796Y-95400749D01*
X156955478Y-95407371D01*
X157003787Y-95597585D01*
X157005845Y-95605690D01*
X157008703Y-95611890D01*
X157008705Y-95611895D01*
X157062078Y-95727670D01*
X157094369Y-95797714D01*
X157098305Y-95803284D01*
X157098306Y-95803285D01*
X157178326Y-95916510D01*
X157216405Y-95970391D01*
X157367865Y-96117937D01*
X157543677Y-96235411D01*
X157549945Y-96238104D01*
X157549947Y-96238105D01*
X157599541Y-96259412D01*
X157737953Y-96318878D01*
X157848903Y-96343984D01*
X157917159Y-96379895D01*
X157958316Y-96445124D01*
X157961344Y-96522193D01*
X157925432Y-96590450D01*
X157860203Y-96631607D01*
X157841252Y-96636157D01*
X157824668Y-96639007D01*
X157795953Y-96643941D01*
X157597575Y-96717127D01*
X157591702Y-96720621D01*
X157473224Y-96791108D01*
X157415856Y-96825238D01*
X157410718Y-96829744D01*
X157262022Y-96960146D01*
X157262019Y-96960149D01*
X157256881Y-96964655D01*
X157230159Y-96998552D01*
X157130207Y-97125340D01*
X157130203Y-97125346D01*
X157125976Y-97130708D01*
X157122797Y-97136751D01*
X157122794Y-97136755D01*
X157099473Y-97181082D01*
X157027523Y-97317836D01*
X157008483Y-97379154D01*
X156966844Y-97513253D01*
X156966843Y-97513258D01*
X156964820Y-97519773D01*
X156964018Y-97526550D01*
X156964017Y-97526554D01*
X156947301Y-97667786D01*
X156939967Y-97729754D01*
X156941461Y-97752546D01*
X156953010Y-97928751D01*
X156953796Y-97940749D01*
X156957040Y-97953523D01*
X156998397Y-98116362D01*
X157005845Y-98145690D01*
X157008703Y-98151890D01*
X157008705Y-98151895D01*
X157050497Y-98242549D01*
X157094369Y-98337714D01*
X157098305Y-98343284D01*
X157098306Y-98343285D01*
X157181570Y-98461101D01*
X157216405Y-98510391D01*
X157367865Y-98657937D01*
X157543677Y-98775411D01*
X157549947Y-98778105D01*
X157549951Y-98778107D01*
X157691077Y-98838739D01*
X157751648Y-98886488D01*
X157780228Y-98958126D01*
X157769161Y-99034455D01*
X157721412Y-99095026D01*
X157677922Y-99116118D01*
X157678239Y-99116988D01*
X157659949Y-99123645D01*
X157473513Y-99210582D01*
X157462281Y-99217066D01*
X157293772Y-99335058D01*
X157283848Y-99343385D01*
X157138385Y-99488848D01*
X157130058Y-99498772D01*
X157012061Y-99667290D01*
X157005587Y-99678502D01*
X156957220Y-99782224D01*
X156954506Y-99797619D01*
X156965248Y-99800000D01*
X159221453Y-99800000D01*
X159238441Y-99795448D01*
X159240118Y-99793771D01*
X159229960Y-99776176D01*
X159184416Y-99678506D01*
X159177939Y-99667290D01*
X159059942Y-99498772D01*
X159051615Y-99488848D01*
X158906157Y-99343390D01*
X158896219Y-99335052D01*
X158727720Y-99217066D01*
X158716492Y-99210584D01*
X158530051Y-99123645D01*
X158511761Y-99116988D01*
X158512228Y-99115705D01*
X158451886Y-99080867D01*
X158413321Y-99014072D01*
X158413319Y-98936944D01*
X158451882Y-98870149D01*
X158509348Y-98834414D01*
X158558488Y-98817733D01*
X158558495Y-98817730D01*
X158564955Y-98815537D01*
X158704568Y-98737350D01*
X158743481Y-98715558D01*
X158743486Y-98715554D01*
X158749442Y-98712219D01*
X158912012Y-98577012D01*
X159047219Y-98414442D01*
X159050554Y-98408486D01*
X159050558Y-98408481D01*
X159126648Y-98272611D01*
X159150537Y-98229955D01*
X159181389Y-98139068D01*
X159216311Y-98036192D01*
X159216312Y-98036187D01*
X159218504Y-98029730D01*
X159219483Y-98022977D01*
X159221079Y-98016329D01*
X159222585Y-98016691D01*
X159249723Y-97953523D01*
X159311521Y-97907374D01*
X159388114Y-97898306D01*
X159458979Y-97928751D01*
X159505128Y-97990549D01*
X159511152Y-98009088D01*
X159538397Y-98116362D01*
X159545845Y-98145690D01*
X159548703Y-98151890D01*
X159548705Y-98151895D01*
X159590497Y-98242549D01*
X159634369Y-98337714D01*
X159638305Y-98343284D01*
X159638306Y-98343285D01*
X159721570Y-98461101D01*
X159756405Y-98510391D01*
X159907865Y-98657937D01*
X160083677Y-98775411D01*
X160089947Y-98778105D01*
X160089951Y-98778107D01*
X160231077Y-98838739D01*
X160291648Y-98886488D01*
X160320228Y-98958126D01*
X160309161Y-99034455D01*
X160261412Y-99095026D01*
X160217922Y-99116118D01*
X160218239Y-99116988D01*
X160199949Y-99123645D01*
X160013513Y-99210582D01*
X160002281Y-99217066D01*
X159833772Y-99335058D01*
X159823848Y-99343385D01*
X159678385Y-99488848D01*
X159670058Y-99498772D01*
X159552061Y-99667290D01*
X159545584Y-99678506D01*
X159500040Y-99776176D01*
X159486982Y-99791738D01*
X159493806Y-99797463D01*
X159505248Y-99800000D01*
X161761453Y-99800000D01*
X161776555Y-99795954D01*
X161774174Y-99785213D01*
X161724413Y-99678502D01*
X161717939Y-99667290D01*
X161599942Y-99498772D01*
X161591615Y-99488848D01*
X161446157Y-99343390D01*
X161436219Y-99335052D01*
X161267720Y-99217066D01*
X161256492Y-99210584D01*
X161070051Y-99123645D01*
X161051761Y-99116988D01*
X161052228Y-99115705D01*
X160991886Y-99080867D01*
X160953321Y-99014072D01*
X160953319Y-98936944D01*
X160991882Y-98870149D01*
X161049348Y-98834414D01*
X161098488Y-98817733D01*
X161098495Y-98817730D01*
X161104955Y-98815537D01*
X161244568Y-98737350D01*
X161283481Y-98715558D01*
X161283486Y-98715554D01*
X161289442Y-98712219D01*
X161452012Y-98577012D01*
X161587219Y-98414442D01*
X161590554Y-98408486D01*
X161590558Y-98408481D01*
X161666648Y-98272611D01*
X161690537Y-98229955D01*
X161721389Y-98139068D01*
X161756311Y-98036192D01*
X161756312Y-98036187D01*
X161758504Y-98029730D01*
X161778193Y-97893942D01*
X161780695Y-97876687D01*
X161811141Y-97805822D01*
X161822794Y-97792709D01*
X163615394Y-96000109D01*
X163628507Y-95988456D01*
X163645364Y-95975167D01*
X163645364Y-95975166D01*
X163654110Y-95968272D01*
X163687256Y-95920314D01*
X163689974Y-95916510D01*
X163718018Y-95878542D01*
X163718019Y-95878541D01*
X163724635Y-95869583D01*
X163727029Y-95862766D01*
X163731131Y-95856831D01*
X163748706Y-95801261D01*
X163750172Y-95796864D01*
X163769520Y-95741769D01*
X163769804Y-95734552D01*
X163771980Y-95727670D01*
X163772500Y-95721063D01*
X163772500Y-95668854D01*
X163772615Y-95663004D01*
X163774402Y-95617534D01*
X163774402Y-95617532D01*
X163774839Y-95606406D01*
X163772880Y-95599019D01*
X163772500Y-95592111D01*
X163772500Y-94228321D01*
X163792462Y-94153821D01*
X163816141Y-94122962D01*
X167794918Y-90144185D01*
X167861713Y-90105621D01*
X167938841Y-90105621D01*
X168005636Y-90144185D01*
X168044200Y-90210980D01*
X168044200Y-90288108D01*
X168029844Y-90323119D01*
X166039800Y-93827600D01*
X166039800Y-101904800D01*
X166808141Y-102673141D01*
X166846705Y-102739936D01*
X166846705Y-102817064D01*
X166808141Y-102883859D01*
X166741346Y-102922423D01*
X166702782Y-102927500D01*
X165094321Y-102927500D01*
X165019821Y-102907538D01*
X164988962Y-102883859D01*
X163411709Y-101306606D01*
X163400056Y-101293493D01*
X163386767Y-101276636D01*
X163386766Y-101276636D01*
X163379872Y-101267890D01*
X163370710Y-101261558D01*
X163370708Y-101261556D01*
X163331910Y-101234741D01*
X163328102Y-101232020D01*
X163290143Y-101203983D01*
X163290142Y-101203982D01*
X163281184Y-101197366D01*
X163274368Y-101194973D01*
X163268431Y-101190869D01*
X163212832Y-101173285D01*
X163208420Y-101171813D01*
X163153369Y-101152481D01*
X163146155Y-101152198D01*
X163139270Y-101150020D01*
X163132663Y-101149500D01*
X163080429Y-101149500D01*
X163074579Y-101149385D01*
X163029133Y-101147599D01*
X163029131Y-101147599D01*
X163018006Y-101147162D01*
X163010621Y-101149120D01*
X163003718Y-101149500D01*
X161850851Y-101149500D01*
X161776351Y-101129538D01*
X161721813Y-101075000D01*
X161701851Y-101000500D01*
X161721816Y-100925995D01*
X161724415Y-100921493D01*
X161772780Y-100817776D01*
X161775494Y-100802381D01*
X161764752Y-100800000D01*
X159508547Y-100800000D01*
X159491559Y-100804552D01*
X159489882Y-100806229D01*
X159500040Y-100823824D01*
X159545582Y-100921489D01*
X159548184Y-100925995D01*
X159568149Y-101000494D01*
X159548190Y-101074995D01*
X159493654Y-101129535D01*
X159419149Y-101149500D01*
X159370572Y-101149500D01*
X159353059Y-101148467D01*
X159331753Y-101145945D01*
X159331751Y-101145945D01*
X159320690Y-101144636D01*
X159314542Y-101145759D01*
X159242186Y-101128785D01*
X159185963Y-101075986D01*
X159163672Y-101002149D01*
X159182370Y-100927716D01*
X159181667Y-100927388D01*
X159183370Y-100923737D01*
X159183562Y-100922971D01*
X159184418Y-100921488D01*
X159229960Y-100823824D01*
X159243018Y-100808262D01*
X159236194Y-100802537D01*
X159224752Y-100800000D01*
X156968547Y-100800000D01*
X156953445Y-100804046D01*
X156955826Y-100814787D01*
X157005587Y-100921498D01*
X157012061Y-100932710D01*
X157130058Y-101101228D01*
X157138385Y-101111152D01*
X157283843Y-101256610D01*
X157293781Y-101264948D01*
X157462280Y-101382934D01*
X157473508Y-101389416D01*
X157507914Y-101405460D01*
X157566997Y-101455037D01*
X157593377Y-101527513D01*
X157579984Y-101603470D01*
X157530407Y-101662553D01*
X157457931Y-101688933D01*
X157444944Y-101689500D01*
X157200354Y-101689500D01*
X157174154Y-101692618D01*
X157071847Y-101738061D01*
X156992759Y-101817287D01*
X156987197Y-101829867D01*
X156987196Y-101829869D01*
X156958896Y-101893882D01*
X156947494Y-101919673D01*
X156944500Y-101945354D01*
X156944500Y-103734646D01*
X156947618Y-103760846D01*
X156993061Y-103863153D01*
X157072287Y-103942241D01*
X157084867Y-103947803D01*
X157084869Y-103947804D01*
X157164426Y-103982976D01*
X157174673Y-103987506D01*
X157189318Y-103989213D01*
X157196070Y-103990001D01*
X157196078Y-103990001D01*
X157200354Y-103990500D01*
X158989646Y-103990500D01*
X159015846Y-103987382D01*
X159118153Y-103941939D01*
X159197241Y-103862713D01*
X159204377Y-103846574D01*
X159237976Y-103770574D01*
X159237976Y-103770573D01*
X159242506Y-103760327D01*
X159244674Y-103741730D01*
X159245001Y-103738930D01*
X159245001Y-103738922D01*
X159245500Y-103734646D01*
X159245500Y-103235080D01*
X159265462Y-103160580D01*
X159320000Y-103106042D01*
X159394500Y-103086080D01*
X159469000Y-103106042D01*
X159523538Y-103160580D01*
X159538915Y-103198402D01*
X159545845Y-103225690D01*
X159548703Y-103231890D01*
X159548705Y-103231895D01*
X159592722Y-103327375D01*
X159634369Y-103417714D01*
X159638305Y-103423284D01*
X159638306Y-103423285D01*
X159721570Y-103541101D01*
X159756405Y-103590391D01*
X159907865Y-103737937D01*
X160083677Y-103855411D01*
X160089945Y-103858104D01*
X160089947Y-103858105D01*
X160126232Y-103873694D01*
X160277953Y-103938878D01*
X160484186Y-103985544D01*
X160535544Y-103987562D01*
X160688641Y-103993578D01*
X160688645Y-103993578D01*
X160695470Y-103993846D01*
X160904730Y-103963504D01*
X160911192Y-103961310D01*
X160911198Y-103961309D01*
X160978753Y-103938377D01*
X161055716Y-103933332D01*
X161124890Y-103967445D01*
X161132007Y-103974110D01*
X161591291Y-104433394D01*
X161602944Y-104446507D01*
X161623128Y-104472110D01*
X161632291Y-104478443D01*
X161671082Y-104505253D01*
X161674890Y-104507974D01*
X161693379Y-104521630D01*
X161721817Y-104542635D01*
X161728634Y-104545029D01*
X161734569Y-104549131D01*
X161745187Y-104552489D01*
X161745189Y-104552490D01*
X161790139Y-104566706D01*
X161794536Y-104568172D01*
X161849631Y-104587520D01*
X161856848Y-104587804D01*
X161863730Y-104589980D01*
X161870337Y-104590500D01*
X161922546Y-104590500D01*
X161928396Y-104590615D01*
X161973866Y-104592402D01*
X161973868Y-104592402D01*
X161984994Y-104592839D01*
X161992381Y-104590880D01*
X161999289Y-104590500D01*
X175070019Y-104590500D01*
X175144519Y-104610462D01*
X175199057Y-104665000D01*
X175219019Y-104739500D01*
X175199057Y-104814000D01*
X175144519Y-104868538D01*
X175130623Y-104875618D01*
X174972479Y-104946029D01*
X174832263Y-105047902D01*
X174716291Y-105176701D01*
X174629632Y-105326798D01*
X174627222Y-105334216D01*
X174627220Y-105334220D01*
X174578486Y-105484210D01*
X174578485Y-105484215D01*
X174576075Y-105491632D01*
X174557958Y-105664000D01*
X174558774Y-105671764D01*
X174564200Y-105723383D01*
X174576075Y-105836368D01*
X174578485Y-105843785D01*
X174578486Y-105843790D01*
X174627220Y-105993780D01*
X174629632Y-106001202D01*
X174716291Y-106151299D01*
X174832263Y-106280098D01*
X174972479Y-106381971D01*
X175031374Y-106408193D01*
X175123673Y-106449288D01*
X175123677Y-106449289D01*
X175130812Y-106452466D01*
X175138454Y-106454090D01*
X175138456Y-106454091D01*
X175292701Y-106486876D01*
X175292702Y-106486876D01*
X175300342Y-106488500D01*
X175473658Y-106488500D01*
X175481298Y-106486876D01*
X175481299Y-106486876D01*
X175635544Y-106454091D01*
X175635546Y-106454090D01*
X175643188Y-106452466D01*
X175650323Y-106449289D01*
X175650327Y-106449288D01*
X175742626Y-106408193D01*
X175801521Y-106381971D01*
X175941737Y-106280098D01*
X176057709Y-106151299D01*
X176144368Y-106001202D01*
X176146780Y-105993780D01*
X176195514Y-105843790D01*
X176195515Y-105843785D01*
X176197925Y-105836368D01*
X176209801Y-105723383D01*
X176215226Y-105671764D01*
X176216042Y-105664000D01*
X176197925Y-105491632D01*
X176195515Y-105484215D01*
X176195514Y-105484210D01*
X176146780Y-105334220D01*
X176146778Y-105334216D01*
X176144368Y-105326798D01*
X176057709Y-105176701D01*
X175941737Y-105047902D01*
X175801521Y-104946029D01*
X175742626Y-104919807D01*
X175650327Y-104878712D01*
X175650323Y-104878711D01*
X175643188Y-104875534D01*
X175635546Y-104873910D01*
X175635544Y-104873909D01*
X175481299Y-104841124D01*
X175481298Y-104841124D01*
X175473658Y-104839500D01*
X175373803Y-104839500D01*
X175299303Y-104819538D01*
X175244765Y-104765000D01*
X175224803Y-104690500D01*
X175244765Y-104616000D01*
X175305117Y-104558276D01*
X175332295Y-104544158D01*
X175336465Y-104542074D01*
X175389079Y-104516809D01*
X175394383Y-104511906D01*
X175400788Y-104508579D01*
X175405828Y-104504275D01*
X175442760Y-104467343D01*
X175446978Y-104463288D01*
X175480377Y-104432415D01*
X175480378Y-104432413D01*
X175488556Y-104424854D01*
X175492394Y-104418246D01*
X175497005Y-104413098D01*
X183775918Y-96134185D01*
X183842713Y-96095621D01*
X183919841Y-96095621D01*
X183986636Y-96134185D01*
X184025200Y-96200980D01*
X184027864Y-96241499D01*
X184030214Y-96241524D01*
X184030120Y-96250503D01*
X184028947Y-96259412D01*
X184029933Y-96268343D01*
X184029933Y-96268344D01*
X184042249Y-96379895D01*
X184045534Y-96409653D01*
X184097479Y-96551600D01*
X184102486Y-96559051D01*
X184157770Y-96641321D01*
X184181784Y-96677058D01*
X184293582Y-96778786D01*
X184426418Y-96850910D01*
X184435095Y-96853186D01*
X184435099Y-96853188D01*
X184562051Y-96886493D01*
X184572623Y-96889267D01*
X184581599Y-96889408D01*
X184657331Y-96890598D01*
X184731508Y-96911729D01*
X184785182Y-96967117D01*
X184803972Y-97041921D01*
X184802715Y-97059026D01*
X184790947Y-97148412D01*
X184791933Y-97157343D01*
X184791933Y-97157344D01*
X184803567Y-97262718D01*
X184807534Y-97298653D01*
X184810621Y-97307088D01*
X184810621Y-97307089D01*
X184816941Y-97324359D01*
X184859479Y-97440600D01*
X184864486Y-97448051D01*
X184912682Y-97519773D01*
X184943784Y-97566058D01*
X184950424Y-97572100D01*
X184950425Y-97572101D01*
X184959886Y-97580710D01*
X185055582Y-97667786D01*
X185188418Y-97739910D01*
X185197095Y-97742186D01*
X185197099Y-97742188D01*
X185324051Y-97775493D01*
X185334623Y-97778267D01*
X185343599Y-97778408D01*
X185419331Y-97779598D01*
X185493508Y-97800729D01*
X185547182Y-97856117D01*
X185565972Y-97930921D01*
X185564715Y-97948026D01*
X185552947Y-98037412D01*
X185553933Y-98046343D01*
X185553933Y-98046344D01*
X185560858Y-98109065D01*
X185569534Y-98187653D01*
X185572621Y-98196088D01*
X185572621Y-98196089D01*
X185587192Y-98235907D01*
X185621479Y-98329600D01*
X185627614Y-98338730D01*
X185682022Y-98419696D01*
X185705784Y-98455058D01*
X185712424Y-98461100D01*
X185712425Y-98461101D01*
X185722001Y-98469814D01*
X185817582Y-98556786D01*
X185825472Y-98561070D01*
X185838199Y-98567980D01*
X185950418Y-98628910D01*
X185959095Y-98631186D01*
X185959099Y-98631188D01*
X186061060Y-98657937D01*
X186096623Y-98667267D01*
X186105599Y-98667408D01*
X186238780Y-98669500D01*
X186247757Y-98669641D01*
X186256511Y-98667636D01*
X186256512Y-98667636D01*
X186386334Y-98637903D01*
X186386336Y-98637902D01*
X186395096Y-98635896D01*
X186530131Y-98567980D01*
X186536957Y-98562150D01*
X186536960Y-98562148D01*
X186604083Y-98504819D01*
X186645069Y-98469814D01*
X186661463Y-98447000D01*
X186728030Y-98354362D01*
X186728031Y-98354360D01*
X186733273Y-98347065D01*
X186739525Y-98331514D01*
X186775288Y-98242549D01*
X186789651Y-98206820D01*
X186810949Y-98057175D01*
X186811087Y-98044000D01*
X186792928Y-97893942D01*
X186739499Y-97752546D01*
X186658705Y-97634990D01*
X186632959Y-97562285D01*
X186632500Y-97550595D01*
X186632500Y-96641321D01*
X186652462Y-96566821D01*
X186676141Y-96535962D01*
X190503387Y-92708716D01*
X190570182Y-92670152D01*
X190647310Y-92670152D01*
X190714105Y-92708716D01*
X190750454Y-92768033D01*
X190756219Y-92785777D01*
X190756220Y-92785780D01*
X190758632Y-92793202D01*
X190801454Y-92867371D01*
X190841267Y-92936329D01*
X190845291Y-92943299D01*
X190961263Y-93072098D01*
X190967582Y-93076689D01*
X190967583Y-93076690D01*
X191095160Y-93169380D01*
X191101479Y-93173971D01*
X191138276Y-93190354D01*
X191252673Y-93241288D01*
X191252677Y-93241289D01*
X191259812Y-93244466D01*
X191267454Y-93246090D01*
X191267456Y-93246091D01*
X191421701Y-93278876D01*
X191421702Y-93278876D01*
X191429342Y-93280500D01*
X191602658Y-93280500D01*
X191610298Y-93278876D01*
X191610299Y-93278876D01*
X191764544Y-93246091D01*
X191764546Y-93246090D01*
X191772188Y-93244466D01*
X191779323Y-93241289D01*
X191779327Y-93241288D01*
X191893724Y-93190354D01*
X191930521Y-93173971D01*
X191936840Y-93169380D01*
X192064417Y-93076690D01*
X192064418Y-93076689D01*
X192070737Y-93072098D01*
X192186709Y-92943299D01*
X192190734Y-92936329D01*
X192230546Y-92867371D01*
X192273368Y-92793202D01*
X192275780Y-92785780D01*
X192324514Y-92635790D01*
X192324515Y-92635785D01*
X192326925Y-92628368D01*
X192336887Y-92533594D01*
X192344226Y-92463764D01*
X192345042Y-92456000D01*
X192332206Y-92333878D01*
X192327741Y-92291393D01*
X192327740Y-92291391D01*
X192326925Y-92283632D01*
X192324515Y-92276215D01*
X192324514Y-92276210D01*
X192275780Y-92126220D01*
X192275778Y-92126216D01*
X192273368Y-92118798D01*
X192186709Y-91968701D01*
X192070737Y-91839902D01*
X192042182Y-91819155D01*
X191936840Y-91742620D01*
X191930521Y-91738029D01*
X191812744Y-91685591D01*
X191752804Y-91637053D01*
X191725164Y-91565047D01*
X191737230Y-91488869D01*
X191767989Y-91444114D01*
X191936394Y-91275709D01*
X191949507Y-91264056D01*
X191966364Y-91250767D01*
X191966364Y-91250766D01*
X191975110Y-91243872D01*
X191981444Y-91234708D01*
X192008259Y-91195910D01*
X192010980Y-91192102D01*
X192039017Y-91154143D01*
X192039018Y-91154142D01*
X192045634Y-91145184D01*
X192048027Y-91138368D01*
X192052131Y-91132431D01*
X192069715Y-91076832D01*
X192071194Y-91072398D01*
X192090519Y-91017369D01*
X192090802Y-91010155D01*
X192092980Y-91003270D01*
X192093500Y-90996663D01*
X192093500Y-90944429D01*
X192093615Y-90938579D01*
X192095401Y-90893134D01*
X192095401Y-90893132D01*
X192095838Y-90882006D01*
X192093880Y-90874622D01*
X192093500Y-90867720D01*
X192093500Y-87122000D01*
X195004958Y-87122000D01*
X195005774Y-87129764D01*
X195019811Y-87263310D01*
X195023075Y-87294368D01*
X195025485Y-87301785D01*
X195025486Y-87301790D01*
X195074220Y-87451780D01*
X195076632Y-87459202D01*
X195093107Y-87487737D01*
X195147671Y-87582244D01*
X195163291Y-87609299D01*
X195279263Y-87738098D01*
X195285582Y-87742689D01*
X195285583Y-87742690D01*
X195413160Y-87835380D01*
X195419479Y-87839971D01*
X195478374Y-87866193D01*
X195570673Y-87907288D01*
X195570677Y-87907289D01*
X195577812Y-87910466D01*
X195585454Y-87912090D01*
X195585456Y-87912091D01*
X195739701Y-87944876D01*
X195739702Y-87944876D01*
X195747342Y-87946500D01*
X195920658Y-87946500D01*
X195928298Y-87944876D01*
X195928299Y-87944876D01*
X196082544Y-87912091D01*
X196082546Y-87912090D01*
X196090188Y-87910466D01*
X196097323Y-87907289D01*
X196097327Y-87907288D01*
X196189626Y-87866193D01*
X196248521Y-87839971D01*
X196254840Y-87835380D01*
X196382417Y-87742690D01*
X196382418Y-87742689D01*
X196388737Y-87738098D01*
X196504709Y-87609299D01*
X196520330Y-87582244D01*
X196574893Y-87487737D01*
X196591368Y-87459202D01*
X196593780Y-87451780D01*
X196642514Y-87301790D01*
X196642515Y-87301785D01*
X196644925Y-87294368D01*
X196648190Y-87263310D01*
X196662226Y-87129764D01*
X196663042Y-87122000D01*
X196660092Y-87093937D01*
X196645741Y-86957393D01*
X196645740Y-86957391D01*
X196644925Y-86949632D01*
X196642515Y-86942215D01*
X196642514Y-86942210D01*
X196593780Y-86792220D01*
X196593778Y-86792216D01*
X196591368Y-86784798D01*
X196504709Y-86634701D01*
X196388737Y-86505902D01*
X196248521Y-86404029D01*
X196172734Y-86370286D01*
X196097327Y-86336712D01*
X196097323Y-86336711D01*
X196090188Y-86333534D01*
X196082546Y-86331910D01*
X196082544Y-86331909D01*
X195928299Y-86299124D01*
X195928298Y-86299124D01*
X195920658Y-86297500D01*
X195747342Y-86297500D01*
X195739702Y-86299124D01*
X195739701Y-86299124D01*
X195585456Y-86331909D01*
X195585454Y-86331910D01*
X195577812Y-86333534D01*
X195570677Y-86336711D01*
X195570673Y-86336712D01*
X195495266Y-86370286D01*
X195419479Y-86404029D01*
X195279263Y-86505902D01*
X195163291Y-86634701D01*
X195076632Y-86784798D01*
X195074222Y-86792216D01*
X195074220Y-86792220D01*
X195025486Y-86942210D01*
X195025485Y-86942215D01*
X195023075Y-86949632D01*
X195022260Y-86957391D01*
X195022259Y-86957393D01*
X195007908Y-87093937D01*
X195004958Y-87122000D01*
X192093500Y-87122000D01*
X192093500Y-83947000D01*
X193226958Y-83947000D01*
X193227774Y-83954764D01*
X193244118Y-84110259D01*
X193245075Y-84119368D01*
X193247485Y-84126785D01*
X193247486Y-84126790D01*
X193289614Y-84256448D01*
X193298632Y-84284202D01*
X193304578Y-84294500D01*
X193374208Y-84415102D01*
X193385291Y-84434299D01*
X193501263Y-84563098D01*
X193641479Y-84664971D01*
X193700374Y-84691193D01*
X193792673Y-84732288D01*
X193792677Y-84732289D01*
X193799812Y-84735466D01*
X193807454Y-84737090D01*
X193807456Y-84737091D01*
X193961701Y-84769876D01*
X193961702Y-84769876D01*
X193969342Y-84771500D01*
X194142658Y-84771500D01*
X194150298Y-84769876D01*
X194150299Y-84769876D01*
X194304544Y-84737091D01*
X194304546Y-84737090D01*
X194312188Y-84735466D01*
X194319323Y-84732289D01*
X194319327Y-84732288D01*
X194411626Y-84691193D01*
X194470521Y-84664971D01*
X194610737Y-84563098D01*
X194726709Y-84434299D01*
X194737793Y-84415102D01*
X194807422Y-84294500D01*
X194813368Y-84284202D01*
X194822386Y-84256448D01*
X194864514Y-84126790D01*
X194864515Y-84126785D01*
X194866925Y-84119368D01*
X194867883Y-84110259D01*
X194884226Y-83954764D01*
X194885042Y-83947000D01*
X194884043Y-83937495D01*
X194867741Y-83782393D01*
X194867740Y-83782391D01*
X194866925Y-83774632D01*
X194864515Y-83767215D01*
X194864514Y-83767210D01*
X194815780Y-83617220D01*
X194815778Y-83617216D01*
X194813368Y-83609798D01*
X194726709Y-83459701D01*
X194610737Y-83330902D01*
X194470521Y-83229029D01*
X194411626Y-83202807D01*
X194319327Y-83161712D01*
X194319323Y-83161711D01*
X194312188Y-83158534D01*
X194304546Y-83156910D01*
X194304544Y-83156909D01*
X194150299Y-83124124D01*
X194150298Y-83124124D01*
X194142658Y-83122500D01*
X193969342Y-83122500D01*
X193961702Y-83124124D01*
X193961701Y-83124124D01*
X193807456Y-83156909D01*
X193807454Y-83156910D01*
X193799812Y-83158534D01*
X193792677Y-83161711D01*
X193792673Y-83161712D01*
X193700374Y-83202807D01*
X193641479Y-83229029D01*
X193501263Y-83330902D01*
X193385291Y-83459701D01*
X193298632Y-83609798D01*
X193296222Y-83617216D01*
X193296220Y-83617220D01*
X193247486Y-83767210D01*
X193247485Y-83767215D01*
X193245075Y-83774632D01*
X193244260Y-83782391D01*
X193244259Y-83782393D01*
X193227957Y-83937495D01*
X193226958Y-83947000D01*
X192093500Y-83947000D01*
X192093500Y-77845321D01*
X192113462Y-77770821D01*
X192137141Y-77739962D01*
X192980976Y-76896127D01*
X193047771Y-76857563D01*
X193124899Y-76857563D01*
X193191694Y-76896127D01*
X193230258Y-76962922D01*
X193234519Y-77017061D01*
X193231561Y-77045202D01*
X193226958Y-77089000D01*
X193245075Y-77261368D01*
X193247485Y-77268785D01*
X193247486Y-77268790D01*
X193296055Y-77418272D01*
X193298632Y-77426202D01*
X193338617Y-77495458D01*
X193362531Y-77536877D01*
X193385291Y-77576299D01*
X193501263Y-77705098D01*
X193507582Y-77709689D01*
X193507583Y-77709690D01*
X193524580Y-77722039D01*
X193641479Y-77806971D01*
X193698674Y-77832436D01*
X193792673Y-77874288D01*
X193792677Y-77874289D01*
X193799812Y-77877466D01*
X193807454Y-77879090D01*
X193807456Y-77879091D01*
X193961701Y-77911876D01*
X193961702Y-77911876D01*
X193969342Y-77913500D01*
X194142658Y-77913500D01*
X194150298Y-77911876D01*
X194150299Y-77911876D01*
X194304544Y-77879091D01*
X194304546Y-77879090D01*
X194312188Y-77877466D01*
X194319323Y-77874289D01*
X194319327Y-77874288D01*
X194413326Y-77832436D01*
X194470521Y-77806971D01*
X194587420Y-77722039D01*
X194604417Y-77709690D01*
X194604418Y-77709689D01*
X194610737Y-77705098D01*
X194726709Y-77576299D01*
X194749470Y-77536877D01*
X194773383Y-77495458D01*
X194813368Y-77426202D01*
X194815945Y-77418272D01*
X194864514Y-77268790D01*
X194864515Y-77268785D01*
X194866925Y-77261368D01*
X194885042Y-77089000D01*
X194880439Y-77045202D01*
X194867741Y-76924393D01*
X194867740Y-76924391D01*
X194866925Y-76916632D01*
X194864515Y-76909215D01*
X194864514Y-76909210D01*
X194815780Y-76759220D01*
X194815778Y-76759216D01*
X194813368Y-76751798D01*
X194746975Y-76636802D01*
X194730614Y-76608464D01*
X194730612Y-76608462D01*
X194726709Y-76601701D01*
X194610737Y-76472902D01*
X194524466Y-76410222D01*
X194476840Y-76375620D01*
X194470521Y-76371029D01*
X194410799Y-76344439D01*
X194319327Y-76303712D01*
X194319323Y-76303711D01*
X194312188Y-76300534D01*
X194304546Y-76298910D01*
X194304544Y-76298909D01*
X194150299Y-76266124D01*
X194150298Y-76266124D01*
X194142658Y-76264500D01*
X193972321Y-76264500D01*
X193897821Y-76244538D01*
X193843283Y-76190000D01*
X193823321Y-76115500D01*
X193843283Y-76041000D01*
X193866962Y-76010141D01*
X200159840Y-69717263D01*
X200226635Y-69678699D01*
X200302544Y-69680685D01*
X200302953Y-69678878D01*
X200509186Y-69725544D01*
X200560544Y-69727562D01*
X200713641Y-69733578D01*
X200713645Y-69733578D01*
X200720470Y-69733846D01*
X200929730Y-69703504D01*
X200936187Y-69701312D01*
X200936192Y-69701311D01*
X201110500Y-69642141D01*
X201129955Y-69635537D01*
X201224713Y-69582470D01*
X201308481Y-69535558D01*
X201308486Y-69535554D01*
X201314442Y-69532219D01*
X201477012Y-69397012D01*
X201612219Y-69234442D01*
X201615554Y-69228486D01*
X201615558Y-69228481D01*
X201672891Y-69126105D01*
X201715537Y-69049955D01*
X201754054Y-68936487D01*
X201781311Y-68856192D01*
X201781312Y-68856187D01*
X201783504Y-68849730D01*
X201784483Y-68842977D01*
X201786079Y-68836329D01*
X201787585Y-68836691D01*
X201814723Y-68773523D01*
X201876521Y-68727374D01*
X201953114Y-68718306D01*
X202023979Y-68748751D01*
X202070128Y-68810549D01*
X202076152Y-68829088D01*
X202081395Y-68849730D01*
X202110845Y-68965690D01*
X202113703Y-68971890D01*
X202113705Y-68971895D01*
X202151234Y-69053301D01*
X202199369Y-69157714D01*
X202321405Y-69330391D01*
X202472865Y-69477937D01*
X202648677Y-69595411D01*
X202842953Y-69678878D01*
X203049186Y-69725544D01*
X203100544Y-69727562D01*
X203253641Y-69733578D01*
X203253645Y-69733578D01*
X203260470Y-69733846D01*
X203469730Y-69703504D01*
X203476187Y-69701312D01*
X203476192Y-69701311D01*
X203650500Y-69642141D01*
X203669955Y-69635537D01*
X203764713Y-69582470D01*
X203848481Y-69535558D01*
X203848486Y-69535554D01*
X203854442Y-69532219D01*
X204017012Y-69397012D01*
X204152219Y-69234442D01*
X204155554Y-69228486D01*
X204155558Y-69228481D01*
X204210999Y-69129483D01*
X204264818Y-69074236D01*
X204339051Y-69053301D01*
X204413806Y-69072286D01*
X204469053Y-69126105D01*
X204490001Y-69202288D01*
X204490001Y-69455624D01*
X204490917Y-69467264D01*
X204503001Y-69543565D01*
X204510159Y-69565597D01*
X204557037Y-69657600D01*
X204570648Y-69676334D01*
X204643666Y-69749352D01*
X204662400Y-69762963D01*
X204754406Y-69809842D01*
X204776431Y-69816999D01*
X204852739Y-69829084D01*
X204864374Y-69830000D01*
X205220384Y-69830000D01*
X205235855Y-69825855D01*
X205240000Y-69810384D01*
X205240000Y-68229000D01*
X205259962Y-68154500D01*
X205314500Y-68099962D01*
X205389000Y-68080000D01*
X206091000Y-68080000D01*
X206165500Y-68099962D01*
G37*
G04 #@! TD.AperFunction*
G04 #@! TA.AperFunction,Conductor*
G36*
X184797000Y-104683705D02*
G01*
X184827859Y-104707384D01*
X188254859Y-108134383D01*
X188293423Y-108201178D01*
X188298500Y-108239742D01*
X188298500Y-109706291D01*
X188278538Y-109780791D01*
X188224000Y-109835329D01*
X188149500Y-109855291D01*
X188120351Y-109851389D01*
X188118327Y-109850494D01*
X188107201Y-109849197D01*
X188107198Y-109849196D01*
X188096930Y-109847999D01*
X188096922Y-109847999D01*
X188092646Y-109847500D01*
X186303354Y-109847500D01*
X186277154Y-109850618D01*
X186174847Y-109896061D01*
X186095759Y-109975287D01*
X186090197Y-109987867D01*
X186090196Y-109987869D01*
X186065000Y-110044861D01*
X186050494Y-110077673D01*
X186047500Y-110103354D01*
X186047500Y-110347945D01*
X186027538Y-110422445D01*
X185973000Y-110476983D01*
X185898500Y-110496945D01*
X185824000Y-110476983D01*
X185769462Y-110422445D01*
X185763460Y-110410915D01*
X185747418Y-110376513D01*
X185740934Y-110365281D01*
X185622942Y-110196772D01*
X185614615Y-110186848D01*
X185469157Y-110041390D01*
X185459219Y-110033052D01*
X185290720Y-109915066D01*
X185279492Y-109908583D01*
X185175776Y-109860220D01*
X185160381Y-109857506D01*
X185158000Y-109868248D01*
X185158000Y-112124453D01*
X185162046Y-112139555D01*
X185172788Y-112137173D01*
X185279492Y-112087417D01*
X185290720Y-112080934D01*
X185459219Y-111962948D01*
X185469157Y-111954610D01*
X185614615Y-111809152D01*
X185622942Y-111799228D01*
X185740934Y-111630719D01*
X185747418Y-111619487D01*
X185763460Y-111585085D01*
X185813037Y-111526002D01*
X185885513Y-111499622D01*
X185961470Y-111513015D01*
X186020553Y-111562592D01*
X186046933Y-111635068D01*
X186047500Y-111648055D01*
X186047500Y-111892646D01*
X186050618Y-111918846D01*
X186096061Y-112021153D01*
X186175287Y-112100241D01*
X186187867Y-112105803D01*
X186187869Y-112105804D01*
X186258736Y-112137134D01*
X186277673Y-112145506D01*
X186292318Y-112147213D01*
X186299070Y-112148001D01*
X186299078Y-112148001D01*
X186303354Y-112148500D01*
X188092646Y-112148500D01*
X188113140Y-112146061D01*
X188113142Y-112146061D01*
X188118846Y-112145382D01*
X188118922Y-112146023D01*
X188187135Y-112145583D01*
X188254177Y-112183716D01*
X188293171Y-112250261D01*
X188298500Y-112289752D01*
X188298500Y-115552652D01*
X188278538Y-115627152D01*
X188224000Y-115681690D01*
X188149500Y-115701652D01*
X188120432Y-115698789D01*
X188087478Y-115692234D01*
X188087475Y-115692234D01*
X188080775Y-115690901D01*
X187975060Y-115689517D01*
X187876180Y-115688222D01*
X187876175Y-115688222D01*
X187869346Y-115688133D01*
X187862613Y-115689290D01*
X187862612Y-115689290D01*
X187667684Y-115722784D01*
X187667680Y-115722785D01*
X187660953Y-115723941D01*
X187462575Y-115797127D01*
X187456702Y-115800621D01*
X187329270Y-115876435D01*
X187280856Y-115905238D01*
X187248641Y-115933489D01*
X187127022Y-116040146D01*
X187127021Y-116040147D01*
X187121881Y-116044655D01*
X187066189Y-116115300D01*
X186995207Y-116205340D01*
X186995203Y-116205346D01*
X186990976Y-116210708D01*
X186987797Y-116216751D01*
X186987794Y-116216755D01*
X186974295Y-116242413D01*
X186892523Y-116397836D01*
X186885980Y-116418909D01*
X186844825Y-116484137D01*
X186776568Y-116520050D01*
X186699499Y-116517023D01*
X186634269Y-116475867D01*
X186604867Y-116422564D01*
X186603012Y-116423239D01*
X186596355Y-116404949D01*
X186509418Y-116218513D01*
X186502934Y-116207281D01*
X186384942Y-116038772D01*
X186376615Y-116028848D01*
X186231157Y-115883390D01*
X186221219Y-115875052D01*
X186052720Y-115757066D01*
X186041492Y-115750583D01*
X185937776Y-115702220D01*
X185922381Y-115699506D01*
X185920000Y-115710248D01*
X185920000Y-117191000D01*
X185900038Y-117265500D01*
X185845500Y-117320038D01*
X185771000Y-117340000D01*
X185069000Y-117340000D01*
X184994500Y-117320038D01*
X184939962Y-117265500D01*
X184920000Y-117191000D01*
X184920000Y-115713547D01*
X184915954Y-115698445D01*
X184905213Y-115700826D01*
X184798502Y-115750587D01*
X184787290Y-115757061D01*
X184618772Y-115875058D01*
X184608848Y-115883385D01*
X184463385Y-116028848D01*
X184455058Y-116038772D01*
X184337066Y-116207281D01*
X184330582Y-116218513D01*
X184243646Y-116404946D01*
X184237011Y-116423176D01*
X184192771Y-116486355D01*
X184122869Y-116518951D01*
X184046035Y-116512228D01*
X183982856Y-116467988D01*
X183959240Y-116427897D01*
X183958686Y-116425931D01*
X183865165Y-116236290D01*
X183861084Y-116230825D01*
X183861081Y-116230820D01*
X183742739Y-116072341D01*
X183742737Y-116072339D01*
X183738651Y-116066867D01*
X183583381Y-115923337D01*
X183404554Y-115810505D01*
X183398215Y-115807976D01*
X183398209Y-115807973D01*
X183214504Y-115734683D01*
X183208160Y-115732152D01*
X183119889Y-115714594D01*
X183007478Y-115692234D01*
X183007475Y-115692234D01*
X183000775Y-115690901D01*
X182895060Y-115689517D01*
X182796180Y-115688222D01*
X182796175Y-115688222D01*
X182789346Y-115688133D01*
X182782613Y-115689290D01*
X182782612Y-115689290D01*
X182773755Y-115690812D01*
X182624939Y-115716383D01*
X182548137Y-115709326D01*
X182485151Y-115664811D01*
X182452860Y-115594768D01*
X182459917Y-115517964D01*
X182494349Y-115464176D01*
X183766308Y-114192216D01*
X183770812Y-114187897D01*
X183808681Y-114153075D01*
X183808682Y-114153073D01*
X183816156Y-114146201D01*
X183838517Y-114110136D01*
X183846465Y-114098572D01*
X183865969Y-114072876D01*
X183872112Y-114064783D01*
X183876890Y-114052715D01*
X183888792Y-114029051D01*
X183890280Y-114026651D01*
X183890281Y-114026649D01*
X183895635Y-114018014D01*
X183907473Y-113977268D01*
X183912020Y-113963989D01*
X183923896Y-113933994D01*
X183923897Y-113933991D01*
X183927636Y-113924547D01*
X183928993Y-113911638D01*
X183934092Y-113885646D01*
X183937715Y-113873175D01*
X183938500Y-113862485D01*
X183938500Y-113828988D01*
X183939316Y-113813414D01*
X183942340Y-113784645D01*
X183942340Y-113784642D01*
X183943401Y-113774546D01*
X183940585Y-113757897D01*
X183938500Y-113733060D01*
X183938500Y-112275598D01*
X183958462Y-112201098D01*
X184013000Y-112146560D01*
X184087500Y-112126598D01*
X184120626Y-112133941D01*
X184120903Y-112132373D01*
X184155619Y-112138494D01*
X184158000Y-112127752D01*
X184158000Y-110306243D01*
X184177962Y-110231743D01*
X184201641Y-110200884D01*
X184401321Y-110001204D01*
X184405825Y-109996885D01*
X184443681Y-109962075D01*
X184443682Y-109962073D01*
X184451156Y-109955201D01*
X184473518Y-109919134D01*
X184481464Y-109907573D01*
X184490432Y-109895759D01*
X184507112Y-109873783D01*
X184511890Y-109861715D01*
X184523792Y-109838051D01*
X184525280Y-109835651D01*
X184525281Y-109835649D01*
X184530635Y-109827014D01*
X184542473Y-109786268D01*
X184547020Y-109772989D01*
X184558897Y-109742992D01*
X184558898Y-109742988D01*
X184562636Y-109733547D01*
X184563993Y-109720635D01*
X184569093Y-109694642D01*
X184570538Y-109689668D01*
X184572715Y-109682175D01*
X184573500Y-109671485D01*
X184573500Y-109637996D01*
X184574316Y-109622421D01*
X184577341Y-109593645D01*
X184577341Y-109593642D01*
X184578402Y-109583546D01*
X184575587Y-109566903D01*
X184573500Y-109542054D01*
X184573500Y-104812743D01*
X184593462Y-104738243D01*
X184648000Y-104683705D01*
X184722500Y-104663743D01*
X184797000Y-104683705D01*
G37*
G04 #@! TD.AperFunction*
G04 #@! TA.AperFunction,Conductor*
G36*
X202043411Y-88250462D02*
G01*
X202095954Y-88301648D01*
X202129798Y-88356876D01*
X202192979Y-88459978D01*
X202191546Y-88460856D01*
X202216393Y-88524930D01*
X202204587Y-88601150D01*
X202156253Y-88661254D01*
X202114305Y-88682718D01*
X202091403Y-88690159D01*
X201999400Y-88737037D01*
X201980666Y-88750648D01*
X201907648Y-88823666D01*
X201894037Y-88842400D01*
X201847158Y-88934406D01*
X201840001Y-88956431D01*
X201827916Y-89032739D01*
X201827000Y-89044374D01*
X201827000Y-89650384D01*
X201831145Y-89665855D01*
X201846616Y-89670000D01*
X203678000Y-89670000D01*
X203752500Y-89689962D01*
X203807038Y-89744500D01*
X203827000Y-89819000D01*
X203827000Y-91650383D01*
X203831145Y-91665854D01*
X203846616Y-91669999D01*
X204452624Y-91669999D01*
X204464264Y-91669083D01*
X204540565Y-91656999D01*
X204562597Y-91649841D01*
X204654600Y-91602963D01*
X204673334Y-91589352D01*
X204746352Y-91516334D01*
X204759963Y-91497600D01*
X204806842Y-91405594D01*
X204813999Y-91383569D01*
X204826084Y-91307261D01*
X204827000Y-91295626D01*
X204827000Y-90623162D01*
X204846962Y-90548662D01*
X204901500Y-90494124D01*
X204976000Y-90474162D01*
X205050500Y-90494124D01*
X205107801Y-90553669D01*
X205157746Y-90648398D01*
X205277020Y-90789540D01*
X205423820Y-90901777D01*
X205591297Y-90979873D01*
X205599162Y-90981631D01*
X205599165Y-90981632D01*
X205765673Y-91018850D01*
X205771637Y-91020183D01*
X205777307Y-91020500D01*
X205913164Y-91020500D01*
X205917157Y-91020066D01*
X205917161Y-91020066D01*
X206042691Y-91006429D01*
X206050709Y-91005558D01*
X206225848Y-90946617D01*
X206239226Y-90938579D01*
X206314859Y-90893134D01*
X206384244Y-90851443D01*
X206458624Y-90781105D01*
X206526469Y-90744420D01*
X206603567Y-90746574D01*
X206669259Y-90786988D01*
X206705944Y-90854833D01*
X206710000Y-90889364D01*
X206710000Y-100004968D01*
X206690038Y-100079468D01*
X206635500Y-100134006D01*
X206561000Y-100153968D01*
X206486500Y-100134006D01*
X206460339Y-100114435D01*
X206456980Y-100110460D01*
X206432552Y-100091783D01*
X206359411Y-100035863D01*
X206310180Y-99998223D01*
X206142703Y-99920127D01*
X206134838Y-99918369D01*
X206134835Y-99918368D01*
X205968327Y-99881150D01*
X205968326Y-99881150D01*
X205962363Y-99879817D01*
X205956693Y-99879500D01*
X205820836Y-99879500D01*
X205816843Y-99879934D01*
X205816839Y-99879934D01*
X205704139Y-99892177D01*
X205683291Y-99894442D01*
X205508152Y-99953383D01*
X205349756Y-100048557D01*
X205215493Y-100175524D01*
X205111625Y-100328360D01*
X205043000Y-100499935D01*
X205041682Y-100507896D01*
X205041681Y-100507900D01*
X205019538Y-100641657D01*
X204987676Y-100711897D01*
X204952881Y-100736807D01*
X204963607Y-100741250D01*
X205010560Y-100802440D01*
X205021698Y-100851664D01*
X205022490Y-100866781D01*
X205071562Y-101044936D01*
X205075324Y-101052072D01*
X205075326Y-101052076D01*
X205129872Y-101155531D01*
X205157746Y-101208398D01*
X205277020Y-101349540D01*
X205283429Y-101354440D01*
X205283430Y-101354441D01*
X205325823Y-101386853D01*
X205423820Y-101461777D01*
X205591297Y-101539873D01*
X205599162Y-101541631D01*
X205599165Y-101541632D01*
X205765673Y-101578850D01*
X205771637Y-101580183D01*
X205777307Y-101580500D01*
X205913164Y-101580500D01*
X205917157Y-101580066D01*
X205917161Y-101580066D01*
X206031930Y-101567598D01*
X206050709Y-101565558D01*
X206195596Y-101516798D01*
X206218197Y-101509192D01*
X206218198Y-101509191D01*
X206225848Y-101506617D01*
X206240679Y-101497706D01*
X206377327Y-101415599D01*
X206384244Y-101411443D01*
X206420966Y-101376717D01*
X206458624Y-101341105D01*
X206526469Y-101304420D01*
X206603567Y-101306574D01*
X206669259Y-101346988D01*
X206705944Y-101414833D01*
X206710000Y-101449364D01*
X206710000Y-102544968D01*
X206690038Y-102619468D01*
X206635500Y-102674006D01*
X206561000Y-102693968D01*
X206486500Y-102674006D01*
X206460339Y-102654435D01*
X206456980Y-102650460D01*
X206446525Y-102642466D01*
X206358472Y-102575145D01*
X206310180Y-102538223D01*
X206142703Y-102460127D01*
X206134838Y-102458369D01*
X206134835Y-102458368D01*
X205968327Y-102421150D01*
X205968326Y-102421150D01*
X205962363Y-102419817D01*
X205956693Y-102419500D01*
X205820836Y-102419500D01*
X205816843Y-102419934D01*
X205816839Y-102419934D01*
X205704139Y-102432177D01*
X205683291Y-102434442D01*
X205508152Y-102493383D01*
X205349756Y-102588557D01*
X205343891Y-102594103D01*
X205343890Y-102594104D01*
X205337895Y-102599773D01*
X205215493Y-102715524D01*
X205111625Y-102868360D01*
X205108630Y-102875848D01*
X205108629Y-102875850D01*
X205100537Y-102896082D01*
X205043000Y-103039935D01*
X205041682Y-103047898D01*
X205023499Y-103157731D01*
X204991637Y-103227970D01*
X204928924Y-103272868D01*
X204852164Y-103280394D01*
X204781925Y-103248532D01*
X204737027Y-103185819D01*
X204727500Y-103133395D01*
X204727500Y-102125354D01*
X204724382Y-102099154D01*
X204678939Y-101996847D01*
X204599713Y-101917759D01*
X204587133Y-101912197D01*
X204587131Y-101912196D01*
X204507576Y-101877025D01*
X204507575Y-101877025D01*
X204497327Y-101872494D01*
X204486199Y-101871197D01*
X204480361Y-101869605D01*
X204413736Y-101830749D01*
X204375465Y-101763786D01*
X204375802Y-101686658D01*
X204398554Y-101638905D01*
X204528009Y-101458749D01*
X204528011Y-101458745D01*
X204531577Y-101453783D01*
X204633615Y-101247325D01*
X204636478Y-101237902D01*
X204698786Y-101032825D01*
X204698787Y-101032821D01*
X204700563Y-101026975D01*
X204713127Y-100931540D01*
X204725177Y-100840012D01*
X204754692Y-100768755D01*
X204793066Y-100739309D01*
X204777964Y-100732459D01*
X204733066Y-100669746D01*
X204724040Y-100629531D01*
X204713931Y-100506567D01*
X204713930Y-100506562D01*
X204713430Y-100500478D01*
X204706467Y-100472756D01*
X204658816Y-100283050D01*
X204658814Y-100283045D01*
X204657326Y-100277120D01*
X204565496Y-100065924D01*
X204473394Y-99923556D01*
X204443726Y-99877696D01*
X204443724Y-99877693D01*
X204440405Y-99872563D01*
X204285412Y-99702229D01*
X204104681Y-99559496D01*
X204099328Y-99556541D01*
X204099325Y-99556539D01*
X203976702Y-99488848D01*
X203903065Y-99448198D01*
X203754071Y-99395436D01*
X203691748Y-99373366D01*
X203691745Y-99373365D01*
X203685978Y-99371323D01*
X203679957Y-99370250D01*
X203679955Y-99370250D01*
X203465274Y-99332010D01*
X203459250Y-99330937D01*
X203453136Y-99330862D01*
X203453133Y-99330862D01*
X203360007Y-99329724D01*
X203228971Y-99328123D01*
X203222932Y-99329047D01*
X203222933Y-99329047D01*
X203007362Y-99362034D01*
X203007360Y-99362035D01*
X203001325Y-99362958D01*
X202782424Y-99434506D01*
X202777009Y-99437325D01*
X202583569Y-99538023D01*
X202583564Y-99538026D01*
X202578149Y-99540845D01*
X202573260Y-99544516D01*
X202573258Y-99544517D01*
X202398878Y-99675444D01*
X202398874Y-99675447D01*
X202393984Y-99679119D01*
X202234877Y-99845616D01*
X202231434Y-99850664D01*
X202231431Y-99850667D01*
X202211467Y-99879934D01*
X202105099Y-100035863D01*
X202102529Y-100041400D01*
X202102526Y-100041405D01*
X202053786Y-100146407D01*
X202008136Y-100244752D01*
X201946592Y-100466673D01*
X201945942Y-100472756D01*
X201925707Y-100662094D01*
X201922119Y-100695665D01*
X201935376Y-100925580D01*
X201936719Y-100931538D01*
X201936719Y-100931540D01*
X201952259Y-101000494D01*
X201986006Y-101150242D01*
X202072649Y-101363618D01*
X202075843Y-101368830D01*
X202075845Y-101368834D01*
X202188655Y-101552922D01*
X202192979Y-101559978D01*
X202196987Y-101564605D01*
X202196990Y-101564609D01*
X202251135Y-101627115D01*
X202284825Y-101696496D01*
X202279310Y-101773426D01*
X202236069Y-101837293D01*
X202178002Y-101868343D01*
X202167254Y-101871297D01*
X202156154Y-101872618D01*
X202145940Y-101877155D01*
X202145936Y-101877156D01*
X202101181Y-101897036D01*
X202053847Y-101918061D01*
X201974759Y-101997287D01*
X201969197Y-102009867D01*
X201969196Y-102009869D01*
X201942408Y-102070462D01*
X201929494Y-102099673D01*
X201928197Y-102110800D01*
X201927507Y-102116720D01*
X201926500Y-102125354D01*
X201926500Y-104414646D01*
X201929618Y-104440846D01*
X201975061Y-104543153D01*
X202054287Y-104622241D01*
X202066867Y-104627803D01*
X202066869Y-104627804D01*
X202146426Y-104662976D01*
X202156673Y-104667506D01*
X202171318Y-104669213D01*
X202178070Y-104670001D01*
X202178078Y-104670001D01*
X202182354Y-104670500D01*
X204471646Y-104670500D01*
X204497846Y-104667382D01*
X204600153Y-104621939D01*
X204679241Y-104542713D01*
X204690694Y-104516809D01*
X204719976Y-104450574D01*
X204719976Y-104450573D01*
X204724506Y-104440327D01*
X204727500Y-104414646D01*
X204727500Y-103431902D01*
X204747462Y-103357402D01*
X204802000Y-103302864D01*
X204876500Y-103282902D01*
X204951000Y-103302864D01*
X205005538Y-103357402D01*
X205022381Y-103404704D01*
X205022490Y-103406781D01*
X205071562Y-103584936D01*
X205075324Y-103592072D01*
X205075326Y-103592076D01*
X205134668Y-103704627D01*
X205157746Y-103748398D01*
X205277020Y-103889540D01*
X205283429Y-103894440D01*
X205283430Y-103894441D01*
X205332822Y-103932204D01*
X205423820Y-104001777D01*
X205591297Y-104079873D01*
X205599162Y-104081631D01*
X205599165Y-104081632D01*
X205765673Y-104118850D01*
X205771637Y-104120183D01*
X205777307Y-104120500D01*
X205913164Y-104120500D01*
X205917157Y-104120066D01*
X205917161Y-104120066D01*
X206042691Y-104106429D01*
X206050709Y-104105558D01*
X206225848Y-104046617D01*
X206384244Y-103951443D01*
X206395937Y-103940386D01*
X206458624Y-103881105D01*
X206526469Y-103844420D01*
X206603567Y-103846574D01*
X206669259Y-103886988D01*
X206705944Y-103954833D01*
X206710000Y-103989364D01*
X206710000Y-115829155D01*
X206690038Y-115903655D01*
X206635500Y-115958193D01*
X206561000Y-115978155D01*
X206486500Y-115958193D01*
X206459859Y-115938569D01*
X206448398Y-115927974D01*
X206448394Y-115927971D01*
X206443381Y-115923337D01*
X206264554Y-115810505D01*
X206258215Y-115807976D01*
X206258209Y-115807973D01*
X206074504Y-115734683D01*
X206068160Y-115732152D01*
X205979889Y-115714594D01*
X205867478Y-115692234D01*
X205867475Y-115692234D01*
X205860775Y-115690901D01*
X205755060Y-115689517D01*
X205656180Y-115688222D01*
X205656175Y-115688222D01*
X205649346Y-115688133D01*
X205642613Y-115689290D01*
X205642612Y-115689290D01*
X205447684Y-115722784D01*
X205447680Y-115722785D01*
X205440953Y-115723941D01*
X205242575Y-115797127D01*
X205236702Y-115800621D01*
X205109270Y-115876435D01*
X205060856Y-115905238D01*
X205028641Y-115933489D01*
X204907022Y-116040146D01*
X204907021Y-116040147D01*
X204901881Y-116044655D01*
X204846189Y-116115300D01*
X204775207Y-116205340D01*
X204775203Y-116205346D01*
X204770976Y-116210708D01*
X204767797Y-116216751D01*
X204767794Y-116216755D01*
X204754295Y-116242413D01*
X204672523Y-116397836D01*
X204670499Y-116404354D01*
X204670496Y-116404362D01*
X204611153Y-116595480D01*
X204569997Y-116660710D01*
X204501739Y-116696622D01*
X204424671Y-116693594D01*
X204359441Y-116652438D01*
X204325449Y-116591741D01*
X204280541Y-116432509D01*
X204278686Y-116425931D01*
X204185165Y-116236290D01*
X204181084Y-116230825D01*
X204181081Y-116230820D01*
X204062739Y-116072341D01*
X204062737Y-116072339D01*
X204058651Y-116066867D01*
X203903381Y-115923337D01*
X203724554Y-115810505D01*
X203718215Y-115807976D01*
X203718209Y-115807973D01*
X203534504Y-115734683D01*
X203528160Y-115732152D01*
X203439889Y-115714594D01*
X203327478Y-115692234D01*
X203327475Y-115692234D01*
X203320775Y-115690901D01*
X203215060Y-115689517D01*
X203116180Y-115688222D01*
X203116175Y-115688222D01*
X203109346Y-115688133D01*
X203102613Y-115689290D01*
X203102612Y-115689290D01*
X202907684Y-115722784D01*
X202907680Y-115722785D01*
X202900953Y-115723941D01*
X202702575Y-115797127D01*
X202696702Y-115800621D01*
X202569270Y-115876435D01*
X202520856Y-115905238D01*
X202488641Y-115933489D01*
X202367022Y-116040146D01*
X202367021Y-116040147D01*
X202361881Y-116044655D01*
X202306189Y-116115300D01*
X202235207Y-116205340D01*
X202235203Y-116205346D01*
X202230976Y-116210708D01*
X202227797Y-116216751D01*
X202227794Y-116216755D01*
X202214295Y-116242413D01*
X202132523Y-116397836D01*
X202130499Y-116404354D01*
X202130496Y-116404362D01*
X202071153Y-116595480D01*
X202029997Y-116660710D01*
X201961739Y-116696622D01*
X201884671Y-116693594D01*
X201819441Y-116652438D01*
X201785449Y-116591741D01*
X201740541Y-116432509D01*
X201738686Y-116425931D01*
X201645165Y-116236290D01*
X201641084Y-116230825D01*
X201641081Y-116230820D01*
X201522739Y-116072341D01*
X201522737Y-116072339D01*
X201518651Y-116066867D01*
X201363381Y-115923337D01*
X201184554Y-115810505D01*
X201178215Y-115807976D01*
X201178209Y-115807973D01*
X200994504Y-115734683D01*
X200988160Y-115732152D01*
X200899889Y-115714594D01*
X200787478Y-115692234D01*
X200787475Y-115692234D01*
X200780775Y-115690901D01*
X200675060Y-115689517D01*
X200576180Y-115688222D01*
X200576175Y-115688222D01*
X200569346Y-115688133D01*
X200562613Y-115689290D01*
X200562612Y-115689290D01*
X200367684Y-115722784D01*
X200367680Y-115722785D01*
X200360953Y-115723941D01*
X200162575Y-115797127D01*
X200156702Y-115800621D01*
X200029270Y-115876435D01*
X199980856Y-115905238D01*
X199948641Y-115933489D01*
X199827022Y-116040146D01*
X199827021Y-116040147D01*
X199821881Y-116044655D01*
X199766189Y-116115300D01*
X199695207Y-116205340D01*
X199695203Y-116205346D01*
X199690976Y-116210708D01*
X199687797Y-116216751D01*
X199687794Y-116216755D01*
X199674295Y-116242413D01*
X199592523Y-116397836D01*
X199590499Y-116404354D01*
X199590496Y-116404362D01*
X199531153Y-116595480D01*
X199489997Y-116660710D01*
X199421739Y-116696622D01*
X199344671Y-116693594D01*
X199279441Y-116652438D01*
X199245449Y-116591741D01*
X199200541Y-116432509D01*
X199198686Y-116425931D01*
X199105165Y-116236290D01*
X199101084Y-116230825D01*
X199101081Y-116230820D01*
X198982739Y-116072341D01*
X198982737Y-116072339D01*
X198978651Y-116066867D01*
X198823381Y-115923337D01*
X198644554Y-115810505D01*
X198638215Y-115807976D01*
X198638209Y-115807973D01*
X198454504Y-115734683D01*
X198448160Y-115732152D01*
X198359889Y-115714594D01*
X198247478Y-115692234D01*
X198247475Y-115692234D01*
X198240775Y-115690901D01*
X198135060Y-115689517D01*
X198036180Y-115688222D01*
X198036175Y-115688222D01*
X198029346Y-115688133D01*
X198022613Y-115689290D01*
X198022612Y-115689290D01*
X197827684Y-115722784D01*
X197827680Y-115722785D01*
X197820953Y-115723941D01*
X197622575Y-115797127D01*
X197616702Y-115800621D01*
X197489270Y-115876435D01*
X197440856Y-115905238D01*
X197408641Y-115933489D01*
X197287022Y-116040146D01*
X197287021Y-116040147D01*
X197281881Y-116044655D01*
X197226189Y-116115300D01*
X197155207Y-116205340D01*
X197155203Y-116205346D01*
X197150976Y-116210708D01*
X197147797Y-116216751D01*
X197147794Y-116216755D01*
X197134295Y-116242413D01*
X197052523Y-116397836D01*
X197050499Y-116404354D01*
X197050496Y-116404362D01*
X196991153Y-116595480D01*
X196949997Y-116660710D01*
X196881739Y-116696622D01*
X196804671Y-116693594D01*
X196739441Y-116652438D01*
X196705449Y-116591741D01*
X196660541Y-116432509D01*
X196658686Y-116425931D01*
X196565165Y-116236290D01*
X196561084Y-116230825D01*
X196561081Y-116230820D01*
X196442739Y-116072341D01*
X196442737Y-116072339D01*
X196438651Y-116066867D01*
X196283381Y-115923337D01*
X196104554Y-115810505D01*
X196098215Y-115807976D01*
X196098209Y-115807973D01*
X195914504Y-115734683D01*
X195908160Y-115732152D01*
X195819889Y-115714594D01*
X195707478Y-115692234D01*
X195707475Y-115692234D01*
X195700775Y-115690901D01*
X195595060Y-115689517D01*
X195496180Y-115688222D01*
X195496175Y-115688222D01*
X195489346Y-115688133D01*
X195482613Y-115689290D01*
X195482612Y-115689290D01*
X195287684Y-115722784D01*
X195287680Y-115722785D01*
X195280953Y-115723941D01*
X195082575Y-115797127D01*
X195076702Y-115800621D01*
X194949270Y-115876435D01*
X194900856Y-115905238D01*
X194868641Y-115933489D01*
X194747022Y-116040146D01*
X194747021Y-116040147D01*
X194741881Y-116044655D01*
X194686189Y-116115300D01*
X194615207Y-116205340D01*
X194615203Y-116205346D01*
X194610976Y-116210708D01*
X194607797Y-116216751D01*
X194607794Y-116216755D01*
X194594295Y-116242413D01*
X194512523Y-116397836D01*
X194510499Y-116404354D01*
X194510496Y-116404362D01*
X194451153Y-116595480D01*
X194409997Y-116660710D01*
X194341739Y-116696622D01*
X194264671Y-116693594D01*
X194199441Y-116652438D01*
X194165449Y-116591741D01*
X194120541Y-116432509D01*
X194118686Y-116425931D01*
X194025165Y-116236290D01*
X194021084Y-116230825D01*
X194021081Y-116230820D01*
X193902739Y-116072341D01*
X193902737Y-116072339D01*
X193898651Y-116066867D01*
X193743381Y-115923337D01*
X193564554Y-115810505D01*
X193558215Y-115807976D01*
X193558209Y-115807973D01*
X193374504Y-115734683D01*
X193368160Y-115732152D01*
X193279889Y-115714594D01*
X193167478Y-115692234D01*
X193167475Y-115692234D01*
X193160775Y-115690901D01*
X193055060Y-115689517D01*
X192956180Y-115688222D01*
X192956175Y-115688222D01*
X192949346Y-115688133D01*
X192942613Y-115689290D01*
X192942612Y-115689290D01*
X192747684Y-115722784D01*
X192747680Y-115722785D01*
X192740953Y-115723941D01*
X192542575Y-115797127D01*
X192536702Y-115800621D01*
X192409270Y-115876435D01*
X192360856Y-115905238D01*
X192328641Y-115933489D01*
X192207022Y-116040146D01*
X192207021Y-116040147D01*
X192201881Y-116044655D01*
X192146189Y-116115300D01*
X192075207Y-116205340D01*
X192075203Y-116205346D01*
X192070976Y-116210708D01*
X192067797Y-116216751D01*
X192067794Y-116216755D01*
X192054295Y-116242413D01*
X191972523Y-116397836D01*
X191970499Y-116404354D01*
X191970496Y-116404362D01*
X191911153Y-116595480D01*
X191869997Y-116660710D01*
X191801739Y-116696622D01*
X191724671Y-116693594D01*
X191659441Y-116652438D01*
X191625449Y-116591741D01*
X191580541Y-116432509D01*
X191578686Y-116425931D01*
X191485165Y-116236290D01*
X191481084Y-116230825D01*
X191481081Y-116230820D01*
X191362739Y-116072341D01*
X191362737Y-116072339D01*
X191358651Y-116066867D01*
X191203381Y-115923337D01*
X191169990Y-115902269D01*
X191117637Y-115845633D01*
X191100500Y-115776257D01*
X191100500Y-110543233D01*
X201094906Y-110543233D01*
X201121102Y-110817792D01*
X201186657Y-111085694D01*
X201188678Y-111090682D01*
X201188679Y-111090687D01*
X201260389Y-111267730D01*
X201290199Y-111341326D01*
X201429558Y-111579335D01*
X201601816Y-111794732D01*
X201645526Y-111835564D01*
X201722796Y-111907745D01*
X201803364Y-111983008D01*
X201962511Y-112093412D01*
X202020934Y-112133941D01*
X202029979Y-112140216D01*
X202034816Y-112142622D01*
X202034817Y-112142623D01*
X202037207Y-112143812D01*
X202276914Y-112263065D01*
X202358323Y-112289752D01*
X202533860Y-112347296D01*
X202533864Y-112347297D01*
X202538998Y-112348980D01*
X202810738Y-112396162D01*
X202897876Y-112400500D01*
X203070070Y-112400500D01*
X203072751Y-112400305D01*
X203072764Y-112400305D01*
X203182744Y-112392325D01*
X203275083Y-112385625D01*
X203544403Y-112326164D01*
X203549452Y-112324251D01*
X203549459Y-112324249D01*
X203797270Y-112230362D01*
X203797271Y-112230361D01*
X203802319Y-112228449D01*
X203807037Y-112225828D01*
X203807040Y-112225827D01*
X203941997Y-112150865D01*
X204043428Y-112094525D01*
X204262678Y-111927198D01*
X204377481Y-111809760D01*
X204451701Y-111733837D01*
X204451703Y-111733835D01*
X204455477Y-111729974D01*
X204514271Y-111649200D01*
X204614606Y-111511355D01*
X204614609Y-111511350D01*
X204617787Y-111506984D01*
X204707573Y-111336329D01*
X204743693Y-111267676D01*
X204743694Y-111267673D01*
X204746206Y-111262899D01*
X204838045Y-111002832D01*
X204891380Y-110732232D01*
X204905094Y-110456767D01*
X204878898Y-110182208D01*
X204813343Y-109914306D01*
X204803692Y-109890477D01*
X204711825Y-109663671D01*
X204709801Y-109658674D01*
X204570442Y-109420665D01*
X204398184Y-109205268D01*
X204196636Y-109016992D01*
X203970021Y-108859784D01*
X203891066Y-108820504D01*
X203797937Y-108774173D01*
X203723086Y-108736935D01*
X203536444Y-108675751D01*
X203466140Y-108652704D01*
X203466136Y-108652703D01*
X203461002Y-108651020D01*
X203189262Y-108603838D01*
X203102124Y-108599500D01*
X202929930Y-108599500D01*
X202927249Y-108599695D01*
X202927236Y-108599695D01*
X202817256Y-108607675D01*
X202724917Y-108614375D01*
X202455597Y-108673836D01*
X202450548Y-108675749D01*
X202450541Y-108675751D01*
X202202730Y-108769638D01*
X202197681Y-108771551D01*
X202192963Y-108774172D01*
X202192960Y-108774173D01*
X202109549Y-108820504D01*
X201956572Y-108905475D01*
X201737322Y-109072802D01*
X201544523Y-109270026D01*
X201541347Y-109274390D01*
X201541344Y-109274393D01*
X201385394Y-109488645D01*
X201385391Y-109488650D01*
X201382213Y-109493016D01*
X201379695Y-109497802D01*
X201260977Y-109723449D01*
X201253794Y-109737101D01*
X201161955Y-109997168D01*
X201160912Y-110002458D01*
X201160911Y-110002463D01*
X201141026Y-110103354D01*
X201108620Y-110267768D01*
X201108352Y-110273148D01*
X201108352Y-110273149D01*
X201104968Y-110341119D01*
X201094906Y-110543233D01*
X191100500Y-110543233D01*
X191100500Y-108253124D01*
X191101775Y-108233675D01*
X191104407Y-108213683D01*
X191105682Y-108204000D01*
X191085044Y-108047238D01*
X191024536Y-107901159D01*
X191015974Y-107890000D01*
X190989650Y-107855695D01*
X190989649Y-107855694D01*
X190934228Y-107783467D01*
X190928282Y-107775718D01*
X190904532Y-107757494D01*
X190889878Y-107744643D01*
X185302141Y-102156906D01*
X185273905Y-102108000D01*
X190890158Y-102108000D01*
X190890974Y-102115764D01*
X190891075Y-102116720D01*
X190908275Y-102280368D01*
X190910685Y-102287785D01*
X190910686Y-102287790D01*
X190959172Y-102437016D01*
X190961832Y-102445202D01*
X191004302Y-102518762D01*
X191043854Y-102587267D01*
X191048491Y-102595299D01*
X191164463Y-102724098D01*
X191170782Y-102728689D01*
X191170783Y-102728690D01*
X191282358Y-102809754D01*
X191304679Y-102825971D01*
X191338320Y-102840949D01*
X191455873Y-102893288D01*
X191455877Y-102893289D01*
X191463012Y-102896466D01*
X191470654Y-102898090D01*
X191470656Y-102898091D01*
X191624901Y-102930876D01*
X191624902Y-102930876D01*
X191632542Y-102932500D01*
X191805858Y-102932500D01*
X191813498Y-102930876D01*
X191813499Y-102930876D01*
X191967744Y-102898091D01*
X191967746Y-102898090D01*
X191975388Y-102896466D01*
X191982523Y-102893289D01*
X191982527Y-102893288D01*
X192100080Y-102840949D01*
X192133721Y-102825971D01*
X192156042Y-102809754D01*
X192267617Y-102728690D01*
X192267618Y-102728689D01*
X192273937Y-102724098D01*
X192389909Y-102595299D01*
X192394547Y-102587267D01*
X192434098Y-102518762D01*
X192476568Y-102445202D01*
X192479228Y-102437016D01*
X192527714Y-102287790D01*
X192527715Y-102287785D01*
X192530125Y-102280368D01*
X192547326Y-102116720D01*
X192547426Y-102115764D01*
X192548242Y-102108000D01*
X192546238Y-102088936D01*
X192530941Y-101943393D01*
X192530940Y-101943391D01*
X192530125Y-101935632D01*
X192527715Y-101928215D01*
X192527714Y-101928210D01*
X192478980Y-101778220D01*
X192478978Y-101778216D01*
X192476568Y-101770798D01*
X192389909Y-101620701D01*
X192273937Y-101491902D01*
X192262372Y-101483499D01*
X192140040Y-101394620D01*
X192133721Y-101390029D01*
X192042782Y-101349540D01*
X191982527Y-101322712D01*
X191982523Y-101322711D01*
X191975388Y-101319534D01*
X191967746Y-101317910D01*
X191967744Y-101317909D01*
X191813499Y-101285124D01*
X191813498Y-101285124D01*
X191805858Y-101283500D01*
X191632542Y-101283500D01*
X191624902Y-101285124D01*
X191624901Y-101285124D01*
X191470656Y-101317909D01*
X191470654Y-101317910D01*
X191463012Y-101319534D01*
X191455877Y-101322711D01*
X191455873Y-101322712D01*
X191395618Y-101349540D01*
X191304679Y-101390029D01*
X191298360Y-101394620D01*
X191176029Y-101483499D01*
X191164463Y-101491902D01*
X191048491Y-101620701D01*
X190961832Y-101770798D01*
X190959422Y-101778216D01*
X190959420Y-101778220D01*
X190910686Y-101928210D01*
X190910685Y-101928215D01*
X190908275Y-101935632D01*
X190907460Y-101943391D01*
X190907459Y-101943393D01*
X190892162Y-102088936D01*
X190890158Y-102108000D01*
X185273905Y-102108000D01*
X185263577Y-102090111D01*
X185258500Y-102051547D01*
X185258500Y-100767453D01*
X185278462Y-100692953D01*
X185302141Y-100662094D01*
X185625094Y-100339141D01*
X185691889Y-100300577D01*
X185730453Y-100295500D01*
X189434876Y-100295500D01*
X189454322Y-100296775D01*
X189484000Y-100300682D01*
X189513677Y-100296775D01*
X189523361Y-100295500D01*
X189588716Y-100286896D01*
X189631079Y-100281319D01*
X189631081Y-100281319D01*
X189640762Y-100280044D01*
X189649784Y-100276307D01*
X189777817Y-100223274D01*
X189777818Y-100223274D01*
X189786841Y-100219536D01*
X189802154Y-100207786D01*
X189912282Y-100123282D01*
X189930506Y-100099532D01*
X189943357Y-100084878D01*
X192228823Y-97799412D01*
X194188947Y-97799412D01*
X194189933Y-97808343D01*
X194189933Y-97808344D01*
X194203799Y-97933934D01*
X194205534Y-97949653D01*
X194257479Y-98091600D01*
X194327693Y-98196089D01*
X194341784Y-98217058D01*
X194338892Y-98219001D01*
X194364845Y-98272611D01*
X194367500Y-98300612D01*
X194367500Y-99532428D01*
X194366467Y-99549941D01*
X194362636Y-99582310D01*
X194364637Y-99593266D01*
X194364637Y-99593269D01*
X194373111Y-99639668D01*
X194373879Y-99644284D01*
X194379117Y-99679119D01*
X194382551Y-99701962D01*
X194385679Y-99708475D01*
X194386975Y-99715573D01*
X194392108Y-99725454D01*
X194413843Y-99767296D01*
X194415926Y-99771465D01*
X194441191Y-99824079D01*
X194446094Y-99829383D01*
X194449421Y-99835788D01*
X194453725Y-99840828D01*
X194490652Y-99877755D01*
X194494707Y-99881973D01*
X194508613Y-99897016D01*
X194533146Y-99923556D01*
X194539754Y-99927394D01*
X194544902Y-99932005D01*
X195748136Y-101135239D01*
X195786700Y-101202034D01*
X195786700Y-101279162D01*
X195748136Y-101345957D01*
X195703384Y-101376714D01*
X195673479Y-101390029D01*
X195667160Y-101394620D01*
X195544829Y-101483499D01*
X195533263Y-101491902D01*
X195417291Y-101620701D01*
X195330632Y-101770798D01*
X195328222Y-101778216D01*
X195328220Y-101778220D01*
X195279486Y-101928210D01*
X195279485Y-101928215D01*
X195277075Y-101935632D01*
X195276260Y-101943391D01*
X195276259Y-101943393D01*
X195260962Y-102088936D01*
X195258958Y-102108000D01*
X195259774Y-102115764D01*
X195259875Y-102116720D01*
X195277075Y-102280368D01*
X195279485Y-102287785D01*
X195279486Y-102287790D01*
X195327972Y-102437016D01*
X195330632Y-102445202D01*
X195373102Y-102518762D01*
X195412654Y-102587267D01*
X195417291Y-102595299D01*
X195533263Y-102724098D01*
X195539582Y-102728689D01*
X195539583Y-102728690D01*
X195651158Y-102809754D01*
X195673479Y-102825971D01*
X195707120Y-102840949D01*
X195824673Y-102893288D01*
X195824677Y-102893289D01*
X195831812Y-102896466D01*
X195839454Y-102898090D01*
X195839456Y-102898091D01*
X195993701Y-102930876D01*
X195993702Y-102930876D01*
X196001342Y-102932500D01*
X196174658Y-102932500D01*
X196182298Y-102930876D01*
X196182299Y-102930876D01*
X196336544Y-102898091D01*
X196336546Y-102898090D01*
X196344188Y-102896466D01*
X196351323Y-102893289D01*
X196351327Y-102893288D01*
X196468880Y-102840949D01*
X196502521Y-102825971D01*
X196524842Y-102809754D01*
X196636417Y-102728690D01*
X196636418Y-102728689D01*
X196642737Y-102724098D01*
X196758709Y-102595299D01*
X196763347Y-102587267D01*
X196799013Y-102525490D01*
X196826144Y-102478499D01*
X196880680Y-102423963D01*
X196955180Y-102404001D01*
X197029680Y-102423963D01*
X197060539Y-102447642D01*
X197709765Y-103096868D01*
X197748329Y-103163663D01*
X197752506Y-103185876D01*
X197761534Y-103267653D01*
X197813479Y-103409600D01*
X197897784Y-103535058D01*
X197904424Y-103541100D01*
X197904425Y-103541101D01*
X197914001Y-103549814D01*
X198009582Y-103636786D01*
X198017472Y-103641070D01*
X198026292Y-103645859D01*
X198142418Y-103708910D01*
X198151095Y-103711186D01*
X198151099Y-103711188D01*
X198265715Y-103741257D01*
X198288623Y-103747267D01*
X198297599Y-103747408D01*
X198430780Y-103749500D01*
X198439757Y-103749641D01*
X198448511Y-103747636D01*
X198448512Y-103747636D01*
X198578334Y-103717903D01*
X198578336Y-103717902D01*
X198587096Y-103715896D01*
X198722131Y-103647980D01*
X198728957Y-103642150D01*
X198728960Y-103642148D01*
X198796083Y-103584819D01*
X198837069Y-103549814D01*
X198925273Y-103427065D01*
X198931525Y-103411514D01*
X198978300Y-103295155D01*
X198981651Y-103286820D01*
X198999618Y-103160580D01*
X199002262Y-103142003D01*
X199002262Y-103142001D01*
X199002949Y-103137175D01*
X199003087Y-103124000D01*
X198984928Y-102973942D01*
X198931499Y-102832546D01*
X198926411Y-102825143D01*
X198926409Y-102825139D01*
X198903774Y-102792205D01*
X198878027Y-102719501D01*
X198892082Y-102643665D01*
X198938988Y-102587267D01*
X199024017Y-102525490D01*
X199024018Y-102525489D01*
X199030337Y-102520898D01*
X199146309Y-102392099D01*
X199232968Y-102242002D01*
X199235380Y-102234580D01*
X199284114Y-102084590D01*
X199284115Y-102084585D01*
X199286525Y-102077168D01*
X199291085Y-102033790D01*
X199303826Y-101912564D01*
X199304642Y-101904800D01*
X199302580Y-101885184D01*
X199287341Y-101740193D01*
X199287340Y-101740191D01*
X199286525Y-101732432D01*
X199284115Y-101725015D01*
X199284114Y-101725010D01*
X199235380Y-101575020D01*
X199235378Y-101575016D01*
X199232968Y-101567598D01*
X199164705Y-101449364D01*
X199150214Y-101424264D01*
X199150212Y-101424262D01*
X199146309Y-101417501D01*
X199030337Y-101288702D01*
X199017207Y-101279162D01*
X198896440Y-101191420D01*
X198890121Y-101186829D01*
X198807946Y-101150242D01*
X198738927Y-101119512D01*
X198738923Y-101119511D01*
X198731788Y-101116334D01*
X198724146Y-101114710D01*
X198724144Y-101114709D01*
X198569899Y-101081924D01*
X198569898Y-101081924D01*
X198562258Y-101080300D01*
X198388942Y-101080300D01*
X198381302Y-101081924D01*
X198381301Y-101081924D01*
X198227056Y-101114709D01*
X198227054Y-101114710D01*
X198219412Y-101116334D01*
X198212277Y-101119511D01*
X198212273Y-101119512D01*
X198143254Y-101150242D01*
X198061079Y-101186829D01*
X198054760Y-101191420D01*
X197933994Y-101279162D01*
X197920863Y-101288702D01*
X197804891Y-101417501D01*
X197800987Y-101424263D01*
X197800984Y-101424267D01*
X197718862Y-101566505D01*
X197664324Y-101621042D01*
X197589824Y-101641004D01*
X197515324Y-101621041D01*
X197484466Y-101597363D01*
X195312141Y-99425038D01*
X195273577Y-99358243D01*
X195268500Y-99319679D01*
X195268500Y-98297287D01*
X195288462Y-98222787D01*
X195296500Y-98210339D01*
X195306517Y-98196400D01*
X195369273Y-98109065D01*
X195425651Y-97968820D01*
X195446949Y-97819175D01*
X195447087Y-97806000D01*
X195428928Y-97655942D01*
X195375499Y-97514546D01*
X195289885Y-97389977D01*
X195177028Y-97289426D01*
X195169092Y-97285224D01*
X195051380Y-97222898D01*
X195051377Y-97222897D01*
X195043445Y-97218697D01*
X194896846Y-97181874D01*
X194814728Y-97181444D01*
X194754674Y-97181129D01*
X194745695Y-97181082D01*
X194736966Y-97183178D01*
X194736963Y-97183178D01*
X194664297Y-97200624D01*
X194598718Y-97216368D01*
X194464401Y-97285694D01*
X194350497Y-97385059D01*
X194345332Y-97392408D01*
X194345331Y-97392409D01*
X194311462Y-97440600D01*
X194263583Y-97508724D01*
X194208677Y-97649552D01*
X194207504Y-97658458D01*
X194207504Y-97658460D01*
X194206276Y-97667786D01*
X194188947Y-97799412D01*
X192228823Y-97799412D01*
X198732611Y-91295624D01*
X201827001Y-91295624D01*
X201827917Y-91307264D01*
X201840001Y-91383565D01*
X201847159Y-91405597D01*
X201894037Y-91497600D01*
X201907648Y-91516334D01*
X201980666Y-91589352D01*
X201999400Y-91602963D01*
X202091406Y-91649842D01*
X202113431Y-91656999D01*
X202189739Y-91669084D01*
X202201374Y-91670000D01*
X202807384Y-91670000D01*
X202822855Y-91665855D01*
X202827000Y-91650384D01*
X202827000Y-90689616D01*
X202822855Y-90674145D01*
X202807384Y-90670000D01*
X201846617Y-90670000D01*
X201831146Y-90674145D01*
X201827001Y-90689616D01*
X201827001Y-91295624D01*
X198732611Y-91295624D01*
X201754094Y-88274141D01*
X201820889Y-88235577D01*
X201859453Y-88230500D01*
X201968911Y-88230500D01*
X202043411Y-88250462D01*
G37*
G04 #@! TD.AperFunction*
G04 #@! TA.AperFunction,Conductor*
G36*
X178909679Y-98317962D02*
G01*
X178964217Y-98372500D01*
X178984179Y-98447000D01*
X178964217Y-98521500D01*
X178940538Y-98552359D01*
X175978539Y-101514358D01*
X175911744Y-101552922D01*
X175834616Y-101552922D01*
X175767821Y-101514358D01*
X175744145Y-101483503D01*
X175692828Y-101394620D01*
X175680614Y-101373464D01*
X175680612Y-101373462D01*
X175676709Y-101366701D01*
X175560737Y-101237902D01*
X175551816Y-101231420D01*
X175426840Y-101140620D01*
X175420521Y-101136029D01*
X175361626Y-101109807D01*
X175269327Y-101068712D01*
X175269323Y-101068711D01*
X175262188Y-101065534D01*
X175254546Y-101063910D01*
X175254544Y-101063909D01*
X175100299Y-101031124D01*
X175100298Y-101031124D01*
X175092658Y-101029500D01*
X174919342Y-101029500D01*
X174911702Y-101031124D01*
X174911701Y-101031124D01*
X174757456Y-101063909D01*
X174757454Y-101063910D01*
X174749812Y-101065534D01*
X174742677Y-101068711D01*
X174742673Y-101068712D01*
X174650374Y-101109807D01*
X174591479Y-101136029D01*
X174585160Y-101140620D01*
X174460185Y-101231420D01*
X174451263Y-101237902D01*
X174335291Y-101366701D01*
X174331388Y-101373462D01*
X174331386Y-101373464D01*
X174319172Y-101394620D01*
X174248632Y-101516798D01*
X174246222Y-101524216D01*
X174246220Y-101524220D01*
X174197486Y-101674210D01*
X174197485Y-101674215D01*
X174195075Y-101681632D01*
X174194260Y-101689391D01*
X174194259Y-101689393D01*
X174189731Y-101732477D01*
X174176958Y-101854000D01*
X174177774Y-101861764D01*
X174193294Y-102009419D01*
X174195075Y-102026368D01*
X174197485Y-102033785D01*
X174197486Y-102033790D01*
X174246220Y-102183780D01*
X174248632Y-102191202D01*
X174300112Y-102280368D01*
X174330110Y-102332325D01*
X174335291Y-102341299D01*
X174451263Y-102470098D01*
X174457582Y-102474689D01*
X174457583Y-102474690D01*
X174566392Y-102553744D01*
X174591479Y-102571971D01*
X174621382Y-102585285D01*
X174681320Y-102633821D01*
X174708961Y-102705826D01*
X174696896Y-102782005D01*
X174666136Y-102826761D01*
X174609038Y-102883859D01*
X174542243Y-102922423D01*
X174503679Y-102927500D01*
X173352418Y-102927500D01*
X173277918Y-102907538D01*
X173223380Y-102853000D01*
X173203418Y-102778500D01*
X173223380Y-102704000D01*
X173247059Y-102673141D01*
X173583600Y-102336600D01*
X173583600Y-98811850D01*
X173603562Y-98737350D01*
X173621236Y-98712860D01*
X173945547Y-98348010D01*
X174009962Y-98305590D01*
X174056911Y-98298000D01*
X178835179Y-98298000D01*
X178909679Y-98317962D01*
G37*
G04 #@! TD.AperFunction*
G04 #@! TA.AperFunction,Conductor*
G36*
X172834382Y-92552162D02*
G01*
X172865241Y-92575841D01*
X173412959Y-93123559D01*
X173451523Y-93190354D01*
X173456600Y-93228918D01*
X173456600Y-94259400D01*
X173812200Y-94615000D01*
X176722282Y-94615000D01*
X176796782Y-94634962D01*
X176827641Y-94658641D01*
X178562000Y-96393000D01*
X180318000Y-96393000D01*
X180392500Y-96412962D01*
X180447038Y-96467500D01*
X180467000Y-96542000D01*
X180467000Y-96964179D01*
X180447038Y-97038679D01*
X180423359Y-97069538D01*
X180279938Y-97212959D01*
X180213143Y-97251523D01*
X180174579Y-97256600D01*
X174091600Y-97256600D01*
X173151800Y-98196400D01*
X173151800Y-101893882D01*
X173131838Y-101968382D01*
X173108159Y-101999241D01*
X172814441Y-102292959D01*
X172747646Y-102331523D01*
X172709082Y-102336600D01*
X168209718Y-102336600D01*
X168135218Y-102316638D01*
X168104359Y-102292959D01*
X167201041Y-101389641D01*
X167162477Y-101322846D01*
X167157400Y-101284282D01*
X167157400Y-93889318D01*
X167177362Y-93814818D01*
X167201041Y-93783959D01*
X168409159Y-92575841D01*
X168475954Y-92537277D01*
X168514518Y-92532200D01*
X172759882Y-92532200D01*
X172834382Y-92552162D01*
G37*
G04 #@! TD.AperFunction*
G04 #@! TA.AperFunction,Conductor*
G36*
X188380000Y-79169959D02*
G01*
X188434538Y-79224497D01*
X188447208Y-79252954D01*
X188472632Y-79331202D01*
X188491884Y-79364547D01*
X188554892Y-79473679D01*
X188559291Y-79481299D01*
X188675263Y-79610098D01*
X188681582Y-79614689D01*
X188681583Y-79614690D01*
X188791500Y-79694549D01*
X188815479Y-79711971D01*
X188846315Y-79725700D01*
X188966673Y-79779288D01*
X188966677Y-79779289D01*
X188973812Y-79782466D01*
X188981454Y-79784090D01*
X188981456Y-79784091D01*
X189135701Y-79816876D01*
X189135702Y-79816876D01*
X189143342Y-79818500D01*
X189316658Y-79818500D01*
X189324298Y-79816876D01*
X189324299Y-79816876D01*
X189486188Y-79782466D01*
X189486736Y-79785045D01*
X189550499Y-79781712D01*
X189619216Y-79816737D01*
X189661214Y-79881428D01*
X189668500Y-79927452D01*
X189668500Y-87075564D01*
X189648538Y-87150064D01*
X189594000Y-87204602D01*
X189519500Y-87224564D01*
X189445000Y-87204602D01*
X189431931Y-87196115D01*
X189390521Y-87166029D01*
X189309069Y-87129764D01*
X189239327Y-87098712D01*
X189239323Y-87098711D01*
X189232188Y-87095534D01*
X189224546Y-87093910D01*
X189224544Y-87093909D01*
X189070299Y-87061124D01*
X189070298Y-87061124D01*
X189062658Y-87059500D01*
X188889342Y-87059500D01*
X188881702Y-87061124D01*
X188881701Y-87061124D01*
X188727456Y-87093909D01*
X188727454Y-87093910D01*
X188719812Y-87095534D01*
X188712677Y-87098711D01*
X188712673Y-87098712D01*
X188642931Y-87129764D01*
X188561479Y-87166029D01*
X188555160Y-87170620D01*
X188465379Y-87235850D01*
X188421263Y-87267902D01*
X188305291Y-87396701D01*
X188301388Y-87403462D01*
X188301386Y-87403464D01*
X188298825Y-87407900D01*
X188218632Y-87546798D01*
X188216222Y-87554216D01*
X188216220Y-87554220D01*
X188167486Y-87704210D01*
X188167485Y-87704215D01*
X188165075Y-87711632D01*
X188164260Y-87719391D01*
X188164259Y-87719393D01*
X188161537Y-87745295D01*
X188146958Y-87884000D01*
X188147774Y-87891764D01*
X188159235Y-88000801D01*
X188165075Y-88056368D01*
X188167485Y-88063785D01*
X188167486Y-88063790D01*
X188216220Y-88213780D01*
X188218632Y-88221202D01*
X188304847Y-88370530D01*
X188305291Y-88371299D01*
X188305169Y-88371369D01*
X188331485Y-88439927D01*
X188319419Y-88516105D01*
X188306698Y-88538139D01*
X188305291Y-88539701D01*
X188218632Y-88689798D01*
X188216222Y-88697216D01*
X188216220Y-88697220D01*
X188167486Y-88847210D01*
X188167485Y-88847215D01*
X188165075Y-88854632D01*
X188164260Y-88862391D01*
X188164259Y-88862393D01*
X188156690Y-88934406D01*
X188146958Y-89027000D01*
X188147774Y-89034764D01*
X188163134Y-89180897D01*
X188165075Y-89199368D01*
X188167485Y-89206785D01*
X188167486Y-89206790D01*
X188213135Y-89347284D01*
X188218632Y-89364202D01*
X188304847Y-89513530D01*
X188305291Y-89514299D01*
X188305169Y-89514369D01*
X188331485Y-89582927D01*
X188319419Y-89659105D01*
X188306698Y-89681139D01*
X188305291Y-89682701D01*
X188218632Y-89832798D01*
X188216222Y-89840216D01*
X188216220Y-89840220D01*
X188167486Y-89990210D01*
X188167485Y-89990215D01*
X188165075Y-89997632D01*
X188164260Y-90005391D01*
X188164259Y-90005393D01*
X188161583Y-90030854D01*
X188146958Y-90170000D01*
X188147774Y-90177764D01*
X188162944Y-90322089D01*
X188165075Y-90342368D01*
X188167485Y-90349785D01*
X188167486Y-90349790D01*
X188216220Y-90499780D01*
X188218632Y-90507202D01*
X188305291Y-90657299D01*
X188421263Y-90786098D01*
X188427582Y-90790689D01*
X188427583Y-90790690D01*
X188516923Y-90855599D01*
X188561479Y-90887971D01*
X188679256Y-90940409D01*
X188739196Y-90988947D01*
X188766836Y-91060953D01*
X188754770Y-91137131D01*
X188724011Y-91181886D01*
X184717277Y-95188620D01*
X184650482Y-95227184D01*
X184573354Y-95227184D01*
X184506559Y-95188620D01*
X184472537Y-95135928D01*
X184456675Y-95093951D01*
X184453499Y-95085546D01*
X184367885Y-94960977D01*
X184255028Y-94860426D01*
X184247092Y-94856224D01*
X184129380Y-94793898D01*
X184129377Y-94793897D01*
X184121445Y-94789697D01*
X183974846Y-94752874D01*
X183892728Y-94752444D01*
X183832674Y-94752129D01*
X183823695Y-94752082D01*
X183814966Y-94754178D01*
X183814963Y-94754178D01*
X183742297Y-94771624D01*
X183676718Y-94787368D01*
X183542401Y-94856694D01*
X183428497Y-94956059D01*
X183423332Y-94963408D01*
X183423331Y-94963409D01*
X183390980Y-95009440D01*
X183341583Y-95079724D01*
X183286677Y-95220552D01*
X183285504Y-95229458D01*
X183285504Y-95229460D01*
X183273771Y-95318582D01*
X183244256Y-95389839D01*
X183231405Y-95404492D01*
X182010879Y-96625018D01*
X181944084Y-96663582D01*
X181866956Y-96663582D01*
X181800161Y-96625018D01*
X181782726Y-96604054D01*
X181705975Y-96492382D01*
X181705972Y-96492379D01*
X181700885Y-96484977D01*
X181675877Y-96462696D01*
X181594731Y-96390398D01*
X181594730Y-96390398D01*
X181588028Y-96384426D01*
X181580039Y-96380196D01*
X181462380Y-96317898D01*
X181462377Y-96317897D01*
X181454445Y-96313697D01*
X181445739Y-96311510D01*
X181445736Y-96311509D01*
X181341702Y-96285378D01*
X181274309Y-96247868D01*
X181234701Y-96181687D01*
X181229000Y-96140867D01*
X181229000Y-94234000D01*
X181168625Y-94194152D01*
X180706755Y-93889318D01*
X179388998Y-93019598D01*
X179337816Y-92961901D01*
X179322340Y-92886342D01*
X179346717Y-92813168D01*
X179374307Y-92781942D01*
X179399237Y-92760650D01*
X179399241Y-92760646D01*
X179406069Y-92754814D01*
X179456679Y-92684383D01*
X179489030Y-92639362D01*
X179489031Y-92639360D01*
X179494273Y-92632065D01*
X179550651Y-92491820D01*
X179571949Y-92342175D01*
X179572087Y-92329000D01*
X179553928Y-92178942D01*
X179500499Y-92037546D01*
X179414885Y-91912977D01*
X179302028Y-91812426D01*
X179294092Y-91808224D01*
X179176380Y-91745898D01*
X179176377Y-91745897D01*
X179168445Y-91741697D01*
X179021846Y-91704874D01*
X178939728Y-91704444D01*
X178879674Y-91704129D01*
X178870695Y-91704082D01*
X178861966Y-91706178D01*
X178861963Y-91706178D01*
X178789297Y-91723624D01*
X178723718Y-91739368D01*
X178703615Y-91749744D01*
X178602394Y-91801988D01*
X178589401Y-91808694D01*
X178580663Y-91816316D01*
X178578664Y-91817296D01*
X178575203Y-91819648D01*
X178574868Y-91819155D01*
X178511403Y-91850248D01*
X178434454Y-91845004D01*
X178370435Y-91801988D01*
X178345923Y-91763105D01*
X178218609Y-91468273D01*
X178206400Y-91409204D01*
X178206400Y-90671986D01*
X178211361Y-90633858D01*
X178219888Y-90601646D01*
X178335891Y-90163412D01*
X180726947Y-90163412D01*
X180727933Y-90172343D01*
X180727933Y-90172344D01*
X180740714Y-90288108D01*
X180743534Y-90313653D01*
X180795479Y-90455600D01*
X180800486Y-90463051D01*
X180861381Y-90553671D01*
X180879784Y-90581058D01*
X180886424Y-90587100D01*
X180886425Y-90587101D01*
X180896001Y-90595814D01*
X180991582Y-90682786D01*
X180999472Y-90687070D01*
X181004161Y-90689616D01*
X181124418Y-90754910D01*
X181133095Y-90757186D01*
X181133099Y-90757188D01*
X181224265Y-90781105D01*
X181270623Y-90793267D01*
X181279599Y-90793408D01*
X181412780Y-90795500D01*
X181421757Y-90795641D01*
X181430511Y-90793636D01*
X181430512Y-90793636D01*
X181560334Y-90763903D01*
X181560336Y-90763902D01*
X181569096Y-90761896D01*
X181704131Y-90693980D01*
X181710957Y-90688150D01*
X181710960Y-90688148D01*
X181787048Y-90623162D01*
X181819069Y-90595814D01*
X181852951Y-90548662D01*
X181902030Y-90480362D01*
X181902031Y-90480360D01*
X181907273Y-90473065D01*
X181963651Y-90332820D01*
X181984949Y-90183175D01*
X181985087Y-90170000D01*
X181984148Y-90162236D01*
X181968750Y-90034999D01*
X181966928Y-90019942D01*
X181913499Y-89878546D01*
X181827885Y-89753977D01*
X181757876Y-89691602D01*
X181721731Y-89659398D01*
X181721730Y-89659398D01*
X181715028Y-89653426D01*
X181707092Y-89649224D01*
X181589380Y-89586898D01*
X181589377Y-89586897D01*
X181581445Y-89582697D01*
X181434846Y-89545874D01*
X181352728Y-89545444D01*
X181292674Y-89545129D01*
X181283695Y-89545082D01*
X181274966Y-89547178D01*
X181274963Y-89547178D01*
X181202297Y-89564624D01*
X181136718Y-89580368D01*
X181002401Y-89649694D01*
X180888497Y-89749059D01*
X180883332Y-89756408D01*
X180883331Y-89756409D01*
X180839785Y-89818368D01*
X180801583Y-89872724D01*
X180746677Y-90013552D01*
X180745504Y-90022458D01*
X180745504Y-90022460D01*
X180744399Y-90030854D01*
X180726947Y-90163412D01*
X178335891Y-90163412D01*
X178427226Y-89818367D01*
X178453652Y-89765019D01*
X178778557Y-89347284D01*
X178790600Y-89331800D01*
X178790600Y-88483500D01*
X178810562Y-88409000D01*
X178865100Y-88354462D01*
X178939600Y-88334500D01*
X186552828Y-88334500D01*
X186570341Y-88335533D01*
X186602710Y-88339364D01*
X186613666Y-88337363D01*
X186613669Y-88337363D01*
X186660068Y-88328889D01*
X186664684Y-88328121D01*
X186711343Y-88321106D01*
X186711345Y-88321105D01*
X186722362Y-88319449D01*
X186728875Y-88316321D01*
X186735973Y-88315025D01*
X186787713Y-88288148D01*
X186791865Y-88286074D01*
X186844479Y-88260809D01*
X186849783Y-88255906D01*
X186856188Y-88252579D01*
X186861228Y-88248275D01*
X186898160Y-88211343D01*
X186902378Y-88207288D01*
X186935777Y-88176415D01*
X186935778Y-88176413D01*
X186943956Y-88168854D01*
X186947794Y-88162246D01*
X186952405Y-88157098D01*
X187065388Y-88044115D01*
X187132183Y-88005551D01*
X187153973Y-88001512D01*
X187162157Y-88001641D01*
X187170911Y-87999636D01*
X187170912Y-87999636D01*
X187300734Y-87969903D01*
X187300736Y-87969902D01*
X187309496Y-87967896D01*
X187340951Y-87952076D01*
X187390858Y-87926975D01*
X187444531Y-87899980D01*
X187451357Y-87894150D01*
X187451360Y-87894148D01*
X187520168Y-87835380D01*
X187559469Y-87801814D01*
X187609424Y-87732294D01*
X187642430Y-87686362D01*
X187642431Y-87686360D01*
X187647673Y-87679065D01*
X187662875Y-87641250D01*
X187700700Y-87547155D01*
X187704051Y-87538820D01*
X187719178Y-87432535D01*
X187749438Y-87361591D01*
X187761332Y-87348171D01*
X187999394Y-87110109D01*
X188012507Y-87098456D01*
X188029364Y-87085167D01*
X188029364Y-87085166D01*
X188038110Y-87078272D01*
X188071256Y-87030314D01*
X188073974Y-87026510D01*
X188102018Y-86988542D01*
X188102019Y-86988541D01*
X188108635Y-86979583D01*
X188111029Y-86972766D01*
X188115131Y-86966831D01*
X188120560Y-86949667D01*
X188132706Y-86911261D01*
X188134172Y-86906864D01*
X188153520Y-86851769D01*
X188153804Y-86844552D01*
X188155980Y-86837670D01*
X188156500Y-86831063D01*
X188156500Y-86778854D01*
X188156615Y-86773004D01*
X188158402Y-86727534D01*
X188158402Y-86727532D01*
X188158839Y-86716406D01*
X188156880Y-86709019D01*
X188156500Y-86702111D01*
X188156500Y-79298997D01*
X188176462Y-79224497D01*
X188231000Y-79169959D01*
X188305500Y-79149997D01*
X188380000Y-79169959D01*
G37*
G04 #@! TD.AperFunction*
G04 #@! TA.AperFunction,Conductor*
G36*
X177711182Y-87929362D02*
G01*
X177742041Y-87953041D01*
X177984959Y-88195959D01*
X178023523Y-88262754D01*
X178028600Y-88301318D01*
X178028600Y-93827600D01*
X178968400Y-95377000D01*
X180318000Y-95377000D01*
X180392500Y-95396962D01*
X180447038Y-95451500D01*
X180467000Y-95526000D01*
X180467000Y-96040800D01*
X180447038Y-96115300D01*
X180392500Y-96169838D01*
X180318000Y-96189800D01*
X178699918Y-96189800D01*
X178625418Y-96169838D01*
X178594559Y-96146159D01*
X176885600Y-94437200D01*
X174084326Y-94437200D01*
X174009826Y-94417238D01*
X173955288Y-94362700D01*
X173938821Y-94320282D01*
X173866495Y-93992257D01*
X173863000Y-93960175D01*
X173863000Y-92659200D01*
X173558200Y-92354400D01*
X172553118Y-92354400D01*
X172478618Y-92334438D01*
X172447759Y-92310759D01*
X170045841Y-89908841D01*
X170007277Y-89842046D01*
X170002200Y-89803482D01*
X170002200Y-88301318D01*
X170022162Y-88226818D01*
X170045841Y-88195959D01*
X170288759Y-87953041D01*
X170355554Y-87914477D01*
X170394118Y-87909400D01*
X177636682Y-87909400D01*
X177711182Y-87929362D01*
G37*
G04 #@! TD.AperFunction*
G04 #@! TA.AperFunction,Conductor*
G36*
X184243979Y-68748751D02*
G01*
X184290128Y-68810549D01*
X184296152Y-68829088D01*
X184301395Y-68849730D01*
X184330845Y-68965690D01*
X184333703Y-68971890D01*
X184333705Y-68971895D01*
X184371234Y-69053301D01*
X184419369Y-69157714D01*
X184541405Y-69330391D01*
X184692865Y-69477937D01*
X184868677Y-69595411D01*
X184879314Y-69599981D01*
X184939885Y-69647729D01*
X184968467Y-69719365D01*
X184969500Y-69736882D01*
X184969500Y-75910428D01*
X184968467Y-75927941D01*
X184964636Y-75960310D01*
X184966637Y-75971266D01*
X184966637Y-75971269D01*
X184975111Y-76017668D01*
X184975879Y-76022284D01*
X184984551Y-76079962D01*
X184987679Y-76086475D01*
X184988975Y-76093573D01*
X185004609Y-76123669D01*
X185015843Y-76145296D01*
X185017926Y-76149465D01*
X185043191Y-76202079D01*
X185048094Y-76207383D01*
X185051421Y-76213788D01*
X185055725Y-76218828D01*
X185092657Y-76255760D01*
X185096711Y-76259977D01*
X185135146Y-76301556D01*
X185141754Y-76305394D01*
X185146902Y-76310005D01*
X187211859Y-78374962D01*
X187250423Y-78441757D01*
X187255500Y-78480321D01*
X187255500Y-79324679D01*
X187235538Y-79399179D01*
X187181000Y-79453717D01*
X187106500Y-79473679D01*
X187032000Y-79453717D01*
X187001141Y-79430038D01*
X183374141Y-75803038D01*
X183335577Y-75736243D01*
X183330500Y-75697679D01*
X183330500Y-69733763D01*
X183350462Y-69659263D01*
X183406695Y-69603761D01*
X183528480Y-69535558D01*
X183528481Y-69535557D01*
X183534442Y-69532219D01*
X183697012Y-69397012D01*
X183832219Y-69234442D01*
X183835554Y-69228486D01*
X183835558Y-69228481D01*
X183892891Y-69126105D01*
X183935537Y-69049955D01*
X183974054Y-68936487D01*
X184001311Y-68856192D01*
X184001312Y-68856187D01*
X184003504Y-68849730D01*
X184004483Y-68842977D01*
X184006079Y-68836329D01*
X184007585Y-68836691D01*
X184034723Y-68773523D01*
X184096521Y-68727374D01*
X184173114Y-68718306D01*
X184243979Y-68748751D01*
G37*
G04 #@! TD.AperFunction*
G04 #@! TA.AperFunction,Conductor*
G36*
X194403979Y-68748751D02*
G01*
X194450128Y-68810549D01*
X194456152Y-68829088D01*
X194461395Y-68849730D01*
X194490845Y-68965690D01*
X194493703Y-68971890D01*
X194493705Y-68971895D01*
X194531234Y-69053301D01*
X194579369Y-69157714D01*
X194701405Y-69330391D01*
X194852865Y-69477937D01*
X195028677Y-69595411D01*
X195039314Y-69599981D01*
X195099885Y-69647729D01*
X195128467Y-69719365D01*
X195129500Y-69736882D01*
X195129500Y-71125679D01*
X195109538Y-71200179D01*
X195085859Y-71231038D01*
X189825606Y-76491291D01*
X189812493Y-76502944D01*
X189786890Y-76523128D01*
X189780558Y-76532290D01*
X189780556Y-76532292D01*
X189753741Y-76571090D01*
X189751020Y-76574898D01*
X189716366Y-76621816D01*
X189713973Y-76628632D01*
X189709869Y-76634569D01*
X189706510Y-76645190D01*
X189692286Y-76690165D01*
X189690813Y-76694580D01*
X189671481Y-76749631D01*
X189671198Y-76756845D01*
X189669020Y-76763730D01*
X189668500Y-76770337D01*
X189668500Y-76822571D01*
X189668385Y-76828421D01*
X189666917Y-76865791D01*
X189666162Y-76884994D01*
X189668120Y-76892379D01*
X189668500Y-76899282D01*
X189668500Y-78060548D01*
X189648538Y-78135048D01*
X189594000Y-78189586D01*
X189519500Y-78209548D01*
X189486447Y-78204315D01*
X189486188Y-78205534D01*
X189324299Y-78171124D01*
X189324298Y-78171124D01*
X189316658Y-78169500D01*
X189143342Y-78169500D01*
X189135702Y-78171124D01*
X189135701Y-78171124D01*
X188981456Y-78203909D01*
X188981454Y-78203910D01*
X188973812Y-78205534D01*
X188966677Y-78208711D01*
X188966673Y-78208712D01*
X188874374Y-78249807D01*
X188815479Y-78276029D01*
X188809160Y-78280620D01*
X188690018Y-78367182D01*
X188675263Y-78377902D01*
X188559291Y-78506701D01*
X188472632Y-78656798D01*
X188470222Y-78664216D01*
X188470220Y-78664220D01*
X188447208Y-78735046D01*
X188405201Y-78799731D01*
X188336479Y-78834747D01*
X188259457Y-78830711D01*
X188194772Y-78788704D01*
X188159756Y-78719982D01*
X188156500Y-78689003D01*
X188156500Y-78267571D01*
X188157533Y-78250058D01*
X188160055Y-78228749D01*
X188161364Y-78217689D01*
X188150891Y-78160347D01*
X188150122Y-78155728D01*
X188147013Y-78135048D01*
X188141449Y-78098038D01*
X188138321Y-78091525D01*
X188137025Y-78084427D01*
X188110146Y-78032681D01*
X188108069Y-78028525D01*
X188082809Y-77975921D01*
X188077907Y-77970618D01*
X188074579Y-77964211D01*
X188070275Y-77959172D01*
X188033343Y-77922240D01*
X188029288Y-77918022D01*
X187998415Y-77884623D01*
X187998413Y-77884622D01*
X187990854Y-77876444D01*
X187984246Y-77872606D01*
X187979098Y-77867995D01*
X185914141Y-75803038D01*
X185875577Y-75736243D01*
X185870500Y-75697679D01*
X185870500Y-69733763D01*
X185890462Y-69659263D01*
X185946695Y-69603761D01*
X186068480Y-69535558D01*
X186068481Y-69535557D01*
X186074442Y-69532219D01*
X186237012Y-69397012D01*
X186372219Y-69234442D01*
X186375554Y-69228486D01*
X186375558Y-69228481D01*
X186432891Y-69126105D01*
X186475537Y-69049955D01*
X186514054Y-68936487D01*
X186541311Y-68856192D01*
X186541312Y-68856187D01*
X186543504Y-68849730D01*
X186544483Y-68842977D01*
X186546079Y-68836329D01*
X186547585Y-68836691D01*
X186574723Y-68773523D01*
X186636521Y-68727374D01*
X186713114Y-68718306D01*
X186783979Y-68748751D01*
X186830128Y-68810549D01*
X186836152Y-68829088D01*
X186841395Y-68849730D01*
X186870845Y-68965690D01*
X186873703Y-68971890D01*
X186873705Y-68971895D01*
X186911234Y-69053301D01*
X186959369Y-69157714D01*
X187081405Y-69330391D01*
X187232865Y-69477937D01*
X187408677Y-69595411D01*
X187602953Y-69678878D01*
X187809186Y-69725544D01*
X187860544Y-69727562D01*
X188013641Y-69733578D01*
X188013645Y-69733578D01*
X188020470Y-69733846D01*
X188229730Y-69703504D01*
X188236187Y-69701312D01*
X188236192Y-69701311D01*
X188410500Y-69642141D01*
X188429955Y-69635537D01*
X188524713Y-69582470D01*
X188608481Y-69535558D01*
X188608486Y-69535554D01*
X188614442Y-69532219D01*
X188777012Y-69397012D01*
X188912219Y-69234442D01*
X188915554Y-69228486D01*
X188915558Y-69228481D01*
X188972891Y-69126105D01*
X189015537Y-69049955D01*
X189054054Y-68936487D01*
X189081311Y-68856192D01*
X189081312Y-68856187D01*
X189083504Y-68849730D01*
X189084483Y-68842977D01*
X189086079Y-68836329D01*
X189087585Y-68836691D01*
X189114723Y-68773523D01*
X189176521Y-68727374D01*
X189253114Y-68718306D01*
X189323979Y-68748751D01*
X189370128Y-68810549D01*
X189376152Y-68829088D01*
X189381395Y-68849730D01*
X189410845Y-68965690D01*
X189413703Y-68971890D01*
X189413705Y-68971895D01*
X189451234Y-69053301D01*
X189499369Y-69157714D01*
X189621405Y-69330391D01*
X189772865Y-69477937D01*
X189948677Y-69595411D01*
X190142953Y-69678878D01*
X190349186Y-69725544D01*
X190400544Y-69727562D01*
X190553641Y-69733578D01*
X190553645Y-69733578D01*
X190560470Y-69733846D01*
X190769730Y-69703504D01*
X190776187Y-69701312D01*
X190776192Y-69701311D01*
X190950500Y-69642141D01*
X190969955Y-69635537D01*
X191064713Y-69582470D01*
X191148481Y-69535558D01*
X191148486Y-69535554D01*
X191154442Y-69532219D01*
X191317012Y-69397012D01*
X191452219Y-69234442D01*
X191455554Y-69228486D01*
X191455558Y-69228481D01*
X191512891Y-69126105D01*
X191555537Y-69049955D01*
X191594054Y-68936487D01*
X191621311Y-68856192D01*
X191621312Y-68856187D01*
X191623504Y-68849730D01*
X191624483Y-68842977D01*
X191626079Y-68836329D01*
X191627585Y-68836691D01*
X191654723Y-68773523D01*
X191716521Y-68727374D01*
X191793114Y-68718306D01*
X191863979Y-68748751D01*
X191910128Y-68810549D01*
X191916152Y-68829088D01*
X191921395Y-68849730D01*
X191950845Y-68965690D01*
X191953703Y-68971890D01*
X191953705Y-68971895D01*
X191991234Y-69053301D01*
X192039369Y-69157714D01*
X192161405Y-69330391D01*
X192312865Y-69477937D01*
X192488677Y-69595411D01*
X192682953Y-69678878D01*
X192889186Y-69725544D01*
X192940544Y-69727562D01*
X193093641Y-69733578D01*
X193093645Y-69733578D01*
X193100470Y-69733846D01*
X193309730Y-69703504D01*
X193316187Y-69701312D01*
X193316192Y-69701311D01*
X193490500Y-69642141D01*
X193509955Y-69635537D01*
X193604713Y-69582470D01*
X193688481Y-69535558D01*
X193688486Y-69535554D01*
X193694442Y-69532219D01*
X193857012Y-69397012D01*
X193992219Y-69234442D01*
X193995554Y-69228486D01*
X193995558Y-69228481D01*
X194052891Y-69126105D01*
X194095537Y-69049955D01*
X194134054Y-68936487D01*
X194161311Y-68856192D01*
X194161312Y-68856187D01*
X194163504Y-68849730D01*
X194164483Y-68842977D01*
X194166079Y-68836329D01*
X194167585Y-68836691D01*
X194194723Y-68773523D01*
X194256521Y-68727374D01*
X194333114Y-68718306D01*
X194403979Y-68748751D01*
G37*
G04 #@! TD.AperFunction*
M02*
