G04 #@! TF.GenerationSoftware,KiCad,Pcbnew,(6.0.0)*
G04 #@! TF.CreationDate,2022-05-20T23:18:51+02:00*
G04 #@! TF.ProjectId,STM32F103_uC_v1,53544d33-3246-4313-9033-5f75435f7631,rev?*
G04 #@! TF.SameCoordinates,Original*
G04 #@! TF.FileFunction,Soldermask,Top*
G04 #@! TF.FilePolarity,Negative*
%FSLAX46Y46*%
G04 Gerber Fmt 4.6, Leading zero omitted, Abs format (unit mm)*
G04 Created by KiCad (PCBNEW (6.0.0)) date 2022-05-20 23:18:51*
%MOMM*%
%LPD*%
G01*
G04 APERTURE LIST*
G04 Aperture macros list*
%AMRoundRect*
0 Rectangle with rounded corners*
0 $1 Rounding radius*
0 $2 $3 $4 $5 $6 $7 $8 $9 X,Y pos of 4 corners*
0 Add a 4 corners polygon primitive as box body*
4,1,4,$2,$3,$4,$5,$6,$7,$8,$9,$2,$3,0*
0 Add four circle primitives for the rounded corners*
1,1,$1+$1,$2,$3*
1,1,$1+$1,$4,$5*
1,1,$1+$1,$6,$7*
1,1,$1+$1,$8,$9*
0 Add four rect primitives between the rounded corners*
20,1,$1+$1,$2,$3,$4,$5,0*
20,1,$1+$1,$4,$5,$6,$7,0*
20,1,$1+$1,$6,$7,$8,$9,0*
20,1,$1+$1,$8,$9,$2,$3,0*%
G04 Aperture macros list end*
%ADD10C,0.250000*%
%ADD11C,0.100000*%
%ADD12C,0.150000*%
%ADD13R,1.750000X1.800000*%
%ADD14RoundRect,0.250000X-0.475000X0.337500X-0.475000X-0.337500X0.475000X-0.337500X0.475000X0.337500X0*%
%ADD15RoundRect,0.250000X0.337500X0.475000X-0.337500X0.475000X-0.337500X-0.475000X0.337500X-0.475000X0*%
%ADD16RoundRect,0.250000X-0.337500X-0.475000X0.337500X-0.475000X0.337500X0.475000X-0.337500X0.475000X0*%
%ADD17RoundRect,0.250000X0.450000X-0.325000X0.450000X0.325000X-0.450000X0.325000X-0.450000X-0.325000X0*%
%ADD18RoundRect,0.250000X-0.450000X0.325000X-0.450000X-0.325000X0.450000X-0.325000X0.450000X0.325000X0*%
%ADD19R,1.800000X0.800000*%
%ADD20RoundRect,0.250000X-0.350000X-0.450000X0.350000X-0.450000X0.350000X0.450000X-0.350000X0.450000X0*%
%ADD21RoundRect,0.250000X0.450000X-0.350000X0.450000X0.350000X-0.450000X0.350000X-0.450000X-0.350000X0*%
%ADD22C,3.200000*%
%ADD23R,3.500000X3.500000*%
%ADD24RoundRect,0.750000X-0.750000X-1.000000X0.750000X-1.000000X0.750000X1.000000X-0.750000X1.000000X0*%
%ADD25RoundRect,0.875000X-0.875000X-0.875000X0.875000X-0.875000X0.875000X0.875000X-0.875000X0.875000X0*%
%ADD26RoundRect,0.250001X-0.624999X0.462499X-0.624999X-0.462499X0.624999X-0.462499X0.624999X0.462499X0*%
%ADD27RoundRect,0.250000X0.350000X0.450000X-0.350000X0.450000X-0.350000X-0.450000X0.350000X-0.450000X0*%
%ADD28C,1.100000*%
%ADD29R,2.200000X2.200000*%
%ADD30C,2.200000*%
%ADD31RoundRect,0.250000X-0.450000X0.350000X-0.450000X-0.350000X0.450000X-0.350000X0.450000X0.350000X0*%
%ADD32R,2.400000X3.325000*%
%ADD33RoundRect,0.075000X-0.662500X-0.075000X0.662500X-0.075000X0.662500X0.075000X-0.662500X0.075000X0*%
%ADD34RoundRect,0.075000X-0.075000X-0.662500X0.075000X-0.662500X0.075000X0.662500X-0.075000X0.662500X0*%
%ADD35RoundRect,0.250000X0.475000X-0.337500X0.475000X0.337500X-0.475000X0.337500X-0.475000X-0.337500X0*%
%ADD36R,1.700000X1.700000*%
%ADD37O,1.700000X1.700000*%
%ADD38C,0.700000*%
%ADD39O,1.700000X0.900000*%
%ADD40O,2.400000X0.900000*%
%ADD41RoundRect,0.250001X-0.462499X-0.624999X0.462499X-0.624999X0.462499X0.624999X-0.462499X0.624999X0*%
%ADD42R,1.500000X2.000000*%
%ADD43R,3.800000X2.000000*%
%ADD44RoundRect,0.150000X-0.150000X0.825000X-0.150000X-0.825000X0.150000X-0.825000X0.150000X0.825000X0*%
%ADD45R,2.800000X1.000000*%
G04 APERTURE END LIST*
D10*
X173024800Y-98145600D02*
X173024800Y-101904800D01*
X170129200Y-89814400D02*
X172110400Y-91795600D01*
D11*
X167016200Y-95876800D02*
X162066200Y-95876800D01*
X164491200Y-91676800D02*
X164491200Y-102176800D01*
D10*
X168198800Y-102209600D02*
X167386000Y-101396800D01*
X172110400Y-91795600D02*
X172110400Y-92202000D01*
X177901600Y-93878400D02*
X177901600Y-88290400D01*
X177088800Y-97129600D02*
X175615600Y-97129600D01*
X170383200Y-88036400D02*
X170129200Y-88290400D01*
X167386000Y-101396800D02*
X167386000Y-93776800D01*
X168503600Y-92659200D02*
X172770800Y-92659200D01*
X172720000Y-102209600D02*
X168198800Y-102209600D01*
X170129200Y-88290400D02*
X170129200Y-89814400D01*
X175615600Y-97129600D02*
X175437800Y-96951800D01*
X175437800Y-96951800D02*
X175133000Y-96951800D01*
X173329600Y-93980000D02*
X173329600Y-93218000D01*
X174040800Y-97129600D02*
X173024800Y-98145600D01*
X177901600Y-88290400D02*
X177647600Y-88036400D01*
X173329600Y-93218000D02*
X172770800Y-92659200D01*
X174955200Y-97129600D02*
X175133000Y-96951800D01*
D11*
X162066200Y-91676800D02*
X167016200Y-91676800D01*
X167016200Y-91676800D02*
X167016200Y-102176800D01*
X167016200Y-102176800D02*
X162066200Y-102176800D01*
X162066200Y-102176800D02*
X162066200Y-91676800D01*
X167016200Y-100076800D02*
X162066200Y-100076800D01*
D10*
X177647600Y-88036400D02*
X170383200Y-88036400D01*
X173024800Y-101904800D02*
X172720000Y-102209600D01*
D11*
X167016200Y-97976800D02*
X162066200Y-97976800D01*
D10*
X167386000Y-93776800D02*
X168503600Y-92659200D01*
D11*
X167016200Y-93776800D02*
X162066200Y-93776800D01*
D10*
X178257200Y-94234000D02*
X177901600Y-93878400D01*
X174955200Y-97129600D02*
X174040800Y-97129600D01*
D11*
X164816200Y-94416085D02*
X165066200Y-95166085D01*
X165316200Y-94416085D01*
X165566200Y-95166085D02*
X165566200Y-94416085D01*
X165744771Y-94416085D01*
X165851914Y-94451800D01*
X165923342Y-94523228D01*
X165959057Y-94594657D01*
X165994771Y-94737514D01*
X165994771Y-94844657D01*
X165959057Y-94987514D01*
X165923342Y-95058942D01*
X165851914Y-95130371D01*
X165744771Y-95166085D01*
X165566200Y-95166085D01*
X166316200Y-95166085D02*
X166316200Y-94416085D01*
X166494771Y-94416085D01*
X166601914Y-94451800D01*
X166673342Y-94523228D01*
X166709057Y-94594657D01*
X166744771Y-94737514D01*
X166744771Y-94844657D01*
X166709057Y-94987514D01*
X166673342Y-95058942D01*
X166601914Y-95130371D01*
X166494771Y-95166085D01*
X166316200Y-95166085D01*
X162855485Y-101466085D02*
X162605485Y-101108942D01*
X162426914Y-101466085D02*
X162426914Y-100716085D01*
X162712628Y-100716085D01*
X162784057Y-100751800D01*
X162819771Y-100787514D01*
X162855485Y-100858942D01*
X162855485Y-100966085D01*
X162819771Y-101037514D01*
X162784057Y-101073228D01*
X162712628Y-101108942D01*
X162426914Y-101108942D01*
X163141200Y-101430371D02*
X163248342Y-101466085D01*
X163426914Y-101466085D01*
X163498342Y-101430371D01*
X163534057Y-101394657D01*
X163569771Y-101323228D01*
X163569771Y-101251800D01*
X163534057Y-101180371D01*
X163498342Y-101144657D01*
X163426914Y-101108942D01*
X163284057Y-101073228D01*
X163212628Y-101037514D01*
X163176914Y-101001800D01*
X163141200Y-100930371D01*
X163141200Y-100858942D01*
X163176914Y-100787514D01*
X163212628Y-100751800D01*
X163284057Y-100716085D01*
X163462628Y-100716085D01*
X163569771Y-100751800D01*
X163784057Y-100716085D02*
X164212628Y-100716085D01*
X163998342Y-101466085D02*
X163998342Y-100716085D01*
X165226914Y-93066085D02*
X165226914Y-92316085D01*
X165655485Y-93066085D01*
X165655485Y-92316085D01*
X166441200Y-92994657D02*
X166405485Y-93030371D01*
X166298342Y-93066085D01*
X166226914Y-93066085D01*
X166119771Y-93030371D01*
X166048342Y-92958942D01*
X166012628Y-92887514D01*
X165976914Y-92744657D01*
X165976914Y-92637514D01*
X166012628Y-92494657D01*
X166048342Y-92423228D01*
X166119771Y-92351800D01*
X166226914Y-92316085D01*
X166298342Y-92316085D01*
X166405485Y-92351800D01*
X166441200Y-92387514D01*
X162230485Y-97230371D02*
X162337628Y-97266085D01*
X162516200Y-97266085D01*
X162587628Y-97230371D01*
X162623342Y-97194657D01*
X162659057Y-97123228D01*
X162659057Y-97051800D01*
X162623342Y-96980371D01*
X162587628Y-96944657D01*
X162516200Y-96908942D01*
X162373342Y-96873228D01*
X162301914Y-96837514D01*
X162266200Y-96801800D01*
X162230485Y-96730371D01*
X162230485Y-96658942D01*
X162266200Y-96587514D01*
X162301914Y-96551800D01*
X162373342Y-96516085D01*
X162551914Y-96516085D01*
X162659057Y-96551800D01*
X162909057Y-96516085D02*
X163087628Y-97266085D01*
X163230485Y-96730371D01*
X163373342Y-97266085D01*
X163551914Y-96516085D01*
X163980485Y-96516085D02*
X164123342Y-96516085D01*
X164194771Y-96551800D01*
X164266200Y-96623228D01*
X164301914Y-96766085D01*
X164301914Y-97016085D01*
X164266200Y-97158942D01*
X164194771Y-97230371D01*
X164123342Y-97266085D01*
X163980485Y-97266085D01*
X163909057Y-97230371D01*
X163837628Y-97158942D01*
X163801914Y-97016085D01*
X163801914Y-96766085D01*
X163837628Y-96623228D01*
X163909057Y-96551800D01*
X163980485Y-96516085D01*
X165244771Y-98651800D02*
X165173342Y-98616085D01*
X165066200Y-98616085D01*
X164959057Y-98651800D01*
X164887628Y-98723228D01*
X164851914Y-98794657D01*
X164816200Y-98937514D01*
X164816200Y-99044657D01*
X164851914Y-99187514D01*
X164887628Y-99258942D01*
X164959057Y-99330371D01*
X165066200Y-99366085D01*
X165137628Y-99366085D01*
X165244771Y-99330371D01*
X165280485Y-99294657D01*
X165280485Y-99044657D01*
X165137628Y-99044657D01*
X165601914Y-99366085D02*
X165601914Y-98616085D01*
X166030485Y-99366085D01*
X166030485Y-98616085D01*
X166387628Y-99366085D02*
X166387628Y-98616085D01*
X166566200Y-98616085D01*
X166673342Y-98651800D01*
X166744771Y-98723228D01*
X166780485Y-98794657D01*
X166816200Y-98937514D01*
X166816200Y-99044657D01*
X166780485Y-99187514D01*
X166744771Y-99258942D01*
X166673342Y-99330371D01*
X166566200Y-99366085D01*
X166387628Y-99366085D01*
X162266200Y-94416085D02*
X162516200Y-95166085D01*
X162766200Y-94416085D01*
X163016200Y-95166085D02*
X163016200Y-94416085D01*
X163194771Y-94416085D01*
X163301914Y-94451800D01*
X163373342Y-94523228D01*
X163409057Y-94594657D01*
X163444771Y-94737514D01*
X163444771Y-94844657D01*
X163409057Y-94987514D01*
X163373342Y-95058942D01*
X163301914Y-95130371D01*
X163194771Y-95166085D01*
X163016200Y-95166085D01*
X163766200Y-95166085D02*
X163766200Y-94416085D01*
X163944771Y-94416085D01*
X164051914Y-94451800D01*
X164123342Y-94523228D01*
X164159057Y-94594657D01*
X164194771Y-94737514D01*
X164194771Y-94844657D01*
X164159057Y-94987514D01*
X164123342Y-95058942D01*
X164051914Y-95130371D01*
X163944771Y-95166085D01*
X163766200Y-95166085D01*
X164684057Y-100980371D02*
X164791200Y-101016085D01*
X164969771Y-101016085D01*
X165041200Y-100980371D01*
X165076914Y-100944657D01*
X165112628Y-100873228D01*
X165112628Y-100801800D01*
X165076914Y-100730371D01*
X165041200Y-100694657D01*
X164969771Y-100658942D01*
X164826914Y-100623228D01*
X164755485Y-100587514D01*
X164719771Y-100551800D01*
X164684057Y-100480371D01*
X164684057Y-100408942D01*
X164719771Y-100337514D01*
X164755485Y-100301800D01*
X164826914Y-100266085D01*
X165005485Y-100266085D01*
X165112628Y-100301800D01*
X165362628Y-100266085D02*
X165541200Y-101016085D01*
X165684057Y-100480371D01*
X165826914Y-101016085D01*
X166005485Y-100266085D01*
X166291200Y-100730371D02*
X166862628Y-100730371D01*
X164684057Y-96780371D02*
X164791200Y-96816085D01*
X164969771Y-96816085D01*
X165041200Y-96780371D01*
X165076914Y-96744657D01*
X165112628Y-96673228D01*
X165112628Y-96601800D01*
X165076914Y-96530371D01*
X165041200Y-96494657D01*
X164969771Y-96458942D01*
X164826914Y-96423228D01*
X164755485Y-96387514D01*
X164719771Y-96351800D01*
X164684057Y-96280371D01*
X164684057Y-96208942D01*
X164719771Y-96137514D01*
X164755485Y-96101800D01*
X164826914Y-96066085D01*
X165005485Y-96066085D01*
X165112628Y-96101800D01*
X165362628Y-96066085D02*
X165541200Y-96816085D01*
X165684057Y-96280371D01*
X165826914Y-96816085D01*
X166005485Y-96066085D01*
X166291200Y-96530371D02*
X166862628Y-96530371D01*
X162676914Y-93066085D02*
X162676914Y-92316085D01*
X163105485Y-93066085D01*
X163105485Y-92316085D01*
X163891200Y-92994657D02*
X163855485Y-93030371D01*
X163748342Y-93066085D01*
X163676914Y-93066085D01*
X163569771Y-93030371D01*
X163498342Y-92958942D01*
X163462628Y-92887514D01*
X163426914Y-92744657D01*
X163426914Y-92637514D01*
X163462628Y-92494657D01*
X163498342Y-92423228D01*
X163569771Y-92351800D01*
X163676914Y-92316085D01*
X163748342Y-92316085D01*
X163855485Y-92351800D01*
X163891200Y-92387514D01*
X165023342Y-101991085D02*
X165023342Y-101241085D01*
X165201914Y-101241085D01*
X165309057Y-101276800D01*
X165380485Y-101348228D01*
X165416200Y-101419657D01*
X165451914Y-101562514D01*
X165451914Y-101669657D01*
X165416200Y-101812514D01*
X165380485Y-101883942D01*
X165309057Y-101955371D01*
X165201914Y-101991085D01*
X165023342Y-101991085D01*
X165773342Y-101991085D02*
X165773342Y-101241085D01*
X166273342Y-101241085D02*
X166416200Y-101241085D01*
X166487628Y-101276800D01*
X166559057Y-101348228D01*
X166594771Y-101491085D01*
X166594771Y-101741085D01*
X166559057Y-101883942D01*
X166487628Y-101955371D01*
X166416200Y-101991085D01*
X166273342Y-101991085D01*
X166201914Y-101955371D01*
X166130485Y-101883942D01*
X166094771Y-101741085D01*
X166094771Y-101491085D01*
X166130485Y-101348228D01*
X166201914Y-101276800D01*
X166273342Y-101241085D01*
D12*
X162398342Y-91429180D02*
X162398342Y-90429180D01*
X162779295Y-90429180D01*
X162874533Y-90476800D01*
X162922152Y-90524419D01*
X162969771Y-90619657D01*
X162969771Y-90762514D01*
X162922152Y-90857752D01*
X162874533Y-90905371D01*
X162779295Y-90952990D01*
X162398342Y-90952990D01*
X163398342Y-91429180D02*
X163398342Y-90762514D01*
X163398342Y-90429180D02*
X163350723Y-90476800D01*
X163398342Y-90524419D01*
X163445961Y-90476800D01*
X163398342Y-90429180D01*
X163398342Y-90524419D01*
X163874533Y-90762514D02*
X163874533Y-91429180D01*
X163874533Y-90857752D02*
X163922152Y-90810133D01*
X164017390Y-90762514D01*
X164160247Y-90762514D01*
X164255485Y-90810133D01*
X164303104Y-90905371D01*
X164303104Y-91429180D01*
X164922152Y-91429180D02*
X164826914Y-91381561D01*
X164779295Y-91333942D01*
X164731676Y-91238704D01*
X164731676Y-90952990D01*
X164779295Y-90857752D01*
X164826914Y-90810133D01*
X164922152Y-90762514D01*
X165065009Y-90762514D01*
X165160247Y-90810133D01*
X165207866Y-90857752D01*
X165255485Y-90952990D01*
X165255485Y-91238704D01*
X165207866Y-91333942D01*
X165160247Y-91381561D01*
X165065009Y-91429180D01*
X164922152Y-91429180D01*
X166112628Y-90762514D02*
X166112628Y-91429180D01*
X165684057Y-90762514D02*
X165684057Y-91286323D01*
X165731676Y-91381561D01*
X165826914Y-91429180D01*
X165969771Y-91429180D01*
X166065009Y-91381561D01*
X166112628Y-91333942D01*
X166445961Y-90762514D02*
X166826914Y-90762514D01*
X166588819Y-90429180D02*
X166588819Y-91286323D01*
X166636438Y-91381561D01*
X166731676Y-91429180D01*
X166826914Y-91429180D01*
D11*
X165344771Y-97719657D02*
X165309057Y-97755371D01*
X165201914Y-97791085D01*
X165130485Y-97791085D01*
X165023342Y-97755371D01*
X164951914Y-97683942D01*
X164916200Y-97612514D01*
X164880485Y-97469657D01*
X164880485Y-97362514D01*
X164916200Y-97219657D01*
X164951914Y-97148228D01*
X165023342Y-97076800D01*
X165130485Y-97041085D01*
X165201914Y-97041085D01*
X165309057Y-97076800D01*
X165344771Y-97112514D01*
X166023342Y-97791085D02*
X165666200Y-97791085D01*
X165666200Y-97041085D01*
X166273342Y-97791085D02*
X166273342Y-97041085D01*
X166701914Y-97791085D02*
X166380485Y-97362514D01*
X166701914Y-97041085D02*
X166273342Y-97469657D01*
X162694771Y-98651800D02*
X162623342Y-98616085D01*
X162516200Y-98616085D01*
X162409057Y-98651800D01*
X162337628Y-98723228D01*
X162301914Y-98794657D01*
X162266200Y-98937514D01*
X162266200Y-99044657D01*
X162301914Y-99187514D01*
X162337628Y-99258942D01*
X162409057Y-99330371D01*
X162516200Y-99366085D01*
X162587628Y-99366085D01*
X162694771Y-99330371D01*
X162730485Y-99294657D01*
X162730485Y-99044657D01*
X162587628Y-99044657D01*
X163051914Y-99366085D02*
X163051914Y-98616085D01*
X163480485Y-99366085D01*
X163480485Y-98616085D01*
X163837628Y-99366085D02*
X163837628Y-98616085D01*
X164016200Y-98616085D01*
X164123342Y-98651800D01*
X164194771Y-98723228D01*
X164230485Y-98794657D01*
X164266200Y-98937514D01*
X164266200Y-99044657D01*
X164230485Y-99187514D01*
X164194771Y-99258942D01*
X164123342Y-99330371D01*
X164016200Y-99366085D01*
X163837628Y-99366085D01*
D13*
X173381000Y-91440000D03*
X176631000Y-91440000D03*
D14*
X190246000Y-92942500D03*
X190246000Y-95017500D03*
D15*
X173122500Y-89052400D03*
X171047500Y-89052400D03*
X189251500Y-83312000D03*
X187176500Y-83312000D03*
D16*
X195812500Y-88519000D03*
X197887500Y-88519000D03*
D17*
X176022000Y-104149000D03*
X176022000Y-102099000D03*
D18*
X181229000Y-79112000D03*
X181229000Y-81162000D03*
D16*
X183112500Y-83312000D03*
X185187500Y-83312000D03*
D19*
X191515000Y-87183000D03*
X191515000Y-85283000D03*
X188215000Y-86233000D03*
D20*
X174514000Y-93726000D03*
X176514000Y-93726000D03*
D16*
X200511500Y-94742000D03*
X202586500Y-94742000D03*
D14*
X168475000Y-98657500D03*
X168475000Y-100732500D03*
D21*
X172720000Y-74914000D03*
X172720000Y-72914000D03*
D22*
X160000000Y-74500000D03*
D23*
X166401000Y-83185000D03*
D24*
X160401000Y-83185000D03*
D25*
X163401000Y-87885000D03*
D26*
X191516000Y-80300500D03*
X191516000Y-83275500D03*
D27*
X196072000Y-80645000D03*
X194072000Y-80645000D03*
X185785000Y-106172000D03*
X183785000Y-106172000D03*
D28*
X205867000Y-87630000D03*
X205867000Y-90170000D03*
D29*
X203327000Y-90170000D03*
D30*
X203327000Y-87630000D03*
D21*
X193929000Y-100695000D03*
X193929000Y-98695000D03*
D31*
X179070000Y-72914000D03*
X179070000Y-74914000D03*
D32*
X171450000Y-100171500D03*
X171450000Y-94646500D03*
D14*
X190373000Y-101959500D03*
X190373000Y-104034500D03*
D33*
X179733500Y-94532000D03*
X179733500Y-95032000D03*
X179733500Y-95532000D03*
X179733500Y-96032000D03*
X179733500Y-96532000D03*
X179733500Y-97032000D03*
X179733500Y-97532000D03*
X179733500Y-98032000D03*
X179733500Y-98532000D03*
X179733500Y-99032000D03*
X179733500Y-99532000D03*
X179733500Y-100032000D03*
D34*
X181146000Y-101444500D03*
X181646000Y-101444500D03*
X182146000Y-101444500D03*
X182646000Y-101444500D03*
X183146000Y-101444500D03*
X183646000Y-101444500D03*
X184146000Y-101444500D03*
X184646000Y-101444500D03*
X185146000Y-101444500D03*
X185646000Y-101444500D03*
X186146000Y-101444500D03*
X186646000Y-101444500D03*
D33*
X188058500Y-100032000D03*
X188058500Y-99532000D03*
X188058500Y-99032000D03*
X188058500Y-98532000D03*
X188058500Y-98032000D03*
X188058500Y-97532000D03*
X188058500Y-97032000D03*
X188058500Y-96532000D03*
X188058500Y-96032000D03*
X188058500Y-95532000D03*
X188058500Y-95032000D03*
X188058500Y-94532000D03*
D34*
X186646000Y-93119500D03*
X186146000Y-93119500D03*
X185646000Y-93119500D03*
X185146000Y-93119500D03*
X184646000Y-93119500D03*
X184146000Y-93119500D03*
X183646000Y-93119500D03*
X183146000Y-93119500D03*
X182646000Y-93119500D03*
X182146000Y-93119500D03*
X181646000Y-93119500D03*
X181146000Y-93119500D03*
D35*
X177038000Y-100097500D03*
X177038000Y-98022500D03*
X168475000Y-96668500D03*
X168475000Y-94593500D03*
D16*
X174959100Y-89052400D03*
X177034100Y-89052400D03*
D21*
X170180000Y-74914000D03*
X170180000Y-72914000D03*
X198247000Y-100695000D03*
X198247000Y-98695000D03*
D36*
X158095000Y-102840000D03*
D37*
X160635000Y-102840000D03*
X158095000Y-100300000D03*
X160635000Y-100300000D03*
X158095000Y-97760000D03*
X160635000Y-97760000D03*
X158095000Y-95220000D03*
X160635000Y-95220000D03*
X158095000Y-92680000D03*
X160635000Y-92680000D03*
D28*
X205867000Y-100730000D03*
X205867000Y-103270000D03*
D29*
X203327000Y-103270000D03*
D30*
X203327000Y-100730000D03*
D35*
X175006000Y-100097500D03*
X175006000Y-98022500D03*
D14*
X188087000Y-101959500D03*
X188087000Y-104034500D03*
D20*
X174260000Y-96139000D03*
X176260000Y-96139000D03*
D38*
X200902200Y-82985000D03*
X200902200Y-82135000D03*
X200902200Y-81285000D03*
X200902200Y-80435000D03*
X200902200Y-79585000D03*
X200902200Y-78735000D03*
X200902200Y-77885000D03*
X200902200Y-77035000D03*
X202252200Y-77035000D03*
X202252200Y-77885000D03*
X202252200Y-78735000D03*
X202252200Y-79585000D03*
X202252200Y-80435000D03*
X202252200Y-81285000D03*
X202252200Y-82135000D03*
X202252200Y-82985000D03*
D39*
X205262200Y-84335000D03*
D40*
X201882200Y-84335000D03*
D39*
X205262200Y-75685000D03*
D40*
X201882200Y-75685000D03*
D35*
X178943000Y-93112500D03*
X178943000Y-91037500D03*
X180975000Y-91080500D03*
X180975000Y-89005500D03*
D41*
X175931500Y-79502000D03*
X178906500Y-79502000D03*
D27*
X185785000Y-108331000D03*
X183785000Y-108331000D03*
D14*
X173355000Y-104880500D03*
X173355000Y-106955500D03*
D22*
X203000000Y-110500000D03*
X160000000Y-110500000D03*
D42*
X183882000Y-80747000D03*
X186182000Y-80747000D03*
D43*
X186182000Y-74447000D03*
D42*
X188482000Y-80747000D03*
D36*
X187198000Y-110998000D03*
D37*
X184658000Y-110998000D03*
X182118000Y-110998000D03*
X179578000Y-110998000D03*
D21*
X170180000Y-79105000D03*
X170180000Y-77105000D03*
X196088000Y-100695000D03*
X196088000Y-98695000D03*
D44*
X198628000Y-91378000D03*
X197358000Y-91378000D03*
X196088000Y-91378000D03*
X194818000Y-91378000D03*
X194818000Y-96328000D03*
X196088000Y-96328000D03*
X197358000Y-96328000D03*
X198628000Y-96328000D03*
D45*
X170667000Y-107664000D03*
X170667000Y-103664000D03*
X164867000Y-107664000D03*
X164867000Y-103664000D03*
D36*
X205740000Y-68580000D03*
D37*
X203200000Y-68580000D03*
X200660000Y-68580000D03*
X198120000Y-68580000D03*
X195580000Y-68580000D03*
X193040000Y-68580000D03*
X190500000Y-68580000D03*
X187960000Y-68580000D03*
X185420000Y-68580000D03*
X182880000Y-68580000D03*
X180340000Y-68580000D03*
X177800000Y-68580000D03*
X175260000Y-68580000D03*
X172720000Y-68580000D03*
X170180000Y-68580000D03*
X167640000Y-68580000D03*
X165100000Y-68580000D03*
X162560000Y-68580000D03*
X160020000Y-68580000D03*
X157480000Y-68580000D03*
D36*
X157480000Y-116840000D03*
D37*
X160020000Y-116840000D03*
X162560000Y-116840000D03*
X165100000Y-116840000D03*
X167640000Y-116840000D03*
X170180000Y-116840000D03*
X172720000Y-116840000D03*
X175260000Y-116840000D03*
X177800000Y-116840000D03*
X180340000Y-116840000D03*
X182880000Y-116840000D03*
X185420000Y-116840000D03*
X187960000Y-116840000D03*
X190500000Y-116840000D03*
X193040000Y-116840000D03*
X195580000Y-116840000D03*
X198120000Y-116840000D03*
X200660000Y-116840000D03*
X203200000Y-116840000D03*
X205740000Y-116840000D03*
M02*
